<?xml version="1.0" encoding="UTF-8" standalone="no"?>
<svg
   xmlns:dc="http://purl.org/dc/elements/1.1/"
   xmlns:cc="http://creativecommons.org/ns#"
   xmlns:rdf="http://www.w3.org/1999/02/22-rdf-syntax-ns#"
   xmlns:svg="http://www.w3.org/2000/svg"
   xmlns="http://www.w3.org/2000/svg"
   xmlns:sodipodi="http://sodipodi.sourceforge.net/DTD/sodipodi-0.dtd"
   xmlns:inkscape="http://www.inkscape.org/namespaces/inkscape"
   width="500"
   height="200"
   viewBox="0 0 500 200"
   version="1.1"
   id="svg6"
   sodipodi:docname="atari.svg"
   style="fill:none"
   inkscape:version="0.92.5 (2060ec1f9f, 2020-04-08)">
  <metadata
     id="metadata12">
    <rdf:RDF>
      <cc:Work
         rdf:about="">
        <dc:format>image/svg+xml</dc:format>
        <dc:type
           rdf:resource="http://purl.org/dc/dcmitype/StillImage" />
        <dc:title />
      </cc:Work>
    </rdf:RDF>
  </metadata>
  <defs
     id="defs10" />
  <sodipodi:namedview
     pagecolor="#ffffff"
     bordercolor="#666666"
     borderopacity="1"
     objecttolerance="10"
     gridtolerance="10"
     guidetolerance="10"
     inkscape:pageopacity="0"
     inkscape:pageshadow="2"
     inkscape:window-width="1366"
     inkscape:window-height="743"
     id="namedview8"
     showgrid="false"
     inkscape:pagecheckerboard="true"
     inkscape:zoom="1.235435"
     inkscape:cx="151.81009"
     inkscape:cy="36.015101"
     inkscape:window-x="0"
     inkscape:window-y="0"
     inkscape:window-maximized="1"
     inkscape:current-layer="svg6" />
  <path
     d="m 48.20139,39.406451 h 12.128817 l 0.04442,43.195599 C 60.405321,116.69097 35.121386,145.07092 2,150.48422 l 0.0445,-19.06521 c 26.529944,-6.62067 46.15689,-30.28295 46.15689,-58.460386 z m 35.184783,0 h 12.128813 v 33.552173 c 0,28.177436 19.626954,51.839716 46.156814,58.460386 l 0.0446,19.06521 C 108.59777,145.07092 83.311059,116.69097 83.344374,82.60205 Z m 406.487277,7.38393 c -1.41282,-2.375296 -4.01945,-3.813797 -6.81424,-3.761572 -4.2107,0.07864 -7.58234,3.461595 -7.58234,7.607699 0,4.146119 3.37164,7.528991 7.58234,7.607652 2.79479,0.05229 5.40142,-1.386291 6.81424,-3.761511 1.41436,-2.375312 1.41436,-5.316955 0,-7.692268 z m -12.7524,3.847762 c 0,-3.228527 2.65906,-5.845761 5.93816,-5.845761 3.2791,0.0015 5.93817,2.616988 5.94279,5.845761 0,3.225441 -2.6606,5.845699 -5.94279,5.845699 -3.2791,0 -5.93816,-2.617173 -5.93816,-5.845699 z m 2.59737,4.276789 h 1.78607 v -3.381468 h 2.09764 c 0.62004,0 1.04728,0.282008 1.07504,0.857008 -0.0278,0.621533 -0.0278,1.303311 0,1.724983 0.0185,0.280744 0.10025,0.55393 0.24061,0.799477 h 1.91564 c -0.0509,-0.11537 -0.0972,-0.207743 -0.13882,-0.290044 -0.11568,-0.228088 -0.1928,-0.379118 -0.1928,-0.731212 -0.003,-0.104419 -0.008,-0.248539 -0.0123,-0.412248 v -10e-4 c -0.0154,-0.519165 -0.037,-1.234367 -0.074,-1.500659 -0.0771,-0.657687 -0.50436,-0.909033 -0.81438,-1.092237 -0.0555,-0.0327 -0.10796,-0.06308 -0.15269,-0.09331 0.5861,-0.339524 0.96707,-0.610598 1.18455,-1.349876 0.2113,-0.739263 0.0339,-1.347115 -0.0864,-1.724967 -0.24986,-0.925475 -1.12902,-1.325229 -1.99892,-1.360827 h -4.82919 z m 4.20298,-7.08605 h -2.41691 v 2.239737 h 2.44467 c 0.31774,-0.02067 0.61079,-0.170048 0.81284,-0.412495 0.20051,-0.242446 0.28997,-0.556167 0.24678,-0.86617 0,-0.610597 -0.2838,-0.961072 -1.08738,-0.961072 z M 63.167262,39.406451 H 80.507937 V 150.52524 H 63.167262 Z m 264.089928,33.429091 10.74268,34.524178 -20.34708,-0.052 z m -14.45982,51.771078 -7.18132,25.77611 H 285.75019 L 313.49762,51.369 c 1.78761,-5.893328 7.29391,-9.931543 13.5421,-9.930956 6.25589,-0.0043 11.77453,4.032507 13.57449,9.930956 l 30.43425,99.15609 -19.71779,-0.14498 -7.97411,-25.73231 z m -107.23554,-51.771078 10.74114,34.524178 -20.34554,-0.0547 z m -14.4629,51.771078 -7.18132,25.77611 H 164.05483 L 191.80071,51.369 c 1.78762,-5.893328 7.29392,-9.931543 13.54056,-9.930956 6.2559,-0.0046 11.77145,4.032816 13.56986,9.930956 l 30.43734,99.15609 -19.71625,-0.14498 -7.97256,-25.73231 z M 441.81904,75.091582 c 0,14.016228 -8.90724,25.981558 -21.45142,30.718358 l 0.0925,0.0438 c -0.19126,0.037 -0.37326,0.10365 -0.54292,0.19712 -0.44421,0.26251 -0.76348,0.68821 -0.88687,1.183 -0.12493,0.4948 -0.0432,1.01797 0.22519,1.45385 l 25.8395,41.84031 h -19.99079 l -23.76038,-38.65869 c -3.967,-6.48293 -1.84777,-14.90525 4.73665,-18.813334 1.23854,-0.733711 2.56961,-1.116992 3.90531,-1.440121 8.21781,-1.427936 13.96009,-8.810077 13.2182,-16.993639 -0.74342,-8.183562 -7.72424,-14.446553 -16.06852,-14.417402 h -11.6619 V 149.90922 H 376.55321 V 60.766107 c 0,-12.449972 6.93609,-18.676331 18.92038,-18.621561 l 12.93286,0.0575 c 18.45304,0 33.41259,14.72523 33.41259,32.889536 z M 234.1406,60.727547 V 42.292229 h 66.02159 v 18.435318 h -23.48274 l -0.0694,89.800323 H 257.69583 V 60.823483 Z M 469.55876,42.201923 H 450.64454 V 150.52787 h 18.91422 z"
     id="path2"
     inkscape:connector-curvature="0"
     style="clip-rule:evenodd;fill:#d40000;fill-rule:evenodd;stroke-width:1.54238045" />
  <path
     d="m 12.678346,197.74791 c 1.577745,-0.002 3.136021,-0.35279 4.566363,-1.02898 1.406545,-0.63044 2.654532,-1.57446 3.650668,-2.7635 v 0 l -2.719847,-2.76351 c -0.667504,0.81502 -1.496555,1.47813 -2.433305,1.94687 -0.918914,0.45079 -1.927772,0.68272 -2.948734,0.67619 -0.861552,0.008 -1.716377,-0.15517 -2.515017,-0.48346 -0.7986388,-0.32829 -1.5252347,-0.81336 -2.1377127,-1.42748 -0.5897767,-0.60269 -1.0557503,-1.31643 -1.3708589,-2.10365 -0.3378428,-0.83396 -0.5079486,-1.7285 -0.5003699,-2.63056 -0.00922,-0.91089 0.1560761,-1.81474 0.4866504,-2.66176 0.3085919,-0.78756 0.765876,-1.50653 1.3461963,-2.1164 0.5819691,-0.60512 1.2780222,-1.08514 2.0467078,-1.41147 0.801024,-0.34512 1.663165,-0.5202 2.533375,-0.51464 1.049461,-0.003 2.0854,0.24024 3.025497,0.71341 0.971718,0.49504 1.822591,1.2034 2.490877,2.07344 v 0 l 2.806132,-2.85219 c -0.986661,-1.21532 -2.242161,-2.17732 -3.664305,-2.8076 -1.461634,-0.68533 -3.052135,-1.04155 -4.662317,-1.04432 -1.438198,-0.009 -2.8640153,0.26999 -4.1948581,0.82317 -1.2608739,0.51889 -2.4121208,1.27788 -3.3915315,2.23611 -0.9667206,0.95891 -1.7356441,2.10335 -2.2619334,3.36669 -0.545579,1.32458 -0.8276552,2.74537 -0.8300082,4.18086 -0.00233,1.43565 0.2750651,2.85758 0.8162992,4.1838 0.5200608,1.25925 1.2841291,2.39929 2.2468479,3.35312 0.9798841,0.9571 2.1316212,1.71657 3.3929028,2.23432 1.3398417,0.55531 2.7750673,0.8346 4.2222813,0.82154 z m 54.25485,0.0311 c 1.433363,0.009 2.854477,-0.26948 4.179717,-0.82316 1.255336,-0.51612 2.397487,-1.28049 3.360794,-2.2474 0.963142,-0.96526 1.728496,-2.11508 2.251635,-3.38414 0.5478,-1.31642 0.83003,-2.73068 0.83003,-4.15996 0,-1.42927 -0.28223,-2.84402 -0.83003,-4.16077 -0.523139,-1.26776 -1.288329,-2.4179 -2.251635,-3.38414 -0.963144,-0.96642 -2.105295,-1.72982 -3.360794,-2.24641 -2.67204,-1.09724 -5.659956,-1.09724 -8.331996,0 -1.2555,0.51659 -2.397651,1.27999 -3.360795,2.24641 -0.963306,0.96624 -1.728495,2.11638 -2.251633,3.38414 -0.547475,1.31691 -0.829542,2.73165 -0.829542,4.16077 0,1.42912 0.282067,2.84354 0.829542,4.15996 0.523138,1.26906 1.288491,2.41888 2.251633,3.38414 0.963307,0.96691 2.105458,1.73128 3.360795,2.2474 1.316747,0.55204 2.728878,0.83133 4.153584,0.82153 z m 0,-3.91005 c -0.841138,0.006 -1.674926,-0.16007 -2.450243,-0.49163 -0.775316,-0.33154 -1.475829,-0.81991 -2.058581,-1.43401 -0.57475,-0.61737 -1.026677,-1.34255 -1.33112,-2.13306 -0.649228,-1.7076 -0.649228,-3.59958 0,-5.30766 0.306892,-0.78495 0.758657,-1.50326 1.33112,-2.1164 0.582752,-0.61542 1.283265,-1.10376 2.058581,-1.435 0.775317,-0.33106 1.609105,-0.49831 2.450243,-0.49112 0.865963,-0.006 1.723759,0.16854 2.519656,0.51465 0.759964,0.32682 1.446592,0.807 2.017912,1.41147 0.572464,0.61314 1.024229,1.33145 1.33112,2.1164 0.648902,1.70825 0.648902,3.59991 0,5.30766 -0.304278,0.79051 -0.756206,1.51569 -1.33112,2.13306 -0.57132,0.60432 -1.257948,1.08449 -2.017912,1.41115 -0.79557,0.34462 -1.653039,0.51938 -2.518351,0.51285 z m 62.929654,3.58667 v -3.76311 h -10.9668 v -16.8203 h -4.14836 v 20.58173 z m 52.33819,0 v -3.76307 h -10.96746 v -16.8203 h -4.15015 v 20.58173 z m 52.73686,0 v -3.70428 h -11.36597 v -4.88219 h 7.41671 v -3.58782 h -7.41671 v -4.70023 h 11.25327 v -3.7046 h -15.4067 v 20.58076 z m 46.04042,0.29399 c 1.57775,-0.002 3.13589,-0.35279 4.56666,-1.02897 1.40625,-0.63045 2.65407,-1.57447 3.65036,-2.76351 v 0 l -2.72103,-2.76349 c -0.66801,0.815 -1.49772,1.47974 -2.43358,1.94685 -0.91953,0.45242 -1.9289,0.68273 -2.9497,0.67619 -0.86074,0.009 -1.71494,-0.15352 -2.51362,-0.48182 -0.79867,-0.32829 -1.52548,-0.81337 -2.13632,-1.42912 -0.59125,-0.60104 -1.05673,-1.31642 -1.37195,-2.10202 -0.33808,-0.83444 -0.50795,-1.72899 -0.50142,-2.63105 -0.009,-0.91088 0.1568,-1.81489 0.48835,-2.66175 0.30706,-0.78789 0.76438,-1.50686 1.34419,-2.1164 0.58145,-0.6053 1.27886,-1.08531 2.04649,-1.41148 0.80194,-0.3451 1.66431,-0.5202 2.53322,-0.51464 1.05346,-0.003 2.09386,0.24238 3.03625,0.71897 0.97181,0.49488 1.82274,1.20322 2.49075,2.07344 v 0 l 2.80597,-2.85218 c -0.9865,-1.21533 -2.24249,-2.17733 -3.66507,-2.80762 -1.46015,-0.68499 -3.05097,-1.0412 -4.65974,-1.04431 -1.43892,-0.009 -2.86477,0.26998 -4.19589,0.82317 -1.26088,0.51824 -2.41234,1.2769 -3.39231,2.23481 -0.9669,0.95858 -1.73617,2.10318 -2.26372,3.36667 -0.54552,1.32459 -0.82644,2.74538 -0.82971,4.18087 -0.002,1.43549 0.2744,2.8571 0.81664,4.18331 0.51939,1.25925 1.28376,2.39928 2.24575,3.35313 0.97997,0.95709 2.13307,1.71656 3.39395,2.2343 1.33766,0.55206 2.77005,0.82971 4.21548,0.81502 z m 54.91404,-0.29399 v -16.8203 h 6.72583 v -3.76437 h -17.63612 v 3.76437 h 6.75687 v 16.81866 z m 47.55448,0 V 176.875 h -4.15016 v 20.58059 z m 47.8158,0.32503 c 1.43238,0.009 2.85334,-0.2695 4.17955,-0.82317 1.25436,-0.51776 2.39766,-1.2805 3.35966,-2.2474 0.96362,-0.96527 1.72964,-2.11672 2.25228,-3.38414 0.54715,-1.31643 0.82971,-2.73101 0.82971,-4.16028 0,-1.42913 -0.28256,-2.84387 -0.82971,-4.16062 -0.52264,-1.26775 -1.28866,-2.4179 -2.25228,-3.38431 -0.962,-0.96624 -2.1053,-1.7298 -3.35966,-2.24642 -2.67203,-1.09674 -5.6593,-1.09674 -8.33133,0 -1.25436,0.51743 -2.39602,1.28114 -3.35966,2.2474 -0.962,0.96624 -1.72801,2.11608 -2.25065,3.38333 -0.54879,1.31659 -0.83134,2.73133 -0.83134,4.16062 0,1.42927 0.28255,2.84385 0.83134,4.16028 0.52264,1.26742 1.28865,2.41724 2.25065,3.38414 0.96364,0.96527 2.1053,1.72964 3.35966,2.2474 1.31641,0.5504 2.72756,0.82969 4.15178,0.81989 z m 0,-3.91007 c -0.86237,0.006 -1.71494,-0.16824 -2.50544,-0.51449 -0.75458,-0.32991 -1.43565,-0.8101 -2.00403,-1.41278 -0.57492,-0.61575 -1.02734,-1.33928 -1.33277,-2.13142 -0.6484,-1.70792 -0.6484,-3.59974 0,-5.30783 0.30707,-0.78528 0.75948,-1.50375 1.33277,-2.11656 0.56838,-0.60236 1.24945,-1.08238 2.00403,-1.41148 0.7905,-0.34691 1.64307,-0.52216 2.50544,-0.51448 0.86564,-0.006 1.72148,0.16855 2.51852,0.51448 0.75947,0.32682 1.44707,0.807 2.01872,1.41148 0.57165,0.61313 1.02407,1.33144 1.33111,2.11656 0.65006,1.70792 0.65006,3.60007 0,5.30783 -0.30378,0.79051 -0.7562,1.51567 -1.33111,2.13142 -0.57165,0.60432 -1.25925,1.08449 -2.01872,1.41278 -0.79704,0.34462 -1.65451,0.51775 -2.51852,0.51122 z m 51.73403,3.58668 V 183.6905 l 10.22105,13.76673 h 3.66507 v -20.58076 h -3.89374 v 13.3192 l -9.96298,-13.3192 h -3.95253 v 20.58076 z"
     id="path4"
     inkscape:connector-curvature="0"
     style="fill:#ffffff;stroke-width:1.63327658" />
  <g
     id="g48"
     transform="matrix(0.86694402,0,0,0.86694402,66.107062,-101.5976)">
    <path
       d="m 98.368707,123.56449 -3.911684,9.67624 h 7.837657 z m -1.627486,-2.59162 h 3.269259 l 8.12318,19.44364 h -2.99801 l -1.94157,-4.98788 h -9.607908 l -1.941568,4.98788 h -3.040839 z"
       style="font-style:normal;font-weight:normal;font-size:40px;line-height:125%;font-family:sans-serif;letter-spacing:0px;word-spacing:0px;fill:#ffffff;fill-opacity:1;stroke:#ffffff;stroke-width:0.69800001;stroke-linecap:butt;stroke-linejoin:miter;stroke-miterlimit:4;stroke-dasharray:none;stroke-opacity:1"
       id="path36"
       inkscape:connector-curvature="0" />
    <path
       d="m 149.94112,131.30027 q 0.92796,0.28651 1.79881,1.22418 0.88512,0.93767 1.77025,2.5786 l 2.92663,5.31346 h -3.09794 l -2.72677,-4.98788 q -1.05644,-1.95348 -2.05577,-2.59162 -0.98506,-0.63814 -2.69821,-0.63814 h -3.14077 v 8.21764 h -2.88381 v -19.44364 h 6.50997 q 3.65472,0 5.45352,1.39348 1.79881,1.39349 1.79881,4.2065 0,1.83627 -0.94223,3.04743 -0.92796,1.21115 -2.71249,1.67999 z m -7.22378,-8.16555 v 6.9023 h 3.62617 q 2.08433,0 3.14077,-0.87256 1.07072,-0.88557 1.07072,-2.59161 0,-1.70604 -1.07072,-2.56557 -1.05644,-0.87256 -3.14077,-0.87256 z"
       style="font-style:normal;font-weight:normal;font-size:40px;line-height:125%;font-family:sans-serif;letter-spacing:0px;word-spacing:0px;fill:#ffffff;fill-opacity:1;stroke:#ffffff;stroke-width:0.69800001;stroke-linecap:butt;stroke-linejoin:miter;stroke-miterlimit:4;stroke-dasharray:none;stroke-opacity:1"
       id="path38"
       inkscape:connector-curvature="0" />
    <path
       d="m 200.69712,122.47054 v 2.77394 q -1.45617,-1.2372 -3.11221,-1.84929 -1.64177,-0.61209 -3.49768,-0.61209 -3.65472,0 -5.59629,2.04464 -1.94157,2.03162 -1.94157,5.88649 0,3.84184 1.94157,5.88649 1.94157,2.03161 5.59629,2.03161 1.85591,0 3.49768,-0.61209 1.65604,-0.61209 3.11221,-1.84929 v 2.74789 q -1.51328,0.93768 -3.21215,1.40651 -1.6846,0.46884 -3.56906,0.46884 -4.83964,0 -7.62351,-2.69581 -2.78386,-2.70882 -2.78386,-7.38415 0,-4.68836 2.78386,-7.38416 2.78387,-2.70883 7.62351,-2.70883 1.91302,0 3.59761,0.46884 1.69888,0.45581 3.1836,1.38046 z"
       style="font-style:normal;font-weight:normal;font-size:40px;line-height:125%;font-family:sans-serif;letter-spacing:0px;word-spacing:0px;fill:#ffffff;fill-opacity:1;stroke:#ffffff;stroke-width:0.69800001;stroke-linecap:butt;stroke-linejoin:miter;stroke-miterlimit:4;stroke-dasharray:none;stroke-opacity:1"
       id="path40-3"
       inkscape:connector-curvature="0" />
    <path
       d="m 238.86281,123.56449 -3.91168,9.67624 h 7.83765 z m -1.62749,-2.59162 h 3.26926 l 8.12318,19.44364 h -2.998 l -1.94157,-4.98788 h -9.60792 l -1.94157,4.98788 h -3.04083 z"
       style="font-style:normal;font-weight:normal;font-size:40px;line-height:125%;font-family:sans-serif;letter-spacing:0px;word-spacing:0px;fill:#ffffff;fill-opacity:1;stroke:#ffffff;stroke-width:0.69800001;stroke-linecap:butt;stroke-linejoin:miter;stroke-miterlimit:4;stroke-dasharray:none;stroke-opacity:1"
       id="path42"
       inkscape:connector-curvature="0" />
    <path
       d="m 277.21144,123.13472 v 15.11994 h 3.48341 q 4.41135,0 6.45285,-1.82325 2.05578,-1.82325 2.05578,-5.75625 0,-3.90696 -2.05578,-5.71719 -2.0415,-1.82325 -6.45285,-1.82325 z m -2.8838,-2.16185 h 5.92464 q 6.19589,0 9.09396,2.3572 2.89808,2.34418 2.89808,7.34509 0,5.02695 -2.91235,7.38415 -2.91235,2.3572 -9.07969,2.3572 h -5.92464 z"
       style="font-style:normal;font-weight:normal;font-size:40px;line-height:125%;font-family:sans-serif;letter-spacing:0px;word-spacing:0px;fill:#ffffff;fill-opacity:1;stroke:#ffffff;stroke-width:0.69800001;stroke-linecap:butt;stroke-linejoin:miter;stroke-miterlimit:4;stroke-dasharray:none;stroke-opacity:1"
       id="path44"
       inkscape:connector-curvature="0" />
    <path
       d="m 321.42893,120.97287 h 13.47677 v 2.21394 h -10.59297 v 5.75626 h 10.15041 v 2.21394 h -10.15041 v 7.04556 h 10.84994 v 2.21394 h -13.73374 z"
       style="font-style:normal;font-weight:normal;font-size:40px;line-height:125%;font-family:sans-serif;letter-spacing:0px;word-spacing:0px;fill:#ffffff;fill-opacity:1;stroke:#ffffff;stroke-width:0.69800001;stroke-linecap:butt;stroke-linejoin:miter;stroke-miterlimit:4;stroke-dasharray:none;stroke-opacity:1"
       id="path46"
       inkscape:connector-curvature="0" />
  </g>
</svg>
