<?xml version="1.0" encoding="UTF-8" standalone="no"?>
<svg
   xmlns:dc="http://purl.org/dc/elements/1.1/"
   xmlns:cc="http://creativecommons.org/ns#"
   xmlns:rdf="http://www.w3.org/1999/02/22-rdf-syntax-ns#"
   xmlns:svg="http://www.w3.org/2000/svg"
   xmlns="http://www.w3.org/2000/svg"
   xmlns:xlink="http://www.w3.org/1999/xlink"
   xmlns:sodipodi="http://sodipodi.sourceforge.net/DTD/sodipodi-0.dtd"
   xmlns:inkscape="http://www.inkscape.org/namespaces/inkscape"
   width="500"
   height="200"
   viewBox="0 0 500 200"
   version="1.1"
   id="svg14"
   sodipodi:docname="acclaim.svg"
   inkscape:version="0.92.5 (2060ec1f9f, 2020-04-08)">
  <metadata
     id="metadata20">
    <rdf:RDF>
      <cc:Work
         rdf:about="">
        <dc:format>image/svg+xml</dc:format>
        <dc:type
           rdf:resource="http://purl.org/dc/dcmitype/StillImage" />
        <dc:title />
      </cc:Work>
    </rdf:RDF>
  </metadata>
  <defs
     id="defs18">
    <linearGradient
       x1="287.04117"
       y1="350.87671"
       x2="348.69205"
       y2="275.90128"
       id="linearGradient3545"
       xlink:href="#linearGradient3539"
       gradientUnits="userSpaceOnUse"
       gradientTransform="matrix(1.3518225,0,0,1.3518225,-365.80516,-330.82007)" />
    <linearGradient
       id="linearGradient3539">
      <stop
         id="stop3541"
         style="stop-color:#bf0000;stop-opacity:1"
         offset="0" />
      <stop
         id="stop3547"
         style="stop-color:#bf0000;stop-opacity:1"
         offset="0.3747088" />
      <stop
         id="stop3543"
         style="stop-color:#fbe40a;stop-opacity:1"
         offset="1" />
    </linearGradient>
    <linearGradient
       x1="289.83875"
       y1="355.51709"
       x2="639.31293"
       y2="355.51709"
       id="linearGradient3555"
       xlink:href="#linearGradient3549"
       gradientUnits="userSpaceOnUse"
       gradientTransform="matrix(1.3518225,0,0,1.3518225,-365.80516,-330.82007)" />
    <linearGradient
       id="linearGradient3549">
      <stop
         id="stop3551"
         style="stop-color:#bf0000;stop-opacity:1"
         offset="0" />
      <stop
         id="stop3557"
         style="stop-color:#fff20c;stop-opacity:1"
         offset="0.24505855" />
      <stop
         id="stop3559"
         style="stop-color:#0ce500;stop-opacity:1"
         offset="0.44498077" />
      <stop
         id="stop3561"
         style="stop-color:#31e1fd;stop-opacity:1"
         offset="0.64282119" />
      <stop
         id="stop3553"
         style="stop-color:#0019bf;stop-opacity:1"
         offset="1" />
    </linearGradient>
  </defs>
  <sodipodi:namedview
     pagecolor="#ffffff"
     bordercolor="#666666"
     borderopacity="1"
     objecttolerance="10"
     gridtolerance="10"
     guidetolerance="10"
     inkscape:pageopacity="0"
     inkscape:pageshadow="2"
     inkscape:window-width="1366"
     inkscape:window-height="743"
     id="namedview16"
     showgrid="false"
     inkscape:pagecheckerboard="true"
     inkscape:zoom="1.0829063"
     inkscape:cx="407.1695"
     inkscape:cy="7.5315993"
     inkscape:window-x="0"
     inkscape:window-y="0"
     inkscape:window-maximized="1"
     inkscape:current-layer="svg14" />
  <path
     d="m 11.863988,198.79632 c 1.571969,0 3.10081,-0.36891 4.586513,-1.10661 1.485709,-0.73776 2.707822,-1.72845 3.666341,-2.97207 v 0 l -2.731782,-2.97208 c -0.709305,0.90638 -1.524049,1.60197 -2.444227,2.08679 -0.920178,0.48478 -1.907453,0.7272 -2.961822,0.7272 -0.939351,0 -1.806812,-0.18441 -2.6023829,-0.55331 -0.7955729,-0.36888 -1.4857055,-0.8695 -2.0704042,-1.50185 -0.5846978,-0.63235 -1.0447859,-1.38591 -1.3802689,-2.26066 -0.3354797,-0.87477 -0.50322,-1.81803 -0.50322,-2.8298 0,-1.03284 0.1629419,-1.98664 0.4888435,-2.86141 0.3258975,-0.87475 0.7764015,-1.63358 1.351513,-2.27647 0.5751101,-0.64289 1.260452,-1.14878 2.0560276,-1.51765 0.7955709,-0.36891 1.6438599,-0.5533 2.5448689,-0.5533 1.073542,0 2.089575,0.2582 3.048094,0.77462 0.958519,0.51645 1.792431,1.25945 2.501736,2.22905 v 0 l 2.818047,-3.06693 c -0.939351,-1.26469 -2.166256,-2.27119 -3.680716,-3.01947 -1.514461,-0.74831 -3.07685,-1.12244 -4.687161,-1.12244 -1.495292,0 -2.8995259,0.29516 -4.2126958,0.88531 -1.3131721,0.59017 -2.449019,1.39116 -3.4075376,2.40293 -0.9585188,1.01177 -1.7157503,2.21852 -2.2716916,3.62023 -0.5559399,1.40172 -0.83391,2.90356 -0.83391,4.50553 0,1.60195 0.2731636,3.09855 0.8195305,4.48974 0.5463568,1.39117 1.2987954,2.59264 2.2573152,3.60441 0.95852,1.01176 2.0943651,1.81276 3.4075382,2.40295 1.313173,0.59019 2.7269911,0.88529 4.2414511,0.88529 z m 54.49185,0.0315 c 1.495285,0 2.894729,-0.29507 4.198314,-0.8853 1.303586,-0.59019 2.429837,-1.39643 3.378781,-2.41876 0.94893,-1.0223 1.701372,-2.23432 2.257322,-3.63603 0.55595,-1.40172 0.833899,-2.89305 0.833899,-4.47392 0,-1.58089 -0.277936,-3.07219 -0.833899,-4.47391 -0.55595,-1.40173 -1.308392,-2.61374 -2.257322,-3.63604 -0.948944,-1.02231 -2.075195,-1.82856 -3.378781,-2.41876 -1.303585,-0.59021 -2.703029,-0.88529 -4.198314,-0.88529 -1.476127,0 -2.865981,0.29507 -4.169566,0.88529 -1.303595,0.5902 -2.429841,1.39645 -3.378785,2.41876 -0.94893,1.0223 -1.701368,2.23431 -2.257313,3.63604 -0.555936,1.40171 -0.833909,2.89301 -0.833909,4.47391 0,1.58087 0.277982,3.07219 0.833909,4.47391 0.555945,1.40171 1.308383,2.61373 2.257313,3.63603 0.948944,1.02232 2.07519,1.82856 3.378785,2.41877 1.303585,0.5902 2.693439,0.88529 4.169566,0.88529 z m 0,-4.20517 c -0.901001,0 -1.739716,-0.1844 -2.516109,-0.55331 -0.776407,-0.3689 -1.447365,-0.87474 -2.012901,-1.51764 -0.565522,-0.6429 -1.011238,-1.407 -1.337131,-2.2923 -0.325911,-0.88531 -0.488876,-1.83383 -0.488876,-2.84559 0,-1.03284 0.162978,-1.98665 0.488876,-2.8614 0.325865,-0.87477 0.771609,-1.6336 1.337131,-2.27649 0.565536,-0.6429 1.236494,-1.14879 2.012901,-1.51766 0.776393,-0.3689 1.615108,-0.55331 2.516109,-0.55331 0.901001,0 1.744504,0.18441 2.530493,0.55331 0.785979,0.36891 1.461743,0.87476 2.027274,1.51766 0.565513,0.64289 1.011229,1.40172 1.337141,2.27649 0.325865,0.87475 0.488871,1.82856 0.488871,2.8614 0,1.01176 -0.162978,1.96028 -0.488871,2.84559 -0.325912,0.8853 -0.771628,1.6494 -1.337141,2.2923 -0.565531,0.6429 -1.241295,1.14877 -2.027274,1.51764 -0.785989,0.36891 -1.629492,0.5533 -2.530493,0.5533 z m 63.204792,3.85758 v -4.04727 h -11.01337 v -18.08534 h -4.16958 v 22.1324 z m 52.56522,0 v -4.04727 h -11.0134 v -18.08534 h -4.16954 v 22.1324 z m 52.9678,0 v -3.98401 h -11.41597 v -5.24856 h 7.44771 v -3.85736 h -7.44771 v -5.05883 h 11.30095 v -3.98384 h -15.4705 v 22.13243 z m 46.239,0.31614 c 1.57198,0 3.10082,-0.36891 4.58651,-1.10662 1.48572,-0.73774 2.70783,-1.72844 3.66636,-2.97207 v 0 l -2.73178,-2.97207 c -0.7093,0.90638 -1.52406,1.60196 -2.44425,2.08677 -0.92018,0.48478 -1.90745,0.7272 -2.96182,0.7272 -0.93933,0 -1.80681,-0.18441 -2.60236,-0.5533 -0.7956,-0.3689 -1.48572,-0.8695 -2.07041,-1.50185 -0.5847,-0.63234 -1.04481,-1.3859 -1.38026,-2.26066 -0.33555,-0.87476 -0.50327,-1.81803 -0.50327,-2.8298 0,-1.03284 0.16298,-1.98665 0.48887,-2.8614 0.32587,-0.87477 0.77638,-1.63359 1.35151,-2.27648 0.57512,-0.6429 1.26044,-1.14878 2.05602,-1.51766 0.79557,-0.3689 1.64386,-0.55331 2.54486,-0.55331 1.07357,0 2.08958,0.2582 3.04809,0.77466 0.95853,0.51644 1.79246,1.25941 2.50175,2.22902 v 0 l 2.81803,-3.06691 c -0.93932,-1.26471 -2.16624,-2.27121 -3.68071,-3.0195 C 284.50535,176.37414 282.94295,176 281.33263,176 c -1.49528,0 -2.89951,0.29512 -4.21268,0.88529 -1.31317,0.59021 -2.44902,1.39118 -3.40754,2.40295 -0.95852,1.01178 -1.71574,2.21851 -2.27168,3.62023 -0.55596,1.40171 -0.83393,2.90355 -0.83393,4.50553 0,1.60195 0.27314,3.09854 0.81953,4.48972 0.54638,1.39119 1.2988,2.59267 2.25733,3.60442 0.9585,1.01178 2.09435,1.81276 3.40752,2.40295 1.31319,0.59018 2.72698,0.88529 4.24145,0.88529 z m 55.15323,-0.31614 v -18.08534 h 6.75755 v -4.04707 h -17.71344 v 4.04706 h 6.78634 v 18.08535 z m 47.76305,0 v -22.13234 h -4.16955 v 22.1324 z m 48.02184,0.3478 c 1.49529,0 2.89473,-0.29507 4.19831,-0.88529 1.30359,-0.5902 2.42986,-1.39644 3.37879,-2.41876 0.94894,-1.0223 1.70136,-2.23432 2.25731,-3.63603 0.55594,-1.40172 0.83392,-2.89304 0.83392,-4.47392 0,-1.58089 -0.27799,-3.0722 -0.83392,-4.4739 -0.55595,-1.40173 -1.30837,-2.61375 -2.25731,-3.63605 -0.94893,-1.0223 -2.0752,-1.82855 -3.37879,-2.41876 -1.30358,-0.5902 -2.70302,-0.88529 -4.19831,-0.88529 -1.47613,0 -2.86597,0.29507 -4.16958,0.88529 -1.30357,0.59021 -2.42985,1.39646 -3.37875,2.41876 -0.94896,1.0223 -1.7014,2.23432 -2.25732,3.63605 -0.55596,1.4017 -0.83393,2.89301 -0.83393,4.4739 0,1.58088 0.27798,3.0722 0.83393,4.47392 0.55592,1.40171 1.30836,2.61373 2.25732,3.63603 0.9489,1.02232 2.07518,1.82856 3.37875,2.41876 1.30361,0.59021 2.69345,0.88529 4.16958,0.88529 z m 0,-4.20516 c -0.90099,0 -1.73973,-0.18441 -2.5161,-0.55331 -0.77641,-0.36891 -1.44737,-0.87474 -2.01291,-1.51763 -0.56552,-0.64291 -1.01122,-1.407 -1.33714,-2.29229 -0.32587,-0.88533 -0.48883,-1.83385 -0.48883,-2.84561 0,-1.03284 0.16298,-1.98664 0.48883,-2.8614 0.32591,-0.87477 0.77162,-1.63359 1.33714,-2.27647 0.56554,-0.64291 1.2365,-1.1488 2.01291,-1.51767 0.77637,-0.3689 1.61511,-0.55331 2.5161,-0.55331 0.90099,0 1.74451,0.18441 2.53049,0.55331 0.786,0.36891 1.46176,0.87476 2.02728,1.51767 0.56551,0.64288 1.01122,1.4017 1.33712,2.27647 0.32591,0.87476 0.48887,1.82856 0.48887,2.8614 0,1.01176 -0.16293,1.96028 -0.48887,2.84561 -0.32591,0.88529 -0.77161,1.64938 -1.33712,2.29229 -0.56552,0.64289 -1.24128,1.14877 -2.02728,1.51763 -0.78598,0.36891 -1.6295,0.55331 -2.53049,0.55331 z m 51.96138,3.85736 v -14.79709 l 10.26572,14.7971 h 3.68075 v -22.13241 h -3.91076 v 14.32284 l -10.00697,-14.32284 h -3.96823 v 22.13241 z"
     id="COLLECTION"
     inkscape:connector-curvature="0"
     style="fill:#ffffff;fill-rule:nonzero;stroke:none;stroke-width:1.2885232" />
  <path
     inkscape:connector-curvature="0"
     style="opacity:1;fill:#ffffff;fill-opacity:1;fill-rule:evenodd;stroke:none;stroke-width:11.38608742;stroke-linecap:butt;stroke-linejoin:miter;stroke-miterlimit:4;stroke-dasharray:none;stroke-opacity:1"
     id="path3440"
     d="m 117.09119,39.537066 c -2.35077,3.756275 -44.661218,70.100004 -63.113215,99.020984 h 27.205428 c 3.783833,-5.9485 4.860262,-7.6699 8.364399,-13.18027 l 27.712358,-0.21123 c 0.001,4.45972 -6.7e-4,8.93177 0,13.3915 h 25.64239 c 0.0105,-33.00261 -0.0247,-66.018454 -0.0845,-99.020989 z m 60.832,0 -20.78426,32.570465 -0.16896,0.211228 -0.12675,0.211228 c -12.39165,18.864615 -11.6643,15.710084 0.21123,35.105133 l 0.16896,0.29571 0.16897,0.29571 20.06612,30.33152 h 27.54338 L 176.95156,96.144626 c -0.0174,-0.03016 -0.0251,-0.0546 -0.0425,-0.08448 -2.3308,-4.042158 -3.45834,-6.342324 -0.16897,-12.03967 L 205.12837,39.53707 h -27.20543 z m 37.63981,0 -20.78426,32.570465 -0.16897,0.211228 -0.12674,0.211228 c -12.39166,18.864615 -11.66431,15.710084 0.21123,35.105133 l 0.16896,0.29571 0.16896,0.29571 20.06612,30.33152 h 27.50114 L 214.59137,96.144626 c -0.0174,-0.03016 -0.0251,-0.0546 -0.0425,-0.08448 -2.3308,-4.042158 -3.45835,-6.342324 -0.16897,-12.03967 l 28.38844,-44.483399 h -27.20543 z m 30.8807,0 v 99.020984 h 24.713 V 39.537066 Z m 110.93393,0 V 58.04013 h 24.75525 V 39.537066 Z M 313.99258,61.63091 c -21.18783,0 -38.61143,17.423597 -38.61143,38.61142 0,19.64289 14.98239,36.02739 34.04903,38.31572 h 9.08255 c 4.01255,-0.48541 7.85335,-1.5806 11.40601,-3.21058 v 3.21058 h 22.68527 V 62.306816 h -22.68527 v 2.830383 C 325.04931,62.903083 319.66307,61.63091 313.99258,61.63091 Z m 43.38505,1.351821 v 75.575319 h 24.75525 V 62.982731 Z m 30.54274,0.168964 v 75.406345 h 22.98098 V 95.679939 c 0,-5.628353 4.17236,-9.800711 9.80071,-9.800711 5.62836,0 9.80072,4.172358 9.80072,9.800711 v 42.878111 h 24.79748 V 95.891162 c -2e-5,-5.628344 4.17237,-9.800716 9.80072,-9.800716 5.62831,1.4e-5 9.80073,4.172358 9.80073,9.800716 v 42.666888 h 22.98097 V 95.891162 c 0,-17.962289 -7.21542,-32.274766 -33.03514,-31.767829 -8.09322,0 -13.33307,3.593334 -18.37636,8.533377 -5.04735,-5.63852 -13.26442,-8.995094 -26.02258,-8.7446 -2.92439,0 -5.81108,0.413409 -8.57563,1.182843 V 63.151708 Z M 117.17568,81.865988 c 0.007,4.233085 0.0366,4.005911 0.0425,9.71622 0.003,2.858821 -0.003,5.051002 0,7.899716 l -11.27927,0.08448 c 5.40507,-8.501042 5.84612,-9.220203 11.23702,-17.700423 z m 196.8169,2.745887 c 8.75368,0 15.63044,6.876758 15.63044,15.630445 0,8.75369 -6.87676,15.63045 -15.63044,15.63045 -8.75369,0 -15.63045,-6.87676 -15.63045,-15.63045 0,-8.753687 6.87676,-15.630445 15.63045,-15.630445 z" />
  <path
     inkscape:connector-curvature="0"
     style="opacity:1;fill:url(#linearGradient3545);fill-opacity:1;fill-rule:evenodd;stroke:none;stroke-width:0.66976982px;stroke-linecap:butt;stroke-linejoin:miter;stroke-opacity:1"
     id="path3526"
     d="M 106.63995,42.149518 -7.2701781e-4,154.52549 H 498.43247 V 145.0264 H 32.081089 Z" />
  <path
     inkscape:connector-curvature="0"
     style="opacity:1;fill:url(#linearGradient3555);fill-opacity:1;fill-rule:evenodd;stroke:none;stroke-width:0.66976982px;stroke-linecap:butt;stroke-linejoin:miter;stroke-opacity:1"
     id="path3528"
     d="M 26.005363,154.52549 H 498.43247 V 145.0264 H 32.081089 Z" />
  <g
     id="g48"
     transform="matrix(1.0780768,0,0,1.0780768,22.466204,-129.44019)">
    <path
       d="m 98.368707,123.56449 -3.911684,9.67624 h 7.837657 z m -1.627486,-2.59162 h 3.269259 l 8.12318,19.44364 h -2.99801 l -1.94157,-4.98788 h -9.607908 l -1.941568,4.98788 h -3.040839 z"
       style="font-style:normal;font-weight:normal;font-size:40px;line-height:125%;font-family:sans-serif;letter-spacing:0px;word-spacing:0px;fill:#ffffff;fill-opacity:1;stroke:#ffffff;stroke-width:0.69800001;stroke-linecap:butt;stroke-linejoin:miter;stroke-miterlimit:4;stroke-dasharray:none;stroke-opacity:1"
       id="path36"
       inkscape:connector-curvature="0" />
    <path
       d="m 149.94112,131.30027 q 0.92796,0.28651 1.79881,1.22418 0.88512,0.93767 1.77025,2.5786 l 2.92663,5.31346 h -3.09794 l -2.72677,-4.98788 q -1.05644,-1.95348 -2.05577,-2.59162 -0.98506,-0.63814 -2.69821,-0.63814 h -3.14077 v 8.21764 h -2.88381 v -19.44364 h 6.50997 q 3.65472,0 5.45352,1.39348 1.79881,1.39349 1.79881,4.2065 0,1.83627 -0.94223,3.04743 -0.92796,1.21115 -2.71249,1.67999 z m -7.22378,-8.16555 v 6.9023 h 3.62617 q 2.08433,0 3.14077,-0.87256 1.07072,-0.88557 1.07072,-2.59161 0,-1.70604 -1.07072,-2.56557 -1.05644,-0.87256 -3.14077,-0.87256 z"
       style="font-style:normal;font-weight:normal;font-size:40px;line-height:125%;font-family:sans-serif;letter-spacing:0px;word-spacing:0px;fill:#ffffff;fill-opacity:1;stroke:#ffffff;stroke-width:0.69800001;stroke-linecap:butt;stroke-linejoin:miter;stroke-miterlimit:4;stroke-dasharray:none;stroke-opacity:1"
       id="path38"
       inkscape:connector-curvature="0" />
    <path
       d="m 200.69712,122.47054 v 2.77394 q -1.45617,-1.2372 -3.11221,-1.84929 -1.64177,-0.61209 -3.49768,-0.61209 -3.65472,0 -5.59629,2.04464 -1.94157,2.03162 -1.94157,5.88649 0,3.84184 1.94157,5.88649 1.94157,2.03161 5.59629,2.03161 1.85591,0 3.49768,-0.61209 1.65604,-0.61209 3.11221,-1.84929 v 2.74789 q -1.51328,0.93768 -3.21215,1.40651 -1.6846,0.46884 -3.56906,0.46884 -4.83964,0 -7.62351,-2.69581 -2.78386,-2.70882 -2.78386,-7.38415 0,-4.68836 2.78386,-7.38416 2.78387,-2.70883 7.62351,-2.70883 1.91302,0 3.59761,0.46884 1.69888,0.45581 3.1836,1.38046 z"
       style="font-style:normal;font-weight:normal;font-size:40px;line-height:125%;font-family:sans-serif;letter-spacing:0px;word-spacing:0px;fill:#ffffff;fill-opacity:1;stroke:#ffffff;stroke-width:0.69800001;stroke-linecap:butt;stroke-linejoin:miter;stroke-miterlimit:4;stroke-dasharray:none;stroke-opacity:1"
       id="path40"
       inkscape:connector-curvature="0" />
    <path
       d="m 238.86281,123.56449 -3.91168,9.67624 h 7.83765 z m -1.62749,-2.59162 h 3.26926 l 8.12318,19.44364 h -2.998 l -1.94157,-4.98788 h -9.60792 l -1.94157,4.98788 h -3.04083 z"
       style="font-style:normal;font-weight:normal;font-size:40px;line-height:125%;font-family:sans-serif;letter-spacing:0px;word-spacing:0px;fill:#ffffff;fill-opacity:1;stroke:#ffffff;stroke-width:0.69800001;stroke-linecap:butt;stroke-linejoin:miter;stroke-miterlimit:4;stroke-dasharray:none;stroke-opacity:1"
       id="path42"
       inkscape:connector-curvature="0" />
    <path
       d="m 277.21144,123.13472 v 15.11994 h 3.48341 q 4.41135,0 6.45285,-1.82325 2.05578,-1.82325 2.05578,-5.75625 0,-3.90696 -2.05578,-5.71719 -2.0415,-1.82325 -6.45285,-1.82325 z m -2.8838,-2.16185 h 5.92464 q 6.19589,0 9.09396,2.3572 2.89808,2.34418 2.89808,7.34509 0,5.02695 -2.91235,7.38415 -2.91235,2.3572 -9.07969,2.3572 h -5.92464 z"
       style="font-style:normal;font-weight:normal;font-size:40px;line-height:125%;font-family:sans-serif;letter-spacing:0px;word-spacing:0px;fill:#ffffff;fill-opacity:1;stroke:#ffffff;stroke-width:0.69800001;stroke-linecap:butt;stroke-linejoin:miter;stroke-miterlimit:4;stroke-dasharray:none;stroke-opacity:1"
       id="path44"
       inkscape:connector-curvature="0" />
    <path
       d="m 321.42893,120.97287 h 13.47677 v 2.21394 h -10.59297 v 5.75626 h 10.15041 v 2.21394 h -10.15041 v 7.04556 h 10.84994 v 2.21394 h -13.73374 z"
       style="font-style:normal;font-weight:normal;font-size:40px;line-height:125%;font-family:sans-serif;letter-spacing:0px;word-spacing:0px;fill:#ffffff;fill-opacity:1;stroke:#ffffff;stroke-width:0.69800001;stroke-linecap:butt;stroke-linejoin:miter;stroke-miterlimit:4;stroke-dasharray:none;stroke-opacity:1"
       id="path46"
       inkscape:connector-curvature="0" />
  </g>
</svg>
