<?xml version="1.0" encoding="UTF-8" standalone="no"?>
<svg
   xmlns:dc="http://purl.org/dc/elements/1.1/"
   xmlns:cc="http://creativecommons.org/ns#"
   xmlns:rdf="http://www.w3.org/1999/02/22-rdf-syntax-ns#"
   xmlns:svg="http://www.w3.org/2000/svg"
   xmlns="http://www.w3.org/2000/svg"
   xmlns:sodipodi="http://sodipodi.sourceforge.net/DTD/sodipodi-0.dtd"
   xmlns:inkscape="http://www.inkscape.org/namespaces/inkscape"
   width="500"
   height="200"
   viewBox="0 0 500 200"
   version="1.1"
   id="svg29"
   sodipodi:docname="activision.svg"
   inkscape:version="0.92.5 (2060ec1f9f, 2020-04-08)">
  <metadata
     id="metadata35">
    <rdf:RDF>
      <cc:Work
         rdf:about="">
        <dc:format>image/svg+xml</dc:format>
        <dc:type
           rdf:resource="http://purl.org/dc/dcmitype/StillImage" />
        <dc:title>mainlogo</dc:title>
      </cc:Work>
    </rdf:RDF>
  </metadata>
  <defs
     id="defs33">
    <clipPath
       id="clipPath3361"
       clipPathUnits="userSpaceOnUse">
      <path
         id="path3363"
         d="M 0,864 H 1296 V 0 H 0 Z"
         inkscape:connector-curvature="0" />
    </clipPath>
  </defs>
  <sodipodi:namedview
     pagecolor="#ffffff"
     bordercolor="#666666"
     borderopacity="1"
     objecttolerance="10"
     gridtolerance="10"
     guidetolerance="10"
     inkscape:pageopacity="0"
     inkscape:pageshadow="2"
     inkscape:window-width="1366"
     inkscape:window-height="743"
     id="namedview31"
     showgrid="false"
     inkscape:pagecheckerboard="true"
     inkscape:zoom="1.1167155"
     inkscape:cx="450.15265"
     inkscape:cy="48.706856"
     inkscape:window-x="0"
     inkscape:window-y="0"
     inkscape:window-maximized="1"
     inkscape:current-layer="svg29" />
  <title
     id="title14">mainlogo</title>
  <path
     d="m 11.072628,199.96876 c 1.554847,0 3.067032,-0.36485 4.536551,-1.09455 1.469519,-0.72973 2.678319,-1.70963 3.626395,-2.9397 v 0 l -2.70202,-2.93969 c -0.701576,0.8965 -1.507443,1.58451 -2.417597,2.06405 -0.910154,0.47951 -1.886674,0.71927 -2.929559,0.71927 -0.929116,0 -1.7871259,-0.18241 -2.5740292,-0.54728 -0.7869058,-0.36486 -1.4695202,-0.86002 -2.0478492,-1.48548 -0.5783278,-0.62547 -1.033403,-1.37081 -1.3652313,-2.23603 -0.3318271,-0.86524 -0.4977395,-1.79822 -0.4977395,-2.79897 0,-1.0216 0.1611732,-1.96501 0.4835196,-2.83024 0.3223453,-0.86523 0.7679432,-1.61579 1.3367892,-2.25168 0.5688448,-0.63588 1.24672,-1.13626 2.0336258,-1.50111 0.7869033,-0.36486 1.6259506,-0.54727 2.5171446,-0.54727 1.061847,0 2.066809,0.25538 3.014887,0.76618 0.948078,0.5108 1.772905,1.24572 2.474481,2.20477 v 0 l 2.787348,-3.03352 c -0.929117,-1.25091 -2.142655,-2.24645 -3.640618,-2.98658 -1.497963,-0.74015 -3.043328,-1.1102 -4.636098,-1.1102 -1.4790005,0 -2.8679343,0.29188 -4.1667994,0.87566 -1.2988663,0.58375 -2.4223384,1.37601 -3.370415,2.37675 -0.9480766,1.00075 -1.6970583,2.19434 -2.2469429,3.58079 -0.54988569,1.38645 -0.82482738,2.87192 -0.82482738,4.45645 0,1.5845 0.27020134,3.06479 0.81060398,4.44081 0.540405,1.37603 1.2846464,2.5644 2.2327242,3.56515 0.9480778,1.00074 2.0715486,1.79302 3.3704149,2.37678 1.2988663,0.58376 2.6972799,0.87564 4.1952416,0.87564 z m 53.898199,0.0312 c 1.478999,0 2.863192,-0.29187 4.152578,-0.87565 1.289385,-0.58377 2.403369,-1.38123 3.341973,-2.39241 0.938592,-1.01116 1.682837,-2.20998 2.232723,-3.59641 0.549897,-1.38645 0.824817,-2.86153 0.824817,-4.42519 0,-1.56367 -0.27492,-3.03872 -0.824817,-4.42516 -0.549886,-1.38646 -1.294131,-2.58526 -2.232723,-3.59643 -0.938604,-1.01117 -2.052588,-1.80864 -3.341973,-2.39241 -1.289386,-0.58377 -2.673579,-0.87564 -4.152578,-0.87564 -1.460043,0 -2.834758,0.29187 -4.124143,0.87564 -1.289386,0.58377 -2.403369,1.38124 -3.341973,2.39241 -0.938592,1.01117 -1.68283,2.20997 -2.232716,3.59643 -0.549886,1.38644 -0.82483,2.86149 -0.82483,4.42516 0,1.56366 0.274944,3.03874 0.82483,4.42519 0.549886,1.38643 1.294124,2.58525 2.232716,3.59641 0.938604,1.01118 2.052587,1.80864 3.341973,2.39241 1.289385,0.58378 2.6641,0.87565 4.124143,0.87565 z m 0,-4.15935 c -0.891189,0 -1.720763,-0.18241 -2.488698,-0.54728 -0.767946,-0.36484 -1.431596,-0.86521 -1.990972,-1.5011 -0.559364,-0.6359 -1.000219,-1.39167 -1.322565,-2.26732 -0.322347,-0.87568 -0.483526,-1.81387 -0.483526,-2.81461 0,-1.02158 0.161179,-1.965 0.483526,-2.83022 0.322346,-0.86524 0.763201,-1.61579 1.322565,-2.25168 0.559376,-0.6359 1.223026,-1.13627 1.990972,-1.50113 0.767935,-0.36485 1.597509,-0.54728 2.488698,-0.54728 0.891189,0 1.725496,0.18243 2.502921,0.54728 0.777425,0.36486 1.445819,0.86523 2.005195,1.50113 0.559352,0.63589 1.000208,1.38644 1.322566,2.25168 0.322334,0.86522 0.483513,1.80864 0.483513,2.83022 0,1.00074 -0.161179,1.93893 -0.483513,2.81461 -0.322358,0.87565 -0.763214,1.63142 -1.322566,2.26732 -0.559376,0.63589 -1.22777,1.13626 -2.005195,1.5011 -0.777425,0.36487 -1.611732,0.54728 -2.502921,0.54728 z m 62.516223,3.81534 v -4.00297 h -10.8934 V 177.76471 H 112.4695 V 199.656 Z m 51.99255,0 v -4.00297 h -10.89342 v -17.88832 h -4.12412 V 199.656 Z m 52.39075,0 v -3.94041 h -11.2916 v -5.19137 h 7.36657 v -3.81534 h -7.36657 v -5.00372 h 11.17784 v -3.94043 h -15.30196 v 21.8913 z m 45.73525,0.31274 c 1.55486,0 3.06704,-0.36486 4.53655,-1.09456 1.46952,-0.72971 2.67833,-1.70961 3.62641,-2.93969 v 0 l -2.70202,-2.93968 c -0.70157,0.8965 -1.50744,1.5845 -2.41761,2.06403 -0.91016,0.47951 -1.88668,0.71928 -2.92957,0.71928 -0.92909,0 -1.78712,-0.18243 -2.574,-0.54727 -0.78693,-0.36488 -1.46953,-0.86003 -2.04785,-1.48549 -0.57833,-0.62546 -1.03343,-1.3708 -1.36523,-2.23603 -0.33184,-0.86524 -0.49776,-1.79824 -0.49776,-2.79898 0,-1.02158 0.16117,-1.965 0.48354,-2.83022 0.32233,-0.86524 0.76792,-1.61579 1.33678,-2.25168 0.56885,-0.6359 1.24671,-1.13627 2.03363,-1.50113 0.78689,-0.36485 1.62594,-0.54728 2.51713,-0.54728 1.06186,0 2.06681,0.25541 3.01488,0.76621 0.94808,0.51079 1.77292,1.2457 2.4745,2.20474 v 0 l 2.78733,-3.03349 c -0.92909,-1.25094 -2.14265,-2.24647 -3.64062,-2.98661 -1.49794,-0.74012 -3.04331,-1.11018 -4.63609,-1.11018 -1.479,0 -2.86793,0.29187 -4.16679,0.87564 -1.29886,0.58377 -2.42234,1.37602 -3.37042,2.37678 -0.94807,1.00075 -1.69705,2.19433 -2.24693,3.58078 -0.5499,1.38644 -0.82484,2.87192 -0.82484,4.45644 0,1.5845 0.27021,3.06479 0.8106,4.44081 0.54042,1.37603 1.28465,2.56442 2.23274,3.56516 0.94806,1.00075 2.07153,1.79301 3.37039,2.37676 1.29889,0.58376 2.69728,0.87566 4.19525,0.87566 z m 54.55238,-0.31274 v -17.88832 h 6.68393 v -4.00297 h -17.52047 v 4.00297 h 6.71241 V 199.656 Z m 47.2427,0 v -21.89129 h -4.12413 V 199.656 Z m 47.49867,0.34401 c 1.479,0 2.86319,-0.29187 4.15258,-0.87565 1.28938,-0.58377 2.40338,-1.38123 3.34197,-2.39241 0.93861,-1.01116 1.68283,-2.20998 2.23272,-3.59641 0.54989,-1.38645 0.82483,-2.86153 0.82483,-4.42519 0,-1.56367 -0.27494,-3.03872 -0.82483,-4.42516 -0.54989,-1.38646 -1.29411,-2.58526 -2.23272,-3.59643 -0.93859,-1.01117 -2.05259,-1.80864 -3.34197,-2.39241 -1.28939,-0.58377 -2.67358,-0.87564 -4.15258,-0.87564 -1.46004,0 -2.83475,0.29187 -4.12415,0.87564 -1.28937,0.58377 -2.40338,1.38124 -3.34195,2.39241 -0.93861,1.01117 -1.68285,2.20997 -2.23273,3.59643 -0.54989,1.38644 -0.82484,2.86149 -0.82484,4.42516 0,1.56366 0.27495,3.03874 0.82484,4.42519 0.54988,1.38643 1.29412,2.58525 2.23273,3.59641 0.93857,1.01118 2.05258,1.80864 3.34195,2.39241 1.2894,0.58378 2.66411,0.87565 4.12415,0.87565 z m 0,-4.15935 c -0.89118,0 -1.72077,-0.18241 -2.4887,-0.54728 -0.76794,-0.36484 -1.43159,-0.86521 -1.99097,-1.5011 -0.55936,-0.6359 -1.00021,-1.39167 -1.32258,-2.26732 -0.32232,-0.87568 -0.4835,-1.81387 -0.4835,-2.81461 0,-1.02158 0.16118,-1.965 0.4835,-2.83022 0.32237,-0.86524 0.76322,-1.61579 1.32258,-2.25168 0.55938,-0.6359 1.22303,-1.13627 1.99097,-1.50113 0.76793,-0.36485 1.59752,-0.54728 2.4887,-0.54728 0.89118,0 1.72551,0.18243 2.50292,0.54728 0.77744,0.36486 1.44583,0.86523 2.0052,1.50113 0.55935,0.63589 1.0002,1.38644 1.32255,2.25168 0.32235,0.86522 0.48353,1.80864 0.48353,2.83022 0,1.00074 -0.16118,1.93893 -0.48353,2.81461 -0.32235,0.87565 -0.7632,1.63142 -1.32255,2.26732 -0.55937,0.63589 -1.22776,1.13626 -2.0052,1.5011 -0.77741,0.36487 -1.61174,0.54728 -2.50292,0.54728 z m 51.39526,3.81534 v -14.6359 l 10.15392,14.6359 h 3.64062 v -21.89129 h -3.86816 v 14.1668 l -9.89794,-14.1668 h -3.92504 V 199.656 Z"
     id="COLLECTION"
     inkscape:connector-curvature="0"
     style="fill:#ffffff;fill-rule:nonzero;stroke:none;stroke-width:1.27448547" />
  <g
     id="g48"
     transform="matrix(1.157313,0,0,1.157313,5.212505,-138.37066)">
    <path
       d="m 98.368707,123.56449 -3.911684,9.67624 h 7.837657 z m -1.627486,-2.59162 h 3.269259 l 8.12318,19.44364 h -2.99801 l -1.94157,-4.98788 h -9.607908 l -1.941568,4.98788 h -3.040839 z"
       style="font-style:normal;font-weight:normal;font-size:40px;line-height:125%;font-family:sans-serif;letter-spacing:0px;word-spacing:0px;fill:#ffffff;fill-opacity:1;stroke:#ffffff;stroke-width:0.69800001;stroke-linecap:butt;stroke-linejoin:miter;stroke-miterlimit:4;stroke-dasharray:none;stroke-opacity:1"
       id="path36"
       inkscape:connector-curvature="0" />
    <path
       d="m 149.94112,131.30027 q 0.92796,0.28651 1.79881,1.22418 0.88512,0.93767 1.77025,2.5786 l 2.92663,5.31346 h -3.09794 l -2.72677,-4.98788 q -1.05644,-1.95348 -2.05577,-2.59162 -0.98506,-0.63814 -2.69821,-0.63814 h -3.14077 v 8.21764 h -2.88381 v -19.44364 h 6.50997 q 3.65472,0 5.45352,1.39348 1.79881,1.39349 1.79881,4.2065 0,1.83627 -0.94223,3.04743 -0.92796,1.21115 -2.71249,1.67999 z m -7.22378,-8.16555 v 6.9023 h 3.62617 q 2.08433,0 3.14077,-0.87256 1.07072,-0.88557 1.07072,-2.59161 0,-1.70604 -1.07072,-2.56557 -1.05644,-0.87256 -3.14077,-0.87256 z"
       style="font-style:normal;font-weight:normal;font-size:40px;line-height:125%;font-family:sans-serif;letter-spacing:0px;word-spacing:0px;fill:#ffffff;fill-opacity:1;stroke:#ffffff;stroke-width:0.69800001;stroke-linecap:butt;stroke-linejoin:miter;stroke-miterlimit:4;stroke-dasharray:none;stroke-opacity:1"
       id="path38"
       inkscape:connector-curvature="0" />
    <path
       d="m 200.69712,122.47054 v 2.77394 q -1.45617,-1.2372 -3.11221,-1.84929 -1.64177,-0.61209 -3.49768,-0.61209 -3.65472,0 -5.59629,2.04464 -1.94157,2.03162 -1.94157,5.88649 0,3.84184 1.94157,5.88649 1.94157,2.03161 5.59629,2.03161 1.85591,0 3.49768,-0.61209 1.65604,-0.61209 3.11221,-1.84929 v 2.74789 q -1.51328,0.93768 -3.21215,1.40651 -1.6846,0.46884 -3.56906,0.46884 -4.83964,0 -7.62351,-2.69581 -2.78386,-2.70882 -2.78386,-7.38415 0,-4.68836 2.78386,-7.38416 2.78387,-2.70883 7.62351,-2.70883 1.91302,0 3.59761,0.46884 1.69888,0.45581 3.1836,1.38046 z"
       style="font-style:normal;font-weight:normal;font-size:40px;line-height:125%;font-family:sans-serif;letter-spacing:0px;word-spacing:0px;fill:#ffffff;fill-opacity:1;stroke:#ffffff;stroke-width:0.69800001;stroke-linecap:butt;stroke-linejoin:miter;stroke-miterlimit:4;stroke-dasharray:none;stroke-opacity:1"
       id="path40"
       inkscape:connector-curvature="0" />
    <path
       d="m 238.86281,123.56449 -3.91168,9.67624 h 7.83765 z m -1.62749,-2.59162 h 3.26926 l 8.12318,19.44364 h -2.998 l -1.94157,-4.98788 h -9.60792 l -1.94157,4.98788 h -3.04083 z"
       style="font-style:normal;font-weight:normal;font-size:40px;line-height:125%;font-family:sans-serif;letter-spacing:0px;word-spacing:0px;fill:#ffffff;fill-opacity:1;stroke:#ffffff;stroke-width:0.69800001;stroke-linecap:butt;stroke-linejoin:miter;stroke-miterlimit:4;stroke-dasharray:none;stroke-opacity:1"
       id="path42"
       inkscape:connector-curvature="0" />
    <path
       d="m 277.21144,123.13472 v 15.11994 h 3.48341 q 4.41135,0 6.45285,-1.82325 2.05578,-1.82325 2.05578,-5.75625 0,-3.90696 -2.05578,-5.71719 -2.0415,-1.82325 -6.45285,-1.82325 z m -2.8838,-2.16185 h 5.92464 q 6.19589,0 9.09396,2.3572 2.89808,2.34418 2.89808,7.34509 0,5.02695 -2.91235,7.38415 -2.91235,2.3572 -9.07969,2.3572 h -5.92464 z"
       style="font-style:normal;font-weight:normal;font-size:40px;line-height:125%;font-family:sans-serif;letter-spacing:0px;word-spacing:0px;fill:#ffffff;fill-opacity:1;stroke:#ffffff;stroke-width:0.69800001;stroke-linecap:butt;stroke-linejoin:miter;stroke-miterlimit:4;stroke-dasharray:none;stroke-opacity:1"
       id="path44"
       inkscape:connector-curvature="0" />
    <path
       d="m 321.42893,120.97287 h 13.47677 v 2.21394 h -10.59297 v 5.75626 h 10.15041 v 2.21394 h -10.15041 v 7.04556 h 10.84994 v 2.21394 h -13.73374 z"
       style="font-style:normal;font-weight:normal;font-size:40px;line-height:125%;font-family:sans-serif;letter-spacing:0px;word-spacing:0px;fill:#ffffff;fill-opacity:1;stroke:#ffffff;stroke-width:0.69800001;stroke-linecap:butt;stroke-linejoin:miter;stroke-miterlimit:4;stroke-dasharray:none;stroke-opacity:1"
       id="path46"
       inkscape:connector-curvature="0" />
  </g>
  <path
     style="fill:#ffffff;fill-opacity:1;fill-rule:nonzero;stroke:none;stroke-width:0.47199214"
     d="m 161.90655,80.215472 c -18.44272,0 -33.39255,14.379949 -33.39255,32.106398 0,17.72597 14.94983,32.09509 33.39255,32.09509 8.22349,0 15.74719,-2.86182 21.56625,-7.59939 l -8.92622,-10.26437 c -3.34802,2.90929 -7.77085,4.69707 -12.64003,4.69707 -10.4253,0 -18.87641,-8.12345 -18.87641,-18.14405 0,-10.02062 8.45111,-18.144046 18.87641,-18.144046 4.63048,0 8.86547,1.608136 12.14952,4.267596 l 9.08446,-11.686158 c -5.77143,-4.577728 -13.16826,-7.32814 -21.23398,-7.32814 z"
     id="path14"
     inkscape:connector-curvature="0" />
  <path
     style="fill:#ffffff;fill-opacity:1;fill-rule:nonzero;stroke:none;stroke-width:0.47199214"
     d="m 413.00504,80.215472 c -18.44274,0 -33.39254,14.379949 -33.39254,32.106398 0,17.72597 14.9498,32.09509 33.39254,32.09509 18.44271,0 33.39481,-14.36912 33.39481,-32.09509 0,-17.726449 -14.9521,-32.106398 -33.39481,-32.106398 z m 0,13.962345 c 10.42576,0 18.87642,8.123433 18.87642,18.144053 0,10.02061 -8.45066,18.14404 -18.87642,18.14404 -10.42534,0 -18.8764,-8.12343 -18.8764,-18.14404 0,-10.02062 8.45106,-18.144053 18.8764,-18.144053 z"
     id="path20"
     inkscape:connector-curvature="0" />
  <path
     inkscape:connector-curvature="0"
     id="path24"
     style="fill:#ffffff;fill-opacity:1;fill-rule:nonzero;stroke:none;stroke-width:0.47199214"
     d="m 230.50244,144.41721 c 0,0 -16.04773,0 -16.04773,0 0,0 0,-63.886938 0,-63.886938 0,0 16.04773,0 16.04773,0 0,0 0,63.886938 0,63.886938 z" />
  <path
     inkscape:connector-curvature="0"
     id="path26"
     style="fill:#ffffff;fill-opacity:1;fill-rule:nonzero;stroke:none;stroke-width:0.47199214"
     d="m 375.1611,144.41721 c 0,0 -16.04771,0 -16.04771,0 0,0 0,-63.887401 0,-63.887401 0,0 16.04771,0 16.04771,0 0,0 0,63.887401 0,63.887401 z" />
  <path
     inkscape:connector-curvature="0"
     id="path28"
     style="fill:#ffffff;fill-opacity:1;fill-rule:nonzero;stroke:none;stroke-width:0.47199214"
     d="m 312.39031,144.41721 c 0,0 -16.04773,0 -16.04773,0 0,0 0,-63.887401 0,-63.887401 0,0 16.04773,0 16.04773,0 0,0 0,63.887401 0,63.887401 z" />
  <path
     inkscape:connector-curvature="0"
     id="path30"
     style="fill:#ffffff;fill-opacity:1;fill-rule:nonzero;stroke:none;stroke-width:0.47199214"
     d="m 450.29406,144.18122 c 0,0 15.81175,0 15.81175,0 0,0 0,-28.08354 0,-28.08354 0,0 31.62346,28.31953 31.62346,28.31953 0,0 0,-65.854423 0,-65.854423 0,0 -16.04772,0 -16.04772,0 0,0 0,26.679083 0,26.679083 0,0 -31.28377,-29.040423 -31.28377,-29.040423 0,0 -0.10369,67.979773 -0.10369,67.979773 z" />
  <path
     id="path40-3"
     style="fill:#231f20;fill-opacity:1;fill-rule:nonzero;stroke:none;stroke-width:0.47199214"
     d="m -2.8817146,44.603233 -0.065551,96.658247 75.4491236,-0.0633 c 0.513928,-1.98261 1.453704,-4.10748 2.94301,-6.32453 0.822335,-1.22417 1.407686,-2.57612 2.059204,-3.89237 -0.0013,-0.006 -9.17e-4,-0.0164 -0.0023,-0.0226 0.243306,-2.92412 1.651065,-5.33324 3.046989,-7.82769 0.219127,-0.39156 0.482097,-0.88585 0.761747,-1.33362 0.221682,-0.93197 0.533687,-1.8095 1.177656,-2.4932 3.222607,-3.42136 4.918531,-4.13398 6.980044,-4.05285 0.114829,0.005 0.247514,0.0286 0.366181,0.0384 0.382602,-1.94081 0.09131,-0.34583 0.135623,-1.91229 -0.423717,-1.11428 -0.765029,-2.34482 -0.978743,-3.72736 -0.501355,-0.43332 -0.992501,-0.83375 -1.466985,-1.17991 -0.289451,1.29116 -0.171139,2.64429 -0.24186,3.96922 0.105003,0.2483 0.171363,0.3304 -0.0023,0.11754 0.0024,-0.0389 -3.9e-5,-0.0786 0.0023,-0.11754 -0.09897,-0.23404 -0.233331,-0.61413 -0.232819,-1.0556 0.0062,-5.40666 -0.146219,-4.74364 1.403694,-7.64912 0.0155,-0.23126 0.117084,-0.91223 0.205694,-1.54383 -6e-6,-0.002 6e-6,-0.005 0,-0.007 -0.0071,-3.17426 0.330408,-5.85826 2.848076,-9.179394 0.240242,-1.56044 0.976873,-3.638673 1.238686,-4.581791 0.347287,-1.07144 0.754057,-2.575693 1.311019,-4.077711 1.678054,-6.873161 6.053606,-10.321629 10.194306,-10.320886 2.09466,3.76e-4 4.12325,0.888177 5.70971,2.646901 L 99.104235,44.616795 Z M 115.336,92.53905 c -0.006,0.145856 -0.008,0.302394 -0.0181,0.440774 0.0464,-0.0023 0.11967,-0.0046 0.16501,-0.0069 z m -23.885401,0.886062 c -0.03963,0.02581 -0.08306,0.04814 -0.122061,0.07453 -0.317476,1.001295 -0.545956,1.675176 -0.788872,2.405047 0.376581,0.01805 0.710918,0.02789 1.07368,0.04294 0.09532,-0.112491 0.292471,-0.3543 0.411388,-0.497286 -0.168667,-0.278611 -0.339853,-0.556667 -0.4792,-0.849896 -0.127545,-0.268407 -0.141614,-0.68703 -0.09493,-1.175405 z M 90.32041,99.96891 c -0.01391,0.0715 -0.0454,0.14149 -0.06555,0.21247 0.0041,8.4e-4 0.0072,10e-4 0.01134,0.002 -0.0024,0.0155 0.06196,-0.25442 0.05424,-0.21473 z m -1.869332,3.79969 c -0.694335,1.32497 -1.939103,3.78479 -0.18083,1.27259 0.43734,-1.70378 0.132231,-0.45649 0.18083,-1.27259 z m 31.857752,3.45159 c -0.49417,0.48593 -1.01391,0.95786 -1.5574,1.415 -0.0299,2.39067 -0.0104,4.53088 -1.27258,7.02977 -0.2133,0.42208 -0.46648,0.81833 -0.73916,1.20252 0.42565,-0.17667 0.3916,0.087 0.0655,0.85895 0.28025,-0.11849 0.57566,-0.248 0.80921,-0.33453 0.0812,-0.0301 0.16721,-0.0933 0.25543,-0.16501 0.41968,-0.5466 0.83057,-1.10144 1.19348,-1.68624 0.36724,-0.5918 -0.48421,1.1095 -1.19348,1.68624 -0.25408,0.33091 -0.50861,0.66028 -0.76627,0.98779 -0.14506,0.18437 -0.62877,0.60031 -0.87025,0.81147 0.27842,-0.61359 0.42747,-0.95754 0.57188,-1.29972 -0.35651,0.15072 -0.73205,0.31107 -1.14149,0.49503 0.38082,-0.4374 0.7436,-0.88572 1.07594,-1.35398 -0.6035,0.25051 -2.03692,1.14302 -4.38739,1.83996 0.36336,0.15443 0.71936,0.32378 1.0669,0.50858 0.75894,-0.32536 1.52649,-0.6708 2.24229,-0.99231 -0.44187,0.50736 -0.89411,1.00792 -1.33814,1.51445 1.03008,0.64459 1.99866,1.41087 2.9204,2.27168 0.51968,0.48534 0.92315,1.08036 1.3811,1.62522 -0.0866,-0.12033 -0.14991,-0.23421 -0.0678,-0.23735 0.29747,-0.0116 0.48056,0.35125 0.72105,0.52667 2.98258,3.12959 2.90121,2.518 4.71289,6.85799 0.2806,0.6722 0.37594,1.40494 0.55831,2.11119 -0.0126,-0.0927 -0.0164,-0.18158 0.0181,-0.22604 0.0716,-0.0922 0.17426,0.16096 0.2283,0.26446 0.34069,0.65255 0.63262,1.32916 0.94935,1.99366 0.97746,3.88261 1.01976,3.19623 0.77305,6.2296 l 5.28477,-0.005 z m -3.32954,3.89689 c -0.009,0.1859 -0.0104,0.37277 -0.0249,0.55831 0.006,0.118 0.005,0.20018 0.007,0.28708 0.0244,-0.30076 0.0414,-0.59227 0.0181,-0.84539 z m -0.0339,0.97874 c 3.3e-4,0.0141 0.002,0.0349 0.002,0.0498 0.001,-0.0122 8.6e-4,-0.0241 0.002,-0.0361 -10e-4,-0.002 -0.003,-0.009 -0.005,-0.0135 z m -35.725259,10.08581 c -0.03569,0.0524 -0.100235,0.1391 -0.126581,0.18083 -0.249673,1.08685 -1.210809,4.27639 -0.748185,3.26173 0.479487,-1.05166 0.629061,-2.27847 0.874766,-3.44256 z m -2.599434,6.79469 c 0.19781,-0.29844 -0.311005,0.36733 -0.504064,0.86573 0.164041,-0.29039 0.319103,-0.58668 0.504064,-0.86573 z"
     inkscape:connector-curvature="0" />
  <g
     id="g137"
     transform="matrix(1.157313,0,0,1.1846179,-0.76513332,0.0242236)">
    <g
       id="g129">
      <path
         inkscape:connector-curvature="0"
         id="path42-6"
         style="fill:#0eaaeb;fill-opacity:1;fill-rule:nonzero;stroke:none;stroke-width:0.40783447"
         d="m 65.463612,118.87903 c 0,0 -67.2924874,0 -67.2924874,0 0,0 0,-15.22529 0,-15.22529 0,0 67.2924874,0 67.2924874,0 0,0 0,15.22529 0,15.22529 z" />
      <path
         inkscape:connector-curvature="0"
         id="path44-7"
         style="fill:#54be36;fill-opacity:1;fill-rule:nonzero;stroke:none;stroke-width:0.40783447"
         d="m 65.463612,102.40156 c 0,0 -67.2924874,0 -67.2924874,0 0,0 0,-15.225288 0,-15.225288 0,0 72.5800004,0 72.5800004,0 0,0 -5.287513,15.225288 -5.287513,15.225288 z" />
      <path
         inkscape:connector-curvature="0"
         id="path46-5"
         style="fill:#f7de18;fill-opacity:1;fill-rule:nonzero;stroke:none;stroke-width:0.40783447"
         d="m 75.156851,85.883469 c 0,0 -76.9857264,0 -76.9857264,0 0,0 0,-15.233254 0,-15.233254 0,0 80.8043944,0 80.8043944,0 0,0 -3.818668,15.233254 -3.818668,15.233254 z" />
      <path
         inkscape:connector-curvature="0"
         id="path48"
         style="fill:#ef8122;fill-opacity:1;fill-rule:nonzero;stroke:none;stroke-width:0.40783447"
         d="m 79.592051,69.308823 c 0,0 -81.4209264,0 -81.4209264,0 0,0 0,-15.235643 0,-15.235643 0,0 84.9161934,0 84.9161934,0 0,0 -3.495267,15.235643 -3.495267,15.235643 z" />
      <path
         inkscape:connector-curvature="0"
         id="path50"
         style="fill:#eb222c;fill-opacity:1;fill-rule:nonzero;stroke:none;stroke-width:0.40783447"
         d="m 83.381249,52.867197 c 0,0 -85.2101244,0 -85.2101244,0 0,0 0,-15.235644 0,-15.235644 0,0 87.0017654,0 87.0017654,0 0,0 -1.791641,15.235644 -1.791641,15.235644 z" />
    </g>
  </g>
  <path
     style="fill:#ffffff;fill-opacity:1;fill-rule:nonzero;stroke:none;stroke-width:0.47199214"
     d="M 99.104235,44.616795 64.041267,141.19366 81.3874,141.19166 86.394135,125.69 h 24.403035 l 4.35348,15.46098 h 17.67163 z m 0.36166,41.030363 8.257155,23.711352 -17.002554,0.0181 z"
     id="path54"
     inkscape:connector-curvature="0" />
  <path
     inkscape:connector-curvature="0"
     id="path58"
     style="fill:#ffffff;fill-opacity:1;fill-rule:nonzero;stroke:none;stroke-width:0.47199214"
     d="m 320.78753,104.23105 c -8.43318,-9.50116 1.06197,-24.379046 12.33632,-23.788595 2.71396,-0.117999 17.20605,0 17.20605,0 0,0 0,12.752317 0,12.752317 0,0 -13.58406,0 -15.29688,0 -2.796,0 -4.32997,2.302567 -2.03823,4.847818 1.06198,1.17999 15.13925,15.37064 16.08322,16.55062 -10.80372,-0.0392 -17.25398,5.15273 -28.29048,-10.36216 z" />
  <path
     inkscape:connector-curvature="0"
     id="path60"
     style="fill:#ffffff;fill-opacity:1;fill-rule:nonzero;stroke:none;stroke-width:0.47199214"
     d="m 352.88392,119.38872 c 8.43316,9.98143 -1.06199,25.60097 -12.33633,24.98101 -2.71395,0.12399 -22.30162,-0.0341 -22.30162,-0.0341 0,0 0,-13.35406 0,-13.35406 0,0 18.67963,0 20.39244,0 2.796,0 4.32998,-2.41758 2.03824,-5.09144 -1.06199,-1.23943 -15.61676,-16.14774 -16.56075,-17.38765 10.80374,0.041 17.38397,-5.27626 28.76802,10.88624 z" />
  <path
     inkscape:connector-curvature="0"
     id="path62"
     style="fill:#ffffff;fill-opacity:1;fill-rule:nonzero;stroke:none;stroke-width:0.47199214"
     d="m 191.02829,143.5062 c 0,0 15.57574,0 15.57574,0 0,0 0,-72.214791 0,-72.214791 0,0 26.90355,0 26.90355,0 0,0 31.62324,85.430561 31.62324,85.430561 0,0 33.51282,-85.194565 33.51282,-85.194565 0,0 83.30662,0 83.30662,0 0,0 -7.31588,-16.047733 -7.31588,-16.047733 0,0 -88.02653,0 -88.02653,0 0,0 -20.53305,53.807098 -20.53305,53.807098 0,0 -20.73354,-53.837055 -20.73354,-53.837055 0,0 -84.31835,0 -84.31835,0 0,0 -8.69798,15.841694 -8.69798,15.841694 0,0 38.70336,0 38.70336,0 0,0 0,72.214791 0,72.214791 z" />
</svg>
