<?xml version="1.0" encoding="UTF-8" standalone="no"?>
<svg
   xmlns:dc="http://purl.org/dc/elements/1.1/"
   xmlns:cc="http://creativecommons.org/ns#"
   xmlns:rdf="http://www.w3.org/1999/02/22-rdf-syntax-ns#"
   xmlns:svg="http://www.w3.org/2000/svg"
   xmlns="http://www.w3.org/2000/svg"
   xmlns:sodipodi="http://sodipodi.sourceforge.net/DTD/sodipodi-0.dtd"
   xmlns:inkscape="http://www.inkscape.org/namespaces/inkscape"
   width="500"
   height="200"
   viewBox="0 0 500 200"
   version="1.1"
   id="svg29"
   sodipodi:docname="atlus.svg"
   inkscape:version="0.92.5 (2060ec1f9f, 2020-04-08)">
  <metadata
     id="metadata35">
    <rdf:RDF>
      <cc:Work
         rdf:about="">
        <dc:format>image/svg+xml</dc:format>
        <dc:type
           rdf:resource="http://purl.org/dc/dcmitype/StillImage" />
        <dc:title>mainlogo</dc:title>
      </cc:Work>
    </rdf:RDF>
  </metadata>
  <defs
     id="defs33">
    <clipPath
       id="clipPath3361"
       clipPathUnits="userSpaceOnUse">
      <path
         id="path3363"
         d="M 0,864 H 1296 V 0 H 0 Z"
         inkscape:connector-curvature="0" />
    </clipPath>
  </defs>
  <sodipodi:namedview
     pagecolor="#ffffff"
     bordercolor="#666666"
     borderopacity="1"
     objecttolerance="10"
     gridtolerance="10"
     guidetolerance="10"
     inkscape:pageopacity="0"
     inkscape:pageshadow="2"
     inkscape:window-width="1366"
     inkscape:window-height="743"
     id="namedview31"
     showgrid="false"
     inkscape:pagecheckerboard="true"
     inkscape:zoom="1.1167155"
     inkscape:cx="418.25708"
     inkscape:cy="110.89813"
     inkscape:window-x="0"
     inkscape:window-y="0"
     inkscape:window-maximized="1"
     inkscape:current-layer="svg29" />
  <title
     id="title14">mainlogo</title>
  <g
     transform="matrix(0.49463559,0,0,0.49463559,-101.58529,-202.98615)"
     id="layer1"
     inkscape:label="Layer 1">
    <g
       transform="matrix(2.2325588,0,0,2.2325588,-266.35962,-921.5789)"
       id="g4169">
      <g
         id="g3475"
         transform="matrix(8.3973198,0,0,-8.3973198,447.13171,629.60498)">
        <path
           inkscape:connector-curvature="0"
           d="m 0,0 h -2.861 v -14.055 h 6.69 v 3.015 H 0 Z"
           style="fill:#3163b7;fill-opacity:1;fill-rule:nonzero;stroke:none"
           id="path3477" />
      </g>
      <g
         id="g3479"
         transform="matrix(8.3973198,0,0,-8.3973198,507.57817,629.60498)">
        <path
           inkscape:connector-curvature="0"
           d="m 0,0 h -2.752 v -9.031 c 0.033,-2.544 2.698,-6.243 6.812,-4.644 v 3.389 C 2.835,-11.729 -0.054,-11.292 0,-8.436 Z"
           style="fill:#3163b7;fill-opacity:1;fill-rule:nonzero;stroke:none"
           id="path3481" />
      </g>
      <path
         inkscape:connector-curvature="0"
         d="m 545.3258,747.62595 h 24.24306 V 629.60162 H 545.3258 Z"
         style="fill:#3163b7;fill-opacity:1;fill-rule:nonzero;stroke:none"
         id="path3483" />
      <g
         id="g3485"
         transform="matrix(8.3973198,0,0,-8.3973198,620.74462,629.60498)">
        <path
           inkscape:connector-curvature="0"
           d="m 0,0 h -3.391 l -1.284,-2.193 c -0.939,-1.162 -0.911,-5.993 3.986,-6.087 h 1.628 c 1.915,-0.408 1.571,-2.855 -0.342,-2.76 h -5.931 v -3.015 h 5.96 c 5.837,0.191 6.116,8.598 0.221,8.598 l -1.662,0.045 c -1.318,0.096 -1.601,1.319 -1.145,2.057 z"
           style="fill:#3163b7;fill-opacity:1;fill-rule:nonzero;stroke:none"
           id="path3487" />
      </g>
      <g
         id="g3489"
         transform="matrix(8.3973198,0,0,-8.3973198,625.75533,629.60498)">
        <path
           inkscape:connector-curvature="0"
           d="M 0,0 -1.712,-2.883 H 2.916 L 4.61,0 Z"
           style="fill:#3163b7;fill-opacity:1;fill-rule:nonzero;stroke:none"
           id="path3491" />
      </g>
      <g
         id="g3493"
         transform="matrix(8.3973198,0,0,-8.3973198,292.92165,629.06331)">
        <path
           inkscape:connector-curvature="0"
           d="m 0,0 -9.148,-14.119 h 3.264 l 3.562,5.495 H 0 Z"
           style="fill:#3163b7;fill-opacity:1;fill-rule:nonzero;stroke:none"
           id="path3495" />
      </g>
      <path
         inkscape:connector-curvature="0"
         d="m 319.79898,629.60162 h -23.13461 v 118.03272 h 23.13461 z"
         style="fill:#3163b7;fill-opacity:1;fill-rule:nonzero;stroke:none"
         id="path3497" />
      <g
         id="g3499"
         transform="matrix(8.3973198,0,0,-8.3973198,416.61,653.70609)">
        <path
           inkscape:connector-curvature="0"
           d="m 0,0 v 2.87 h -3.334 l -3.364,-3.449 v -10.606 h 3.01 V 0.001 Z"
           style="fill:#ed1c24;fill-opacity:1;fill-rule:nonzero;stroke:none"
           id="path3501" />
      </g>
      <g
         id="g3503"
         transform="matrix(8.3973198,0,0,-8.3973198,359.41082,653.69769)">
        <path
           inkscape:connector-curvature="0"
           d="m 0,0 2.823,2.869 h -6.774 v -2.87 z"
           style="fill:#ed1c24;fill-opacity:1;fill-rule:nonzero;stroke:none"
           id="path3505" />
      </g>
    </g>
  </g>
  <path
     d="m 14.146298,197.78427 c 1.548307,0 3.054132,-0.36332 4.51747,-1.08994 1.463339,-0.72667 2.667054,-1.70244 3.611143,-2.92734 v 0 l -2.690656,-2.92733 c -0.698625,0.89273 -1.501103,1.57785 -2.407428,2.05538 -0.906326,0.47749 -1.878739,0.71624 -2.917238,0.71624 -0.925208,0 -1.779609,-0.18165 -2.563203,-0.54498 -0.783596,-0.36333 -1.46334,-0.8564 -2.0392363,-1.47923 -0.5758954,-0.62284 -1.0290566,-1.36505 -1.3594892,-2.22663 -0.3304315,-0.8616 -0.4956461,-1.79066 -0.4956461,-2.7872 0,-1.0173 0.1604953,-1.95674 0.481486,-2.81833 0.3209895,-0.86159 0.7647133,-1.609 1.3311667,-2.24221 0.5664519,-0.63321 1.2414769,-1.13148 2.0250729,-1.4948 0.783594,-0.36332 1.619112,-0.54497 2.506558,-0.54497 1.057381,0 2.058116,0.25431 3.002206,0.76296 0.94409,0.50865 1.765449,1.24048 2.464074,2.19549 v 0 l 2.775624,-3.02075 c -0.925208,-1.24566 -2.133643,-2.237 -3.625305,-2.97403 -1.491663,-0.73703 -3.030528,-1.10553 -4.616599,-1.10553 -1.47278,0 -2.855873,0.29066 -4.1492748,0.87198 -1.2934034,0.58129 -2.4121503,1.37022 -3.3562394,2.36675 -0.9440891,0.99655 -1.6899207,2.18512 -2.2374925,3.56574 -0.547573,1.38062 -0.8213583,2.85984 -0.8213583,4.4377 0,1.57783 0.2690649,3.0519 0.8071947,4.42214 0.5381321,1.37023 1.2792433,2.55361 2.2233336,3.55015 0.9440903,0.99653 2.062836,1.78548 3.3562394,2.36678 1.2934033,0.58131 2.6859353,0.87196 4.1775973,0.87196 z m 53.671509,0.0311 c 1.472779,0 2.85115,-0.29065 4.135113,-0.87196 1.283962,-0.58132 2.39326,-1.37542 3.327917,-2.38235 0.934644,-1.00691 1.675759,-2.20069 2.223332,-3.58129 0.547585,-1.38062 0.821348,-2.84949 0.821348,-4.40658 0,-1.55709 -0.273763,-3.02594 -0.821348,-4.40654 -0.547573,-1.38063 -1.288688,-2.57439 -2.223332,-3.58131 -0.934657,-1.00691 -2.043955,-1.80103 -3.327917,-2.38235 -1.283963,-0.58131 -2.662334,-0.87196 -4.135113,-0.87196 -1.453902,0 -2.822835,0.29065 -4.106797,0.87196 -1.283963,0.58132 -2.393261,1.37544 -3.327917,2.38235 -0.934645,1.00692 -1.675753,2.20068 -2.223326,3.58131 -0.547573,1.3806 -0.82136,2.84945 -0.82136,4.40654 0,1.55709 0.273787,3.02596 0.82136,4.40658 0.547573,1.3806 1.288681,2.57438 2.223326,3.58129 0.934656,1.00693 2.043954,1.80103 3.327917,2.38235 1.283962,0.58131 2.652895,0.87196 4.106797,0.87196 z m 0,-4.14185 c -0.887441,0 -1.713525,-0.18165 -2.47823,-0.54498 -0.764717,-0.36331 -1.425575,-0.86157 -1.982598,-1.4948 -0.557012,-0.63322 -0.996013,-1.38581 -1.317004,-2.25777 -0.32099,-0.872 -0.481491,-1.80624 -0.481491,-2.80278 0,-1.01728 0.160501,-1.95673 0.481491,-2.81831 0.320991,-0.8616 0.759992,-1.609 1.317004,-2.24221 0.557023,-0.63322 1.217881,-1.1315 1.982598,-1.49482 0.764705,-0.36332 1.590789,-0.54498 2.47823,-0.54498 0.887441,0 1.718239,0.18166 2.492394,0.54498 0.774155,0.36332 1.439738,0.8616 1.996762,1.49482 0.556999,0.63321 0.996001,1.38061 1.317003,2.24221 0.320979,0.86158 0.48148,1.80103 0.48148,2.81831 0,0.99654 -0.160501,1.93078 -0.48148,2.80278 -0.321002,0.87196 -0.760004,1.62455 -1.317003,2.25777 -0.557024,0.63323 -1.222607,1.13149 -1.996762,1.4948 -0.774155,0.36333 -1.604953,0.54498 -2.492394,0.54498 z m 62.253283,3.79929 v -3.98614 H 119.22351 V 175.6736 h -4.1068 v 21.79923 z m 51.77388,0 v -3.98614 H 170.99736 V 175.6736 h -4.10677 v 21.79923 z m 52.1704,0 v -3.92384 h -11.24411 v -5.16954 h 7.33559 v -3.79929 h -7.33559 v -4.98267 h 11.13082 v -3.92386 h -15.2376 v 21.79923 z m 45.54289,0.31142 c 1.54832,0 3.05414,-0.36332 4.51747,-1.08996 1.46334,-0.72664 2.66706,-1.70241 3.61116,-2.92733 v 0 l -2.69065,-2.92731 c -0.69863,0.89273 -1.50111,1.57784 -2.40745,2.05535 -0.90633,0.47749 -1.87874,0.71626 -2.91724,0.71626 -0.92519,0 -1.77961,-0.18166 -2.56318,-0.54497 -0.78362,-0.36334 -1.46335,-0.85642 -2.03924,-1.47925 -0.5759,-0.62282 -1.02908,-1.36503 -1.35948,-2.22662 -0.33046,-0.8616 -0.49567,-1.79067 -0.49567,-2.78721 0,-1.01728 0.16049,-1.95673 0.4815,-2.81831 0.32098,-0.8616 0.7647,-1.609 1.33116,-2.24221 0.56646,-0.63322 1.24147,-1.1315 2.02508,-1.49482 0.78358,-0.36332 1.6191,-0.54498 2.50654,-0.54498 1.05739,0 2.05812,0.25434 3.0022,0.76299 0.9441,0.50865 1.76547,1.24046 2.46409,2.19547 v 0 l 2.77561,-3.02073 c -0.92518,-1.24568 -2.13364,-2.23703 -3.62531,-2.97405 -1.49164,-0.73701 -3.03051,-1.10552 -4.61659,-1.10552 -1.47278,0 -2.85586,0.29065 -4.14926,0.87196 -1.2934,0.58132 -2.41215,1.37024 -3.35625,2.36678 -0.94408,0.99654 -1.68991,2.18511 -2.23748,3.56573 -0.54759,1.3806 -0.82137,2.85984 -0.82137,4.43769 0,1.57784 0.26907,3.0519 0.80719,4.42213 0.53815,1.37025 1.27925,2.55364 2.22335,3.55017 0.94407,0.99654 2.06282,1.78547 3.35622,2.36677 1.29342,0.5813 2.68593,0.87197 4.1776,0.87197 z m 54.32294,-0.31142 v -17.81309 h 6.65582 v -3.98614 h -17.44678 v 3.98614 h 6.68417 v 17.81309 z m 47.044,0 V 175.6736 h -4.10678 v 21.79923 z m 47.2989,0.34256 c 1.47278,0 2.85115,-0.29065 4.13511,-0.87196 1.28396,-0.58132 2.39327,-1.37542 3.32792,-2.38235 0.93466,-1.00691 1.67575,-2.20069 2.22333,-3.58129 0.54757,-1.38062 0.82136,-2.84949 0.82136,-4.40658 0,-1.55709 -0.27379,-3.02594 -0.82136,-4.40654 -0.54758,-1.38063 -1.28867,-2.57439 -2.22333,-3.58131 -0.93465,-1.00691 -2.04396,-1.80103 -3.32792,-2.38235 -1.28396,-0.58131 -2.66233,-0.87196 -4.13511,-0.87196 -1.4539,0 -2.82282,0.29065 -4.10681,0.87196 -1.28394,0.58132 -2.39327,1.37544 -3.32789,2.38235 -0.93466,1.00692 -1.67577,2.20068 -2.22334,3.58131 -0.54758,1.3806 -0.82137,2.84945 -0.82137,4.40654 0,1.55709 0.27379,3.02596 0.82137,4.40658 0.54757,1.3806 1.28868,2.57438 2.22334,3.58129 0.93462,1.00693 2.04395,1.80103 3.32789,2.38235 1.28399,0.58131 2.65291,0.87196 4.10681,0.87196 z m 0,-4.14185 c -0.88743,0 -1.71354,-0.18165 -2.47823,-0.54498 -0.76472,-0.36331 -1.42558,-0.86157 -1.9826,-1.4948 -0.55701,-0.63322 -0.996,-1.38581 -1.31701,-2.25777 -0.32097,-0.872 -0.48147,-1.80624 -0.48147,-2.80278 0,-1.01728 0.1605,-1.95673 0.48147,-2.81831 0.32101,-0.8616 0.76,-1.609 1.31701,-2.24221 0.55702,-0.63322 1.21788,-1.1315 1.9826,-1.49482 0.76469,-0.36332 1.5908,-0.54498 2.47823,-0.54498 0.88743,0 1.71825,0.18166 2.49239,0.54498 0.77417,0.36332 1.43975,0.8616 1.99677,1.49482 0.55699,0.63321 0.996,1.38061 1.31699,2.24221 0.32099,0.86158 0.48149,1.80103 0.48149,2.81831 0,0.99654 -0.1605,1.93078 -0.48149,2.80278 -0.32099,0.87196 -0.76,1.62455 -1.31699,2.25777 -0.55702,0.63323 -1.2226,1.13149 -1.99677,1.4948 -0.77414,0.36333 -1.60496,0.54498 -2.49239,0.54498 z m 51.1791,3.79929 v -14.57435 l 10.11121,14.57435 h 3.62531 V 175.6736 h -3.85189 v 14.10723 l -9.85631,-14.10723 h -3.90853 v 21.79923 z"
     id="COLLECTION"
     inkscape:connector-curvature="0"
     style="fill:#ffffff;fill-rule:nonzero;stroke:none;stroke-width:1.26912522" />
  <g
     id="g48"
     transform="matrix(1.1524455,0,0,1.1524455,8.3108215,-137.11032)">
    <path
       d="m 98.368707,123.56449 -3.911684,9.67624 h 7.837657 z m -1.627486,-2.59162 h 3.269259 l 8.12318,19.44364 h -2.99801 l -1.94157,-4.98788 h -9.607908 l -1.941568,4.98788 h -3.040839 z"
       style="font-style:normal;font-weight:normal;font-size:40px;line-height:125%;font-family:sans-serif;letter-spacing:0px;word-spacing:0px;fill:#ffffff;fill-opacity:1;stroke:#ffffff;stroke-width:0.69800001;stroke-linecap:butt;stroke-linejoin:miter;stroke-miterlimit:4;stroke-dasharray:none;stroke-opacity:1"
       id="path36"
       inkscape:connector-curvature="0" />
    <path
       d="m 149.94112,131.30027 q 0.92796,0.28651 1.79881,1.22418 0.88512,0.93767 1.77025,2.5786 l 2.92663,5.31346 h -3.09794 l -2.72677,-4.98788 q -1.05644,-1.95348 -2.05577,-2.59162 -0.98506,-0.63814 -2.69821,-0.63814 h -3.14077 v 8.21764 h -2.88381 v -19.44364 h 6.50997 q 3.65472,0 5.45352,1.39348 1.79881,1.39349 1.79881,4.2065 0,1.83627 -0.94223,3.04743 -0.92796,1.21115 -2.71249,1.67999 z m -7.22378,-8.16555 v 6.9023 h 3.62617 q 2.08433,0 3.14077,-0.87256 1.07072,-0.88557 1.07072,-2.59161 0,-1.70604 -1.07072,-2.56557 -1.05644,-0.87256 -3.14077,-0.87256 z"
       style="font-style:normal;font-weight:normal;font-size:40px;line-height:125%;font-family:sans-serif;letter-spacing:0px;word-spacing:0px;fill:#ffffff;fill-opacity:1;stroke:#ffffff;stroke-width:0.69800001;stroke-linecap:butt;stroke-linejoin:miter;stroke-miterlimit:4;stroke-dasharray:none;stroke-opacity:1"
       id="path38"
       inkscape:connector-curvature="0" />
    <path
       d="m 200.69712,122.47054 v 2.77394 q -1.45617,-1.2372 -3.11221,-1.84929 -1.64177,-0.61209 -3.49768,-0.61209 -3.65472,0 -5.59629,2.04464 -1.94157,2.03162 -1.94157,5.88649 0,3.84184 1.94157,5.88649 1.94157,2.03161 5.59629,2.03161 1.85591,0 3.49768,-0.61209 1.65604,-0.61209 3.11221,-1.84929 v 2.74789 q -1.51328,0.93768 -3.21215,1.40651 -1.6846,0.46884 -3.56906,0.46884 -4.83964,0 -7.62351,-2.69581 -2.78386,-2.70882 -2.78386,-7.38415 0,-4.68836 2.78386,-7.38416 2.78387,-2.70883 7.62351,-2.70883 1.91302,0 3.59761,0.46884 1.69888,0.45581 3.1836,1.38046 z"
       style="font-style:normal;font-weight:normal;font-size:40px;line-height:125%;font-family:sans-serif;letter-spacing:0px;word-spacing:0px;fill:#ffffff;fill-opacity:1;stroke:#ffffff;stroke-width:0.69800001;stroke-linecap:butt;stroke-linejoin:miter;stroke-miterlimit:4;stroke-dasharray:none;stroke-opacity:1"
       id="path40"
       inkscape:connector-curvature="0" />
    <path
       d="m 238.86281,123.56449 -3.91168,9.67624 h 7.83765 z m -1.62749,-2.59162 h 3.26926 l 8.12318,19.44364 h -2.998 l -1.94157,-4.98788 h -9.60792 l -1.94157,4.98788 h -3.04083 z"
       style="font-style:normal;font-weight:normal;font-size:40px;line-height:125%;font-family:sans-serif;letter-spacing:0px;word-spacing:0px;fill:#ffffff;fill-opacity:1;stroke:#ffffff;stroke-width:0.69800001;stroke-linecap:butt;stroke-linejoin:miter;stroke-miterlimit:4;stroke-dasharray:none;stroke-opacity:1"
       id="path42"
       inkscape:connector-curvature="0" />
    <path
       d="m 277.21144,123.13472 v 15.11994 h 3.48341 q 4.41135,0 6.45285,-1.82325 2.05578,-1.82325 2.05578,-5.75625 0,-3.90696 -2.05578,-5.71719 -2.0415,-1.82325 -6.45285,-1.82325 z m -2.8838,-2.16185 h 5.92464 q 6.19589,0 9.09396,2.3572 2.89808,2.34418 2.89808,7.34509 0,5.02695 -2.91235,7.38415 -2.91235,2.3572 -9.07969,2.3572 h -5.92464 z"
       style="font-style:normal;font-weight:normal;font-size:40px;line-height:125%;font-family:sans-serif;letter-spacing:0px;word-spacing:0px;fill:#ffffff;fill-opacity:1;stroke:#ffffff;stroke-width:0.69800001;stroke-linecap:butt;stroke-linejoin:miter;stroke-miterlimit:4;stroke-dasharray:none;stroke-opacity:1"
       id="path44"
       inkscape:connector-curvature="0" />
    <path
       d="m 321.42893,120.97287 h 13.47677 v 2.21394 h -10.59297 v 5.75626 h 10.15041 v 2.21394 h -10.15041 v 7.04556 h 10.84994 v 2.21394 h -13.73374 z"
       style="font-style:normal;font-weight:normal;font-size:40px;line-height:125%;font-family:sans-serif;letter-spacing:0px;word-spacing:0px;fill:#ffffff;fill-opacity:1;stroke:#ffffff;stroke-width:0.69800001;stroke-linecap:butt;stroke-linejoin:miter;stroke-miterlimit:4;stroke-dasharray:none;stroke-opacity:1"
       id="path46"
       inkscape:connector-curvature="0" />
  </g>
</svg>
