<!DOCTYPE svg PUBLIC "-//W3C//DTD SVG 20010904//EN" "http://www.w3.org/TR/2001/REC-SVG-20010904/DTD/svg10.dtd">
<svg version="1.0" xmlns="http://www.w3.org/2000/svg" width="999px" height="308px" viewBox="0 0 9990 3080" preserveAspectRatio="xMidYMid meet">
<g id="layer101" fill="#010100" stroke="none">
<path d="M4249 3045 c-598 -97 -1052 -523 -1190 -1115 -26 -110 -37 -392 -20 -511 36 -256 136 -490 295 -693 95 -120 365 -381 471 -452 164 -111 326 -181 526 -226 89 -20 132 -23 294 -23 177 0 275 11 378 41 16 5 17 32 17 380 l0 374 615 0 c345 0 615 4 615 9 0 5 -137 156 -304 337 -304 329 -304 329 -270 332 30 3 63 35 301 293 147 159 270 295 272 300 2 6 -32 47 -75 90 l-79 79 -537 0 -538 0 0 293 -1 292 -81 84 -81 83 -91 20 c-121 26 -396 33 -517 13z m533 -866 l38 -10 0 -252 0 -251 42 -43 42 -43 -42 0 -42 0 0 -304 0 -303 -58 -26 c-97 -44 -178 -60 -292 -60 -129 0 -203 18 -328 79 -75 36 -99 54 -127 92 -45 62 -90 168 -109 264 -81 393 189 787 590 863 83 15 218 13 286 -6z"/>
<path d="M6540 2606 c0 -219 4 -417 10 -447 5 -30 26 -88 46 -129 32 -65 58 -96 193 -230 l156 -155 195 -110 195 -111 3 -314 c1 -173 0 -330 -3 -348 -7 -36 -36 -72 -60 -72 -13 0 -15 29 -15 203 l0 202 -78 78 -77 77 -283 0 -282 0 0 -297 c0 -164 5 -327 11 -363 19 -121 55 -180 202 -326 204 -202 238 -214 647 -214 291 0 362 9 460 57 108 53 202 177 229 301 7 35 11 216 11 536 0 619 9 583 -202 793 l-123 122 -250 137 c-137 75 -253 141 -257 148 -4 6 -8 53 -8 104 l0 92 420 0 420 0 0 253 0 252 -78 78 -77 77 -703 0 -702 0 0 -394z"/>
<path d="M8680 2981 c-90 -29 -141 -60 -205 -125 -68 -69 -107 -136 -130 -221 -22 -86 -23 -1971 0 -2054 29 -112 62 -159 204 -302 115 -115 147 -142 211 -172 108 -53 172 -59 518 -55 275 4 301 6 356 26 161 60 279 188 321 349 13 49 15 200 15 1028 0 860 -2 978 -16 1026 -30 102 -73 166 -193 288 -124 126 -177 167 -262 203 -52 22 -65 23 -409 25 -319 2 -361 1 -410 -16z m540 -1415 l0 -815 -23 -26 c-17 -20 -35 -28 -70 -32 l-47 -6 0 809 c1 652 3 814 14 833 17 31 53 50 94 51 l32 0 0 -814z"/>
<path d="M400 2903 c-7 -49 -97 -671 -200 -1383 l-187 -1295 81 -82 81 -83 331 0 332 0 5 28 c2 15 42 325 88 689 46 364 84 661 85 660 1 -1 30 -274 64 -607 l63 -605 81 -82 81 -83 323 0 323 0 -6 33 c-3 17 -80 640 -170 1382 l-165 1350 -83 83 -82 82 -516 0 -517 0 -12 -87z"/>
<path d="M2050 1602 l0 -1387 78 -78 77 -77 323 0 322 0 0 1383 0 1382 -83 83 -82 82 -318 0 -317 0 0 -1388z"/>
</g>
<g id="layer102" fill="#284163" stroke="none">
<path d="M6572 2558 l3 -423 37 -76 c23 -47 62 -102 101 -145 68 -72 107 -98 427 -278 85 -48 170 -103 188 -121 l32 -35 0 -378 c0 -421 1 -412 -68 -432 -47 -13 -97 -13 -144 1 -64 17 -68 34 -68 309 l0 240 -256 0 -255 0 3 -327 c3 -313 4 -331 25 -383 49 -119 150 -213 271 -250 58 -18 94 -20 376 -20 253 0 322 3 364 15 151 45 270 175 302 330 7 34 10 220 8 536 -3 481 -3 484 -26 542 -14 35 -45 80 -77 115 -47 50 -88 75 -332 207 -225 122 -288 160 -333 205 -66 64 -70 78 -70 226 l0 104 420 0 420 0 0 230 0 230 -675 0 -676 0 3 -422z"/>
<path d="M8723 2965 c-157 -34 -284 -149 -342 -310 l-22 -60 3 -1005 3 -1005 37 -78 c50 -103 122 -175 225 -225 l78 -37 340 -3 c294 -3 349 -1 403 14 155 41 284 176 327 341 23 87 22 1930 0 2018 -46 175 -182 309 -357 350 -85 20 -603 20 -695 0z m489 -443 l33 -32 3 -860 c3 -938 4 -908 -54 -947 -22 -14 -48 -18 -124 -18 -103 0 -136 13 -159 63 -8 16 -11 296 -11 891 l0 868 21 27 c32 40 53 46 161 43 96 -2 98 -3 130 -35z"/>
<path d="M435 2938 c-7 -31 -385 -2657 -385 -2674 0 -12 52 -14 305 -14 168 0 305 3 305 8 0 4 29 232 64 507 35 275 97 763 137 1084 57 447 76 575 82 545 4 -21 54 -491 112 -1044 58 -553 107 -1026 111 -1052 l6 -48 294 0 294 0 -5 37 c-10 64 -325 2646 -325 2660 0 11 -93 13 -495 13 l-495 0 -5 -22z"/>
<path d="M7166 2425 c46 -51 71 -72 78 -65 6 6 154 10 414 10 l404 0 -58 64 -59 65 -423 0 -423 1 67 -75z"/>
<path d="M4314 2345 c-81 -17 -190 -65 -262 -114 -80 -54 -190 -174 -234 -257 -113 -212 -119 -474 -15 -680 35 -70 108 -174 146 -208 19 -17 17 -11 -10 49 -123 272 -84 585 101 811 89 108 210 191 355 240 70 24 96 28 210 28 72 1 151 -3 178 -7 l47 -8 0 34 c0 32 -3 36 -67 65 -132 59 -308 78 -449 47z"/>
<path d="M4852 1280 c2 -148 6 -270 11 -270 4 0 270 0 592 0 l586 0 -249 268 -248 267 -347 3 -347 2 2 -270z"/>
<path d="M3705 384 c165 -148 413 -267 659 -316 135 -26 372 -28 506 -3 52 9 98 20 102 24 3 3 -22 37 -57 74 l-62 68 -114 -22 c-145 -29 -374 -31 -519 -5 -149 27 -326 90 -453 162 l-112 63 50 -45z"/>
<path d="M9645 344 c-60 -54 -146 -99 -219 -114 -35 -7 -168 -10 -383 -8 -311 3 -331 4 -387 25 l-60 23 35 -36 c51 -54 144 -112 217 -134 58 -18 93 -20 376 -20 248 0 324 3 371 15 65 17 135 53 178 91 l28 24 -52 90 c-28 50 -52 90 -53 90 0 -1 -23 -21 -51 -46z"/>
<path d="M7790 335 c-36 -38 -118 -82 -185 -100 -47 -12 -122 -15 -370 -15 -298 1 -313 1 -378 24 l-68 23 43 -44 c57 -59 141 -109 213 -128 86 -22 624 -22 710 0 63 17 165 72 165 90 0 5 -24 47 -53 93 l-53 83 -24 -26z"/>
<path d="M135 160 l69 -70 299 0 299 0 -63 70 -62 70 -306 0 -305 0 69 -70z"/>
<path d="M1255 160 l70 -70 288 2 287 3 -61 68 -61 67 -296 0 -297 0 70 -70z"/>
<path d="M2100 224 c0 -3 28 -35 62 -70 l62 -64 289 0 c170 0 287 4 285 9 -1 5 -29 37 -61 70 l-58 61 -290 0 c-159 0 -289 -3 -289 -6z"/>
</g>
<g id="layer103" fill="#ff0000" stroke="none">
<path d="M4850 1960 l0 -270 348 0 347 0 181 198 c100 108 212 230 249 270 l67 72 -596 0 -596 0 0 -270z"/>
</g>
<g id="layer104" fill="#2a30b4" stroke="none">
<path d="M435 2938 c-3 -13 -41 -275 -84 -583 -146 -1026 -291 -2040 -297 -2072 l-6 -33 304 0 304 0 67 522 c37 288 100 778 139 1090 40 311 74 565 76 563 2 -2 39 -338 83 -747 43 -409 81 -759 84 -778 8 -57 65 -611 65 -631 0 -18 14 -19 295 -19 l295 0 -5 37 c-10 64 -325 2646 -325 2660 0 11 -93 13 -495 13 l-495 0 -5 -22z"/>
<path d="M4860 1280 l0 -270 586 0 585 0 -18 23 c-10 13 -121 134 -247 270 l-229 247 -338 0 -339 0 0 -270z"/>
</g>
<g id="layer105" fill="#63793d" stroke="none">
<path d="M4290 3020 c-288 -29 -592 -177 -814 -396 -118 -117 -197 -226 -272 -378 -110 -222 -146 -376 -146 -626 0 -175 16 -278 63 -428 175 -548 649 -928 1230 -983 125 -12 304 -2 419 24 l55 12 3 348 c1 191 1 347 -2 347 -2 0 -24 -9 -49 -20 -136 -60 -329 -78 -477 -45 -216 49 -413 203 -513 401 -47 93 -69 182 -74 305 -11 241 67 434 242 598 96 88 239 162 365 187 153 30 347 7 473 -57 l37 -19 0 349 0 349 -52 12 c-126 27 -327 36 -488 20z"/>
<path d="M6572 2558 l3 -423 37 -76 c23 -47 62 -102 101 -145 68 -72 90 -87 442 -287 120 -68 175 -105 188 -126 15 -26 17 -66 17 -403 0 -416 1 -408 -68 -428 -47 -13 -97 -13 -144 1 -64 17 -68 34 -68 309 l0 240 -256 0 -255 0 3 -327 c4 -314 5 -330 27 -384 48 -118 136 -202 259 -245 65 -23 76 -24 377 -24 338 0 386 6 467 56 114 70 186 175 208 302 7 45 10 224 8 537 l-3 470 -25 60 c-43 104 -114 163 -339 285 -316 170 -324 175 -368 204 -23 15 -54 46 -70 68 -27 39 -28 48 -32 170 l-3 128 421 0 421 0 0 230 0 230 -676 0 -675 0 3 -422z"/>
<path d="M8723 2965 c-157 -34 -284 -150 -342 -311 l-22 -59 3 -1005 3 -1005 37 -78 c49 -101 124 -176 228 -226 l75 -36 334 -3 c358 -3 398 0 491 45 69 34 169 132 204 201 58 114 56 83 56 1117 0 822 -2 959 -15 1010 -48 184 -201 325 -385 354 -97 16 -591 13 -667 -4z m455 -416 c17 -6 39 -23 49 -37 17 -26 18 -75 21 -884 3 -936 4 -906 -54 -945 -22 -14 -48 -18 -114 -18 -109 0 -136 8 -160 48 -19 31 -20 55 -20 906 l0 873 34 34 c34 34 35 34 124 34 49 0 103 -5 120 -11z"/>
<path d="M435 2938 c-5 -25 -152 -1044 -157 -1094 -3 -29 19 -55 252 -307 l255 -274 6 41 c4 22 37 285 75 583 38 298 70 540 72 538 2 -2 39 -340 83 -751 68 -652 81 -750 97 -768 251 -276 608 -652 623 -654 17 -3 19 1 14 35 -10 64 -325 2646 -325 2660 0 11 -93 13 -495 13 l-495 0 -5 -22z"/>
<path d="M7110 2494 c0 -3 28 -37 62 -75 42 -48 65 -66 72 -59 6 6 151 10 415 10 l405 0 -64 65 -64 65 -413 0 c-227 0 -413 -3 -413 -6z"/>
<path d="M4350 2353 c-154 -26 -307 -109 -421 -230 -75 -80 -126 -166 -165 -279 -26 -72 -28 -92 -29 -224 0 -160 10 -208 71 -331 27 -55 147 -219 159 -219 2 0 -10 30 -27 68 -83 182 -95 349 -39 545 67 232 251 419 496 503 70 24 96 28 210 28 72 1 151 -3 178 -7 l47 -8 0 34 c0 33 -3 36 -67 64 -95 43 -196 63 -300 62 -48 -1 -99 -4 -113 -6z"/>
<path d="M4915 1620 l49 -50 292 0 c278 0 292 -1 309 -20 14 -15 31 -20 69 -20 l50 0 -69 70 -69 70 -340 0 -340 0 49 -50z"/>
<path d="M4880 982 c0 -4 28 -36 63 -70 l63 -62 587 0 c323 0 587 4 587 8 0 4 -28 36 -63 70 l-63 62 -587 0 c-323 0 -587 -4 -587 -8z"/>
<path d="M3705 386 c116 -105 298 -210 461 -265 165 -55 272 -72 471 -72 138 0 333 25 333 42 0 10 -112 139 -121 139 -4 0 -49 -9 -102 -20 -346 -71 -735 -1 -1037 187 l-55 34 50 -45z"/>
<path d="M9645 344 c-27 -25 -71 -56 -97 -70 -97 -49 -138 -54 -484 -54 -315 0 -324 1 -395 25 l-72 24 34 -36 c51 -53 144 -111 217 -133 58 -18 93 -20 376 -20 271 0 320 2 377 18 66 18 132 52 177 92 l24 20 -46 77 c-25 43 -49 83 -53 90 -6 8 -23 -2 -58 -33z"/>
<path d="M7790 335 c-36 -39 -119 -83 -188 -100 -52 -14 -116 -16 -390 -13 -313 3 -329 4 -377 26 l-50 22 61 -58 c71 -65 147 -107 224 -122 69 -13 592 -13 661 0 72 14 189 75 189 99 0 3 -24 43 -53 89 l-53 83 -24 -26z"/>
<path d="M140 155 l64 -65 299 0 298 0 -57 65 -58 65 -305 0 -305 0 64 -65z"/>
<path d="M1260 155 l64 -65 289 0 289 0 -57 65 -57 65 -296 0 -296 0 64 -65z"/>
<path d="M2148 173 c76 -91 43 -84 367 -81 l289 3 -58 63 -58 62 -290 0 -290 0 40 -47z"/>
</g>
<g id="layer106" fill="#7fbd25" stroke="none">
<path d="M4095 2984 c-322 -99 -574 -271 -763 -523 -91 -121 -195 -339 -232 -486 -64 -254 -56 -539 21 -783 199 -628 810 -1038 1463 -983 72 7 156 17 186 24 l55 12 3 349 c2 329 1 348 -15 340 -231 -102 -461 -103 -668 -5 -197 95 -339 258 -405 466 -31 100 -39 275 -15 380 36 162 111 296 227 403 73 68 105 89 203 134 184 83 380 90 589 20 l58 -20 -39 41 c-22 23 -165 177 -318 342 -153 165 -283 301 -289 302 -6 1 -33 -5 -61 -13z"/>
<path d="M2070 1605 l0 -1355 295 0 295 0 0 1355 0 1355 -295 0 -295 0 0 -1355z"/>
</g>
<g id="layer107" fill="#ff771d" stroke="none">
<path d="M435 2938 c-5 -25 -152 -1044 -157 -1094 -3 -29 19 -55 252 -307 l255 -274 6 41 c4 22 37 285 75 583 38 298 70 540 72 538 2 -2 39 -340 83 -751 68 -652 81 -750 97 -768 251 -276 608 -652 623 -654 17 -3 19 1 14 35 -7 42 -195 1573 -226 1833 -10 91 -28 233 -38 315 -11 83 -30 234 -42 338 l-22 187 -493 0 -494 0 -5 -22z"/>
<path d="M2077 2643 c-4 -170 -7 -777 -7 -1350 l0 -1043 295 0 295 0 0 1350 0 1350 -288 0 -289 0 -6 -307z"/>
<path d="M3316 2434 c-68 -97 -156 -271 -189 -379 -45 -144 -58 -226 -64 -390 -9 -262 31 -455 141 -675 161 -323 411 -551 761 -694 221 -90 564 -113 818 -55 l47 11 0 345 c0 224 -3 342 -10 338 -36 -23 -188 -67 -262 -77 -114 -15 -238 1 -357 45 -425 160 -619 653 -416 1056 l36 72 -202 217 c-111 119 -212 228 -224 241 l-23 23 -56 -78z"/>
</g>
<g id="layer108" fill="#fa2876" stroke="none">
<path d="M435 2938 c-5 -25 -151 -1043 -157 -1094 -3 -29 19 -55 252 -307 l255 -274 6 41 c4 22 37 285 75 583 38 298 70 540 72 538 2 -2 39 -340 83 -751 68 -652 81 -750 97 -768 249 -274 608 -652 623 -654 17 -3 18 1 13 40 -3 24 -45 363 -93 753 l-87 710 -557 600 c-307 330 -562 601 -567 603 -5 2 -12 -7 -15 -20z"/>
<path d="M2070 735 l0 -485 295 0 295 0 0 168 0 169 -222 239 c-122 131 -254 274 -295 316 l-73 78 0 -485z"/>
</g>
<g id="layer109" fill="#ffee19" stroke="none">
<path d="M2080 2744 l0 -205 271 -292 c150 -161 280 -301 290 -312 19 -19 19 -7 19 498 l0 517 -290 0 -290 0 0 -206z"/>
<path d="M3316 2434 c-68 -97 -156 -271 -189 -379 -47 -149 -58 -224 -63 -400 l-5 -170 582 -625 c320 -344 589 -629 598 -634 9 -5 89 -12 178 -14 155 -4 269 5 371 30 l42 10 0 345 c0 224 -3 342 -10 338 -36 -23 -188 -67 -262 -77 -114 -15 -238 1 -357 45 -425 160 -619 653 -416 1056 l36 72 -202 217 c-111 119 -212 228 -224 241 l-23 23 -56 -78z"/>
</g>
<g id="layer110" fill="#ffffff" stroke="none">
<path d="M6572 2563 c4 -458 3 -449 84 -572 68 -101 131 -150 365 -282 121 -68 241 -138 267 -154 84 -53 83 -47 80 -468 l-3 -369 -33 -29 c-30 -27 -38 -29 -112 -29 -69 0 -82 3 -107 24 l-28 24 -5 254 -5 253 -250 0 -250 0 -3 -270 c-3 -294 5 -380 43 -463 51 -112 178 -208 304 -232 74 -14 586 -13 653 1 134 28 236 107 295 227 l38 76 0 535 0 536 -29 60 c-51 103 -93 135 -399 300 -153 83 -296 165 -318 184 -67 56 -79 91 -79 236 l0 125 415 0 415 0 0 220 0 220 -671 0 -670 0 3 -407z"/>
<path d="M8688 2951 c-156 -51 -273 -172 -313 -326 -13 -51 -15 -189 -15 -1020 0 -782 3 -970 14 -1012 44 -167 173 -294 341 -338 73 -19 611 -22 697 -4 139 29 260 124 325 257 l38 76 3 1003 c2 995 2 1003 -19 1065 -43 128 -121 215 -249 277 l-75 36 -345 2 c-313 2 -350 1 -402 -16z m510 -407 c54 -37 52 -4 52 -934 0 -960 4 -901 -68 -936 -51 -24 -211 -17 -242 11 -51 45 -50 24 -50 931 0 928 -2 896 59 929 38 21 219 20 249 -1z"/>
<path d="M7129 2473 c10 -16 39 -46 63 -68 l43 -40 407 5 406 5 -55 63 -55 62 -415 0 -414 0 20 -27z"/>
<path d="M4360 2348 c-253 -36 -478 -215 -577 -458 -58 -145 -67 -330 -22 -475 29 -96 90 -211 144 -270 l45 -50 -25 57 c-46 107 -59 175 -59 308 0 179 40 306 138 445 125 174 315 287 532 316 82 11 229 2 279 -17 12 -5 15 2 15 29 0 32 -4 36 -47 55 -79 32 -144 51 -218 62 -81 11 -116 11 -205 -2z"/>
<path d="M4930 1615 l44 -45 292 0 c278 0 292 -1 309 -20 12 -14 31 -20 57 -20 l40 0 -57 65 -57 65 -336 0 -336 0 44 -45z"/>
<path d="M4950 915 l64 -65 584 0 583 0 -57 65 -58 65 -590 0 -590 0 64 -65z"/>
<path d="M3730 369 c52 -47 220 -156 282 -183 193 -86 358 -125 558 -133 139 -5 348 14 387 35 9 6 -5 27 -46 73 l-59 65 -89 -18 c-133 -29 -371 -35 -506 -14 -182 29 -354 88 -500 171 l-62 35 35 -31z"/>
<path d="M9649 344 c-41 -43 -96 -77 -175 -106 -57 -22 -72 -22 -399 -23 -322 0 -343 1 -398 21 l-59 21 44 -44 c56 -57 158 -108 247 -123 48 -8 166 -11 363 -8 272 4 297 5 353 26 65 24 165 86 165 103 0 14 -90 169 -99 169 -4 0 -23 -16 -42 -36z"/>
<path d="M7758 305 c-32 -24 -88 -54 -125 -67 -66 -22 -78 -23 -393 -23 -278 0 -332 3 -374 17 l-49 17 44 -45 c54 -55 143 -99 229 -113 84 -14 536 -14 620 0 65 10 178 57 198 82 9 10 1 31 -34 88 -26 41 -49 77 -53 80 -3 4 -32 -13 -63 -36z"/>
<path d="M140 155 l65 -65 295 2 295 3 -59 62 -59 63 -301 0 -301 0 65 -65z"/>
<path d="M1245 178 c92 -97 54 -87 368 -88 153 0 277 4 275 9 -1 4 -26 34 -55 65 l-52 56 -287 0 -288 0 39 -42z"/>
<path d="M2170 155 l64 -65 284 0 284 0 -57 65 -57 65 -291 0 -291 0 64 -65z"/>
</g>


</svg>