<?xml version="1.0" encoding="UTF-8" standalone="no"?>
<svg
   xmlns:dc="http://purl.org/dc/elements/1.1/"
   xmlns:cc="http://creativecommons.org/ns#"
   xmlns:rdf="http://www.w3.org/1999/02/22-rdf-syntax-ns#"
   xmlns:svg="http://www.w3.org/2000/svg"
   xmlns="http://www.w3.org/2000/svg"
   xmlns:sodipodi="http://sodipodi.sourceforge.net/DTD/sodipodi-0.dtd"
   xmlns:inkscape="http://www.inkscape.org/namespaces/inkscape"
   width="500"
   height="200"
   viewBox="0 0 500 200"
   version="1.1"
   id="svg29"
   sodipodi:docname="capcom.svg"
   inkscape:version="0.92.5 (2060ec1f9f, 2020-04-08)">
  <metadata
     id="metadata35">
    <rdf:RDF>
      <cc:Work
         rdf:about="">
        <dc:format>image/svg+xml</dc:format>
        <dc:type
           rdf:resource="http://purl.org/dc/dcmitype/StillImage" />
        <dc:title>mainlogo</dc:title>
      </cc:Work>
    </rdf:RDF>
  </metadata>
  <defs
     id="defs33" />
  <sodipodi:namedview
     pagecolor="#ffffff"
     bordercolor="#666666"
     borderopacity="1"
     objecttolerance="10"
     gridtolerance="10"
     guidetolerance="10"
     inkscape:pageopacity="0"
     inkscape:pageshadow="2"
     inkscape:window-width="1366"
     inkscape:window-height="743"
     id="namedview31"
     showgrid="false"
     inkscape:pagecheckerboard="true"
     inkscape:zoom="1.2880293"
     inkscape:cx="384.81678"
     inkscape:cy="40.948985"
     inkscape:window-x="0"
     inkscape:window-y="0"
     inkscape:window-maximized="1"
     inkscape:current-layer="svg29" />
  <title
     id="title14">mainlogo</title>
  <path
     d="m 14.114156,199.34861 c 1.552052,0 3.061518,-0.33534 4.528397,-1.00601 1.466879,-0.67069 2.673506,-1.57132 3.619879,-2.7019 v 0 l -2.697164,-2.70188 c -0.700317,0.82398 -1.504734,1.45633 -2.413252,1.89707 -0.90852,0.44073 -1.883285,0.6611 -2.924296,0.6611 -0.927445,0 -1.783914,-0.16767 -2.569404,-0.50301 -0.78549,-0.33534 -1.466879,-0.79045 -2.0441667,-1.36532 -0.5772879,-0.57486 -1.0315473,-1.25991 -1.3627781,-2.05515 -0.3312306,-0.79523 -0.496846,-1.65275 -0.496846,-2.57254 0,-0.93895 0.1608834,-1.80604 0.4826505,-2.60128 0.321767,-0.79523 0.7665626,-1.48509 1.3343867,-2.06954 0.5678246,-0.58445 1.2444816,-1.04434 2.0299716,-1.37968 0.78549,-0.33534 1.623031,-0.50301 2.512622,-0.50301 1.059938,0 2.063094,0.23474 3.009468,0.70422 0.946373,0.46947 1.769718,1.14494 2.470035,2.02641 v 0 l 2.782338,-2.78812 c -0.927447,-1.14974 -2.138804,-2.06474 -3.634075,-2.74499 -1.495271,-0.68027 -3.037858,-1.0204 -4.627766,-1.0204 -1.476343,0 -2.86278,0.26827 -4.1593122,0.80482 -1.2965318,0.53654 -2.4179846,1.26471 -3.3643582,2.1845 -0.9463735,0.9198 -1.6940088,2.01684 -2.2429054,3.29113 -0.5488967,1.27429 -0.823345,2.6396 -0.823345,4.09594 0,1.45633 0.2697164,2.81686 0.8091494,4.08157 0.539433,1.26471 1.2823362,2.35696 2.2287099,3.27675 0.9463735,0.91979 2.0678262,1.64797 3.364358,2.18451 1.2965315,0.53654 2.6924335,0.80481 4.1877035,0.80481 z m 53.801338,0.0287 c 1.476343,0 2.858048,-0.26827 4.145117,-0.80482 1.287068,-0.53654 2.399057,-1.26949 3.335966,-2.19887 0.93691,-0.92937 1.679815,-2.0312 2.22871,-3.30549 0.548897,-1.2743 0.823345,-2.63003 0.823345,-4.0672 0,-1.43717 -0.274448,-2.79291 -0.823345,-4.0672 -0.548895,-1.2743 -1.2918,-2.37613 -2.22871,-3.3055 -0.936909,-0.92937 -2.048898,-1.66233 -3.335966,-2.19887 -1.287069,-0.53655 -2.668774,-0.80482 -4.145117,-0.80482 -1.457415,0 -2.829657,0.26827 -4.116725,0.80482 -1.287068,0.53654 -2.399058,1.2695 -3.335967,2.19887 -0.93691,0.92937 -1.679812,2.0312 -2.22871,3.3055 -0.548896,1.27429 -0.823346,2.63003 -0.823346,4.0672 0,1.43717 0.27445,2.7929 0.823346,4.0672 0.548898,1.27429 1.2918,2.37612 2.22871,3.30549 0.936909,0.92938 2.048899,1.66233 3.335967,2.19887 1.287068,0.53655 2.65931,0.80482 4.116725,0.80482 z m 0,-3.82288 c -0.889591,0 -1.717668,-0.16766 -2.48423,-0.503 -0.766562,-0.33534 -1.429024,-0.79524 -1.987384,-1.37969 -0.558362,-0.58446 -0.998425,-1.27909 -1.320193,-2.08391 -0.321766,-0.80481 -0.482651,-1.66711 -0.482651,-2.5869 0,-0.93895 0.160885,-1.80605 0.482651,-2.60128 0.321768,-0.79524 0.761831,-1.48509 1.320193,-2.06954 0.55836,-0.58445 1.220822,-1.04434 1.987384,-1.37968 0.766562,-0.33534 1.594639,-0.50301 2.48423,-0.50301 0.889591,0 1.7224,0.16767 2.498426,0.50301 0.776027,0.33534 1.44322,0.79523 2.00158,1.37968 0.558361,0.58445 0.998424,1.2743 1.320192,2.06954 0.321767,0.79523 0.48265,1.66233 0.48265,2.60128 0,0.91979 -0.160883,1.78209 -0.48265,2.5869 -0.321768,0.80482 -0.761831,1.49945 -1.320192,2.08391 -0.55836,0.58445 -1.225553,1.04435 -2.00158,1.37969 -0.776026,0.33534 -1.608835,0.503 -2.498426,0.503 z m 62.403876,3.50671 v -3.67916 h -10.87383 v -16.44126 h -4.11673 v 20.12042 z m 51.89913,0 v -3.67916 h -10.87383 v -16.44126 h -4.11673 v 20.12042 z m 52.29661,0 v -3.62168 H 223.2438 v -4.77142 h 7.35332 v -3.50669 h -7.35332 v -4.59896 h 11.15774 v -3.62167 h -15.27447 v 20.12042 z m 45.65306,0.28743 c 1.55205,0 3.06152,-0.33534 4.5284,-1.00601 1.46688,-0.67069 2.6735,-1.57132 3.61988,-2.7019 v 0 l -2.69716,-2.70188 c -0.70032,0.82398 -1.50474,1.45633 -2.41326,1.89707 -0.90851,0.44073 -1.88329,0.6611 -2.9243,0.6611 -0.92744,0 -1.78391,-0.16767 -2.56939,-0.50301 -0.7855,-0.33534 -1.46689,-0.79046 -2.04418,-1.36532 -0.57728,-0.57486 -1.03155,-1.25992 -1.36277,-2.05515 -0.33124,-0.79524 -0.49685,-1.65275 -0.49685,-2.57254 0,-0.93895 0.16088,-1.80605 0.48265,-2.60128 0.32177,-0.79524 0.76656,-1.48509 1.33439,-2.06954 0.56783,-0.58445 1.24448,-1.04434 2.02996,-1.37968 0.78549,-0.33534 1.62304,-0.50301 2.51263,-0.50301 1.05994,0 2.0631,0.23474 3.00946,0.70422 0.94638,0.46947 1.76973,1.14494 2.47003,2.0264 v 0 l 2.78234,-2.78811 c -0.92744,-1.14974 -2.1388,-2.06474 -3.63407,-2.745 -1.49527,-0.68026 -3.03786,-1.02039 -4.62776,-1.02039 -1.47635,0 -2.86279,0.26827 -4.15931,0.80482 -1.29653,0.53654 -2.41799,1.26471 -3.36436,2.1845 -0.94638,0.9198 -1.69401,2.01684 -2.24291,3.29113 -0.54889,1.27429 -0.82334,2.6396 -0.82334,4.09594 0,1.45633 0.26971,2.81686 0.80915,4.08157 0.53943,1.26471 1.28233,2.35696 2.22871,3.27675 0.94637,0.91979 2.06782,1.64797 3.36435,2.18451 1.29654,0.53654 2.69244,0.80481 4.18771,0.80481 z m 54.45434,-0.28743 v -16.44126 h 6.67193 v -3.67916 h -17.48899 v 3.67916 h 6.70034 v 16.44126 z m 47.15779,0 v -20.12042 h -4.11672 v 20.12042 z m 47.41332,0.31617 c 1.47634,0 2.85804,-0.26827 4.14512,-0.80482 1.28706,-0.53654 2.39906,-1.26949 3.33596,-2.19887 0.93692,-0.92937 1.67982,-2.0312 2.22871,-3.30549 0.5489,-1.2743 0.82335,-2.63003 0.82335,-4.0672 0,-1.43717 -0.27445,-2.79291 -0.82335,-4.0672 -0.54889,-1.2743 -1.29179,-2.37613 -2.22871,-3.3055 -0.9369,-0.92937 -2.0489,-1.66233 -3.33596,-2.19887 -1.28708,-0.53655 -2.66878,-0.80482 -4.14512,-0.80482 -1.45742,0 -2.82966,0.26827 -4.11673,0.80482 -1.28706,0.53654 -2.39906,1.2695 -3.33596,2.19887 -0.93692,0.92937 -1.67982,2.0312 -2.22871,3.3055 -0.5489,1.27429 -0.82335,2.63003 -0.82335,4.0672 0,1.43717 0.27445,2.7929 0.82335,4.0672 0.54889,1.27429 1.29179,2.37612 2.22871,3.30549 0.9369,0.92938 2.0489,1.66233 3.33596,2.19887 1.28707,0.53655 2.65931,0.80482 4.11673,0.80482 z m 0,-3.82288 c -0.88959,0 -1.71768,-0.16766 -2.48423,-0.503 -0.76656,-0.33534 -1.42903,-0.79524 -1.98739,-1.37969 -0.55835,-0.58446 -0.99842,-1.27909 -1.32019,-2.08391 -0.32176,-0.80481 -0.48265,-1.66711 -0.48265,-2.5869 0,-0.93895 0.16089,-1.80605 0.48265,-2.60128 0.32177,-0.79524 0.76184,-1.48509 1.32019,-2.06954 0.55836,-0.58445 1.22083,-1.04434 1.98739,-1.37968 0.76655,-0.33534 1.59464,-0.50301 2.48423,-0.50301 0.88958,0 1.72239,0.16767 2.49842,0.50301 0.77604,0.33534 1.44323,0.79523 2.00159,1.37968 0.55835,0.58445 0.99842,1.2743 1.32019,2.06954 0.32176,0.79523 0.48265,1.66233 0.48265,2.60128 0,0.91979 -0.16089,1.78209 -0.48265,2.5869 -0.32177,0.80482 -0.76184,1.49945 -1.32019,2.08391 -0.55836,0.58445 -1.22555,1.04435 -2.00159,1.37969 -0.77603,0.33534 -1.60884,0.503 -2.49842,0.503 z m 51.30291,3.50671 v -13.45192 l 10.13565,13.45194 h 3.63409 v -20.12042 h -3.86121 v 13.02079 l -9.88014,-13.02079 h -3.91798 v 20.12042 z"
     id="COLLECTION"
     inkscape:connector-curvature="0"
     style="fill:#ffffff;fill-rule:nonzero;stroke:none;stroke-width:1.22075129" />
  <g
     style="fill:none;fill-rule:nonzero;stroke:none;stroke-width:1"
     id="Capcom_logo"
     transform="matrix(1.1473975,0,0,1.1473975,1.5527598,57.349207)">
    <path
       d="m 289.85365,0.31418616 c -12.89053,0 -24.38538,5.56746674 -31.85847,14.26163484 C 255.7889,11.742166 253.09186,8.7656793 250.14536,6.6704137 243.96117,2.0537448 235.9431,0.64884396 227.37411,0.41810928 212.86745,0.0274927 201.26489,7.8645237 195.92166,16.676035 191.40811,7.6708961 187.35889,2.9684523 171.6544,2.1872188 h -38.05657 l 0.009,15.8615672 c 0,0 1.80979,0.577975 2.42165,1.249495 0.51046,0.560242 0.85072,2.107464 0.85072,2.107464 l -0.0894,35.304857 c 0,0 -0.99531,-0.721792 -1.39209,-1.18424 -0.73851,-0.860673 -1.78603,-2.895346 -1.78603,-2.895346 L 114.11242,2.1703011 89.38838,2.1872188 67.905293,58.349204 V 46.327958 H 52.444921 c -1.217488,3.356781 -4.635663,5.623932 -8.758543,5.623932 -2.172676,0 -4.495666,-0.512415 -6.377983,-1.643435 -2.45298,-1.473918 -4.285964,-3.224386 -5.795527,-6.334476 -1.187658,-2.87803 -2.096559,-6.402022 -2.201716,-9.519841 0.361873,-6.166108 2.235219,-8.363956 5.665019,-10.907094 0.760334,-0.563772 2.884681,-1.014591 3.497129,-1.01748 1.347393,-0.0064 2.470389,0.81098 3.079025,2.015626 0.885297,1.752212 -0.410503,3.874686 -1.691772,5.384667 L 52.360329,38.540975 71.66586,18.341221 C 64.930799,7.6068834 52.623657,0.4205261 38.557893,0.4205261 17.262575,0.4205261 0,16.8927 0,37.211726 0,57.530751 16.710156,72.896713 38.557893,74.553961 l 2.762417,0.111174 h 29.388491 v -0.0145 H 139.1313 v -0.0048 l 25.7246,-0.03626 v -0.04108 h 4.02399 V 59.453728 c 0,0 -2.15567,-0.449587 -3.04277,-1.053732 -0.93156,-0.634427 -1.01989,-1.633768 -1.01989,-1.633768 -0.0167,-0.385447 0.0609,-0.680785 0.26343,-0.932891 0.19851,-0.24714 0.66298,-0.415193 0.83864,-0.451945 2.6565,-0.555824 5.36545,-1.315916 8.077,-2.291142 7.23496,-2.602107 13.32311,-6.304095 17.64518,-10.394729 2.89211,17.08757 17.90907,29.556587 36.06373,31.638545 1.18552,0.13596 2.20695,0.238773 3.31587,0.277937 0.29447,0.0104 0.88456,-0.01209 0.88456,-0.01209 h 25.67626 l -0.0781,-12.635237 c 6.67748,7.412545 19.68699,14.51788 32.81861,14.51788 10.72952,0 20.35372,-4.698075 27.13718,-10.507568 l -0.0552,8.73852 h 32.42263 l 0.16573,-13.369141 8.45263,0.110483 v -0.147426 l 11.34213,0.09909 v 13.258657 h 34.57981 V 57.097332 c 0,0 -1.47649,-0.09466 -2.05429,-0.497865 -0.78126,-0.545174 -1.59027,-2.37573 -1.59027,-2.37573 L 395.86249,21.94715 c 0,0 0.14575,-2.159256 0.77338,-2.965434 0.51638,-0.663299 2.20896,-1.215658 2.20896,-1.215658 V 2.1872575 h -3.09353 -4.9738 -26.40372 v 0.4422774 l -2.43132,8.1760911 -3.49714,-8.229261 V 2.1872575 h -0.16434 l -0.0942,-0.2199303 -0.007,0.2199303 H 324.91681 V 18.539439 L 322.645,15.445914 C 316.40509,6.3486739 305.45204,0.31418616 292.97859,0.31418616 c -0.50857,0 -1.01442,0.00914 -1.51776,0.0290018 -0.53337,-0.0192536 -1.06873,-0.0290018 -1.60718,-0.0290018 z M 67.477521,61.544236 l -0.0024,0.159509 h -0.145009 c 0.04955,-0.05295 0.09822,-0.106359 0.147422,-0.159509 v 0 z"
       id="path3840"
       inkscape:connector-curvature="0"
       style="fill:#0c4da2" />
    <path
       d="M 38.532116,7.3332897 C 20.977729,7.4437726 6.6404841,20.230668 6.6404841,36.957764 c 0,16.727096 15.8270089,31.095427 34.9851569,30.662874 l 18.616271,0.05246 V 53.016961 h -3.516055 c -1.104674,2.76338 -6.264141,5.466309 -10.004994,5.466309 -1.971364,0 -6.934183,-0.267982 -8.770051,-0.910982 -3.241288,-1.13524 -7.866217,-2.764873 -11.887506,-9.523527 -1.077614,-2.369262 -4.11196,-8.142853 -3.433991,-16.565115 0.328347,-5.076085 3.552651,-11.412615 9.338472,-14.282161 2.522862,-1.251242 5.062608,-1.456546 9.521932,-1.051876 3.201467,0.290523 6.382531,2.541584 7.493184,5.243306 0.858995,2.089547 0.612154,4.635778 -0.399065,6.086149 -0.07214,0.103476 -0.07369,0.195119 -0.05874,0.293898 0.01138,0.07519 0.108892,0.200461 0.108892,0.200461 l 1.76211,1.376566 c 0,0 0.501662,0.34856 1.087653,0.332953 0.340319,-0.0091 0.948684,-0.378264 0.948684,-0.378264 L 62.495769,18.743911 C 56.274288,10.349086 45.217998,7.3332897 38.532116,7.3332897 Z"
       id="path3950"
       inkscape:connector-curvature="0"
       style="fill:#ffcb08" />
    <path
       d="m 290.018,7.0498541 c -18.61053,0 -33.69768,13.9982349 -33.69768,31.2663569 0,17.268122 15.08715,31.266357 33.69768,31.266357 18.61052,0 33.69767,-13.998235 33.69767,-31.266357 0,-17.268122 -15.08715,-31.2663569 -33.69767,-31.2663569 z m 0.21993,9.7204369 c 9.57983,0 14.71421,6.855526 16.79549,15.027075 0.59577,2.339092 0.35423,10.11652 -7.7e-4,12.706241 -1.08226,7.897166 -7.53725,15.593052 -16.90356,15.356108 -9.12725,-0.230897 -15.23265,-4.480225 -17.12454,-15.908523 -0.55342,-3.343073 -0.56306,-7.359103 -0.1122,-10.717546 1.30729,-9.738015 7.76565,-16.463355 17.3455,-16.463355 v 0 z"
       id="path3990"
       inkscape:connector-curvature="0"
       style="fill:#ffcb08" />
    <path
       d="m 94.014167,8.9905579 c 0,0 -14.797824,40.0414731 -17.449416,47.3333541 -2.651593,7.291881 -5.633599,7.071605 -5.633599,7.071605 l 0.21993,4.417941 17.884443,-0.0048 0.0145,-4.243929 c 0,0 -1.147543,-0.05893 -1.989036,-0.831385 -1.63209,-1.498177 -0.599371,-4.512197 -0.599371,-4.512197 l 4.13517,-10.578406 18.365382,0.03867 c 0,0 3.57988,8.938138 4.45661,11.888321 1.1439,3.8491 -2.42889,3.917659 -2.42889,3.917659 v 4.314018 l 22.61657,-0.01208 -0.0145,-4.265681 c 0,0 -1.34689,-0.205448 -2.77934,-1.454924 -1.62489,-1.417324 -2.73101,-4.340603 -2.73101,-4.340603 L 109.55913,9.0316438 Z m 5.309743,12.3112641 6.13147,17.069976 -11.87624,0.05317 z"
       id="path4001"
       inkscape:connector-curvature="0"
       style="fill:#ffcb08" />
    <path
       d="m 140.83274,8.9277207 -0.087,4.9085543 c 0,0 1.43751,0.411904 2.81318,1.938287 0.72937,0.809274 0.27794,11.081105 0.27794,11.081105 l -0.0242,32.88079 c 0,0 0.46856,1.29597 -1.10448,2.598078 -0.5938,0.49152 -1.11973,1.012525 -2.03738,1.092401 l -0.10875,4.374438 20.96104,0.05075 0.0508,-4.449359 c 0,0 -0.74146,-0.292469 -1.90445,-1.341333 -0.65645,-0.592032 -1.06084,-1.444039 -1.05131,-2.293559 0.0176,-2.970338 0.0871,-5.824398 0.0725,-8.724708 7.34237,-1.76851 13.68087,-4.767301 16.15159,-5.677103 9.2873,-3.705888 16.49384,-9.589803 16.07183,-20.086163 -0.0797,-7.436495 -3.8516,-13.531902 -11.93182,-14.909342 -3.68338,-1.0642622 -5.37443,-1.2502256 -6.82751,-1.3316658 z m 23.97241,8.3364463 c 2.26092,-0.04342 4.92389,0.474613 6.97403,1.507187 2.55501,1.696268 4.10948,3.453455 4.10948,7.170756 0.10536,1.747576 -0.39678,3.250164 -1.23741,4.778046 -0.87531,1.46098 -3.52312,4.265672 -5.195,5.870142 -4.88778,3.494277 -6.63688,4.518652 -10.5198,6.305998 l -0.0622,-24.910347 c 2.06935,-0.390297 3.92553,-0.708483 5.93088,-0.721782 z"
       id="rect3593"
       inkscape:connector-curvature="0"
       style="fill:#ffcb08" />
    <path
       d="M 229.44326,7.3723516 C 211.88887,7.4828345 197.55163,20.26973 197.55163,36.996826 c 0,16.727096 15.82701,31.095427 34.98515,30.662874 l 18.61627,0.05246 V 53.056023 H 247.637 c -1.10467,2.76338 -6.26414,5.466309 -10.00499,5.466309 -1.97137,0 -6.93419,-0.267982 -8.77006,-0.910982 -3.24128,-1.13524 -7.86621,-2.764873 -11.8875,-9.523527 -1.07762,-2.369262 -4.11196,-8.142853 -3.43399,-16.565115 0.32834,-5.076085 3.55265,-11.412615 9.33847,-14.282161 2.52286,-1.251243 5.06261,-1.456546 9.52193,-1.051876 3.20147,0.290523 6.38253,2.541584 7.49319,5.243306 0.85899,2.089547 0.61215,4.635778 -0.39907,6.086149 -0.0721,0.103475 -0.0737,0.195119 -0.0587,0.293898 0.0114,0.07519 0.10889,0.200461 0.10889,0.200461 l 1.76212,1.376566 c 0,0 0.50166,0.34856 1.08765,0.332953 0.34032,-0.0091 0.94868,-0.378264 0.94868,-0.378264 L 253.40691,18.782973 C 247.18543,10.388148 236.12914,7.3723516 229.44326,7.3723516 Z"
       id="path3622"
       inkscape:connector-curvature="0"
       style="fill:#ffcb08" />
    <path
       d="m 332.13828,9.0437279 0.0193,4.2173451 c 0,0 1.84411,0.496448 2.57633,1.075483 0.83709,0.661981 0.62595,1.836781 0.62595,1.836781 0,0 -6.68952,41.571048 -6.83476,42.342628 -0.15624,0.830061 -0.3775,2.769356 -1.54434,3.847572 -1.16024,1.072127 -2.49899,1.288163 -2.49899,1.288163 l -0.0193,4.159341 H 343.1928 V 63.9248 c 0,0 -1.52448,-0.117884 -2.54007,-1.133487 -1.01561,-1.015603 -0.72264,-3.806486 -0.72264,-3.806486 l 4.60888,-31.406532 9.37483,27.029677 11.41946,0.157093 9.27573,-29.10814 5.17683,33.482578 c 0,0 0.62442,2.517093 -0.72263,3.808903 -1.03664,0.994125 -2.53766,1.133487 -2.53766,1.133487 v 3.886241 h 21.69818 l -0.0193,-4.159341 c 0,0 -0.48571,0.166303 -1.71836,-0.821718 -0.7249,-0.581042 -1.07391,-3.172187 -1.23016,-4.002248 C 395.11066,58.213248 389.2646,16.3836 389.2646,16.3836 c 0,0 -0.10169,-1.727215 0.84589,-2.610162 0.68296,-0.636382 2.08088,-1.239827 2.08088,-1.239827 l -0.0338,-3.4439636 -22.52715,-0.026585 -8.24376,23.7452236 -7.86191,-23.7452236 -21.3864,-0.019334 z"
       id="path3624"
       inkscape:connector-curvature="0"
       style="fill:#ffcb08" />
    <path
       d="m 418.76463,0.06283723 c -5.95864,0 -10.78906,4.83042737 -10.78906,10.78906177 0,5.958635 4.83042,10.789063 10.78906,10.789063 5.95863,0 10.78907,-4.830428 10.78907,-10.789063 0,-5.9586344 -4.83044,-10.78906177 -10.78907,-10.78906177 z m 0,1.45050787 c 5.15752,0 9.33855,4.1810273 9.33855,9.3385539 0,5.157527 -4.18103,9.338554 -9.33855,9.338554 -5.15753,0 -9.33856,-4.181027 -9.33856,-9.338554 0,-5.1575266 4.18103,-9.3385539 9.33856,-9.3385539 z"
       id="path3629"
       inkscape:connector-curvature="0"
       style="fill:#0c4da2" />
    <path
       d="M 413.21039,4.3357691 V 17.108645 h 2.69475 v -4.427608 h 3.5793 l 2.96303,4.483195 3.02585,-0.01933 -3.61555,-4.751461 c 1.48451,-0.606117 2.53523,-2.101095 2.53523,-3.852406 0,-2.2578906 -1.74622,-4.0941689 -3.91765,-4.1424237 v -0.05317 h -4.57021 v -0.00967 h -2.69475 z m 2.69475,2.5787433 4.4832,0.024168 c 0.9107,0.1546275 1.51539,0.2482306 1.49082,1.6165054 -0.0263,1.4641912 -1.1537,1.6593002 -1.49082,1.6703652 l -4.4832,0.05317 z"
       id="rect3634"
       inkscape:connector-curvature="0"
       style="fill:#0c4da2" />
  </g>
  <g
     id="g48"
     transform="matrix(0.91714797,0,0,0.91714797,59.924867,-103.56935)">
    <path
       d="m 98.368707,123.56449 -3.911684,9.67624 h 7.837657 z m -1.627486,-2.59162 h 3.269259 l 8.12318,19.44364 h -2.99801 l -1.94157,-4.98788 h -9.607908 l -1.941568,4.98788 h -3.040839 z"
       style="font-style:normal;font-weight:normal;font-size:40px;line-height:125%;font-family:sans-serif;letter-spacing:0px;word-spacing:0px;fill:#ffffff;fill-opacity:1;stroke:#ffffff;stroke-width:0.69800001;stroke-linecap:butt;stroke-linejoin:miter;stroke-miterlimit:4;stroke-dasharray:none;stroke-opacity:1"
       id="path36"
       inkscape:connector-curvature="0" />
    <path
       d="m 149.94112,131.30027 q 0.92796,0.28651 1.79881,1.22418 0.88512,0.93767 1.77025,2.5786 l 2.92663,5.31346 h -3.09794 l -2.72677,-4.98788 q -1.05644,-1.95348 -2.05577,-2.59162 -0.98506,-0.63814 -2.69821,-0.63814 h -3.14077 v 8.21764 h -2.88381 v -19.44364 h 6.50997 q 3.65472,0 5.45352,1.39348 1.79881,1.39349 1.79881,4.2065 0,1.83627 -0.94223,3.04743 -0.92796,1.21115 -2.71249,1.67999 z m -7.22378,-8.16555 v 6.9023 h 3.62617 q 2.08433,0 3.14077,-0.87256 1.07072,-0.88557 1.07072,-2.59161 0,-1.70604 -1.07072,-2.56557 -1.05644,-0.87256 -3.14077,-0.87256 z"
       style="font-style:normal;font-weight:normal;font-size:40px;line-height:125%;font-family:sans-serif;letter-spacing:0px;word-spacing:0px;fill:#ffffff;fill-opacity:1;stroke:#ffffff;stroke-width:0.69800001;stroke-linecap:butt;stroke-linejoin:miter;stroke-miterlimit:4;stroke-dasharray:none;stroke-opacity:1"
       id="path38"
       inkscape:connector-curvature="0" />
    <path
       d="m 200.69712,122.47054 v 2.77394 q -1.45617,-1.2372 -3.11221,-1.84929 -1.64177,-0.61209 -3.49768,-0.61209 -3.65472,0 -5.59629,2.04464 -1.94157,2.03162 -1.94157,5.88649 0,3.84184 1.94157,5.88649 1.94157,2.03161 5.59629,2.03161 1.85591,0 3.49768,-0.61209 1.65604,-0.61209 3.11221,-1.84929 v 2.74789 q -1.51328,0.93768 -3.21215,1.40651 -1.6846,0.46884 -3.56906,0.46884 -4.83964,0 -7.62351,-2.69581 -2.78386,-2.70882 -2.78386,-7.38415 0,-4.68836 2.78386,-7.38416 2.78387,-2.70883 7.62351,-2.70883 1.91302,0 3.59761,0.46884 1.69888,0.45581 3.1836,1.38046 z"
       style="font-style:normal;font-weight:normal;font-size:40px;line-height:125%;font-family:sans-serif;letter-spacing:0px;word-spacing:0px;fill:#ffffff;fill-opacity:1;stroke:#ffffff;stroke-width:0.69800001;stroke-linecap:butt;stroke-linejoin:miter;stroke-miterlimit:4;stroke-dasharray:none;stroke-opacity:1"
       id="path40-3"
       inkscape:connector-curvature="0" />
    <path
       d="m 238.86281,123.56449 -3.91168,9.67624 h 7.83765 z m -1.62749,-2.59162 h 3.26926 l 8.12318,19.44364 h -2.998 l -1.94157,-4.98788 h -9.60792 l -1.94157,4.98788 h -3.04083 z"
       style="font-style:normal;font-weight:normal;font-size:40px;line-height:125%;font-family:sans-serif;letter-spacing:0px;word-spacing:0px;fill:#ffffff;fill-opacity:1;stroke:#ffffff;stroke-width:0.69800001;stroke-linecap:butt;stroke-linejoin:miter;stroke-miterlimit:4;stroke-dasharray:none;stroke-opacity:1"
       id="path42"
       inkscape:connector-curvature="0" />
    <path
       d="m 277.21144,123.13472 v 15.11994 h 3.48341 q 4.41135,0 6.45285,-1.82325 2.05578,-1.82325 2.05578,-5.75625 0,-3.90696 -2.05578,-5.71719 -2.0415,-1.82325 -6.45285,-1.82325 z m -2.8838,-2.16185 h 5.92464 q 6.19589,0 9.09396,2.3572 2.89808,2.34418 2.89808,7.34509 0,5.02695 -2.91235,7.38415 -2.91235,2.3572 -9.07969,2.3572 h -5.92464 z"
       style="font-style:normal;font-weight:normal;font-size:40px;line-height:125%;font-family:sans-serif;letter-spacing:0px;word-spacing:0px;fill:#ffffff;fill-opacity:1;stroke:#ffffff;stroke-width:0.69800001;stroke-linecap:butt;stroke-linejoin:miter;stroke-miterlimit:4;stroke-dasharray:none;stroke-opacity:1"
       id="path44"
       inkscape:connector-curvature="0" />
    <path
       d="m 321.42893,120.97287 h 13.47677 v 2.21394 h -10.59297 v 5.75626 h 10.15041 v 2.21394 h -10.15041 v 7.04556 h 10.84994 v 2.21394 h -13.73374 z"
       style="font-style:normal;font-weight:normal;font-size:40px;line-height:125%;font-family:sans-serif;letter-spacing:0px;word-spacing:0px;fill:#ffffff;fill-opacity:1;stroke:#ffffff;stroke-width:0.69800001;stroke-linecap:butt;stroke-linejoin:miter;stroke-miterlimit:4;stroke-dasharray:none;stroke-opacity:1"
       id="path46"
       inkscape:connector-curvature="0" />
  </g>
</svg>
