<?xml version="1.0" encoding="UTF-8" standalone="no"?>
<svg
   xmlns:dc="http://purl.org/dc/elements/1.1/"
   xmlns:cc="http://creativecommons.org/ns#"
   xmlns:rdf="http://www.w3.org/1999/02/22-rdf-syntax-ns#"
   xmlns:svg="http://www.w3.org/2000/svg"
   xmlns="http://www.w3.org/2000/svg"
   xmlns:sodipodi="http://sodipodi.sourceforge.net/DTD/sodipodi-0.dtd"
   xmlns:inkscape="http://www.inkscape.org/namespaces/inkscape"
   version="1.0"
   width="1610.5833"
   height="417.75107"
   viewBox="0 0 16105.832 4177.5107"
   preserveAspectRatio="xMidYMid meet"
   id="svg14"
   sodipodi:docname="cave.svg"
   inkscape:version="1.0.1 (3bc2e813f5, 2020-09-07)">
  <metadata
     id="metadata20">
    <rdf:RDF>
      <cc:Work
         rdf:about="">
        <dc:format>image/svg+xml</dc:format>
        <dc:type
           rdf:resource="http://purl.org/dc/dcmitype/StillImage" />
        <dc:title />
      </cc:Work>
    </rdf:RDF>
  </metadata>
  <defs
     id="defs18" />
  <sodipodi:namedview
     pagecolor="#ffffff"
     bordercolor="#666666"
     borderopacity="1"
     objecttolerance="10"
     gridtolerance="10"
     guidetolerance="10"
     inkscape:pageopacity="0"
     inkscape:pageshadow="2"
     inkscape:window-width="2560"
     inkscape:window-height="1387"
     id="namedview16"
     showgrid="false"
     inkscape:zoom="1.2180818"
     inkscape:cx="719.91712"
     inkscape:cy="280.24731"
     inkscape:window-x="-8"
     inkscape:window-y="22"
     inkscape:window-maximized="1"
     inkscape:current-layer="svg14"
     inkscape:document-rotation="0" />
  <g
     id="layer101"
     transform="matrix(2.551351,0,0,2.551351,3332.3017,-10870.936)"
     style="fill:#009944;stroke:#000000;stroke-width:13.1499;stroke-miterlimit:4;stroke-dasharray:none">
    <path
       d="M 215,5461 C 162,5428 46,5325 23,5291 2,5259 0,5247 0,5101 c 0,-152 1,-158 26,-196 26,-40 160,-156 212,-185 20,-11 72,-15 196,-18 192,-5 241,4 256,44 15,38 12,53 -15,79 -23,24 -28,25 -179,25 -86,0 -167,5 -183,11 -25,9 -138,99 -155,124 -4,5 -8,58 -8,117 v 106 l 63,56 c 93,81 109,86 291,86 h 155 l 20,26 c 24,31 26,43 9,79 l -11,25 H 461 c -193,0 -219,-2 -246,-19 z"
       id="path2"
       inkscape:connector-curvature="0"
       style="stroke:#000000;stroke-width:13.1499;stroke-miterlimit:4;stroke-dasharray:none" />
    <path
       d="m 1501,5449 c -61,-44 -81,-93 -81,-204 0,-111 22,-164 88,-210 l 44,-30 205,-3 206,-3 -6,-52 c -11,-85 -23,-92 -185,-95 -154,-3 -174,-6 -196,-28 -23,-23 -20,-77 5,-100 18,-16 40,-19 159,-22 175,-5 238,7 292,56 69,63 70,65 81,385 11,339 12,337 -63,337 -42,0 -52,-4 -66,-25 l -16,-24 -49,24 c -46,24 -58,25 -212,25 h -164 z m 379,-139 80,-40 v -44 c 0,-74 -16,-81 -189,-81 -189,0 -201,6 -201,99 0,92 16,102 158,105 66,1 79,-3 152,-39 z"
       id="path4"
       inkscape:connector-curvature="0"
       style="stroke:#000000;stroke-width:13.1499;stroke-miterlimit:4;stroke-dasharray:none" />
    <path
       d="m 3119,5438 c -12,-23 -70,-148 -130,-277 l -109,-235 v -92 c 0,-71 4,-96 16,-108 22,-22 55,-29 86,-17 31,12 48,59 48,131 0,35 22,94 98,267 l 99,223 101,-231 c 92,-208 102,-236 102,-290 0,-50 4,-64 25,-84 29,-30 64,-32 96,-6 21,17 24,29 27,104 l 4,84 -122,264 c -67,145 -128,274 -136,287 -13,20 -22,22 -99,22 h -85 z"
       id="path6"
       inkscape:connector-curvature="0"
       style="stroke:#000000;stroke-width:13.1499;stroke-miterlimit:4;stroke-dasharray:none" />
    <path
       d="m 4408,5433 c -105,-91 -103,-85 -103,-327 0,-183 2,-215 18,-243 25,-46 143,-141 191,-154 23,-6 93,-9 161,-7 134,4 147,9 237,82 80,65 88,88 88,248 0,118 -2,137 -18,151 -16,15 -51,17 -277,17 h -257 l 6,33 c 4,18 24,49 46,72 l 40,40 213,3 c 238,4 247,7 247,72 0,20 -5,41 -12,48 -9,9 -82,12 -268,12 h -257 z m 442,-438 c 0,-61 -2,-66 -36,-97 -48,-44 -55,-46 -160,-47 -87,-1 -94,1 -140,32 -52,34 -61,54 -63,130 l -1,47 h 200 200 z"
       id="path8"
       inkscape:connector-curvature="0"
       style="stroke:#000000;stroke-width:13.1499;stroke-miterlimit:4;stroke-dasharray:none" />
  </g>
  <g
     id="layer102"
     stroke="none"
     fill="#e60013"
     transform="translate(-962.00679,11.259838)"
     style="stroke:#000000;stroke-width:23;stroke-miterlimit:4;stroke-dasharray:none">
    <path
       d="m 2470,4153 c -25,-2 -219,-21 -431,-42 -311,-31 -395,-43 -433,-59 -56,-25 -152,-114 -199,-186 -141,-212 -150,-235 -149,-405 1,-142 -8,-164 -77,-185 -65,-19 -101,-39 -132,-73 -42,-45 -69,-109 -75,-176 -3,-34 10,-383 30,-774 39,-774 38,-764 102,-848 15,-20 52,-50 81,-67 94,-53 110,-84 139,-258 18,-114 47,-181 101,-235 29,-30 223,-139 759,-427 395,-213 736,-394 756,-403 50,-20 175,-20 230,2 68,26 129,74 327,257 251,231 269,249 301,318 31,66 31,65 56,423 19,276 16,353 -20,456 -61,175 -200,313 -390,384 -78,29 -185,33 -283,10 -63,-15 -496,-210 -545,-246 -20,-14 -36,-17 -54,-13 l -27,7 7,166 c 3,91 9,272 12,403 l 7,236 42,-57 c 115,-156 309,-236 512,-211 92,12 588,179 662,223 64,39 146,125 183,193 77,143 78,354 2,537 -87,209 -224,354 -380,404 -40,12 -54,21 -54,36 0,44 -44,188 -81,264 -79,165 -200,260 -370,288 -225,39 -523,67 -609,58 z m 215,-144 c 62,-29 148,-125 189,-212 42,-86 82,-222 92,-306 8,-73 25,-91 96,-102 119,-19 235,-107 318,-243 101,-164 151,-346 130,-479 -35,-232 -226,-397 -458,-397 -43,0 -103,7 -132,16 -56,17 -144,68 -169,98 -13,16 -12,17 15,9 16,-4 67,-8 114,-8 75,0 91,3 131,27 90,53 132,127 149,262 14,117 -5,244 -48,316 -55,90 -177,162 -315,185 -49,8 -100,59 -125,127 -11,30 -27,113 -36,184 -9,72 -23,152 -32,179 -30,85 -117,151 -237,177 -58,12 -278,6 -632,-17 -115,-8 -211,-13 -212,-11 -7,7 97,105 127,121 25,13 132,27 419,56 212,21 404,40 426,42 67,8 143,-2 190,-24 z m 345,-29 c 97,-14 163,-45 223,-104 54,-54 118,-179 137,-266 6,-30 14,-63 17,-73 4,-16 -6,-17 -158,-15 l -162,3 -14,69 c -27,134 -80,261 -161,383 -14,22 -13,23 14,18 16,-2 63,-9 104,-15 z m -628,-279 c 25,-12 54,-31 63,-41 21,-23 41,-104 50,-200 22,-250 104,-373 274,-409 188,-40 258,-131 249,-325 -4,-100 -29,-161 -79,-198 -59,-44 -168,-31 -238,28 -65,56 -90,120 -107,280 -10,93 -22,153 -35,181 -26,53 -95,115 -167,149 -62,30 -135,38 -452,50 -166,7 -177,6 -217,-14 -47,-24 -77,-61 -99,-124 -13,-37 -15,-152 -14,-879 0,-460 5,-861 10,-891 10,-63 30,-116 61,-159 15,-22 90,-64 290,-164 l 270,-135 h 74 c 84,0 119,10 158,48 28,27 33,41 62,174 21,101 47,128 119,128 107,0 197,-73 233,-188 16,-50 16,-70 -6,-390 -16,-247 -26,-343 -37,-360 -18,-27 -70,-30 -117,-6 -118,59 -1206,650 -1221,663 -40,34 -65,96 -82,201 -9,58 -25,128 -35,156 -25,66 -80,129 -139,159 -55,28 -86,63 -100,114 -17,60 -82,1449 -70,1493 16,57 54,96 113,113 68,20 111,51 139,100 20,35 23,59 29,190 5,127 9,156 27,192 27,52 10,48 357,68 149,8 293,17 320,19 28,2 100,3 160,1 90,-1 118,-6 157,-24 z m 1183,-330 c 85,-40 146,-99 201,-192 92,-157 132,-331 104,-450 -18,-75 -44,-123 -98,-181 -53,-57 -105,-90 -185,-117 l -57,-20 21,42 c 82,160 89,343 20,544 -42,122 -126,268 -196,341 l -61,62 h 96 c 84,0 102,-3 155,-29 z M 2090,3089 c 135,-7 220,-16 249,-26 50,-18 106,-64 127,-105 l 15,-28 -38,5 c -134,20 -401,41 -420,34 -12,-4 -25,-19 -27,-31 -3,-13 -7,-368 -10,-789 -4,-633 -3,-769 8,-785 8,-11 105,-56 233,-108 l 220,-89 -19,-90 c -10,-50 -24,-95 -31,-99 -6,-4 -31,-8 -55,-8 -34,0 -88,23 -292,125 -284,142 -275,134 -290,268 -14,118 -13,1638 1,1674 18,47 39,63 83,63 23,0 133,-5 246,-11 z m 202,-260 c 76,-7 143,-16 149,-20 9,-5 8,-139 -5,-535 -9,-291 -16,-558 -16,-594 v -65 l -155,-62 -155,-61 v 680 680 l 23,-5 c 12,-3 84,-11 159,-18 z M 3456,1716 c 56,-28 98,-58 144,-105 114,-116 157,-229 146,-386 -3,-49 -13,-189 -21,-310 -20,-279 -20,-281 -177,-424 -62,-57 -114,-98 -116,-92 -2,6 4,116 15,244 26,328 23,450 -10,552 -62,190 -199,337 -395,427 l -67,31 85,40 c 114,55 162,67 246,64 59,-2 83,-9 150,-41 z m -555,-172 c 232,-68 399,-246 440,-472 7,-37 6,-110 -5,-250 -9,-108 -20,-264 -26,-346 -11,-168 -26,-215 -88,-280 -69,-71 -171,-96 -248,-60 -38,18 -41,26 -17,45 35,29 43,79 63,376 11,164 22,318 25,343 6,60 -18,169 -52,231 -37,69 -120,143 -191,170 -74,28 -183,31 -230,5 -19,-10 -36,-15 -39,-13 -9,10 60,130 100,174 48,52 125,93 178,93 19,0 60,-7 90,-16 z m -413,-51 c -2,-5 -21,-44 -43,-88 -21,-44 -39,-81 -41,-83 -1,-2 -43,14 -93,34 -50,21 -88,41 -84,45 5,4 58,28 118,52 105,43 151,56 143,40 z"
       id="path11"
       style="stroke:#000000;stroke-width:23;stroke-miterlimit:4;stroke-dasharray:none" />
  </g>
</svg>
