<?xml version="1.0" encoding="utf-8"?>
<!DOCTYPE svg PUBLIC "-//W3C//DTD SVG 20010904//EN" "http://www.w3.org/TR/2001/REC-SVG-20010904/DTD/svg10.dtd">
<svg version="1.0" xmlns="http://www.w3.org/2000/svg" width="600px" height="300px" viewBox="0 0 600 300" preserveAspectRatio="xMidYMid meet">
 <g fill="#000000">
  <path d="M143 297 c0.6 -1.1 1.7 -2 2.4 -2 2.2 0 5.2 -4.2 10 -13.7 3.8 -7.7 4.3 -9.3 3.1 -10.3 -1.1 -0.9 -1.2 -1.6 -0.2 -3.1 1 -1.5 2.4 -1.9 7.4 -1.9 3.5 0 6.3 0.3 6.3 0.8 0 1.5 -1.6 2.9 -3.8 3.6 -1.6 0.6 -3.7 3.7 -7.5 11.2 -4.4 8.9 -5 10.7 -3.9 12.4 2.3 3.8 0.6 5 -7.4 5 -7.2 0 -7.4 -0.1 -6.4 -2z"/>
  <path d="M161 298.3 c0 -1.4 1.5 -2.8 4.1 -4 1.9 -0.8 3.7 -3.7 7.3 -11.8 4.3 -9.5 4.7 -10.9 3.2 -11.7 -1.2 -0.7 -1.4 -1.3 -0.6 -2.9 0.8 -1.4 2.1 -1.9 4.8 -1.9 l3.8 0 1.3 7.7 c2.1 12.5 2.7 13 5.6 4.2 1.7 -5.4 1.7 -6.3 0.4 -7.3 -0.8 -0.6 -1.3 -1.9 -1.1 -2.8 0.3 -1.5 1.4 -1.8 6.3 -1.8 3.2 0 5.9 0.4 5.9 0.9 0 0.6 -1.3 2.3 -2.9 3.8 -1.5 1.5 -4 6 -5.4 9.8 -6.6 18.2 -6.7 18.5 -9.1 18.5 -2.2 0 -2.4 -0.5 -3 -7.7 -0.8 -9.7 -1.6 -14.3 -2.5 -14.3 -0.3 0 -2 3.5 -3.7 7.8 -2.8 6.7 -3 7.9 -1.8 9.3 2.9 3.2 0.7 4.9 -6.2 4.9 -3.5 0 -6.4 -0.3 -6.4 -0.7z"/>
  <path d="M200.3 298 c-1.6 -0.7 -2.3 -1.8 -2.3 -3.8 0 -3.8 6.6 -23.1 8.6 -25.4 2.3 -2.5 11.9 -2.6 12.8 -0.1 1.1 2.7 -1.3 8.3 -3.5 8.3 -1.5 0 -1.7 -0.5 -1.3 -2.9 0.8 -3.6 -1.2 -5 -3.6 -2.5 -1.9 1.9 -7 16.9 -7 20.5 0 1.2 0.7 1.9 2 1.9 1.4 0 2.2 -1.1 3.1 -4 1 -3.4 1.6 -4 4 -4 l2.8 0 -1.6 4.8 c-0.8 2.6 -2.4 5.5 -3.5 6.5 -2.2 1.8 -6.9 2.1 -10.5 0.7z"/>
  <path d="M221.6 297.4 c-2.6 -2.5 -2.4 -5.5 1 -17.4 2.8 -9.8 5.3 -12.9 11.1 -13.7 5.6 -0.7 7.7 1.5 7 7.6 -2.1 17.6 -6.2 25.1 -13.7 25.1 -2.2 0 -4.5 -0.7 -5.4 -1.6z m8.8 -4.6 c2.2 -3.6 5.8 -21 4.6 -22.2 -2.3 -2.3 -4.5 1.2 -7.3 11.3 -2.2 8 -2.6 10.6 -1.6 11.7 1.6 2 2.6 1.8 4.3 -0.8z"/>
  <path d="M239.7 297 c0.3 -1.1 1.4 -2 2.3 -2 2.2 0 2.3 -0.4 5 -13.4 1.4 -6.8 1.7 -10.3 1 -11 -0.5 -0.5 -1 -1.8 -1 -2.8 0 -1.6 0.9 -1.8 7.5 -1.8 6.2 0 7.9 0.4 9.5 2 1.1 1.1 2 2.6 2 3.3 0 3 -2.2 8.7 -3.8 9.7 -1.6 0.9 -1.6 1.1 0 2 1.4 0.8 1.6 2 1.1 5.9 -0.3 3.1 -0.1 5.1 0.6 5.5 0.6 0.4 1.1 1.6 1.1 2.7 0 1.7 -0.6 2 -4.2 1.7 l-4.3 -0.3 0 -7 c0 -6.8 -0.1 -7 -2.6 -7.3 -2.3 -0.3 -2.7 0.1 -3.2 3.5 -1 5.9 -0.8 7.3 0.9 7.3 0.9 0 1.4 0.7 1.2 1.8 -0.3 1.4 -1.6 1.8 -7 2 -6.3 0.3 -6.6 0.2 -6.1 -1.8z m18.9 -18.4 c2.3 -3.7 1.5 -7 -1.9 -7.4 -2.9 -0.4 -3.2 0 -4.2 6.1 -0.6 3.5 -0.4 3.7 1.9 3.7 1.6 0 3.2 -0.9 4.2 -2.4z"/>
  <path d="M269 297 c0 -1.3 0.7 -2 2 -2 1.1 0 2 -0.1 2 -0.2 0.1 -0.2 0.7 -5.4 1.4 -11.7 1 -9.3 1 -11.6 -0.1 -12.7 -0.7 -0.7 -1.3 -2 -1.3 -2.8 0 -1.3 1.4 -1.6 7.9 -1.6 9.8 0 11.1 1 11.1 8.3 0 7.5 -1.8 9.7 -8.1 9.7 l-4.9 0 0 5.5 c0 4.2 0.3 5.5 1.5 5.5 0.8 0 1.5 0.9 1.5 2 0 1.8 -0.7 2 -6.5 2 -5.8 0 -6.5 -0.2 -6.5 -2z m17 -18 c0.6 -1.2 1 -3.3 0.8 -4.8 -0.2 -2.2 -0.9 -2.8 -3.5 -3 l-3.3 -0.3 0 5 c0 4.8 0.2 5.1 2.5 5.1 1.4 0 2.9 -0.8 3.5 -2z"/>
  <path d="M298.5 295.8 c-2.6 -3.1 -2.7 -3.5 -2.3 -14.1 0.3 -10.5 0.4 -11 3.1 -13.3 3.7 -3.1 8.1 -3.1 11.2 0.1 2.5 2.4 3 6.2 2.9 21.2 -0.1 9 -9.3 12.8 -14.9 6.1z m8.3 -2 c1.9 -1.9 1.6 -21.2 -0.3 -22.8 -0.8 -0.7 -2.2 -1 -3 -0.6 -1.2 0.4 -1.5 2.6 -1.5 11.4 0 10 0.7 13.2 3 13.2 0.3 0 1.1 -0.5 1.8 -1.2z"/>
  <path d="M319 297.1 c0 -1.1 0.9 -2.1 2.1 -2.4 2 -0.6 2.2 -1 1.5 -6.8 -0.3 -3.4 -0.6 -8.3 -0.6 -11 0 -2.9 -0.6 -5.3 -1.5 -6.3 -0.8 -0.8 -1.5 -2.2 -1.5 -3 0 -2.4 14 -2.3 17 0.2 2.9 2.4 3.9 10.1 1.6 12.4 -2 2.1 -2 2.5 0.3 3.1 1.3 0.3 2 1.7 2.5 5.4 0.4 3 1.4 5.5 2.6 6.6 3.1 2.6 2.4 3.7 -2.5 3.7 -4.9 0 -4.7 0.2 -5.9 -8.3 -0.6 -4.8 -2.1 -6.7 -5.3 -6.7 -2.1 0 -2.4 0.4 -1.9 2.3 0.3 1.2 0.6 3.5 0.6 5 0 2 0.6 3 2 3.4 1.1 0.3 2 1.4 2 2.4 0 1.7 -0.8 1.9 -6.5 1.9 -5.7 0 -6.5 -0.2 -6.5 -1.9z m14.1 -18.4 c0.7 -1.5 0.7 -3.1 0 -5 -0.8 -2.1 -1.7 -2.7 -4.2 -2.7 -3 0 -3.1 0.2 -2.5 3.1 0.3 1.7 0.6 4 0.6 5 0 2.9 4.8 2.5 6.1 -0.4z"/>
  <path d="M349.6 297.4 c-0.8 -2.2 -0.8 -2.4 0.9 -2.4 1.8 0 2.2 -1.6 3.5 -14 0.9 -8.8 0.8 -9.5 -1 -11.2 -3.2 -3 -2.4 -3.8 3.8 -3.8 l5.7 0 7 14.3 c5.6 11.4 7.4 14.3 9.3 14.5 1.4 0.2 2.2 1 2.2 2.3 0 1.7 -0.7 1.9 -6.9 1.9 -6.2 0 -6.9 -0.2 -7.4 -2.2 -0.4 -1.2 -0.2 -2.5 0.4 -2.9 0.7 -0.4 0.4 -1.9 -0.7 -4.2 -1.5 -3.1 -2.3 -3.7 -5 -3.7 -2.9 0 -3.2 0.3 -3.9 3.7 -0.6 3.2 -0.3 4 1.4 5.2 3.9 2.5 2.6 4.1 -3.3 4.1 -4 0 -5.5 -0.4 -6 -1.6z m12.9 -17.1 c-0.4 -1 -1 -2.6 -1.2 -3.5 -0.9 -2.9 -2.1 -2.1 -2.5 1.7 -0.4 3.1 -0.2 3.5 2 3.5 1.9 0 2.3 -0.4 1.7 -1.7z"/>
  <path d="M386.6 297.4 c-0.4 -0.9 0.2 -2.3 1.3 -3.2 1.9 -1.7 1.9 -1.9 -1 -11.6 -3.1 -10.8 -3.8 -12 -6.5 -11.4 -1.4 0.3 -1.8 1.1 -1.6 3.1 0.4 4 -3.3 3.8 -4.1 -0.2 -0.3 -1.6 -0.9 -4.1 -1.3 -5.5 l-0.6 -2.7 12.2 0.3 12.3 0.3 1.8 5.3 c1.8 5.1 1.7 5.2 -0.2 5.2 -1.3 0 -2.4 -1 -3 -3 -0.8 -2.2 -1.7 -3 -3.5 -3 -3 0 -3 0.5 0.2 11.5 2.6 9 4.6 12.5 6.9 12.5 1.1 0 2.5 2.1 2.5 3.6 0 0.2 -3.3 0.4 -7.4 0.4 -5.8 0 -7.5 -0.3 -8 -1.6z"/>
  <path d="M414 298.1 c0 -0.5 -0.3 -1.6 -0.6 -2.5 -0.4 -1.1 -0.1 -1.6 1 -1.6 2.2 0 2.1 -1.1 -2 -12.2 -2.5 -6.6 -4.3 -10.2 -5.8 -11 -2.2 -1.1 -3.6 -2.7 -3.6 -4.1 0 -0.4 4.3 -0.6 9.5 -0.5 l9.5 0.3 2.5 5.3 2.4 5.2 -2.3 0 c-1.8 0 -2.7 -0.8 -3.5 -3 -1.1 -3.2 -2.9 -4.4 -5.6 -3.8 -1.3 0.3 -1.2 0.9 0.7 4.8 1.3 2.5 3 4.5 3.8 4.5 1.5 0 3 1.3 3 2.8 0 0.4 -0.7 0.7 -1.5 0.7 -1.9 0 -1.9 0.5 0.2 6.3 1.3 3.6 2.2 4.7 3.8 4.7 3.2 0 3.6 -0.9 2 -4.7 -0.8 -2 -1.5 -3.6 -1.5 -3.7 0 -0.1 1 -0.2 2.1 -0.2 2.1 0 3.4 2.2 7 11.4 l0.9 2.2 -11 0 c-6.1 0 -11 -0.4 -11 -0.9z"/>
  <path d="M441 297.1 c-1.3 -2.6 -1.3 -3.1 0.5 -3.1 2.4 0 1.8 -2.1 -3.3 -13.2 -3.7 -7.7 -5.6 -10.6 -7.5 -11.5 -5 -2.3 -3 -3.3 6.7 -3.3 l9.5 0 2.4 3.3 c3.3 4.3 12.7 23.2 12.7 25.5 0 3.4 -2.1 4.2 -11.2 4.2 -7.6 0 -8.9 -0.2 -9.8 -1.9z m13.6 -4.5 c0.3 -0.8 -1.8 -5.9 -4.5 -11.5 -3.9 -7.7 -5.6 -10.1 -7.1 -10.1 -1.1 0 -2 0.4 -2 0.9 0 0.5 2.2 5.7 5 11.5 4.7 10.2 7.2 12.8 8.6 9.2z"/>
  <path d="M70.2 252 c1.8 -2.2 4.2 -4 5.3 -4 1.1 0 3.2 -0.8 4.6 -1.8 2.2 -1.4 16.3 -17.7 24.7 -28.6 2.6 -3.4 2.8 -5.6 0.5 -5.6 -1.3 0 -1.1 -0.6 1.1 -2.9 2.8 -2.9 3.1 -3 14.1 -3.3 9.8 -0.3 11.2 -0.1 10.4 1.2 -2 3.4 -3.7 5 -5.3 5 -1 0 -2.6 0.4 -3.6 1 -2.5 1.3 -25 31.2 -25 33.2 0 0.9 0.7 1.8 1.5 2 1.3 0.2 1.1 1 -1 4.1 l-2.6 3.7 -14 0 -14 0 3.3 -4z"/>
  <path d="M103.6 252 c1.7 -2.6 3.4 -4 4.8 -4 1.2 0 3.2 -0.7 4.4 -1.6 2.2 -1.5 23.2 -30.9 23.2 -32.5 0 -0.4 -0.7 -1.2 -1.5 -1.7 -1.4 -0.7 -1.3 -1.2 0.5 -3.5 1.9 -2.3 2.9 -2.7 7.7 -2.7 5.4 0 5.5 0 4.9 2.8 -1 5.3 -2.7 22.4 -2.3 22.9 0.7 0.6 10.7 -15.8 10.7 -17.5 0 -0.8 -0.9 -1.6 -2 -1.9 -1.8 -0.5 -1.8 -0.7 -0.4 -3.4 1.4 -2.9 1.6 -2.9 10 -2.9 l8.5 0 -1.7 2.8 c-0.9 1.6 -2.8 3.3 -4.3 3.9 -2.1 0.8 -5.5 5.7 -15 22.1 -12.2 21 -12.3 21.2 -15.7 21.2 -1.9 0 -3.4 -0.3 -3.4 -0.7 0 -0.5 1.6 -8.2 3.5 -17.2 3.1 -15 3.6 -19.4 1.7 -16.5 -0.4 0.6 -4 6.1 -8.1 12.2 -7.1 10.8 -8.2 14.2 -4.6 14.2 1.2 0 1 0.9 -1.1 4 l-2.7 4 -9.8 0 -9.9 0 2.6 -4z"/>
  <path d="M151 255.4 c0 -1.9 4.4 -7.4 6 -7.4 1 0 2.7 -0.8 3.9 -1.7 2.2 -1.9 17.1 -29.5 17.1 -31.8 0 -0.8 -0.8 -1.8 -1.7 -2.3 -1.6 -0.9 -1.6 -1.2 0 -3.6 1.7 -2.6 1.8 -2.6 14.8 -2.6 10.1 0 13 0.3 12.6 1.3 -5.5 13.7 -6 14.7 -8.8 14.7 l-2.8 0 2 -4.5 c2.3 -5.2 1.9 -6.5 -2 -6.5 -2.8 0 -3.5 1.2 -8.9 14.2 -0.2 0.4 1 0.8 2.7 0.8 5.2 0 3.5 3.7 -1.9 4.2 -3.3 0.3 -3.8 0.8 -7.2 7.8 -2.1 4.1 -3.8 7.9 -3.8 8.3 0 0.5 1.7 0.7 3.7 0.5 3.3 -0.3 4.1 -0.9 6.1 -4.5 2 -3.7 2.8 -4.3 5.7 -4.3 l3.3 0 -3.7 8.8 -3.8 8.7 -16.7 0.3 c-9.1 0.1 -16.6 0 -16.6 -0.4z"/>
  <path d="M192.7 252.2 c1.3 -3.4 1.8 -3.8 4.3 -3.4 2.1 0.3 3.2 -0.2 4.3 -1.9 2.7 -4.1 13 -32.8 12.3 -34.4 -0.3 -0.8 -1.5 -1.5 -2.6 -1.5 -2.3 0 -2.4 -0.4 -1 -3.1 0.8 -1.5 2.1 -1.9 5.9 -1.9 l4.8 0 0.8 17.1 c0.6 14.6 0.9 17 2.3 16.7 0.8 -0.2 5.7 -7.7 10.8 -16.8 l9.2 -16.5 7.1 -0.3 c6.2 -0.3 7.1 -0.1 7.1 1.5 0 0.9 -1.2 2.7 -2.6 3.8 -2.2 1.8 -3 4.2 -6 18.3 -3.7 17.2 -3.6 19.2 0.8 19.2 1.4 0 1.8 0.5 1.4 1.6 -0.3 0.9 -0.6 2.4 -0.6 3.5 0 1.8 -0.8 1.9 -11.9 1.9 l-11.9 0 1.1 -3.5 c0.8 -2.6 1.6 -3.5 3.2 -3.5 1.3 0 2.8 -0.6 3.4 -1.4 1.3 -1.6 7.3 -23.5 6.8 -24.9 -0.1 -0.5 -4.8 6.7 -10.2 15.9 -9.4 15.9 -10.2 16.9 -13.3 17.2 l-3.2 0.3 0 -13.1 c0 -9.1 -0.3 -13.1 -1.1 -12.8 -1.4 0.5 -6.8 15.8 -6.2 17.6 0.3 0.6 1.3 1.2 2.4 1.2 2.2 0 2.3 0.8 0.9 4.4 -0.9 2.5 -1.2 2.6 -10.4 2.6 l-9.4 0 1.5 -3.8z"/>
  <path d="M258 254.1 c0 -3.2 1.1 -5.1 3 -5.1 1 0 2.3 -0.6 2.9 -1.4 1.1 -1.3 12.1 -33 12.1 -34.8 0 -0.4 -0.7 -0.8 -1.5 -0.8 -1.6 0 -1.9 -1.7 -0.9 -4.4 0.5 -1.2 2.1 -1.6 7 -1.6 l6.3 0 0.6 3.3 c0.3 1.7 1.6 10.2 3 18.7 3.4 21 3.1 20 6 20 2.2 0 2.5 0.4 2.5 4 l0 4 -9.6 0 -9.6 0 0.7 -3.7 c0.4 -2.1 1.1 -3.9 1.6 -4.1 0.5 -0.2 0.9 -2.4 0.9 -4.8 l0 -4.4 -5.3 0 c-5.4 0 -5.4 0 -6.5 3.9 -1.5 4.9 -1.5 5.1 0.3 5.1 1.1 0 1.5 1.1 1.5 4 l0 4 -7.5 0 c-6.7 0 -7.5 -0.2 -7.5 -1.9z m24 -23 c0 -4.5 -1.2 -12.1 -1.9 -12.1 -0.6 0 -5.1 12.6 -5.1 14.3 0 0.4 1.6 0.7 3.5 0.7 3.2 0 3.5 -0.3 3.5 -2.9z"/>
  <path d="M306 252 c0 -3.6 0.3 -4 2.4 -4 1.3 0 2.7 -0.7 3 -1.6 0.7 -1.9 0.6 -17.6 -0.3 -26.4 -0.6 -6.3 -0.7 -6.5 -3.5 -6.8 -3.3 -0.4 -4.6 1 -4.6 5.1 0 2.3 -0.4 2.7 -3 2.7 -3 0 -3 -0.1 -3 -5.2 0 -10.4 -1.2 -9.8 18 -9.8 19.1 0 17.4 -0.8 18.6 9.3 l0.6 5.7 -3.1 0 c-2.5 0 -3.1 -0.4 -3.1 -2.1 0 -3.7 -1.9 -5.9 -5.2 -5.9 l-3.1 0 0.7 13.8 c0.4 7.5 1.2 15.4 1.7 17.5 0.9 3.2 1.4 3.7 3.9 3.7 2.8 0 3 0.2 3 4 l0 4 -11.5 0 -11.5 0 0 -4z"/>
  <path d="M345.6 252.9 c-0.8 -4.4 -0.8 -4.9 0.7 -4.3 0.7 0.2 2.1 -0.2 3.1 -0.9 1.8 -1.3 1.8 -1.9 -1 -17.8 -2.5 -14.4 -3.2 -16.5 -5.1 -17.4 -1.2 -0.5 -2.3 -2.1 -2.5 -3.7 l-0.5 -2.8 11.3 0 c10.6 0 11.4 0.2 14.2 2.5 3 2.5 6.2 9.8 6.2 14.2 0 1.3 -0.9 3.2 -2 4.3 l-2.1 2.1 3 1 c3 1.1 3.1 1.2 7.3 13.4 0.8 2.3 2.3 4.4 3.6 5 1.6 0.7 4.2 5 4.2 6.9 0 0.1 -3 0.1 -6.6 0 -7.8 -0.1 -8.2 -0.5 -11 -11.9 -1.9 -7.7 -4.9 -11.5 -9 -11.5 -2.6 0 -2.6 0.1 -1.9 4.7 1.2 8.2 2.8 11.7 5.5 12.3 1.7 0.4 2.6 1.5 3.1 3.8 l0.6 3.2 -10.2 0 -10.2 0 -0.7 -3.1z m17 -27.4 c3.3 -5.1 -1.2 -13.5 -7.3 -13.5 -2.4 0 -3.4 0.4 -3 1.3 0.2 0.7 1 3.9 1.7 7.2 0.7 3.3 1.4 6.3 1.7 6.8 1 1.7 5.3 0.6 6.9 -1.8z"/>
  <path d="M400.9 254.4 c-7.5 -2.3 -10 -6.1 -15.8 -23.8 -2.8 -8.5 -5.1 -16.2 -5.1 -17.1 0 -0.9 1.4 -3 3 -4.7 3 -2.9 3.3 -3 11 -2.7 11.2 0.6 11.9 1.2 20.5 20.6 9.4 21 9.6 21.5 8.1 24.4 -2.2 4.6 -12.6 6.1 -21.7 3.3z m10.6 -7.7 c1.4 -2.2 1.1 -3.3 -4.5 -17.3 -3.4 -8.4 -6.9 -15.7 -8.2 -16.7 -2.5 -2.1 -6.7 -1.9 -8.1 0.4 -1.4 2.2 8.7 30 12.1 33.4 3.1 3.1 6.7 3.2 8.7 0.2z"/>
  <path d="M431 252 c-2 -3.9 -2 -4 -0.1 -4 1 0 2.1 -0.7 2.5 -1.5 0.6 -1.5 -12.4 -29.8 -15.1 -32.7 -0.9 -1 -2.6 -1.8 -3.7 -1.8 -1.5 0 -2.5 -1 -3.3 -3 l-1.1 -3 6.2 0 6.2 0 12.9 13 c7 7.2 13 12.8 13.3 12.6 0.2 -0.3 -1.9 -4.6 -4.8 -9.5 -3.7 -6.6 -5.8 -9.3 -7.6 -9.7 -1.4 -0.4 -3.1 -1.9 -4 -3.5 l-1.5 -2.9 7 0 c6.5 0 7.1 0.2 9 2.8 1.8 2.6 1.8 2.9 0.3 3.8 -1.5 1 -0.1 3.7 11 22.2 l12.7 21.2 -5.9 0 -5.8 0 -13.6 -14.2 c-7.4 -7.8 -13.8 -14 -14 -13.7 -0.9 0.9 8.4 17.9 10.4 18.9 1 0.5 2.7 1 3.7 1 1.6 0 5.3 5.3 5.3 7.5 0 0.3 -4 0.5 -9 0.5 l-9 0 -2 -4z"/>
  <path d="M477.1 252.4 c-2.5 -4.2 -2.5 -4.4 -0.6 -4.4 3.2 0 1.1 -5 -8.4 -19.5 -8.1 -12.6 -10.3 -15.2 -13.1 -16.1 -1.8 -0.6 -4.2 -2.3 -5.2 -3.7 l-2 -2.7 9 0 c8.6 0 9.2 0.1 11.2 2.7 1.8 2.3 1.9 2.8 0.5 3.5 -0.8 0.5 -1.5 1.4 -1.5 2.1 0.1 0.7 4.9 8.2 10.8 16.7 8.4 12.2 11.3 15.6 13.7 16.3 4.7 1.4 5.5 2 7.6 5.5 l2.1 3.2 -11 0 -11 0 -2.1 -3.6z"/>
  <path d="M509.2 255 c-1.8 -0.4 -4.2 -1.6 -5.3 -2.6 -2.5 -2.3 -23.1 -30.8 -25.3 -35.1 -4.9 -9.7 1.1 -14.4 14.1 -11.2 4.4 1.2 9.7 5.5 14.5 12.2 l1.9 2.7 -3.8 0 c-3.3 -0.1 -4.2 -0.6 -7.2 -4.5 -1.8 -2.5 -4.4 -4.8 -5.7 -5.1 -2.9 -0.8 -5.5 1.1 -4.7 3.4 0.5 1.5 15.1 21.4 21.1 28.7 3.5 4.2 6.7 5.8 9.2 4.5 2.6 -1.4 2.5 -2 -1.1 -6.6 l-3.1 -3.9 4.2 -0.3 c3.8 -0.3 4.5 0.1 7.6 3.5 1.8 2.1 3.6 4.8 4 6.1 1 3.5 -0.4 7.2 -3.2 8.2 -2.9 1.2 -12.4 1.1 -17.2 0z"/>
  <path d="M548.4 255.1 c-5 -1.3 -8.6 -4 -14.7 -11.2 l-5.9 -6.9 5.4 0 c5.2 0 5.6 0.2 10.2 5 4.8 5.1 4.9 5.1 10.5 4.8 4.9 -0.3 5.6 -0.6 5.9 -2.5 0.5 -3.3 -5.7 -6.8 -22 -12.5 -15.8 -5.4 -19.2 -7.2 -23.8 -12.4 -3.9 -4.5 -3.8 -8.7 0.2 -11.7 2.1 -1.6 4.2 -2 10.2 -1.9 4.1 0 8.6 0.6 10 1.4 3.1 1.6 14.6 11.9 14.6 13 0 0.4 -1.6 0.8 -3.7 0.8 -3 0 -4.5 -0.9 -8.9 -5 -5.1 -4.9 -7.9 -5.9 -11.8 -4.4 -2.5 0.9 -1.9 4.1 1.2 6.2 1.5 1.1 8.8 4.1 16.2 6.7 7.4 2.6 15.6 5.8 18.1 7.2 11.4 6.1 16.2 15.9 10.4 21.3 -2.3 2.2 -3.6 2.5 -10.8 2.7 -4.5 0.1 -9.6 -0.2 -11.3 -0.6z"/>
  <path d="M33.8 253.9 c-5.6 -3.2 2.5 -15.8 21.6 -33.1 6 -5.4 13.2 -11.1 16 -12.5 9.2 -4.8 27.6 -3.3 27.6 2.1 0 0.7 -1.8 3.6 -4.1 6.5 -3.9 4.9 -4.2 5.1 -9.2 5.1 l-5.1 0 3.3 -3.4 c3.9 -4 3.8 -7 -0.1 -7.4 -4.2 -0.5 -6.6 1.4 -20.8 16.3 -14.4 15.2 -16 17.5 -14 20 2.7 3.2 7.1 1.6 14.1 -5.2 4.2 -4 5 -4.4 8.9 -4.1 l4.4 0.3 -6.2 7.2 c-3.7 4.2 -7.5 7.6 -9.4 8.2 -3.9 1.4 -24.7 1.4 -27 0z"/>
  <path d="M142.6 179 c-16.2 -10.7 -18.6 -12.7 -24.3 -19.9 -3.5 -4.4 -6.3 -8.4 -6.3 -8.9 0 -0.5 5.7 -6.4 12.8 -13.3 7 -6.8 40.9 -40.2 75.3 -74.2 l62.7 -61.8 38.6 0.1 38.7 0 17.9 18.3 17.9 18.2 0.1 6.3 0 6.2 -20 0 -20.1 0 -4.4 -9.5 -4.4 -9.5 -26.9 0 -26.8 0 -1.8 3.8 c-6.2 13 -32.6 72.1 -32.6 73.1 0 0.8 16.7 1.1 62 1.1 l62 0 0 -9 0 -9 33.7 0 33.8 0 30.7 30.6 30.6 30.7 -6.1 7.5 c-5.2 6.3 -9 9.3 -23.9 19.3 l-17.8 11.9 -141.7 0 -141.8 0 -17.9 -12z m337.4 -19.5 l6.4 -6.5 -3.4 -3.7 c-1.9 -2.1 -14.7 -15.2 -28.5 -29 l-24.9 -25.3 -31.8 0 c-17.5 0 -31.8 0.2 -31.8 0.5 0 0.4 2.7 5.8 8.7 17.5 0.2 0.3 -32.5 0.5 -72.7 0.5 -40.1 0 -73 -0.2 -73 -0.5 0 -0.3 10.1 -21 22.3 -46 l22.4 -45.5 26.6 -0.3 26.6 -0.2 4.6 8.5 4.7 8.5 16.9 0 c9.3 0 16.9 -0.3 16.9 -0.6 0 -0.3 -7.3 -8.4 -16.3 -17.9 l-16.2 -17.4 -36.7 0 -36.6 -0.1 -73.1 73.8 c-40.1 40.5 -73.1 74.1 -73.2 74.5 -0.1 0.5 2.3 4.2 5.2 8.3 l5.4 7.3 172.5 0.1 172.6 0 6.4 -6.5z"/>
  <path d="M129.5 154 c-2.1 -2.3 -3.3 -0.9 25 -30.1 8.2 -8.5 36.8 -38.1 63.5 -65.7 l48.4 -50.2 35.1 0 35 0 7.5 7.7 c4.2 4.3 9.4 9.8 11.7 12.3 l4.2 4.5 -10.1 -0.2 -10.1 -0.1 -5.1 -8.6 -5.1 -8.6 -29.3 0.2 -29.4 0.3 -28.5 52.8 c-15.6 29.1 -28.3 53.1 -28 53.3 0.2 0.2 39.6 0.3 87.5 0.2 l87.2 -0.3 -6 -9.8 c-3.3 -5.3 -6 -9.8 -6 -10 0 -0.1 10.9 -0.1 24.2 0 l24.2 0.2 25.5 25.5 c22.1 22.1 25.3 25.7 24.2 27 -1.2 1.4 -18.3 1.6 -172.6 1.6 -169.9 0 -171.2 0 -173 -2z"/>
 </g>
</svg>