<?xml version="1.0" encoding="utf-8"?>
<!DOCTYPE svg PUBLIC "-//W3C//DTD SVG 20010904//EN" "http://www.w3.org/TR/2001/REC-SVG-20010904/DTD/svg10.dtd">
<svg version="1.0" xmlns="http://www.w3.org/2000/svg" width="600px" height="300px" viewBox="0 0 600 300" preserveAspectRatio="xMidYMid meet">
 <g fill="#000000">
  <path d="M482.7 258.7 c0.3 -1.4 0 -2.8 -0.6 -3.1 -1.9 -1.2 -1.3 -4.8 0.7 -4.4 1.3 0.3 1.7 1.3 1.7 4.7 0 2.5 -0.5 4.6 -1.1 4.8 -0.7 0.2 -1 -0.5 -0.7 -2z"/>
  <path d="M10.2 255.8 c-1.8 -0.6 -4.6 -2.6 -6.2 -4.5 -2.6 -2.9 -3 -4.2 -3 -9.1 0 -7.5 2.5 -11.6 8.7 -14.3 3.8 -1.6 5.2 -1.8 7.7 -0.9 3.1 1.1 8.6 5.7 8.6 7.2 0 1.6 -3.3 0.7 -6.2 -1.7 -4.2 -3.6 -8.9 -3.4 -12.1 0.5 -4.8 5.6 -4.3 13.8 1 18 3.8 3 8.1 2.6 12 -1.2 2.5 -2.4 3.6 -2.9 4.5 -2 0.8 0.8 0.7 1.7 -0.6 3.7 -2.7 4.1 -9.1 6 -14.4 4.3z"/>
  <path d="M38.3 255 c-5.3 -3.2 -7.6 -9.2 -6.2 -16.6 2.6 -13.7 19.7 -16.4 24.4 -3.9 2.1 5.3 1.6 13 -1.1 17 -3.6 5.5 -11.3 7.1 -17.1 3.5z m12.2 -4.3 c4.4 -4.4 5.4 -9.4 2.8 -14.4 -2.7 -5.2 -7.2 -7.8 -10.7 -6.2 -8.2 3.8 -8.7 18.1 -0.8 22.3 3.9 2.2 5 2 8.7 -1.7z"/>
  <path d="M61.9 256.3 c0 -0.4 -0.1 -6.9 -0.1 -14.3 l0 -13.5 2.5 -0.3 c3.3 -0.4 4.9 2.1 7.3 10.8 2.8 10.8 5.4 11.3 7.9 1.7 2.7 -10.4 4.1 -12.9 7.1 -12.5 l2.7 0.3 0 14 c0 11.5 -0.2 14 -1.4 14 -1.1 0 -1.4 -1.8 -1.4 -8.2 0 -4.5 -0.3 -8.5 -0.7 -8.9 -1.6 -1.5 -3.7 2 -5.9 9.7 -1.9 6.7 -2.6 7.9 -4.2 7.7 -1.4 -0.2 -2.5 -1.9 -3.8 -5.8 -1 -3 -1.8 -6.2 -1.8 -7.1 -0.1 -1.6 -3.1 -4.9 -4.5 -4.9 -0.4 0 -0.6 3.9 -0.5 8.7 0.3 7.7 0.1 8.8 -1.4 9.1 -0.9 0.2 -1.7 0 -1.8 -0.5z"/>
  <path d="M187.7 256.4 c-0.4 -0.4 -0.7 -7 -0.7 -14.6 0 -13 0.1 -13.8 1.9 -13.8 2.2 0 5 3.4 10.2 12.3 2.1 3.6 4 5.7 5.2 5.7 1.6 0 1.8 -0.9 1.6 -8.7 -0.2 -7.8 0 -8.8 1.6 -8.8 1.5 0 1.7 1.1 1.7 9.5 0 18.4 -0.1 19 -1.7 19 -1.7 0 -6.2 -5.8 -10.7 -13.8 -2 -3.5 -3.6 -5.2 -4.7 -5 -1.3 0.3 -1.6 1.8 -1.6 9.2 0 8.3 -0.8 10.9 -2.8 9z"/>
  <path d="M248.3 255.3 c-4.3 -2.2 -5.1 -5 -5 -17.3 0.2 -9.8 0.3 -10.5 2.2 -10.5 1.9 0 2 0.8 2.3 11.2 0.3 10.7 0.4 11.3 2.9 13.3 3.3 2.6 4.6 2.5 7.7 -0.2 2.4 -2.1 2.6 -3.1 3 -12.7 0.4 -9.8 1.3 -13 3.3 -11.8 0.5 0.3 1 5.7 1 11.9 l0.1 11.2 -3.3 3.3 c-3.8 3.8 -8.7 4.3 -14.2 1.6z"/>
  <path d="M278.3 255 c-1.7 -1 -3.7 -2.8 -4.3 -4 -1.9 -3.5 1.5 -3.6 5.5 -0.1 4.4 3.8 8.3 4 11.5 0.7 3.8 -4.1 1.8 -6 -9.8 -9.7 -2.8 -0.9 -5 -2.4 -6 -4.1 -1.5 -2.6 -1.5 -2.9 0.4 -5.5 5 -6.8 13.3 -7.3 18.9 -1.1 2.5 2.8 2.6 3.3 1.2 3.6 -1 0.2 -3.1 -0.8 -4.8 -2.2 -3.6 -3.1 -6.8 -3.3 -10 -0.7 -4 3.3 -1.2 6 9.1 9.3 7.7 2.5 9.1 9.8 2.5 13.8 -4.1 2.5 -10.1 2.6 -14.2 0z"/>
  <path d="M371.7 256.4 c-0.4 -0.4 -0.7 -3.1 -0.7 -5.9 0 -4.4 -0.7 -6.4 -5 -13.5 -2.7 -4.6 -5 -8.5 -5 -8.7 0 -0.1 1.1 -0.3 2.3 -0.3 1.9 0 2.9 1.2 5.1 5.5 3.4 7.1 5.3 7.1 8.6 0.2 1.8 -3.7 3.2 -5.3 4.8 -5.5 1.2 -0.2 2.2 0 2.2 0.4 0 0.4 -2.1 4.1 -4.7 8.3 -4.2 6.7 -4.8 8.3 -5 13.6 -0.1 5.6 -1 7.5 -2.6 5.9z"/>
  <path d="M415.1 254.9 c-6 -2.7 -8.3 -7 -7.7 -14.3 1 -13 13.1 -18.9 21.6 -10.5 2.7 2.8 3.2 4.9 1.1 4.9 -0.5 0 -2.5 -1.3 -4.6 -3 -2.1 -1.6 -4.7 -3 -5.7 -3 -2.6 0 -8.5 5.9 -9.4 9.4 -1.1 4.4 1.2 10.4 4.9 12.6 4.5 2.8 7.1 2.5 11.2 -1.1 4.2 -3.8 6.8 -2.8 4 1.4 -3 4.6 -9.7 6.2 -15.4 3.6z"/>
  <path d="M448 254.8 c-5.3 -3.6 -7.3 -7.1 -7.4 -12.5 -0.1 -9.2 5.8 -16.3 13.4 -16.3 7.6 0 13 6.5 13 15.7 0 5.7 -2.6 10.5 -7.2 13.3 -4.3 2.6 -7.7 2.5 -11.8 -0.2z m12 -5 c3 -3 3.2 -3.5 2.8 -9.1 -0.4 -5 -0.9 -6.4 -3.2 -8.3 -4.2 -3.7 -7.3 -4.1 -10.3 -1.3 -6.1 5.6 -6.3 15 -0.6 19.6 4 3.2 7.5 2.9 11.3 -0.9z"/>
  <path d="M94.6 255.2 c-0.8 -1.4 8.2 -26.6 9.8 -27.7 1.1 -0.7 2.1 -0.7 3.1 0 2.2 1.5 10.7 26.7 9.3 28 -0.7 0.7 -1.4 0.4 -2.2 -0.9 -2.6 -4.4 -4.6 -5.6 -9.1 -5.6 -4.2 0 -4.8 0.3 -6.6 3.5 -2.1 3.5 -3.3 4.3 -4.3 2.7z m15 -10.7 c0.7 -1.7 -1.4 -8.4 -2.7 -8.6 -0.5 -0.1 -1.4 -0.2 -2 -0.3 -1.3 -0.1 -3.9 7.1 -3.2 9 0.7 1.9 7.2 1.8 7.9 -0.1z"/>
  <path d="M126.6 255.2 c-0.3 -0.5 -0.6 -6.7 -0.7 -13.8 l-0.1 -12.9 7.4 -0.3 c6.3 -0.2 7.8 0 10.1 1.9 8.2 6.4 7.1 20.7 -1.8 24.5 -3.7 1.5 -14.1 1.9 -14.9 0.6z m15.9 -5.2 c2.8 -2.3 3.9 -8.2 2.2 -12.2 -2 -4.8 -5.5 -7 -10.4 -6.6 l-3.8 0.3 -0.3 9.5 c-0.2 7.6 0 9.7 1.3 10.6 1.8 1.3 8.7 0.3 11 -1.6z"/>
  <path d="M170.9 255.8 c-0.1 -0.2 -0.3 -6.5 -0.4 -14.1 -0.2 -11.3 0.1 -14 1.3 -14.4 2.4 -1 2.7 0.9 2.7 14.8 0 11.9 -0.2 13.4 -1.7 13.7 -1 0.2 -1.9 0.2 -1.9 0z"/>
  <path d="M215 242 l0 -14 6 0 c11.3 0 15.9 3.5 16.7 12.8 0.5 5 0.2 6.6 -1.5 9.4 -2.8 4.6 -5.9 5.8 -14.2 5.8 l-7 0 0 -14z m15.9 8.4 c3.8 -3.1 4.8 -7.8 2.8 -12.7 -2 -4.7 -5.5 -6.9 -10.4 -6.5 l-3.8 0.3 -0.3 8.7 c-0.2 5 0.2 9.7 0.8 10.8 1.6 2.9 7.1 2.7 10.9 -0.6z"/>
  <path d="M312.6 255.2 c-0.3 -0.6 -0.4 -5.7 -0.1 -11.5 0.5 -11.9 -0.1 -13.1 -6.4 -13.2 -2.5 0 -3.6 -0.4 -3.6 -1.5 0 -1.2 2 -1.5 11.8 -1.7 10.5 -0.1 11.8 0.1 11.5 1.5 -0.2 1.2 -1.7 1.9 -4.8 2.2 l-4.5 0.5 -0.1 12 c0 10.2 -0.2 12 -1.6 12.3 -0.9 0.2 -1.9 -0.1 -2.2 -0.6z"/>
  <path d="M333.9 255.8 c0 -0.2 -0.1 -6.5 -0.2 -14.1 l-0.2 -13.7 8.6 0 c7.6 0 8.8 0.2 10.7 2.3 2.8 3 2.8 7.1 0.1 9.6 -2.2 2 -2.1 2.3 0.6 7.1 0.8 1.4 1.5 4 1.5 5.8 0 2.6 -0.4 3.3 -1.7 3 -1.2 -0.2 -2 -1.6 -2.4 -4.2 -0.8 -5 -3.9 -7.6 -9 -7.6 -4.3 0 -5.2 1.5 -4.7 8 0.2 2.6 -0.1 3.5 -1.4 3.8 -1 0.2 -1.8 0.2 -1.9 0z m15.3 -16.5 c2.4 -2.2 2.3 -6 -0.2 -7.3 -1.2 -0.6 -4.2 -1 -6.8 -0.8 -4.5 0.3 -4.7 0.4 -5 3.6 -0.2 1.8 0.2 4 0.9 4.8 1.6 1.9 8.8 1.8 11.1 -0.3z"/>
  <path d="M508.5 255 c-0.4 -0.7 -0.8 -7 -0.9 -14.1 -0.1 -12.4 0 -13 1.9 -12.7 1.9 0.3 2 1 1.7 10.8 -0.1 5.8 0.2 11.2 0.7 12 0.7 1 3.3 1.7 7.6 2 3.6 0.3 6.5 1 6.5 1.5 0 1.4 -16.7 1.9 -17.5 0.5z"/>
  <path d="M543 244 c0 -13.2 0.4 -12.4 -6.9 -13.2 -1.4 -0.2 -2.6 -0.9 -2.9 -1.5 -0.3 -1 2.5 -1.3 11.7 -1.3 9.9 0 12.1 0.3 12.1 1.4 0 1.1 -1.4 1.6 -4.7 1.8 l-4.8 0.3 -0.3 12.3 c-0.2 11.4 -0.4 12.2 -2.2 12.2 -1.9 0 -2 -0.7 -2 -12z"/>
  <path d="M565.2 255.2 c-0.9 -0.3 -1.2 -4.3 -1.2 -13.9 l0 -13.5 8 0.4 c7.4 0.3 8.2 0.5 11.1 3.5 2.7 2.6 3.3 4.1 3.7 8.7 0.4 4.8 0.1 6.2 -2.2 9.6 -1.4 2.2 -3.6 4.2 -4.9 4.4 -3.4 0.7 -13.2 1.3 -14.5 0.8z m12.3 -3.6 c5.6 -2.4 7.9 -8.9 5.1 -14.5 -2 -3.7 -3.9 -5.1 -8.3 -6.1 -5.6 -1.3 -6.3 -0.2 -6.3 10.6 0 7.8 0.3 9.5 1.8 10.3 2.3 1.4 3.7 1.3 7.7 -0.3z"/>
  <path d="M469.5 254 c-0.4 -0.7 -0.3 -1.6 0.3 -2.2 1.4 -1.4 4.5 -0.2 4 1.5 -0.6 1.6 -3.4 2.1 -4.3 0.7z"/>
  <path d="M589.4 253.9 c-0.9 -1.5 1.2 -3.3 3 -2.6 0.9 0.4 1.6 1.3 1.6 2.2 0 1.7 -3.5 2.1 -4.6 0.4z"/>
  <path d="M68.5 219.9 c-2.2 -0.6 -6.6 -1.7 -9.9 -2.5 -20.5 -5 -38.5 -19.5 -48.2 -38.9 -3.9 -7.8 -4.6 -10.3 -5.5 -18.9 -2 -17.8 1.7 -30.7 12.7 -45.3 3 -4 8 -9.3 11.2 -11.8 7.3 -5.8 21.5 -12.8 31.5 -15.5 9.6 -2.6 25.9 -3.6 35.3 -2.1 20 3.1 41.2 14.2 50.2 26.3 3.6 4.8 6.4 6 7.9 3.4 1.4 -2.4 10.7 -12 14.3 -14.7 4.6 -3.5 12 -7.1 20 -9.9 4.9 -1.7 9.2 -2.3 17.7 -2.5 l11.2 -0.2 7 -6.6 c18.5 -17.4 40.9 -26.7 64.5 -26.7 4.9 0 5.6 0.2 5.6 2 0 1.3 -2.2 3.2 -7.2 6.2 -14.9 8.7 -25.3 18.2 -34.2 31.2 l-4.7 6.9 7 7 c3.9 3.8 7.1 7.4 7.1 7.8 0 2.5 3.6 0.1 11.1 -7.4 13.9 -13.7 31.3 -20.5 49.4 -19.4 17.4 1.1 31.6 7.7 44.5 20.8 4.3 4.4 8 7.9 8.3 7.9 0.3 0 4.3 -3.7 8.9 -8.3 10.3 -10.2 19.2 -14.9 33.3 -17.8 8.3 -1.6 11 -1.7 18.6 -0.9 13.5 1.5 25.1 6.2 33.9 13.5 5.2 4.3 6.5 3.6 6.1 -3.5 l-0.2 -5 34.3 0 c38.7 0.1 46 0.9 55.6 6 11.3 6 21.8 16.4 27.2 27 6.4 12.5 8.1 33 3.9 46.6 -3.8 12.3 -11 23 -20.8 30.8 -15.8 12.6 -15.6 12.6 -83.9 12.6 -30.6 0 -56.3 -0.4 -57 -0.9 -0.8 -0.4 -1.9 -1.9 -2.6 -3.2 -1.8 -3.6 -4.5 -3.6 -5.7 0 l-1.1 3.1 -69.2 -0.2 c-38 -0.1 -76.9 -0.4 -86.3 -0.6 l-17.3 -0.3 0 -6.4 c0 -7.8 -0.9 -8.1 -7.6 -3 -6.1 4.7 -8.7 6 -17.9 9 -6.7 2.1 -9.6 2.5 -20.7 2.5 -11.1 0 -14 -0.4 -20.8 -2.6 -12.5 -4 -28.3 -15.7 -32.9 -24.2 -0.6 -1.2 -1.6 -2.2 -2.1 -2.2 -0.5 0 -4.6 3.7 -9.2 8.3 -9.7 9.6 -21.5 16.6 -32.3 19.2 -3.9 0.9 -9 2.1 -11.5 2.7 -6.4 1.5 -24.7 1.9 -29.5 0.7z m33.5 -23.5 c13.4 -4 27.6 -14.8 33.4 -25.4 4.7 -8.6 6.3 -8.1 -29.4 -8.3 -27.8 -0.2 -31.9 -0.4 -34.7 -1.9 -6.1 -3.4 -8 -9 -4.7 -13.7 3.4 -4.8 6 -5.1 39.9 -5.1 26 0 31.7 -0.2 32.1 -1.4 0.6 -1.6 -6.9 -13.8 -12.2 -19.6 -4.7 -5.2 -15.7 -11.6 -24.2 -14.2 -10.2 -3 -29.2 -3 -39.2 0.1 -10.5 3.2 -15.9 6.2 -22.8 12.6 -11 10.2 -16.8 22.6 -15.5 33.4 1.3 11.4 6 20.8 14.5 29.1 8.6 8.3 20 14 32.3 16.1 7.1 1.1 24 0.2 30.5 -1.7z m123 -1.8 c12 -6.2 18.1 -12.3 24.7 -24.8 2.6 -4.9 2.8 -6.1 2.8 -16.8 0 -10.7 -0.2 -11.8 -2.8 -16.5 -1.6 -2.7 -4.3 -6.8 -6.2 -9 -3.2 -3.8 -3.4 -3.9 -5.3 -2.2 -2.4 2.2 -4 2.1 -13.2 -0.4 -4.1 -1.1 -10.8 -2.9 -14.8 -4 -4.1 -1 -7.8 -2.1 -8.3 -2.4 -0.5 -0.4 -0.2 -1.9 0.7 -3.6 2.2 -4.3 1.2 -5.9 -3.5 -5.9 -7.5 0 -14.9 3.8 -23.1 12 -8.6 8.6 -11.3 13.4 -13.7 24.8 -1.5 7.1 -1.5 9 -0.4 14.4 3.4 16.7 18.4 32.7 34.6 36.9 1.7 0.4 7.5 0.7 13 0.5 8.7 -0.2 10.7 -0.6 15.5 -3z m103.9 2 c0.7 -0.5 1.1 -6.7 1.1 -20.1 l0 -19.4 2.6 -2 c6.3 -4.9 11.5 5.5 7.2 14.4 -2 4.2 -2.1 4.5 -0.5 6.3 1.3 1.5 1.7 3.8 1.7 11 0 8 0.2 9.3 1.9 10.2 2.4 1.2 19.8 1.4 20.5 0.1 0.3 -0.4 0.6 -11.6 0.7 -24.7 0.1 -27.7 -0.8 -33.1 -7.1 -42.4 -5.1 -7.5 -11.4 -13 -19.7 -17 -6.3 -3 -7.6 -3.3 -16.8 -3.4 -8.7 0 -11 0.3 -17.5 2.8 -6.4 2.5 -8.6 4 -15 10.5 -12.9 13 -15.1 20.5 -15 51.7 0.1 15.6 0.4 20.5 1.5 21.4 0.8 0.7 5.1 1 11.6 0.8 l10.4 -0.3 1 -19.6 c1 -20 1.7 -22.9 5.3 -22.9 0.8 0 2.4 0.7 3.4 1.7 1.6 1.4 1.8 3.5 1.8 20.9 0 17.3 0.2 19.4 1.8 20.3 1.8 1.1 17.2 0.8 19.1 -0.3z m78.4 0 c0.3 -0.8 0.3 -2.3 0.1 -3.3 -1 -3.8 1.2 -4.1 23.1 -3.4 l21 0.6 0.5 3.5 0.5 3.5 11.5 0 11.5 0 0.3 -22.5 c0.2 -17.7 -0.1 -24 -1.3 -29.5 -3.4 -14.8 -12.3 -25.8 -26.3 -32.2 -7.2 -3.4 -8.3 -3.6 -17.7 -3.6 -9.3 0 -10.5 0.3 -17.8 3.7 -12.9 5.9 -21.6 16.3 -26.1 31.1 -1.1 3.8 -1.6 10.8 -1.7 28 -0.2 12.7 0.1 23.6 0.5 24.3 1.1 1.8 21.2 1.7 21.9 -0.2z m145.3 0.4 c4.7 -1.8 13.7 -9.1 18.3 -14.8 9.1 -11.2 11.4 -27.8 6 -41.6 -3.1 -7.8 -12.1 -17.5 -20.8 -22.4 l-6.6 -3.7 -24.9 -0.3 c-13.7 -0.2 -26 -0.1 -27.3 0.3 l-2.3 0.5 0 41.5 0 41.5 27.4 0 c16.6 0 28.6 -0.4 30.2 -1z m-320.2 -77.6 c0.9 -0.8 1.9 -2.7 2.3 -4.2 1.1 -4.7 7.3 -17.3 11.3 -23.1 5.6 -8.2 12.1 -15.4 19.5 -21.9 9.9 -8.5 8.1 -10.7 -4.8 -5.8 -21.7 8.2 -37.6 22.3 -47.4 42.2 -2.6 5.3 -3.4 7.7 -2.6 8.5 0.8 0.8 13 4.4 19.5 5.8 0.4 0 1.4 -0.6 2.2 -1.5z"/>
  <path d="M200.5 168.6 c-5.5 -2.5 -8.8 -7 -9.5 -13.2 -1.2 -10.8 4.5 -17.5 15.6 -18.2 11.7 -0.8 19.6 7.3 18 18.3 -1.6 10.5 -14.3 17.4 -24.1 13.1z"/>
  <path d="M411 167.1 l-3.4 -0.6 0.2 -9 c0.4 -10.6 0.7 -12 3.8 -16.2 10.4 -13.9 33.5 -10.5 38.9 5.8 1.1 3.1 1.5 7.4 1.3 12.5 l-0.3 7.9 -18.5 0.1 c-10.2 0.1 -20.1 -0.1 -22 -0.5z"/>
  <path d="M529.1 175.1 l-9.4 -0.6 0.2 -17.9 c0.1 -9.9 0.4 -18.3 0.7 -18.8 0.8 -1.2 19.7 -1 23.5 0.4 10.5 3.5 14.9 12.2 11.8 23.2 -1.4 5 -4.7 10.1 -7.9 11.9 -3.4 2.1 -7.9 2.5 -18.9 1.8z"/>
  <path d="M309 65.6 c-5.7 -2.7 -8.2 -6.3 -8.7 -12.3 -0.8 -8.8 5.7 -15.3 15.4 -15.3 4.4 0 5.8 0.5 8.8 3.1 6.5 5.7 8 11 4.8 17.6 -3.5 7.4 -12.8 10.6 -20.3 6.9z m6.5 -18.1 c3.4 0 4.1 -0.4 4.3 -2.2 0.3 -1.7 -0.3 -2.4 -2.2 -2.9 -3.4 -0.8 -9.1 0.3 -10.6 2.1 -1.9 2.3 -0.5 4.8 2.2 3.9 1.3 -0.5 4.1 -0.8 6.3 -0.9z"/>
 </g>
</svg>