<?xml version="1.0" encoding="UTF-8" standalone="no"?>
<svg
   xmlns:dc="http://purl.org/dc/elements/1.1/"
   xmlns:cc="http://creativecommons.org/ns#"
   xmlns:rdf="http://www.w3.org/1999/02/22-rdf-syntax-ns#"
   xmlns:svg="http://www.w3.org/2000/svg"
   xmlns="http://www.w3.org/2000/svg"
   xmlns:sodipodi="http://sodipodi.sourceforge.net/DTD/sodipodi-0.dtd"
   xmlns:inkscape="http://www.inkscape.org/namespaces/inkscape"
   width="500"
   height="200"
   viewBox="0 0 500 200"
   version="1.1"
   id="svg180"
   sodipodi:docname="dataeast.svg"
   style="fill:none"
   inkscape:version="0.92.5 (2060ec1f9f, 2020-04-08)">
  <metadata
     id="metadata186">
    <rdf:RDF>
      <cc:Work
         rdf:about="">
        <dc:format>image/svg+xml</dc:format>
        <dc:type
           rdf:resource="http://purl.org/dc/dcmitype/StillImage" />
        <dc:title />
      </cc:Work>
    </rdf:RDF>
  </metadata>
  <defs
     id="defs184" />
  <sodipodi:namedview
     pagecolor="#ffffff"
     bordercolor="#666666"
     borderopacity="1"
     objecttolerance="10"
     gridtolerance="10"
     guidetolerance="10"
     inkscape:pageopacity="0"
     inkscape:pageshadow="2"
     inkscape:window-width="1366"
     inkscape:window-height="743"
     id="namedview182"
     showgrid="false"
     inkscape:pagecheckerboard="true"
     inkscape:zoom="1.1767816"
     inkscape:cx="270.05583"
     inkscape:cy="61.632624"
     inkscape:window-x="0"
     inkscape:window-y="0"
     inkscape:window-maximized="1"
     inkscape:current-layer="svg180" />
  <path
     d="m 14.053444,196.97191 c 1.57745,-9.7e-4 3.135417,-0.34839 4.565566,-1.01385 1.406198,-0.62058 2.653991,-1.55141 3.649884,-2.72313 v 0 l -2.719314,-2.72449 c -0.667375,0.80293 -1.496288,1.45614 -2.432847,1.91884 -0.918731,0.44501 -1.927389,0.67227 -2.948158,0.66548 -0.861384,0.0103 -1.716059,-0.15242 -2.514542,-0.47495 -0.798497,-0.32389 -1.524936,-0.80155 -2.1373044,-1.40851 -0.5896708,-0.59198 -1.0555564,-1.29692 -1.370612,-2.07126 -0.3377715,-0.82334 -0.5078546,-1.70519 -0.5002736,-2.59383 -0.00913,-0.8982 0.1560523,-1.78821 0.4865681,-2.62379 0.3085263,-0.77572 0.7657278,-1.48473 1.3459404,-2.08623 0.5818575,-0.59607 1.2777865,-1.0683 2.0463165,-1.39083 0.800878,-0.34021 1.662846,-0.51169 2.532885,-0.50624 1.049267,-0.003 2.085006,0.23542 3.024885,0.70222 0.971533,0.48854 1.822358,1.18668 2.490414,2.04403 v 0 l 2.805729,-2.81158 c -0.986504,-1.19757 -2.24178,-2.14611 -3.663629,-2.76667 -1.461451,-0.67636 -3.051627,-1.02746 -4.661508,-1.03019 -1.437921,-0.0103 -2.863471,0.26673 -4.1940586,0.81246 -1.2606265,0.51031 -2.4116607,1.25881 -3.3908961,2.20326 -0.9665398,0.94583 -1.7353108,2.07262 -2.2615026,3.31783 -0.5454742,1.30646 -0.8274965,2.70679 -0.8298503,4.12076 -0.00233,1.41532 0.2750122,2.81703 0.8161458,4.12346 0.5199615,1.24113 1.2838869,2.36522 2.2464241,3.30557 0.9796995,0.94309 2.1312086,1.69157 3.3922692,2.20191 1.3395835,0.54707 2.7745375,0.82333 4.2214685,0.80973 z m 54.244679,0.0313 c 1.432998,0.0103 2.853896,-0.26536 4.178859,-0.81244 1.255133,-0.50898 2.39705,-1.26154 3.360154,-2.21416 0.962959,-0.95261 1.728043,-2.08622 2.251169,-3.33552 0.547746,-1.29692 0.829858,-2.69182 0.829858,-4.10034 0,-1.40851 -0.282112,-2.8034 -0.829858,-4.10034 -0.522992,-1.25063 -1.288077,-2.38425 -2.251169,-3.33551 -0.96296,-0.95261 -2.105021,-1.70519 -3.360154,-2.21415 -2.671551,-1.0819 -5.658949,-1.0819 -8.330501,0 -1.255143,0.50896 -2.39706,1.26154 -3.360152,2.21415 -0.963096,0.95126 -1.728047,2.08488 -2.251171,3.33551 -0.547346,1.29694 -0.829321,2.69183 -0.829321,4.10034 0,1.40852 0.281975,2.80342 0.829321,4.10034 0.523124,1.2493 1.288211,2.38291 2.251307,3.33552 0.962956,0.95262 2.104873,1.70518 3.360016,2.21416 1.316518,0.54435 2.728437,0.81925 4.153001,0.81108 z m 0,-3.85538 c -0.841167,0.01 -1.674701,-0.1565 -2.449857,-0.48311 -0.775157,-0.32661 -1.475467,-0.80837 -2.058196,-1.41395 -0.574708,-0.60832 -1.026519,-1.32279 -1.330812,-2.1012 -0.649141,-1.68342 -0.649141,-3.54919 0,-5.2326 0.306878,-0.77298 0.758555,-1.48199 1.330812,-2.08623 0.582729,-0.6056 1.283039,-1.08734 2.058196,-1.41395 0.775156,-0.32662 1.60869,-0.49128 2.449857,-0.48312 0.865654,-0.006 1.723421,0.16603 2.519132,0.50625 0.759904,0.32253 1.446333,0.79612 2.017498,1.39082 0.572379,0.60424 1.024067,1.31325 1.330934,2.08623 0.64874,1.68341 0.64874,3.54918 0,5.2326 -0.304281,0.77841 -0.756237,1.49288 -1.330934,2.1012 -0.571299,0.59471 -1.257728,1.06828 -2.017498,1.39082 -0.795444,0.34021 -1.652653,0.51169 -2.517773,0.50489 z m 62.917757,3.53694 v -3.70844 H 120.251 v -16.57965 h -4.14743 v 20.2853 z m 52.32902,0 v -3.70841 h -10.96598 v -16.57962 h -4.14933 v 20.2853 z m 52.72736,0 v -3.65126 h -11.36471 v -4.81206 h 7.41543 v -3.53693 h -7.41543 v -4.63244 h 11.25038 v -3.65119 h -15.40245 v 20.28531 z m 46.03044,0.28851 c 1.57729,-9.7e-4 3.13548,-0.34839 4.56439,-1.01388 1.40717,-0.62055 2.6551,-1.55274 3.64989,-2.7231 v 0 l -2.72039,-2.72312 c -0.66684,0.80292 -1.49562,1.45612 -2.4319,1.91882 -0.91859,0.44502 -1.92837,0.67229 -2.94902,0.6655 -0.86146,0.0103 -1.71472,-0.15244 -2.51355,-0.47497 -0.79886,-0.32388 -1.5242,-0.80155 -2.13659,-1.4085 -0.58928,-0.59199 -1.05604,-1.29692 -1.37039,-2.07128 -0.33887,-0.82333 -0.50898,-1.70518 -0.50217,-2.59383 -0.01,-0.89819 0.15649,-1.78821 0.48853,-2.62378 0.30758,-0.77569 0.76348,-1.48473 1.34457,-2.08622 0.58108,-0.59607 1.27787,-1.06967 2.04539,-1.39083 0.80156,-0.34023 1.66301,-0.51304 2.53397,-0.50624 1.05196,-0.003 2.09167,0.23814 3.0334,0.70764 0.97169,0.48857 1.82358,1.18669 2.49042,2.04406 v 0 l 2.80615,-2.81159 c -0.98666,-1.19757 -2.24139,-2.14611 -3.66351,-2.76666 -1.46159,-0.67501 -3.05109,-1.02612 -4.65964,-1.0302 -1.43847,-0.0103 -2.86331,0.26673 -4.19425,0.81245 -1.26153,0.51033 -2.41284,1.25745 -3.39268,2.2019 -0.96622,0.94446 -1.73647,2.07263 -2.26316,3.31784 -0.54434,1.30643 -0.8274,2.70678 -0.82876,4.12074 -0.002,1.41532 0.2749,2.81704 0.81517,4.12484 0.51986,1.23975 1.28468,2.36384 2.24682,3.3042 0.97983,0.9431 2.13114,1.69159 3.39267,2.20192 1.33774,0.54436 2.76939,0.81654 4.21464,0.80291 z m 54.90341,-0.28851 v -16.57962 h 6.72547 v -3.70976 h -17.63293 v 3.70976 h 6.75541 v 16.57689 z m 47.54648,0 v -20.28524 h -4.15069 v 20.2853 z m 47.80503,0.3198 c 1.43301,0.0103 2.85378,-0.26538 4.17928,-0.81244 1.25472,-0.50898 2.3965,-1.26156 3.36001,-2.21416 0.9635,-0.95261 1.72832,-2.08622 2.2509,-3.33552 0.54843,-1.29692 0.83014,-2.69181 0.83014,-4.10034 0,-1.4085 -0.28171,-2.80341 -0.83014,-4.10032 -0.52258,-1.25066 -1.2874,-2.38428 -2.2509,-3.33554 -0.96213,-0.95261 -2.10529,-1.70519 -3.36001,-2.21415 -2.67141,-1.0819 -5.65718,-1.0819 -8.3286,0 -1.25473,0.50896 -2.39652,1.26154 -3.35865,2.21415 -0.96351,0.95263 -1.72832,2.08625 -2.25228,3.33554 -0.54706,1.29691 -0.83012,2.69182 -0.83012,4.10032 0,1.40853 0.28306,2.80342 0.83012,4.10034 0.52396,1.2493 1.28877,2.38291 2.25228,3.33552 0.96213,0.9526 2.10392,1.70518 3.35865,2.21416 1.31596,0.54299 2.72585,0.81924 4.14932,0.80972 z m 0,-3.85537 c -0.86008,0.01 -1.71335,-0.16467 -2.50401,-0.50625 -0.75394,-0.3239 -1.43574,-0.79747 -2.00322,-1.39082 -0.57566,-0.60831 -1.02882,-1.32143 -1.33231,-2.10121 -0.64915,-1.6834 -0.64915,-3.54917 0,-5.23258 0.30621,-0.773 0.75938,-1.48201 1.33231,-2.08623 0.56748,-0.59335 1.24928,-1.06693 2.00322,-1.39082 0.79066,-0.3416 1.64393,-0.51442 2.50401,-0.50624 0.86552,-0.006 1.72289,0.16602 2.51765,0.50624 0.76072,0.32252 1.44798,0.79612 2.01954,1.39082 0.57292,0.60422 1.02338,1.31323 1.33093,2.08623 0.64915,1.68341 0.64915,3.54918 0,5.23258 -0.30484,0.77842 -0.75663,1.4929 -1.33093,2.10121 -0.57156,0.59471 -1.25882,1.06829 -2.01954,1.39082 -0.79476,0.34022 -1.65213,0.51168 -2.51765,0.50353 z m 51.72574,3.53693 v -13.56936 l 10.21887,13.56936 h 3.66349 v -20.28525 h -3.89213 v 13.12843 l -9.96165,-13.12843 h -3.95064 v 20.28531 z"
     id="path172"
     inkscape:connector-curvature="0"
     style="fill:#ffffff;stroke-width:1.36088145" />
  <path
     d="m 239.1153,42.618479 h 25.95034 c 14.27036,0 20.6254,5.267994 20.6254,19.650451 v 10.591761 c 0,13.824964 -4.51542,20.375085 -18.78577,20.375085 H 239.1153 Z m 13.65836,38.882805 h 11.95751 c 5.0447,0 6.88432,-3.316915 6.88432,-8.640593 V 62.26893 c 0,-6.55012 -2.11804,-7.888023 -6.88432,-7.888023 h -11.95751 z m 50.25498,3.038128 -2.53705,8.696364 h -14.21522 l 15.38588,-50.617297 h 20.76599 l 15.55311,50.617297 h -13.93679 l -2.67581,-8.696364 z m 9.28171,-31.775198 h -0.13967 l -6.21537,21.908159 h 12.71007 z M 360.6136,93.235776 H 346.95615 V 54.380907 H 331.15217 V 42.618479 h 45.96284 V 54.352973 H 360.6136 Z m 26.33997,-8.696364 -2.53614,8.696364 H 370.20221 L 385.5881,42.618479 h 20.76505 l 15.58162,50.617297 h -13.93681 l -2.67579,-8.696364 z m 9.28169,-31.775198 h -0.13875 l -6.21628,21.936095 h 12.71008 z m -142.6539,72.163146 h 23.66416 v 9.39354 h -23.66416 v 9.86702 h 25.5874 v 11.03771 h -39.24485 v -50.61768 h 38.74314 v 11.06566 h -25.08569 z m 45.99042,21.60189 -2.53614,8.69638 h -14.21521 l 15.35831,-50.61768 h 20.76507 l 15.58067,50.61768 h -13.93587 l -2.67579,-8.69638 z m 9.2817,-31.77546 h -0.13875 l -6.21628,21.936 h 12.71008 z m 52.09459,9.6998 c 15.80398,1.08704 19.73407,2.98235 19.73407,14.57753 0,8.36189 0.36297,16.6126 -23.13395,16.6126 -13.60231,0 -22.66074,-0.27934 -22.66074,-16.86346 h 13.68502 c 0,5.26799 2.00686,5.79727 8.97572,5.79727 6.68952,0 8.89117,-0.41808 8.89117,-4.65417 0,-4.37666 -0.78013,-4.32061 -7.46964,-4.73871 l -3.12239,-0.1948 c -13.18331,-0.86468 -20.87626,-0.80862 -20.87626,-15.33047 0,-14.52178 8.61276,-15.44159 22.57712,-15.44159 11.67816,0 21.6573,0.19509 21.6573,14.15945 v 2.09048 h -13.68593 c 0,-5.18436 -2.28528,-5.18436 -7.97137,-5.18436 -7.69293,0 -8.33433,1.47728 -8.33433,4.32033 0,4.04154 2.0629,4.18094 5.85333,4.45964 z m 47.96972,30.77204 H 395.26032 V 116.3704 H 382.15973 V 104.63589 H 422.7149 V 116.3704 H 408.91779 Z M 173.08454,97.834815 h 45.32174 V 64.387246 c -2.98271,-0.808255 -6.13267,-1.254285 -9.36532,-1.254285 -19.42807,0 -35.28747,15.469503 -35.95642,34.701854 z m 35.95642,37.293785 c 3.23265,0 6.38261,-0.44568 9.36532,-1.25429 v -33.4473 h -45.32174 c 0.66895,19.23237 16.52835,34.70159 35.95642,34.70159 z m 0,-93.346309 c -26.95377,0 -49.5863,18.61918 -55.71841,43.676923 -6.13202,-25.057743 -28.73698,-43.676923 -55.718062,-43.676923 -3.177513,0 -6.327166,0.27873 -9.365313,0.780443 v 19.17664 c 3.010277,-0.75257 6.132052,-1.142822 9.365313,-1.142822 21.267052,0 38.576162,17.309117 38.576162,38.576175 0,21.267153 -17.30911,38.520493 -38.576162,38.520493 -3.233261,0 -6.382905,-0.39053 -9.365313,-1.1431 v 19.17722 c 3.038147,0.50171 6.1878,0.78014 9.365313,0.78014 26.953142,0 49.586042,-18.61946 55.718062,-43.67693 6.13211,25.08596 28.73707,43.67693 55.71841,43.67693 3.20509,0 6.32656,-0.27843 9.36532,-0.78014 v -19.17722 c -3.01028,0.75256 -6.13267,1.1431 -9.36532,1.1431 -21.26769,0 -38.57654,-17.30913 -38.57654,-38.576183 0,-21.267144 17.30885,-38.548328 38.57654,-38.548328 3.23265,0 6.38261,0.390161 9.36532,1.14273 V 42.562734 c -3.03876,-0.501713 -6.18781,-0.780443 -9.36532,-0.780443 z m -75.42455,57.362587 c 0,-19.845528 -16.13845,-35.983983 -35.984072,-35.983983 -3.261111,-0.02793 -6.410755,0.418096 -9.393163,1.226351 v 69.487064 c 2.982408,0.80861 6.132052,1.25429 9.365313,1.25429 19.845532,0 36.011922,-16.13818 36.011922,-35.983722 z"
     id="path178"
     inkscape:connector-curvature="0"
     style="fill:#e23129;stroke-width:0.91888946" />
  <g
     id="g48"
     transform="matrix(0.92483931,0,0,0.92483931,60.273776,-109.78182)">
    <path
       d="m 98.368707,123.56449 -3.911684,9.67624 h 7.837657 z m -1.627486,-2.59162 h 3.269259 l 8.12318,19.44364 h -2.99801 l -1.94157,-4.98788 h -9.607908 l -1.941568,4.98788 h -3.040839 z"
       style="font-style:normal;font-weight:normal;font-size:40px;line-height:125%;font-family:sans-serif;letter-spacing:0px;word-spacing:0px;fill:#ffffff;fill-opacity:1;stroke:#ffffff;stroke-width:0.69800001;stroke-linecap:butt;stroke-linejoin:miter;stroke-miterlimit:4;stroke-dasharray:none;stroke-opacity:1"
       id="path36"
       inkscape:connector-curvature="0" />
    <path
       d="m 149.94112,131.30027 q 0.92796,0.28651 1.79881,1.22418 0.88512,0.93767 1.77025,2.5786 l 2.92663,5.31346 h -3.09794 l -2.72677,-4.98788 q -1.05644,-1.95348 -2.05577,-2.59162 -0.98506,-0.63814 -2.69821,-0.63814 h -3.14077 v 8.21764 h -2.88381 v -19.44364 h 6.50997 q 3.65472,0 5.45352,1.39348 1.79881,1.39349 1.79881,4.2065 0,1.83627 -0.94223,3.04743 -0.92796,1.21115 -2.71249,1.67999 z m -7.22378,-8.16555 v 6.9023 h 3.62617 q 2.08433,0 3.14077,-0.87256 1.07072,-0.88557 1.07072,-2.59161 0,-1.70604 -1.07072,-2.56557 -1.05644,-0.87256 -3.14077,-0.87256 z"
       style="font-style:normal;font-weight:normal;font-size:40px;line-height:125%;font-family:sans-serif;letter-spacing:0px;word-spacing:0px;fill:#ffffff;fill-opacity:1;stroke:#ffffff;stroke-width:0.69800001;stroke-linecap:butt;stroke-linejoin:miter;stroke-miterlimit:4;stroke-dasharray:none;stroke-opacity:1"
       id="path38"
       inkscape:connector-curvature="0" />
    <path
       d="m 200.69712,122.47054 v 2.77394 q -1.45617,-1.2372 -3.11221,-1.84929 -1.64177,-0.61209 -3.49768,-0.61209 -3.65472,0 -5.59629,2.04464 -1.94157,2.03162 -1.94157,5.88649 0,3.84184 1.94157,5.88649 1.94157,2.03161 5.59629,2.03161 1.85591,0 3.49768,-0.61209 1.65604,-0.61209 3.11221,-1.84929 v 2.74789 q -1.51328,0.93768 -3.21215,1.40651 -1.6846,0.46884 -3.56906,0.46884 -4.83964,0 -7.62351,-2.69581 -2.78386,-2.70882 -2.78386,-7.38415 0,-4.68836 2.78386,-7.38416 2.78387,-2.70883 7.62351,-2.70883 1.91302,0 3.59761,0.46884 1.69888,0.45581 3.1836,1.38046 z"
       style="font-style:normal;font-weight:normal;font-size:40px;line-height:125%;font-family:sans-serif;letter-spacing:0px;word-spacing:0px;fill:#ffffff;fill-opacity:1;stroke:#ffffff;stroke-width:0.69800001;stroke-linecap:butt;stroke-linejoin:miter;stroke-miterlimit:4;stroke-dasharray:none;stroke-opacity:1"
       id="path40-3"
       inkscape:connector-curvature="0" />
    <path
       d="m 238.86281,123.56449 -3.91168,9.67624 h 7.83765 z m -1.62749,-2.59162 h 3.26926 l 8.12318,19.44364 h -2.998 l -1.94157,-4.98788 h -9.60792 l -1.94157,4.98788 h -3.04083 z"
       style="font-style:normal;font-weight:normal;font-size:40px;line-height:125%;font-family:sans-serif;letter-spacing:0px;word-spacing:0px;fill:#ffffff;fill-opacity:1;stroke:#ffffff;stroke-width:0.69800001;stroke-linecap:butt;stroke-linejoin:miter;stroke-miterlimit:4;stroke-dasharray:none;stroke-opacity:1"
       id="path42"
       inkscape:connector-curvature="0" />
    <path
       d="m 277.21144,123.13472 v 15.11994 h 3.48341 q 4.41135,0 6.45285,-1.82325 2.05578,-1.82325 2.05578,-5.75625 0,-3.90696 -2.05578,-5.71719 -2.0415,-1.82325 -6.45285,-1.82325 z m -2.8838,-2.16185 h 5.92464 q 6.19589,0 9.09396,2.3572 2.89808,2.34418 2.89808,7.34509 0,5.02695 -2.91235,7.38415 -2.91235,2.3572 -9.07969,2.3572 h -5.92464 z"
       style="font-style:normal;font-weight:normal;font-size:40px;line-height:125%;font-family:sans-serif;letter-spacing:0px;word-spacing:0px;fill:#ffffff;fill-opacity:1;stroke:#ffffff;stroke-width:0.69800001;stroke-linecap:butt;stroke-linejoin:miter;stroke-miterlimit:4;stroke-dasharray:none;stroke-opacity:1"
       id="path44"
       inkscape:connector-curvature="0" />
    <path
       d="m 321.42893,120.97287 h 13.47677 v 2.21394 h -10.59297 v 5.75626 h 10.15041 v 2.21394 h -10.15041 v 7.04556 h 10.84994 v 2.21394 h -13.73374 z"
       style="font-style:normal;font-weight:normal;font-size:40px;line-height:125%;font-family:sans-serif;letter-spacing:0px;word-spacing:0px;fill:#ffffff;fill-opacity:1;stroke:#ffffff;stroke-width:0.69800001;stroke-linecap:butt;stroke-linejoin:miter;stroke-miterlimit:4;stroke-dasharray:none;stroke-opacity:1"
       id="path46"
       inkscape:connector-curvature="0" />
  </g>
</svg>
