<?xml version="1.0" encoding="utf-8"?>
<!DOCTYPE svg PUBLIC "-//W3C//DTD SVG 20010904//EN" "http://www.w3.org/TR/2001/REC-SVG-20010904/DTD/svg10.dtd">
<svg version="1.0" xmlns="http://www.w3.org/2000/svg" width="600px" height="300px" viewBox="0 0 600 300" preserveAspectRatio="xMidYMid meet">
 <g fill="#000000">
  <path d="M130.5 298 c-3.8 -1.1 -8.2 -2 -9.7 -2 -4.5 0 -19 -5 -24.9 -8.6 -7.2 -4.3 -13.4 -11.1 -16.7 -18.2 l-2.7 -5.7 0 -32.5 0 -32.5 3.3 -6.7 c2.2 -4.6 5.1 -8.3 8.9 -11.7 l5.7 -5.1 5.5 3.2 c3.1 1.7 6.7 3.8 8 4.7 2 1.3 2.3 1.3 1.9 0.1 -0.2 -0.8 -6 -4.7 -12.8 -8.6 -22.1 -12.7 -22.3 -13.1 -22.8 -55.8 -0.4 -35.7 0.3 -41.5 6.1 -53.6 4.2 -8.5 15 -19.5 23.1 -23.3 5 -2.4 24.7 -8.1 54.1 -15.7 3.9 -1 9.5 -2.5 12.5 -3.3 5.7 -1.6 47.7 -12.9 56.5 -15.2 2.8 -0.7 10.1 -2.7 16.2 -4.4 l11.3 -3 5.7 3.3 c3.2 1.8 8.8 5.1 12.5 7.2 l6.8 3.9 0 29 0 29.1 -6.7 1.6 c-10.4 2.6 -20 5.1 -42.8 11.3 -23.2 6.3 -27.3 7.4 -39 10.4 -26.4 7 -29.7 8.4 -34 14.9 -1.3 2 -2.6 5.3 -2.7 7.2 -0.3 3.1 0 3.5 2.3 3.8 1.4 0.2 15.3 -3.2 31 -7.4 15.6 -4.2 30.7 -8.2 33.4 -8.9 2.8 -0.7 13.6 -3.6 24 -6.5 10.5 -2.8 19.7 -5.3 20.5 -5.5 0.8 -0.2 5.1 -1.3 9.5 -2.5 4.4 -1.2 11.1 -3 14.8 -4 3.8 -1 7.1 -2 7.4 -2.3 0.3 -0.3 -0.9 -1.3 -2.7 -2.2 -4.2 -2.2 -8.7 -9.5 -9.5 -15.5 -1.6 -11.7 6.1 -24 17.1 -27.5 8.5 -2.7 12.6 -1.6 29.4 7.8 16.1 8.9 19.3 11.4 22.2 17.2 1.1 2.2 2.2 4.2 2.3 4.3 0.2 0.2 2.8 -0.2 5.8 -0.8 l5.5 -1.3 11.7 6.7 c6.5 3.6 12.2 6.6 12.6 6.6 1.6 0 0.9 -1.8 -0.8 -2.4 -1 -0.4 -6.4 -3.4 -12 -6.8 l-10.3 -6 0 -21 0 -21 3.3 2 c9.4 5.7 19.5 11.2 20.5 11.2 1.9 0 1.3 -1.4 -1.1 -2.6 -1.2 -0.6 -6.4 -3.5 -11.5 -6.4 -9.8 -5.6 -9.9 -6 -3.2 -7.5 0.8 -0.2 4 -1 7 -1.8 3 -0.9 11.5 -3.1 18.8 -5.1 l13.2 -3.6 12.5 7.3 12.5 7.2 0 11.2 c0 13 -0.8 12.3 10.8 9.2 4.2 -1.1 10.9 -2.9 14.7 -4 3.9 -1 13.3 -3.5 21 -5.5 l14 -3.7 7.5 4.3 c4.1 2.3 9.8 5.5 12.5 7.1 l5 2.8 0.3 47.2 c0.1 26 -0.2 47.7 -0.6 48.1 -0.5 0.5 -4.2 1.8 -8.3 2.8 -4.1 1.1 -14 3.7 -22 5.8 -12.8 3.4 -14.9 3.7 -16.5 2.5 -1.1 -0.8 -6.5 -4 -12.1 -7.1 l-10.3 -5.7 0 -8.9 c0 -8 -0.2 -8.8 -1.7 -8.1 -1.9 0.7 -20.3 5.8 -29.3 8.1 -3 0.8 -6.2 1.6 -7 1.8 -3.9 1.1 -18.4 5 -26.5 7.1 -4.9 1.3 -12.4 3.3 -16.5 4.5 -4.1 1.1 -8.2 2.2 -9 2.4 -1.7 0.5 -16.8 4.5 -19 5.1 -0.8 0.2 -4.9 1.3 -9 2.4 -4.1 1.1 -18.5 4.9 -32 8.6 -13.5 3.6 -25.2 6.8 -26 7 -0.8 0.2 -5.1 1.3 -9.5 2.5 -4.4 1.2 -8.7 2.3 -9.5 2.5 -0.8 0.2 -12.5 3.4 -26 7 -13.5 3.6 -25.2 6.8 -26 7 -0.8 0.2 -5.1 1.3 -9.5 2.5 -4.4 1.2 -10.2 2.7 -13 3.5 -22 5.7 -25.7 7.5 -29.6 13.9 -5.2 8.4 -4.4 16.8 2.2 23.1 5.6 5.6 10.5 5.8 27.9 1 7.4 -2 16.7 -4.5 20.5 -5.5 3.9 -1 15.6 -4.2 26 -7 10.5 -2.8 21.7 -5.8 25 -6.6 3.3 -0.8 8 -2.1 10.5 -2.8 2.5 -0.8 5.7 -1.7 7.3 -2 l2.7 -0.6 0 28.9 c0 26.6 -0.1 28.9 -1.7 29.6 -1 0.4 -5.8 1.8 -10.8 3.1 -4.9 1.3 -20.9 5.5 -35.5 9.5 -14.6 3.9 -29 7.7 -32 8.5 -3 0.8 -6.2 1.6 -7 1.9 -0.8 0.3 -4.9 1.4 -9 2.4 -4.1 1.1 -13.3 3.5 -20.5 5.4 -15.1 4 -22.2 4.4 -32 1.7z"/>
 </g>
 <g fill="#ffffff">
  <path d="M133.5 297.6 c-16.1 -3.9 -27.7 -15.6 -32 -32.3 -1.2 -4.4 -1.5 -12 -1.5 -32.9 0 -31.1 0.8 -35.8 7.9 -45 l3.9 -5.2 -3.3 -3.2 c-1.9 -1.8 -4.4 -5.6 -5.7 -8.4 -2.3 -5 -2.3 -5.6 -2.3 -41.6 l0 -36.5 2.8 -6.9 c3.6 -9 10.6 -18.7 17 -23.6 10 -7.5 4.4 -5.8 129.2 -39.1 14.3 -3.8 26.6 -7.1 27.3 -7.4 0.9 -0.3 1.2 5.6 1.2 27.8 l0 28.2 -14.8 3.9 c-70.2 18.6 -98.6 26.6 -102.1 28.9 -4.8 3.2 -9.1 11.4 -9.1 17.1 0.1 9.1 7 17.4 15.3 18.3 3.1 0.4 9 -0.7 21.3 -4 92.8 -24.8 134 -36 134.4 -36.4 0.3 -0.3 -0.1 -0.8 -0.8 -1.1 -0.8 -0.2 -3 -1.8 -5 -3.6 -11.8 -10.3 -8.5 -31.2 6.2 -38.8 5.6 -3 14.7 -3.1 20.1 -0.2 11.2 5.8 14 22 6 33.9 -1.4 1.9 -2.2 3.5 -1.9 3.5 0.3 0 8.8 -2.2 18.7 -5 10 -2.7 20.1 -5.4 22.4 -6 l4.3 -1.1 0.2 -22.2 0.3 -22.2 22.5 -6.1 22.5 -6.1 0.3 21.9 c0.1 14.5 0.6 21.8 1.3 21.8 1 0 67.5 -17.7 77.3 -20.6 2.7 -0.7 5.3 -1.4 5.8 -1.4 0.4 0 0.8 21.1 0.8 47 l0 46.9 -4.2 1.2 c-2.4 0.6 -11.6 3.1 -20.6 5.5 -8.9 2.4 -16.7 4.4 -17.2 4.4 -0.6 0 -1 -7 -1 -18.5 0 -10.7 -0.4 -18.5 -0.9 -18.5 -0.5 0 -22.9 5.9 -49.8 13.1 -26.8 7.2 -57.8 15.4 -68.8 18.4 -11 2.9 -42 11.3 -69 18.5 -26.9 7.2 -65.8 17.6 -86.3 23.1 -20.6 5.5 -38.6 10.5 -40 11 -19.7 7.5 -17.2 37.9 3.1 37.9 4.1 0 73 -17.6 104 -26.5 l4.7 -1.4 -0.2 28.2 -0.3 28.2 -8 2.1 c-4.4 1.2 -26 7 -48 12.9 -80 21.5 -76.8 20.8 -88 18.1z m72.5 -18.2 c30 -8.1 57.4 -15.4 61 -16.3 l6.5 -1.7 0.3 -11.2 c0.2 -8.2 -0.1 -11.2 -0.9 -11.2 -1.4 0 -86.7 22.8 -100.4 26.8 -12.1 3.5 -22.9 3.6 -30 0.2 -6.3 -3.1 -12.4 -9.1 -15.6 -15.5 -2.3 -4.9 -2.4 -5.6 -2.4 -27.5 0 -22.3 0 -22.5 2.7 -28.3 5 -10.6 11.8 -16.3 26.8 -22.5 2.4 -1 2.4 -1.1 -1.1 -1.1 -11.8 -0.3 -22.6 -8.1 -26.8 -19.6 -2.1 -5.6 -2.2 -7.3 -1.9 -28.5 0.3 -22.3 0.3 -22.5 3.1 -28.2 3.5 -7.1 10 -13.9 16.4 -17.1 2.6 -1.4 18.3 -6.1 34.8 -10.5 16.5 -4.4 44.7 -12 62.8 -16.8 l32.7 -8.7 0 -11.4 c0 -10.4 -0.2 -11.4 -1.7 -10.9 -2.1 0.6 -79.6 21.3 -111.3 29.7 -12.4 3.3 -25.6 7.5 -29.5 9.3 -12.5 5.9 -21.3 15.9 -26.4 30 -2.5 6.9 -2.5 7.9 -2.9 36.4 -0.3 19.5 0 31.6 0.8 36 1.3 7.4 4.8 14.6 9 18.7 l2.8 2.7 -3.9 5.1 c-7.4 9.8 -8.2 13.3 -8.7 38.8 -0.2 14.1 0 25.3 0.7 30 3.5 22.3 20.4 37.8 41.6 37.9 5.9 0 15.4 -2.3 61.5 -14.6z m0.9 -26.8 c23.4 -6.3 48.1 -12.9 54.9 -14.7 l12.2 -3.2 0 -11.4 c0 -6.2 -0.2 -11.3 -0.4 -11.3 -0.2 0 -23 6.1 -50.7 13.6 -56.3 15.1 -57.3 15.3 -65.1 9.8 -13.5 -9.5 -10.9 -32.4 4.4 -39.8 2.9 -1.4 16.1 -5.4 29.3 -8.9 l24 -6.4 0.3 -11.1 c0.2 -7.7 -0.1 -11.2 -0.8 -11.2 -3.6 0 -62.3 16.6 -66.2 18.8 -6.5 3.4 -15.3 12.9 -18.6 19.9 -2.6 5.7 -2.7 6.2 -2.7 24.8 0 18.4 0.1 19.2 2.6 24.6 5.4 11.4 15.2 17.9 27.3 17.9 5.8 0 14.4 -2 49.5 -11.4z m30.8 -78.2 c9.7 -2.6 9.8 -2.6 17.4 -10.1 l7.6 -7.5 5.9 3.8 5.9 3.8 14.5 -3.8 c8 -2 15.1 -4.4 15.9 -5.1 2.1 -2.1 0.3 -3.7 -12.3 -11.5 -5.8 -3.6 -10.5 -7 -10.6 -7.5 0 -0.6 3.4 -4.4 7.6 -8.5 4.1 -4.1 9.3 -9.6 11.4 -12.1 3.4 -4 3.8 -4.8 2.7 -6.4 -1.3 -1.6 -1.9 -1.6 -11.3 1 -9.8 2.6 -10 2.7 -17.4 10 l-7.5 7.4 -5.5 -3.4 c-3 -1.9 -6.4 -3.5 -7.5 -3.4 -1.1 0 -8.1 1.6 -15.5 3.7 -18 5 -18.1 5.4 -2.6 15.3 6.4 4.1 11.6 7.7 11.6 8 0 0.3 -5.2 6.1 -11.5 12.7 -6.3 6.7 -11.5 12.5 -11.5 13 0 0.7 2 3.2 2.6 3.2 0.1 0 4.6 -1.2 10.1 -2.6z m-48.8 -13.5 l27.1 -7.2 0 -11.4 c0 -10.4 -0.2 -11.4 -1.7 -10.9 -1 0.3 -11.4 3 -23.1 6.1 -24.1 6.4 -27.1 6.5 -34.1 1.5 -5.6 -4.1 -8.4 -10 -8.4 -17.5 0 -3.3 0.7 -7.6 1.5 -9.6 2.1 -4.9 7.4 -10.6 11.7 -12.8 3 -1.5 27.7 -8.4 99.6 -27.5 l12 -3.3 0.3 -11.1 c0.2 -7.7 -0.1 -11.2 -0.8 -11.2 -0.7 0 -18.6 4.7 -39.8 10.4 -21.3 5.7 -49.2 13.2 -62 16.7 -26.4 7 -30.8 9.3 -37.4 18.9 -5.5 8.1 -6.8 14.5 -6.8 33.7 0 18.8 1 24.6 5.3 31 3.9 5.7 6.9 8 13.8 10.4 7.6 2.7 11.6 2.2 42.8 -6.2z m144.6 -12.2 l16 -4.3 0.3 -23.7 c0.2 -19.8 0 -23.8 -1.2 -24.3 -1.6 -0.6 -32.5 7.3 -34.3 8.8 -1 0.8 -1.3 6.8 -1.3 23.8 0 12.4 0.3 23 0.7 23.3 1.1 1.2 3.5 0.8 19.8 -3.6z m169.4 -5.8 c8.6 -2.3 16.2 -4.6 16.9 -5.2 1.9 -1.5 1.8 -85 -0.2 -86.6 -1.1 -0.9 -5.1 -0.2 -18.2 3.3 -9.2 2.5 -17 4.8 -17.3 5.2 -0.3 0.3 -0.8 6.7 -1.1 14.2 l-0.5 13.7 -2.7 0.9 c-1.5 0.5 -3 0.7 -3.3 0.4 -0.3 -0.3 -0.8 -6.2 -1.2 -13.1 -0.4 -8.3 -1 -12.8 -1.8 -13.1 -1.9 -0.7 -32.6 8 -33.6 9.5 -1.2 2 -1.1 19.9 0.2 26 2.2 10.1 11.6 16.9 23.3 16.9 4.8 0 6.2 -0.5 18.9 -6.8 0.4 -0.2 0.7 7.9 0.7 18 0 18 0.4 20.8 3.4 20.8 0.5 0 7.9 -1.9 16.5 -4.1z m-119.1 -8.1 c1.8 -0.5 5.3 -2.5 7.7 -4.4 3.2 -2.4 4.5 -2.9 4.5 -1.9 0 0.9 0.6 1.8 1.4 2.1 1.3 0.5 29.4 -6.4 35.2 -8.7 l2.4 -0.9 0 -45.5 c0 -40.2 -0.2 -45.6 -1.5 -46.2 -1.5 -0.5 -32.1 7 -35.7 8.9 -1.6 0.8 -1.8 3.1 -1.8 26.2 l0 25.4 -3.7 -1.9 c-5.4 -2.7 -14.4 -2.5 -20.8 0.5 -6.5 3 -13.8 11.1 -16.1 17.8 -2.4 7.3 -1.5 15.8 2.3 21.2 5.8 8.3 14.8 10.9 26.1 7.4z m-45.2 -41 c14.7 -6.9 16.2 -28.8 2.4 -35.8 -17.7 -9 -36.7 13.3 -25.6 30.1 5 7.5 14.5 9.8 23.2 5.7z"/>
  <path d="M246.8 158.8 c5 -5.2 9.2 -10.4 9.2 -11.4 0 -1.3 -3.3 -3.9 -10.6 -8.6 l-10.5 -6.6 5.3 -1.5 c14.7 -4.3 13.8 -4.3 20.9 0.2 3.5 2.3 6.9 4.1 7.5 4.1 0.6 0 4.1 -3.4 7.9 -7.6 6.1 -6.8 11.1 -10.4 14.5 -10.4 0.6 0 -2.9 4.1 -7.7 9.1 -5.5 5.7 -8.8 9.9 -8.8 11.2 0 1.7 2.5 3.7 10.2 8.6 5.7 3.6 10.1 6.6 10 6.7 -0.2 0.2 -4.5 1.5 -9.7 2.8 l-9.4 2.6 -6.3 -4 c-3.4 -2.2 -6.9 -4 -7.6 -4 -0.8 0 -5.1 3.8 -9.5 8.5 -4.4 4.7 -8.7 8.5 -9.5 8.5 -0.9 0 -2.4 0.3 -3.4 0.7 -1 0.3 2.4 -3.7 7.5 -8.9z"/>
  <path d="M319 127.7 l0 -18.3 10.3 -2.7 c5.6 -1.5 11.2 -3 12.5 -3.3 l2.2 -0.6 0 18.5 0 18.4 -11.8 3.2 c-6.5 1.7 -12.2 3.1 -12.5 3.1 -0.4 0 -0.7 -8.2 -0.7 -18.3z"/>
  <path d="M488.8 119.3 c-0.3 -23.5 -0.4 -23.8 -7.4 -18.2 -9.7 7.8 -19.3 9.8 -27.4 5.7 -7 -3.6 -8.5 -7.1 -8.5 -20.2 l0 -11 11.6 -3.1 11.7 -3.1 0.6 5 c0.3 2.8 0.6 7.5 0.6 10.4 0 8.7 5.7 12.5 13 8.7 5.3 -2.7 6 -4.8 6 -17.7 l0 -11.7 5.8 -1.6 c3.1 -0.9 8.2 -2.3 11.2 -3.1 3 -0.8 6.3 -1.7 7.3 -2 1.6 -0.5 1.7 1.8 1.7 37.8 l0 38.3 -12.4 3.3 c-6.8 1.7 -12.6 3.2 -13 3.2 -0.3 0 -0.7 -9.3 -0.8 -20.7z"/>
  <path d="M371.5 130 c-4.5 -1 -7.1 -3 -9.4 -7.1 -5.5 -9.7 0.9 -24.7 12.6 -29.6 7.5 -3.1 17 -0.8 20.9 5.2 1.8 2.8 4.9 3.3 5.8 0.9 0.3 -0.9 0.6 -13.9 0.6 -29 l0 -27.3 5.3 -1.5 c10.6 -3.1 20.2 -5.6 20.9 -5.6 0.5 0 0.8 18.2 0.8 40.5 l0 40.4 -4.2 1.1 c-2.4 0.7 -8.2 2.2 -13 3.6 -4.8 1.3 -8.9 2.4 -9.2 2.4 -0.4 0 -0.6 -1.7 -0.6 -3.8 0 -3.8 -1.4 -6.2 -3.5 -6.2 -0.7 0 -2.6 2.2 -4.3 4.8 -3.1 4.8 -8.8 9.5 -12.7 10.5 -4.8 1.2 -7.2 1.4 -10 0.7z"/>
  <path d="M325.5 89 c-6.7 -2.7 -9.3 -11.6 -5.6 -18.9 2.7 -5.2 7.2 -8.1 13 -8.1 3.6 0 4.9 0.6 7.6 3.3 1.9 1.9 3.7 4.6 4.1 6 2.6 10.7 -9.3 21.8 -19.1 17.7z"/>
 </g>
</svg>