<?xml version="1.0" encoding="UTF-8" standalone="no"?>
<svg
   width="500"
   height="200"
   viewBox="0 0 500 200"
   version="1.1"
   id="svg61"
   sodipodi:docname="fmtmarty.svg"
   style="fill:none"
   inkscape:version="1.2.2 (b0a8486541, 2022-12-01)"
   xml:space="preserve"
   xmlns:inkscape="http://www.inkscape.org/namespaces/inkscape"
   xmlns:sodipodi="http://sodipodi.sourceforge.net/DTD/sodipodi-0.dtd"
   xmlns="http://www.w3.org/2000/svg"
   xmlns:svg="http://www.w3.org/2000/svg"
   xmlns:rdf="http://www.w3.org/1999/02/22-rdf-syntax-ns#"
   xmlns:cc="http://creativecommons.org/ns#"
   xmlns:dc="http://purl.org/dc/elements/1.1/"><metadata
     id="metadata67"><rdf:RDF><cc:Work
         rdf:about=""><dc:format>image/svg+xml</dc:format><dc:type
           rdf:resource="http://purl.org/dc/dcmitype/StillImage" /></cc:Work></rdf:RDF></metadata><defs
     id="defs65" /><sodipodi:namedview
     pagecolor="#ffffff"
     bordercolor="#666666"
     borderopacity="1"
     objecttolerance="10"
     gridtolerance="10"
     guidetolerance="10"
     inkscape:pageopacity="0"
     inkscape:pageshadow="2"
     inkscape:window-width="1366"
     inkscape:window-height="696"
     id="namedview63"
     showgrid="false"
     inkscape:pagecheckerboard="true"
     inkscape:zoom="1.1395588"
     inkscape:cx="197.00607"
     inkscape:cy="139.96645"
     inkscape:window-x="0"
     inkscape:window-y="0"
     inkscape:window-maximized="1"
     inkscape:current-layer="svg61"
     inkscape:showpageshadow="0"
     inkscape:deskcolor="#d1d1d1" /><path
     style="fill:#000000"
     id="path813"
     d="" /><path
     style="fill:#0283c9;stroke:none;stroke-width:0.122037"
     d="m 246.25026,31.986799 c -2.86178,0.37598 -5.49168,0.94466 -7.93243,2.60206 -6.1336,4.16593 -6.4692,12.8837 -0.85426,17.68978 3.29012,2.81553 8.01785,3.61707 12.20373,3.05313 2.08074,-0.28044 4.06995,-0.93846 5.8578,-2.04803 1.33143,-0.82644 2.48224,-1.87254 3.37433,-3.16516 0.77494,-1.12262 1.33021,-2.34922 1.69876,-3.66112 2.36631,-8.42131 -6.30079,-15.52765 -14.34793,-14.47066 m 82.86338,20.93864 c 1.03732,0.54587 2.06,1.08479 3.17298,1.46408 5.19757,1.77064 13.92446,1.46006 15.0411,-5.36928 0.16231,-0.9979 0.20869,-2.18935 -0.05,-3.17297 -0.76396,-2.91821 -3.69895,-3.96074 -6.32642,-4.65154 -1.15691,-0.30418 -2.6177,-0.52632 -3.5342,-1.35429 -0.89332,-0.80779 -0.63094,-1.86378 0.36245,-2.44781 0.97264,-0.57083 2.22718,-0.55538 3.29379,-0.30424 1.04708,0.24644 1.90744,0.95742 2.9289,1.19156 l 2.44074,-4.39334 c -3.46586,-1.42195 -7.5297,-2.43801 -11.22744,-1.25135 -4.02235,1.29074 -6.76331,6.2556 -4.33598,10.16008 1.51814,2.44257 5.17316,2.59976 7.63099,3.45915 1.01047,0.35317 2.42855,1.10041 2.14786,2.39864 -0.61995,2.86666 -5.0792,1.77162 -6.78528,0.86769 -0.50645,-0.26849 -1.36071,-1.12263 -1.94039,-1.09138 -0.44178,0.0238 -0.72246,0.75602 -0.91528,1.07795 -0.64558,1.07662 -1.54866,2.20778 -1.90379,3.41705 m -173.9033,-20.25821 v 22.08877 h 6.46798 v -8.66465 h 7.07817 v -4.8815 h -7.07817 v -3.66112 h 7.81039 v -4.8815 h -14.27837 m 20.62431,0 -3.10219,16.35301 -1.04708,5.73576 h 4.51539 c 0.45886,0 1.37414,0.17244 1.75734,-0.12545 0.57479,-0.44703 0.53696,-2.47285 0.6529,-3.16956 0.51133,-3.06594 1.36193,-6.29359 1.49495,-9.39688 h 0.12204 c 1.31922,3.21581 2.89229,6.32825 4.27131,9.51892 0.31974,0.74064 0.88843,2.90229 1.72073,3.13416 0.51621,0.14364 1.93307,0.21198 2.35044,-0.15682 0.85548,-0.7537 1.34973,-2.67652 1.82446,-3.70957 1.34729,-2.93414 2.88618,-5.79885 4.11144,-8.78669 h 0.12203 c 0.13424,3.11549 0.86403,6.30909 1.30946,9.39688 0.0976,0.6806 0.0403,2.73339 0.59433,3.16956 0.38075,0.29862 1.30091,0.12545 1.75733,0.12545 h 4.63742 l -1.84032,-10.61725 -1.94283,-11.47152 h -4.63742 l -1.76955,0.12542 -1.5633,3.16959 -3.74532,8.42058 h -0.24408 c -0.69683,-2.93289 -2.4322,-5.89511 -3.62695,-8.66465 -0.33072,-0.76642 -0.70049,-2.46323 -1.42418,-2.92552 -0.44177,-0.28258 -1.27895,-0.12542 -1.78296,-0.12542 h -4.51539 m 39.29604,0 v 4.8815 h 5.36965 v 17.20727 h 6.46798 v -17.20727 h 5.36965 v -3.41705 l -0.1257,-1.26877 -1.09468,-0.19568 h -3.17297 -12.81393 m 46.37421,0 c 0.15499,1.76014 1.14837,3.68929 1.70852,5.36965 1.23502,3.70614 2.50787,7.4001 3.74289,11.1054 l 1.30092,3.9052 c 0.14889,0.44385 0.26238,1.28847 0.65534,1.58307 0.61751,0.46252 2.45295,0.12545 3.20958,0.12545 0.79325,0 2.56889,0.3328 3.23399,-0.12545 0.75908,-0.52281 1.13373,-2.5684 1.45469,-3.41363 1.14837,-3.01701 2.76049,-6.13104 3.48783,-9.27485 h 0.12204 c 0.72612,3.13759 2.11368,6.21793 3.1327,9.27485 0.27946,0.83998 0.57601,2.89021 1.32288,3.41363 0.67487,0.47338 2.54326,0.12545 3.35481,0.12545 0.7371,0 2.48346,0.32279 3.08755,-0.12545 0.41126,-0.30473 0.53574,-1.12678 0.70171,-1.58307 0.51988,-1.42186 1.03366,-2.84555 1.54255,-4.27131 1.2216,-3.4212 2.45784,-6.8394 3.70506,-10.25114 0.70049,-1.91305 1.60967,-3.87347 2.06853,-5.8578 h -4.75946 c -0.49059,0 -1.45468,-0.18353 -1.86717,0.12542 -0.76395,0.57354 -1.08735,2.88028 -1.38756,3.77978 -1.13983,3.41963 -1.99654,7.077 -3.45732,10.37318 l -4.8815,-14.27838 h -3.53908 c -0.44056,0 -1.14959,-0.13059 -1.53523,0.12542 -0.84694,0.56258 -1.30824,3.07592 -1.63774,4.02385 -1.1496,3.30337 -2.15396,7.03725 -3.78316,10.12911 -0.98607,-3.47474 -2.10149,-6.91387 -3.13881,-10.37318 -0.26604,-0.88806 -0.5394,-3.23415 -1.31678,-3.77978 -0.43445,-0.30538 -1.38146,-0.12542 -1.89036,-0.12542 h -4.63742 m 39.54011,0 v 22.08877 h 6.46799 v -13.54615 l 8.24728,9.39688 2.47248,2.80686 1.27529,1.26882 2.03925,0.0736 h 4.39334 v -22.08877 h -6.46798 v 13.54615 c -2.94842,-3.01116 -5.61616,-6.35491 -8.40105,-9.51891 -0.99217,-1.12656 -2.2223,-3.21623 -3.55983,-3.90182 -0.53453,-0.27366 -1.36804,-0.12542 -1.95138,-0.12542 h -4.51539 m -54.91682,4.9168 c 2.94232,-0.38238 6.26174,0.86382 7.64198,3.62582 1.90745,3.81513 -1.46445,8.13733 -5.32327,8.64525 -2.27722,0.29972 -4.61911,-0.22272 -6.34106,-1.83239 -3.05216,-2.85323 -2.31383,-7.49832 1.21549,-9.51321 0.8567,-0.48916 1.82812,-0.7983 2.80686,-0.92547 m -6.71206,27.54515 v 81.765051 h 22.69896 v -37.58752 l 48.3268,48.32681 12.08171,12.08171 3.05093,3.05093 1.22037,0.95067 1.22038,-0.95067 2.92889,-2.9289 11.83763,-11.83762 v -0.12204 l -46.00809,-46.0081 c 2.66773,-0.97691 5.23906,-3.15198 7.56631,-4.75629 4.08216,-2.81406 7.96538,-5.88842 11.59356,-9.267151 2.32969,-2.16873 4.41775,-4.17819 5.82606,-7.08903 4.40799,-9.11143 -0.23675,-20.91367 -9.60922,-24.62666 -3.67455,-1.45566 -7.47601,-1.24527 -11.34948,-1.24527 -4.87905,0 -9.77519,-0.0959 -14.64449,0.11728 -5.87366,0.25714 -11.81566,0.005 -17.69542,0.005 -9.67756,0 -19.35757,0.12204 -29.0449,0.12204 M 14.989406,146.89444 h 18.183571 5.125571 c 0.606037,0 1.592587,0.18806 2.149078,-0.0736 0.800443,-0.3766 1.382806,-2.33958 1.793827,-3.09938 1.556221,-2.87764 3.146246,-5.74869 4.629489,-8.66466 4.04737,-7.95659 8.331004,-15.823 12.577783,-23.67525 1.358276,-2.51153 2.711427,-5.02892 4.02101,-7.56632 0.514144,-0.99595 1.216347,-1.98054 1.555,-3.05093 h 0.122038 l 1.586486,46.13013 h 16.719122 4.393346 c 0.551609,0 1.434916,0.16463 1.926604,-0.12545 0.838031,-0.49438 1.44712,-2.43733 1.888041,-3.2916 1.433207,-2.77635 2.879594,-5.57686 4.413604,-8.29854 4.250074,-7.5402 8.072164,-15.32973 12.189704,-22.94303 1.38073,-2.55302 2.68751,-5.1501 4.0946,-7.68835 0.86415,-1.55891 2.07732,-3.2955 2.57975,-5.003541 h 0.12204 v 47.350511 h 22.57691 V 91.367429 76.112759 c 0,-2.39206 0.45642,-5.24432 -0.64313,-7.44429 -1.74575,-3.49149 -5.10812,-3.53908 -8.50967,-3.53908 h -6.8341 c -4.90492,0 -9.3145,0.0177 -13.54615,2.87007 -4.25227,2.86642 -6.30091,7.98088 -8.574101,12.3846 -2.70435,5.23883 -5.594436,10.3816 -8.298541,15.62079 -1.068559,2.07024 -2.367281,4.071161 -3.263524,6.223901 -0.711233,-2.406331 -0.261526,-5.433831 -0.370871,-7.932421 -0.26592,-6.07246 -0.131068,-12.2561 -0.706719,-18.30561 -0.296673,-3.11696 0.486197,-6.54865 -1.994213,-9.00954 -2.404258,-2.38546 -5.926135,-1.85179 -9.009898,-1.85179 -7.386435,0 -14.400168,-0.5449 -19.881111,5.36964 -2.39596,2.58561 -3.758141,6.20524 -5.418338,9.27485 -3.4406,6.36181 -6.811395,12.76316 -10.186705,19.15986 C 34.638768,109.85219 28.87897,120.781 23.006213,131.63977 c -1.731356,3.20128 -3.39425,6.43967 -5.12557,9.64095 -0.955016,1.76576 -2.335539,3.6848 -2.891237,5.61372 M 152.76962,65.129179 v 20.50228 h 31.97379 6.59002 c 2.07098,0 4.10534,0.0148 5.73576,1.48569 1.76466,1.59283 1.92087,3.99831 2.2882,6.20267 0.74687,4.47218 1.99165,9.027101 2.34922,13.546151 -3.52322,-4.34124 -7.24414,-8.525661 -10.83082,-12.813931 -0.92626,-1.1059 -1.86839,-2.19789 -2.80442,-3.29501 -0.28678,-0.3367 -0.66754,-1.02145 -1.14227,-1.09907 -0.39174,-0.0642 -0.87622,0.29009 -1.20939,0.45911 -0.97996,0.49779 -1.97212,1.00656 -2.92889,1.54597 -3.40241,1.91769 -6.95736,3.56336 -10.37318,5.4569 -3.40851,1.88938 -6.90976,3.655751 -10.37318,5.443231 -2.55302,1.31752 -5.18659,2.55437 -7.44428,4.35759 -7.13919,5.70281 -9.88503,15.4248 -7.19655,24.10861 0.66877,2.16299 1.6048,4.20529 2.8447,6.10187 0.98362,1.50289 2.16494,2.92316 3.49759,4.12853 7.26488,6.57085 16.42379,5.63446 25.50581,5.63446 h 24.65155 c 4.93031,0 9.9729,0.48852 14.88857,0.0207 3.0192,-0.2874 5.40869,-0.43897 7.81039,-2.6044 3.76973,-3.39813 3.33162,-7.80844 2.57255,-12.30491 -1.20329,-7.12747 -2.57255,-14.227 -3.76242,-21.35654 -1.33997,-8.0247 -2.80686,-16.034621 -4.25056,-24.041371 -0.9702,-5.38563 -1.46079,-10.82057 -5.21222,-15.13264 -2.93011,-3.36811 -6.99518,-5.62214 -11.43612,-6.189 -3.35603,-0.42835 -6.86948,-0.15694 -10.25114,-0.15694 h -41.49271 m 175.36773,0 v 20.50228 h 23.43117 v 61.262771 h 22.57692 V 101.25225 89.780729 c 0,-0.84352 -0.41981,-3.33796 0.19526,-3.95364 0.35147,-0.35086 1.18498,-0.19563 1.6353,-0.19563 h 4.27131 17.45135 v -20.50228 h -69.56131 m 75.90725,0 c 0,5.59688 -0.29045,11.28223 0.40028,16.84116 1.31679,10.58028 6.3374,20.289321 14.73236,26.969771 2.7678,2.20241 5.90783,3.99551 9.1528,5.38844 3.46586,1.48752 7.54191,2.99114 11.34948,3.15467 -0.7249,3.13087 -2.25159,6.56976 -5.24761,8.07778 -2.80442,1.41136 -6.47164,0.83095 -9.51892,0.83095 h -19.52598 v 20.50228 h 25.26174 c 5.72722,0 11.46785,0.39723 16.71912,-2.35776 3.42559,-1.79725 6.39232,-4.31744 8.57313,-7.52727 3.32186,-4.88882 4.88027,-11.21658 6.93172,-16.71912 4.52027,-12.12564 9.02467,-24.259081 13.59131,-36.367141 2.35654,-6.24649 4.88759,-12.47039 7.02691,-18.79376 h -17.08523 -4.8815 c -0.58212,0 -1.50472,-0.17415 -2.04046,0.0736 -0.52721,0.24346 -0.72247,1.37768 -0.91162,1.87901 -0.69196,1.82592 -1.36316,3.66173 -2.04535,5.49168 l -5.74796,15.37671 c -0.87745,2.35276 -2.30651,4.96143 -2.67872,7.44428 -2.57499,0 -5.08164,-0.0885 -7.56632,-0.85743 -1.93917,-0.60018 -3.80269,-1.42845 -5.49168,-2.55973 -1.34608,-0.90101 -2.55669,-1.96847 -3.64038,-3.17285 -5.8822,-6.53645 -4.65817,-15.57161 -4.65817,-23.67526 H 404.0446 M 262.11512,106.13375 V 85.631469 h 24.04136 5.73576 c 0.82131,3.7e-4 1.833,-0.0221 2.35166,0.7376 0.69195,1.01108 -0.0928,1.93527 -0.88721,2.54155 -1.80737,1.37963 -3.64038,2.7074 -5.49168,4.02589 -5.46972,3.89457 -11.4825,7.02911 -17.57339,9.817901 -2.6238,1.2011 -5.38795,2.61673 -8.1765,3.37934 m -60.28647,1.09834 3.41705,19.15987 h -24.28544 c -2.09295,0 -6.89634,0.93786 -7.98491,-1.34241 -1.50594,-3.15516 3.84296,-4.63132 5.78823,-5.73576 4.66061,-2.64553 9.51648,-5.01769 14.27838,-7.47577 2.91669,-1.50557 5.77359,-3.30758 8.78669,-4.60593 z"
     id="path887" /></svg>
