<?xml version="1.0" encoding="UTF-8" standalone="no"?>
<svg
   xmlns:dc="http://purl.org/dc/elements/1.1/"
   xmlns:cc="http://creativecommons.org/ns#"
   xmlns:rdf="http://www.w3.org/1999/02/22-rdf-syntax-ns#"
   xmlns:svg="http://www.w3.org/2000/svg"
   xmlns="http://www.w3.org/2000/svg"
   xmlns:sodipodi="http://sodipodi.sourceforge.net/DTD/sodipodi-0.dtd"
   xmlns:inkscape="http://www.inkscape.org/namespaces/inkscape"
   width="155.02789mm"
   height="52.439842mm"
   viewBox="0 0 155.02789 52.439842"
   version="1.1"
   id="svg8"
   inkscape:version="1.0.1 (3bc2e813f5, 2020-09-07)"
   sodipodi:docname="homemade.svg">
  <defs
     id="defs2">
    <inkscape:path-effect
       effect="bspline"
       id="path-effect897"
       is_visible="true"
       lpeversion="1"
       weight="33.333333"
       steps="2"
       helper_size="0"
       apply_no_weight="true"
       apply_with_weight="true"
       only_selected="false" />
    <inkscape:path-effect
       effect="bspline"
       id="path-effect893"
       is_visible="true"
       lpeversion="1"
       weight="33.333333"
       steps="2"
       helper_size="0"
       apply_no_weight="true"
       apply_with_weight="true"
       only_selected="false" />
    <inkscape:path-effect
       effect="bspline"
       id="path-effect889"
       is_visible="true"
       lpeversion="1"
       weight="33.333333"
       steps="2"
       helper_size="0"
       apply_no_weight="true"
       apply_with_weight="true"
       only_selected="false" />
    <inkscape:path-effect
       effect="bspline"
       id="path-effect885"
       is_visible="true"
       lpeversion="1"
       weight="33.333333"
       steps="2"
       helper_size="0"
       apply_no_weight="true"
       apply_with_weight="true"
       only_selected="false" />
    <inkscape:path-effect
       effect="bspline"
       id="path-effect881"
       is_visible="true"
       lpeversion="1"
       weight="33.333333"
       steps="2"
       helper_size="0"
       apply_no_weight="true"
       apply_with_weight="true"
       only_selected="false" />
    <inkscape:path-effect
       effect="bspline"
       id="path-effect877"
       is_visible="true"
       lpeversion="1"
       weight="33.333333"
       steps="2"
       helper_size="0"
       apply_no_weight="true"
       apply_with_weight="true"
       only_selected="false" />
    <inkscape:path-effect
       effect="bspline"
       id="path-effect873"
       is_visible="true"
       lpeversion="1"
       weight="33.333333"
       steps="2"
       helper_size="0"
       apply_no_weight="true"
       apply_with_weight="true"
       only_selected="false" />
    <inkscape:path-effect
       effect="bspline"
       id="path-effect869"
       is_visible="true"
       lpeversion="1"
       weight="33.333333"
       steps="2"
       helper_size="0"
       apply_no_weight="true"
       apply_with_weight="true"
       only_selected="false" />
    <inkscape:path-effect
       effect="bspline"
       id="path-effect865"
       is_visible="true"
       lpeversion="1"
       weight="33.333333"
       steps="2"
       helper_size="0"
       apply_no_weight="true"
       apply_with_weight="true"
       only_selected="false" />
    <inkscape:path-effect
       effect="bspline"
       id="path-effect861"
       is_visible="true"
       lpeversion="1"
       weight="33.333333"
       steps="2"
       helper_size="0"
       apply_no_weight="true"
       apply_with_weight="true"
       only_selected="false" />
    <inkscape:path-effect
       effect="bspline"
       id="path-effect857"
       is_visible="true"
       lpeversion="1"
       weight="33.333333"
       steps="2"
       helper_size="0"
       apply_no_weight="true"
       apply_with_weight="true"
       only_selected="false" />
    <inkscape:path-effect
       effect="bspline"
       id="path-effect853"
       is_visible="true"
       lpeversion="1"
       weight="33.333333"
       steps="2"
       helper_size="0"
       apply_no_weight="true"
       apply_with_weight="true"
       only_selected="false" />
    <inkscape:path-effect
       effect="bspline"
       id="path-effect849"
       is_visible="true"
       lpeversion="1"
       weight="33.333333"
       steps="2"
       helper_size="0"
       apply_no_weight="true"
       apply_with_weight="true"
       only_selected="false" />
  </defs>
  <sodipodi:namedview
     id="base"
     pagecolor="#ffffff"
     bordercolor="#666666"
     borderopacity="1.0"
     inkscape:pageopacity="0.0"
     inkscape:pageshadow="2"
     inkscape:zoom="4"
     inkscape:cx="313.96698"
     inkscape:cy="-35.063102"
     inkscape:document-units="mm"
     inkscape:current-layer="layer1"
     inkscape:document-rotation="0"
     showgrid="false"
     inkscape:window-width="2560"
     inkscape:window-height="1387"
     inkscape:window-x="-8"
     inkscape:window-y="22"
     inkscape:window-maximized="1" />
  <metadata
     id="metadata5">
    <rdf:RDF>
      <cc:Work
         rdf:about="">
        <dc:format>image/svg+xml</dc:format>
        <dc:type
           rdf:resource="http://purl.org/dc/dcmitype/StillImage" />
        <dc:title />
      </cc:Work>
    </rdf:RDF>
  </metadata>
  <g
     inkscape:label="Calque 1"
     inkscape:groupmode="layer"
     id="layer1"
     transform="translate(-40.457214,30.602628)">
    <path
       style="fill:#5692d0;fill-opacity:1;stroke:none;stroke-width:0.3;stroke-linecap:butt;stroke-linejoin:miter;stroke-miterlimit:4;stroke-dasharray:none;stroke-opacity:1"
       d="m 115.91113,-27.846613 c 0.0937,-0.08269 0.28113,-0.248056 0.54856,-0.380367 0.26742,-0.132311 0.61467,-0.231526 1.01711,-0.289384 0.40243,-0.05786 0.85992,-0.07439 1.28991,0.0056 0.42998,0.08 0.83236,0.256389 1.16578,0.592722 0.33341,0.336333 0.59798,0.832418 0.70538,1.325718 0.10739,0.4933 0.0578,0.983881 -0.0993,1.435795 -0.15711,0.451913 -0.42169,0.865317 -0.76612,1.171184 -0.34444,0.305867 -0.76886,0.504298 -1.207,0.595281 -0.43815,0.09098 -0.89013,0.07445 -1.30077,-0.04949 -0.41065,-0.123934 -0.77996,-0.35544 -1.08596,-0.70816 -0.306,-0.35272 -0.54852,-0.826756 -0.67262,-1.295317 -0.1241,-0.468562 -0.1296,-0.931577 -0.069,-1.28995 0.0606,-0.358374 0.18739,-0.611929 0.26008,-0.763157 0.0727,-0.151228 0.0913,-0.200148 -0.0401,-0.315525 -0.13143,-0.115377 -0.41323,-0.297272 -0.55942,-0.385583 -0.1462,-0.08831 -0.1565,-0.08282 -0.25078,0.04484 -0.0943,0.127656 -0.27235,0.377344 -0.40817,0.724439 -0.13582,0.347096 -0.22936,0.791418 -0.20787,1.337153 0.0215,0.545735 0.15791,1.192737 0.45033,1.796874 0.29241,0.604137 0.74064,1.165394 1.28831,1.557023 0.54767,0.391628 1.19467,0.613791 1.76564,0.683876 0.57096,0.07009 1.06595,-0.01176 1.53555,-0.194959 0.4696,-0.183197 0.91393,-0.467724 1.32314,-0.894473 0.40921,-0.426748 0.78338,-0.995797 1.02309,-1.558946 0.23971,-0.56315 0.34494,-1.120506 0.30993,-1.675878 -0.035,-0.555371 -0.2104,-1.108829 -0.59619,-1.664284 -0.38579,-0.555454 -0.98213,-1.112809 -1.63303,-1.44422 -0.65091,-0.331411 -1.35638,-0.436647 -1.9684,-0.386026 -0.61202,0.05062 -1.1304,0.257194 -1.56334,0.530311 -0.43295,0.273117 -0.78004,0.612453 -0.96609,0.8012 -0.18606,0.188747 -0.21047,0.226268 -0.0835,0.336064 0.12697,0.109797 0.40498,0.291694 0.54686,0.377175 0.14187,0.08548 0.14819,0.07425 0.15131,0.0687 0.003,-0.0055 0.003,-0.0056 0.0967,-0.08825 z"
       id="path879"
       inkscape:path-effect="#path-effect881"
       inkscape:original-d="m 115.81742,-27.763925 c 0.18767,-0.1651 0.37509,-0.330465 0.56224,-0.496094 0.34754,-0.09896 0.69479,-0.198173 1.04179,-0.297656 0.45779,-0.01627 0.91528,-0.03281 1.37253,-0.04961 0.40266,0.176657 0.80504,0.353043 1.20716,0.529167 0.26485,0.496368 0.52943,0.992452 0.79375,1.488281 -0.0493,0.490856 -0.099,0.981428 -0.14883,1.471745 -0.26432,0.413684 -0.5289,0.827087 -0.79375,1.240234 -0.42418,0.198706 -0.8486,0.39714 -1.2733,0.595313 -0.45175,-0.01627 -0.90373,-0.03281 -1.35599,-0.04961 -0.36906,-0.23125 -0.73837,-0.462756 -1.10795,-0.694531 -0.24227,-0.47379 -0.4848,-0.947825 -0.7276,-1.422135 -0.005,-0.462766 -0.0108,-0.925777 -0.0165,-1.389063 0.12705,-0.253299 0.25383,-0.506853 0.38034,-0.760677 0.0189,-0.04866 0.0375,-0.09758 0.0558,-0.146761 -0.28155,-0.18164 -0.56335,-0.363537 -0.84543,-0.545703 -0.0101,0.0058 -0.0204,0.01129 -0.031,0.01654 -0.17782,0.249962 -0.3559,0.499649 -0.53425,0.749076 -0.0933,0.44461 -0.18682,0.888936 -0.28063,1.333007 0.13668,0.647293 0.2731,1.294295 0.40926,1.941045 0.4485,0.561542 0.89673,1.122797 1.3447,1.683798 0.64729,0.222437 1.29429,0.4446 1.94104,0.666503 0.49528,-0.08159 0.99027,-0.163437 1.48502,-0.245554 0.4446,-0.284271 0.88893,-0.568796 1.333,-0.853591 0.37445,-0.568809 0.74862,-1.137859 1.12254,-1.707185 0.1055,-0.557115 0.21073,-1.114472 0.31571,-1.672104 -0.17514,-0.553218 -0.35053,-1.106677 -0.52619,-1.660412 -0.59609,-0.557115 -1.19242,-1.114472 -1.78904,-1.672105 -0.70522,-0.104975 -1.41069,-0.210211 -2.11644,-0.315713 -0.51813,0.206846 -1.03651,0.413419 -1.55517,0.619732 -0.3471,0.339866 -0.69419,0.6792 -1.04206,1.018782 -0.0242,0.03784 -0.0486,0.07537 -0.0733,0.112655 0.27829,0.18217 0.5563,0.364067 0.83405,0.545704 0.006,-0.01076 0.0127,-0.02178 0.0186,-0.03307 z"
       sodipodi:nodetypes="ccccccccccccccccccccccccccccccccccc" />
    <path
       style="fill:#5692d0;fill-opacity:1;stroke:none;stroke-width:0.3;stroke-linecap:butt;stroke-linejoin:miter;stroke-miterlimit:4;stroke-dasharray:none;stroke-opacity:1"
       d="m 42.413453,6.2575162 c 2.216083,-4.8943138 6.648302,-14.6830601 9.014763,-19.7890602 2.366461,-5.106001 2.667133,-5.529169 3.123817,-5.852174 0.456684,-0.323006 1.069165,-0.545726 2.11604,-0.673769 1.046876,-0.128043 2.527965,-0.161451 3.563665,0.0057 1.035701,0.167147 1.62591,0.534635 2.05455,1.158335 0.428641,0.623699 0.695905,1.503443 0.946434,3.608207 0.250529,2.104764 0.484386,5.4344302 0.623711,7.0991559 0.139326,1.6647256 0.183876,1.6647256 0.367624,1.6647256 0.183748,0 0.506693,0 0.679151,-0.050017 0.172459,-0.050017 0.194731,-0.1502402 1.135757,-2.0100738 0.941026,-1.8598338 2.800739,-5.4790358 4.059161,-7.6450858 1.258422,-2.166049 1.915446,-2.878753 2.639404,-3.340938 0.723959,-0.462186 1.514616,-0.67377 2.455686,-0.757262 0.941069,-0.08349 2.032397,-0.03895 2.789686,0.07805 0.75729,0.116998 1.180459,0.306311 1.559078,0.540222 0.378619,0.233911 0.7127,0.512312 0.968748,0.902125 0.256048,0.389813 0.434223,0.890933 0.539976,1.302963 0.105753,0.412029 0.139161,0.734972 0.150282,5.456813 0.01112,4.7218402 -1.6e-5,13.8422313 -0.07797,18.4691987 -0.07795,4.6269673 -0.222717,4.7605993 -1.436459,4.8107193 -1.213742,0.05012 -3.496625,0.01671 -4.716046,-0.07782 -1.21942,-0.09453 -1.375326,-0.250434 -1.447843,-3.2684104 -0.07252,-3.0179765 -0.06138,-8.8977881 -0.07244,-11.8711346 -0.01106,-2.9733466 -0.04447,-3.040165 -0.205896,-3.06817 -0.161431,-0.028005 -0.450967,-0.016869 -0.595866,0.016679 -0.144899,0.033548 -0.144899,0.089226 -1.57596,3.079286 -1.43106,2.99005979 -4.293015,8.9144169 -5.852025,11.9545305 -1.559009,3.0401139 -1.815137,3.1960179 -2.789477,3.2572929 -0.97434,0.06128 -2.667014,0.02787 -3.580199,-0.06665 -0.913185,-0.09452 -1.046818,-0.250425 -1.130461,-3.4688662 -0.08364,-3.2184414 -0.11705,-9.4991496 -0.155895,-12.6396999 -0.03884,-3.1405504 -0.08339,-3.1405504 -0.239308,-3.1349874 -0.155913,0.00556 -0.423178,0.016699 -1.904478,3.2073623 -1.481299,3.1906632 -4.176213,9.5604616 -5.651655,12.7843102 -1.475441,3.223849 -1.731569,3.3018 -3.123572,3.312965 -1.392003,0.01116 -3.919877,-0.04452 -5.183975,-0.07236 -1.264097,-0.02784 -1.264099,-0.02784 0.951984,-4.9221568 z"
       id="path847"
       inkscape:path-effect="#path-effect849"
       inkscape:original-d="m 40.19737,11.15183 c 4.432485,-9.788483 8.864704,-19.5772296 13.296659,-29.36624 0.300949,-0.422921 0.601621,-0.846089 0.902035,-1.269531 0.612769,-0.222464 1.22525,-0.445184 1.837478,-0.668174 1.481413,-0.03314 2.962502,-0.06655 4.443356,-0.100226 0.590496,0.367768 1.180705,0.735256 1.77066,1.102487 0.26754,0.880045 0.534804,1.759789 0.801808,2.639287 0.23413,3.330064 0.467987,6.65973 0.701583,9.9891985 0.04481,2.646e-4 0.08936,2.646e-4 0.133636,0 0.32322,2.646e-4 0.646165,2.646e-4 0.968851,0 0.02254,-0.099965 0.04481,-0.200189 0.06682,-0.3006778 1.860052,-3.6190837 3.719766,-7.2382857 5.57925,-10.8578247 0.657317,-0.712469 1.314341,-1.425173 1.971114,-2.138157 0.790953,-0.211328 1.58161,-0.422912 2.372016,-0.634765 1.091639,0.04481 2.182966,0.08936 3.274052,0.133635 0.42345,0.189584 0.846619,0.378896 1.269532,0.567948 0.334356,0.278676 0.668438,0.557076 1.00226,0.835217 0.178448,0.501405 0.356624,1.002525 0.534537,1.503391 0.03368,0.323222 0.06708,0.646166 0.100227,0.968852 -0.01087,9.1210195 -0.02201,18.2414106 -0.03341,27.361717 -0.14451,0.133903 -0.289277,0.267536 -0.434313,0.400905 -2.282706,-0.03315 -4.565589,-0.06655 -6.848782,-0.100227 -0.155644,-0.155644 -0.31155,-0.31155 -0.46772,-0.46772 0.0114,-5.8797824 0.02254,-11.759594 0.03341,-17.6397892 -0.03314,-0.066553 -0.06655,-0.1333711 -0.100227,-0.2004536 -0.289282,0.011404 -0.578818,0.022543 -0.868627,0.033409 2.65e-4,0.055949 2.65e-4,0.1116277 0,0.1670446 -2.861802,5.92485689 -5.723757,11.8492137 -8.586033,17.7734222 -0.255873,0.156176 -0.512001,0.312079 -0.768399,0.467723 -1.692476,-0.03314 -3.38515,-0.06655 -5.078121,-0.100227 -0.133373,-0.155644 -0.267005,-0.31155 -0.400904,-0.46772 -0.03314,-6.280695 -0.06655,-12.5614032 -0.100226,-18.8425025 -0.04428,2.646e-4 -0.08883,2.646e-4 -0.133635,0 -0.26701,0.011401 -0.534275,0.022537 -0.801809,0.033409 -2.694757,6.3703144 -5.389671,12.740113 -8.084903,19.1097715 -0.255874,0.07822 -0.512002,0.15617 -0.7684,0.23386 -2.52771,-0.05542 -5.055584,-0.111099 -7.583773,-0.167042 z" />
    <path
       style="fill:#5692d0;fill-opacity:1;stroke:none;stroke-width:0.3;stroke-linecap:butt;stroke-linejoin:miter;stroke-miterlimit:4;stroke-dasharray:none;stroke-opacity:1"
       d="m 86.691117,-14.439113 c 0.122485,-1.035555 0.367482,-3.106894 0.505433,-4.143384 0.13795,-1.036491 0.16857,-1.03789 0.245138,-1.039286 0.07657,-0.0014 0.199064,-0.0028 2.614282,6.82e-4 2.415219,0.0035 7.122966,0.01183 9.849985,0.09678 2.727015,0.08495 3.473125,0.246421 4.035515,0.413506 0.56239,0.167085 0.94101,0.339691 1.40036,0.693331 0.45935,0.353639 0.99945,0.888169 1.4365,1.486773 0.43704,0.598604 0.77112,1.261201 1.0634,2.241194 0.29228,0.979994 0.54284,2.27734 0.83238,3.841997 0.28954,1.5646581 0.61805,3.3965308 1.06072,6.5397736 0.44266,3.1432427 0.99946,7.5976434 1.25277,10.0698597 0.25332,2.4722162 0.20321,2.9622096 -0.0279,3.5077983 -0.23109,0.5455887 -0.64312,1.1469344 -1.14412,1.4837644 -0.501,0.33683 -1.09121,0.409215 -1.42807,0.43987 -0.33686,0.03066 -0.42034,0.01952 -3.12373,0.01394 -2.70338,-0.0056 -8.026399,-0.0056 -10.788186,-0.0056 -2.761787,0 -2.962235,0 -3.279602,-0.04173 -0.317366,-0.04173 -0.751671,-0.125254 -1.366941,-0.35906 C 89.213802,10.567298 88.417572,10.183118 87.682552,9.6959544 86.947532,9.2087907 86.273804,8.618583 85.767024,7.8919715 85.260244,7.1653599 84.920597,6.3023232 84.72844,5.4169612 84.536283,4.5315993 84.49174,3.6240148 84.591936,2.7859488 c 0.100196,-0.838066 0.345188,-1.6064501 0.707128,-2.31923313 0.361941,-0.71278299 0.840791,-1.36980846 1.851442,-2.40273707 1.010652,-1.0329286 2.552989,-2.441635 4.415581,-3.7752294 1.862592,-1.3335944 4.045249,-2.5919625 5.150598,-3.2042859 1.105349,-0.6123235 1.133189,-0.5789152 1.728982,0.1895021 0.595792,0.7684173 1.759503,2.2717783 2.394263,3.1014326 0.63475,0.8296543 0.74055,0.9855572 0.61519,1.1858434 -0.12537,0.2002861 -0.48172,0.4452774 -1.19163,0.8211219 -0.709921,0.3758444 -1.773411,0.8825325 -2.806321,1.4226477 -1.032909,0.5401152 -2.035148,1.1136184 -2.742348,1.6119959 -0.7072,0.49837747 -1.119231,0.92154562 -1.478396,1.36424451 C 92.87726,1.2239503 92.571019,1.6860957 92.40956,2.1288601 92.2481,2.5716244 92.231397,2.994794 92.367936,3.3985075 c 0.136539,0.4037136 0.426076,0.7879063 0.651633,1.0077533 0.225557,0.2198469 0.387031,0.2755271 0.620863,0.29774 0.233831,0.022213 0.540071,0.011078 2.096393,0.00273 1.556323,-0.00835 4.362595,-0.013911 5.826915,-0.052911 1.46433,-0.039 1.58682,-0.1113804 1.69811,-0.272766 0.1113,-0.1613856 0.21153,-0.4119443 0.24775,-1.1385308 0.0362,-0.7265864 0.008,-1.9292731 -0.11408,-3.28789582 -0.12248,-1.35862278 -0.33963,-2.87312118 -0.45929,-3.65542918 -0.11966,-0.782308 -0.14194,-0.8324327 -0.30892,-0.8576439 -0.16698,-0.025211 -0.47879,-0.025211 -0.66903,-0.024474 -0.19024,7.369e-4 -0.25897,0.00222 -0.29751,-0.00326 -0.0386,-0.00548 -0.0469,-0.018328 -0.0642,-0.043179 -0.0172,-0.024851 -0.0433,-0.061777 -0.0488,-0.087266 -0.005,-0.025489 0.01,-0.039284 0.0478,-0.046167 0.038,-0.00688 0.0986,-0.00688 0.24691,-0.0079 0.14835,-0.00102 0.3845,-0.00305 0.52203,-0.00686 0.13753,-0.00381 0.17653,-0.00938 0.19174,-0.066986 0.0152,-0.057608 0.007,-0.1675794 -0.24489,-1.4653055 -0.25174,-1.2977261 -0.74688,-3.7831257 -1.13213,-5.0849957 -0.38524,-1.301871 -0.66085,-1.419985 -1.282958,-1.514538 -0.622112,-0.09455 -1.590656,-0.165422 -3.819184,-0.204805 -2.228528,-0.03938 -5.716863,-0.04726 -7.511536,-0.09013 -1.794673,-0.04287 -1.895636,-0.120944 -1.946265,-0.160097 -0.05063,-0.03915 -0.05072,-0.03916 0.07177,-1.07471 z"
       id="path851"
       inkscape:path-effect="#path-effect853"
       inkscape:original-d="m 86.568632,-13.403559 c 0.245264,-2.071074 0.49026,-4.142413 0.734992,-6.214017 0.03089,-0.0011 0.06151,-0.0025 0.09187,-0.0042 0.122766,-0.0011 0.245261,-0.0025 0.367495,-0.0042 4.7082,0.0086 9.415947,0.01697 14.123531,0.02506 0.74641,0.161743 1.49252,0.323216 2.23838,0.484426 0.37891,0.17288 0.75753,0.345488 1.1359,0.517835 0.54038,0.534814 1.08048,1.069343 1.62032,1.603617 0.33435,0.662884 0.66844,1.325476 1.00226,1.987817 0.25083,1.297661 0.50139,2.595006 0.75169,3.892113 0.32879,1.8322106 0.6573,3.6640839 0.98556,5.4957295 0.55709,4.4548478 1.11389,8.9092483 1.67043,13.363477 -0.0498,0.4902676 -0.1,0.9802521 -0.15034,1.46998 -0.41178,0.6016333 -0.82381,1.2029805 -1.23612,1.8040715 -0.58996,0.07265 -1.18017,0.145037 -1.77066,0.217157 -0.0833,-0.01087 -0.16678,-0.02201 -0.25056,-0.03341 -5.32296,2.65e-4 -10.645979,2.65e-4 -15.969361,0 -0.200192,2.65e-4 -0.40064,2.65e-4 -0.601356,0 -0.434057,-0.08326 -0.868362,-0.16678 -1.302938,-0.250568 C 89.213736,10.567434 88.417512,10.183243 87.621007,9.7987769 86.947516,9.208809 86.273789,8.6186003 85.599781,8.0281165 85.260384,7.1653049 84.920736,6.3022685 84.580815,5.4389437 84.536535,4.5315869 84.491989,3.6240026 84.447182,2.7161351 c 0.245266,-0.7681515 0.490257,-1.5365359 0.734991,-2.30520074 0.479132,-0.65678314 0.95798,-1.31380969 1.436574,-1.97111146 1.542661,-1.4084987 3.085,-2.8172039 4.627102,-4.2262001 2.183011,-1.2581546 4.365668,-2.5165224 6.548104,-3.775181 0.02811,0.033674 0.05595,0.067082 0.08352,0.100226 1.164024,1.5036858 2.327737,3.0070462 3.491207,4.5101732 0.10606,0.1561729 0.21185,0.3120787 0.31739,0.4677198 -0.35611,0.2452661 -0.71246,0.4902597 -1.06908,0.7349913 -1.06327,0.5069734 -2.12676,1.0136611 -3.190533,1.5200948 -1.002017,0.5737939 -2.004256,1.1472968 -3.006784,1.72054831 -0.411784,0.42344974 -0.823814,0.84661903 -1.23612,1.26953167 -0.305988,0.46242552 -0.61223,0.92457052 -0.918739,1.38645902 -0.01643,0.4234497 -0.03314,0.846619 -0.05011,1.2695316 0.289814,0.3844714 0.57935,0.7686649 0.868627,1.1525991 0.161742,0.055946 0.323215,0.1116277 0.484425,0.167042 0.306517,-0.010874 0.612757,-0.022013 0.918739,-0.033406 2.806653,-0.00532 5.612925,-0.010874 8.418985,-0.016695 0.12277,-0.072123 0.24526,-0.1445048 0.3675,-0.2171567 0.10049,-0.2503038 0.20071,-0.5008642 0.30068,-0.7516945 -0.0276,-1.202473 -0.0554,-2.4051604 -0.0835,-3.60813874 -0.2169,-1.51429246 -0.43405,-3.02879126 -0.65147,-4.54358106 -0.022,-0.04985 -0.0443,-0.099962 -0.0668,-0.1503415 -0.31156,2.646e-4 -0.62337,2.646e-4 -0.93544,0 -0.0684,0.00185 -0.13713,0.00323 -0.20609,0.00444 -0.008,-0.012541 -0.0165,-0.025321 -0.0251,-0.038388 -0.0258,-0.036647 -0.0519,-0.073557 -0.0782,-0.1107334 0.0155,-0.01352 0.0308,-0.027297 0.0458,-0.041341 0.0608,2.646e-4 0.12133,2.646e-4 0.1816,0 0.23643,-0.00185 0.47258,-0.00378 0.70848,-0.00609 0.0392,-0.00529 0.0782,-0.010874 0.11693,-0.016695 -0.008,-0.1097068 -0.0164,-0.2196756 -0.0251,-0.329909 -0.49489,-2.4852354 -0.99002,-4.9706357 -1.48543,-7.4563517 -0.27535,-0.117855 -0.55095,-0.23597 -0.82682,-0.354352 -0.968318,-0.07061 -1.936862,-0.141477 -2.90569,-0.212612 -3.488211,-0.0076 -6.976546,-0.01548 -10.465217,-0.02363 -0.100701,-0.07782 -0.201666,-0.155895 -0.302895,-0.234239 z" />
    <path
       style="fill:#5692d0;fill-opacity:1;stroke:none;stroke-width:0.3;stroke-linecap:butt;stroke-linejoin:miter;stroke-miterlimit:4;stroke-dasharray:none;stroke-opacity:1"
       d="m 118.04485,11.21211 c -0.37587,0.002 -1.12789,0.0059 -1.59445,0.0059 -0.46657,3e-6 -0.64767,-0.0039 -0.79336,-0.06679 -0.14569,-0.06286 -0.25594,-0.184912 -0.32494,-0.320735 -0.069,-0.135823 -0.0966,-0.285443 -0.10645,-5.2917744 -0.01,-5.00633131 -0.002,-14.8689494 0.0139,-19.8004896 0.0159,-4.93154 0.0395,-4.93154 0.0966,-4.93154 0.0571,0 0.14768,0 3.61647,0.002 3.46878,0.002 10.31552,0.0059 13.77641,0.02369 3.46088,0.01779 3.53567,0.04928 3.87034,0.169354 0.33467,0.120076 0.92918,0.328745 1.78552,0.970602 0.85634,0.641857 1.9745,1.716701 2.64573,2.543561 0.67123,0.826859 0.89565,1.405624 1.0078,1.974536 0.11215,0.568911 0.11215,1.127989 -0.10049,1.937041 -0.21265,0.809053 -0.63786,1.8681509 -0.96464,2.5453121 -0.32678,0.6771612 -0.55514,0.9724513 -0.96855,1.4311301 -0.4134,0.4586787 -1.01185,1.0807509 -2.20089,2.0473415 -1.18905,0.9665907 -2.96865,2.2776695 -3.86046,2.9648712 -0.89182,0.6872017 -0.89575,0.7502005 -0.88391,0.8919517 0.0118,0.1417512 0.0394,0.3622379 0.36038,0.97056219 0.32097,0.60832426 0.93517,1.60442894 1.84471,2.82891701 0.90954,1.2244881 2.11432,2.677307 4.43144,5.1597683 2.31712,2.4824613 5.7464,5.9944219 7.44715,7.7660589 1.70075,1.771637 1.67317,1.803152 0.77941,2.696907 -0.89377,0.893755 -2.65368,2.649737 -3.56108,3.512075 -0.90739,0.862338 -0.96248,0.830859 -4.32304,-3.387935 -3.36055,-4.218794 -10.02618,-12.6246562 -13.36309,-16.8493569 -3.33691,-4.2247008 -3.34477,-4.2679463 -3.31529,-4.3841697 0.0295,-0.1162234 0.0964,-0.3052069 0.40361,-0.5297359 0.30719,-0.2245291 0.85446,-0.4843842 2.24432,-1.2245991 1.38987,-0.740215 3.62224,-1.9607353 4.95298,-2.8347699 1.33073,-0.8740346 1.75989,-1.4016198 2.02565,-1.9763711 0.26576,-0.5747514 0.36812,-1.1968234 0.38591,-1.6160964 0.0178,-0.419274 -0.0491,-0.635813 -0.29512,-0.842604 -0.24598,-0.206791 -0.67119,-0.403648 -2.53357,-0.490343 -1.86238,-0.08669 -5.16173,-0.06307 -6.81553,-0.03143 -1.6538,0.03164 -1.66166,0.07094 -1.66557,1.565184 -0.004,1.4942435 -0.004,4.4431877 0.012,5.933446 0.0159,1.4902582 0.0474,1.5217566 0.0966,1.5393432 0.0492,0.017587 0.11614,0.021529 0.33294,0.022261 0.21679,7.321e-4 0.58344,-0.00173 0.77341,-9.478e-4 0.18998,7.801e-4 0.20328,0.00472 0.20946,0.011203 0.006,0.00648 0.006,0.015335 -0.0251,0.1031499 -0.0306,0.087814 -0.0912,0.2546421 -0.12715,0.3382464 -0.036,0.083604 -0.0479,0.084139 -0.10249,0.082688 -0.0546,-0.00145 -0.15202,-0.0049 -0.34465,-0.00702 -0.19262,-0.00213 -0.4804,-0.00292 -0.63512,0.003 -0.15472,0.00592 -0.17613,0.018575 -0.19227,0.03912 -0.0162,0.020545 -0.0269,0.048825 -0.0317,0.095173 -0.005,0.046347 -0.004,0.1106566 0.002,2.44590115 0.005,2.33524455 0.0151,6.94123565 4.5e-4,9.27536045 -0.0146,2.3341251 -0.0536,2.3964971 -0.1101,2.4588141 -0.0565,0.06232 -0.13053,0.12467 -0.20258,0.167533 -0.072,0.04286 -0.1422,0.06625 -0.6914,0.07349 -0.54921,0.0072 -1.57754,-0.0017 -2.09184,-0.0062 -0.51431,-0.0045 -0.51392,-0.0045 -0.8898,-0.0026 z"
       id="path855"
       inkscape:path-effect="#path-effect857"
       inkscape:original-d="m 118.42073,11.210144 c -0.75175,0.0042 -1.50377,0.0081 -2.25605,0.0118 -0.18085,-0.0037 -0.36196,-0.0076 -0.54334,-0.0118 -0.10998,-0.121793 -0.22022,-0.243846 -0.33073,-0.366165 -0.0273,-0.149352 -0.0549,-0.298966 -0.0827,-0.448847 0.008,-9.8627486 0.016,-19.7253666 0.0236,-29.588447 0.0239,2.64e-4 0.0475,2.64e-4 0.0709,0 0.0908,2.64e-4 0.18138,2.64e-4 0.27167,0 6.84728,0.0042 13.69402,0.0081 20.54064,0.01181 0.0751,0.03176 0.14988,0.06326 0.22442,0.09449 0.59481,0.208943 1.18932,0.417613 1.78358,0.626023 1.11847,1.075156 2.23662,2.150004 3.35454,3.224609 0.22469,0.579052 0.44911,1.157817 0.67327,1.736328 2.6e-4,0.559366 2.6e-4,1.118444 0,1.67727 -0.42497,1.059406 -0.85018,2.1185058 -1.27567,3.1773619 -0.2281,0.2955645 -0.45646,0.5908524 -0.68508,0.8858816 -0.59821,0.6223635 -1.19666,1.244436 -1.79539,1.8662571 -1.77941,1.3113967 -3.55901,2.6224759 -5.33891,3.9333169 -0.004,0.063262 -0.008,0.1262566 -0.0118,0.1889866 0.0278,0.2207551 0.0554,0.4412377 0.0827,0.6614583 0.61449,0.99641028 1.22869,1.9925136 1.84263,2.9883735 1.20509,1.4531419 2.40987,2.9059584 3.6144,4.3585394 3.42968,3.5123622 6.85896,7.0243227 10.28804,10.5360867 -0.0273,0.03176 -0.0549,0.06326 -0.0827,0.09449 -1.75972,1.756315 -3.51964,3.512294 -5.27985,5.268042 -0.0549,-0.03123 -0.10998,-0.06273 -0.16537,-0.09449 -6.66564,-8.405937 -13.33127,-16.8117996 -19.9973,-25.2180988 -0.008,-0.043045 -0.0155,-0.086355 -0.0236,-0.129929 0.0672,-0.1887272 0.13413,-0.3777112 0.2008,-0.566965 0.54755,-0.2595986 1.09482,-0.5194512 1.64183,-0.7795763 2.23274,-1.2203059 4.46511,-2.4408314 6.69727,-3.6616438 0.42943,-0.5273379 0.85859,-1.0549189 1.28748,-1.5827753 0.10264,-0.6218338 0.205,-1.2439068 0.30711,-1.8662578 -0.0667,-0.216288 -0.13361,-0.432833 -0.2008,-0.649646 -0.42497,-0.196602 -0.85018,-0.393461 -1.27567,-0.590588 -3.29922,0.02389 -6.59857,0.04751 -9.89825,0.07087 -0.008,0.03964 -0.0155,0.07901 -0.0236,0.118117 2.6e-4,2.9493255 2.6e-4,5.8982697 0,8.8470059 0.0318,0.031763 0.0633,0.063262 0.0945,0.094493 0.0672,0.00421 0.13413,0.00815 0.2008,0.011827 0.36693,-0.00212 0.73358,-0.00466 1.09997,-0.00738 0.0135,0.00421 0.0268,0.00815 0.0399,0.011827 -2.2e-4,0.00913 -7.9e-4,0.017992 -0.002,0.026575 -0.0603,0.1671109 -0.12081,0.3339465 -0.18161,0.5005229 -0.0115,7.937e-4 -0.0234,0.00132 -0.0354,0.00159 -0.0972,-0.00318 -0.19463,-0.00664 -0.29234,-0.010345 -0.28753,-5.292e-4 -0.57531,-0.00132 -0.86337,-0.00238 -0.0212,0.012938 -0.0426,0.025612 -0.0643,0.038002 -0.0104,0.028522 -0.0212,0.05678 -0.0322,0.084773 0.001,0.06458 0.002,0.1288892 0.003,0.1929369 0.01,4.6064407 0.0198,9.2124317 0.0292,13.8182513 -0.0387,0.06263 -0.0777,0.124992 -0.11693,0.187089 -0.0738,0.06263 -0.14784,0.12499 -0.22217,0.18709 -0.0699,0.02365 -0.14005,0.04704 -0.21047,0.07016 -1.0281,-0.0087 -2.05643,-0.01765 -3.08504,-0.02688 z" />
    <path
       style="fill:#5692d0;fill-opacity:1;stroke:none;stroke-width:0.3;stroke-linecap:butt;stroke-linejoin:miter;stroke-miterlimit:4;stroke-dasharray:none;stroke-opacity:1"
       d="m 161.08685,-12.375132 c 1.14604,-0.02729 3.43787,-0.08185 4.64603,-0.167604 1.20817,-0.08575 1.33289,-0.202676 1.39915,-1.414744 0.0663,-1.212068 0.0741,-3.519449 0.043,-4.669408 -0.0311,-1.149959 -0.10121,-1.142163 -3.88982,-1.114866 -3.7886,0.0273 -11.29538,0.07407 -15.04898,0.14436 -3.7536,0.07029 -3.7536,0.163835 -3.7575,0.354827 -0.004,0.190992 -0.0117,0.479401 -0.0117,1.586366 0,1.106965 0.008,3.032381 0.0625,4.037971 0.0547,1.00559 0.15606,1.09134 0.35875,1.157503 0.20268,0.06616 0.5067,0.112934 1.6877,0.10511 1.18099,-0.0078 3.23892,-0.07018 4.2717,-0.05445 1.03277,0.01573 1.04057,0.109279 1.03276,4.0499033 -0.008,3.9406245 -0.0312,11.7280342 0.0157,15.6724772 0.0469,3.9444425 0.16383,4.0457805 0.31976,4.1275625 0.15592,0.08178 0.3508,0.144144 1.55518,0.159681 1.20438,0.01554 3.41822,-0.01565 4.59524,-0.06634 1.17702,-0.0507 1.31734,-0.120854 1.40301,-0.233756 0.0857,-0.112903 0.11683,-0.268812 0.12854,-0.510444 0.0117,-0.241632 0.004,-0.569018 0.008,-4.4394937 0.004,-3.8704756 0.0195,-11.2837142 0.0273,-14.9905403 0.008,-3.706826 0.008,-3.706827 1.15388,-3.734114 z"
       id="path859"
       inkscape:path-effect="#path-effect861"
       inkscape:original-d="m 159.9408,-12.347845 c 2.2921,-0.0543 4.58393,-0.10887 6.87551,-0.163702 0.12499,-0.116668 0.24971,-0.233596 0.37418,-0.350791 0.008,-2.307209 0.0158,-4.61459 0.0234,-6.922281 -0.0699,0.0081 -0.14005,0.01586 -0.21047,0.02339 -7.50682,0.04704 -15.0136,0.09381 -22.5208,0.140317 2.7e-4,0.09381 2.7e-4,0.187353 0,0.280633 -0.008,0.288699 -0.0153,0.577121 -0.0234,0.865285 0.008,1.925757 0.0159,3.851173 0.0234,5.776363 0.10161,0.08601 0.20295,0.171762 0.30402,0.257247 0.30429,0.04704 0.60831,0.09381 0.91206,0.140316 2.05828,-0.0621 4.11621,-0.124461 6.17393,-0.187089 0.008,0.09381 0.0158,0.187354 0.0234,0.280633 -0.0231,7.7879857 -0.0465,15.5753954 -0.0702,23.362697 0.11719,0.101608 0.23412,0.202943 0.35079,0.304019 0.19515,0.06263 0.39003,0.124992 0.58465,0.18709 2.21419,-0.03092 4.42803,-0.0621 6.64165,-0.09355 0.14058,-0.0699 0.2809,-0.140052 0.42095,-0.210474 0.0314,-0.155646 0.0626,-0.311549 0.0935,-0.467722 -0.008,-0.327147 -0.0153,-0.654545 -0.0234,-0.9822157 0.0159,-7.413273 0.0315,-14.8265116 0.0468,-22.2401643 z" />
    <path
       style="fill:#5692d0;fill-opacity:1;stroke:none;stroke-width:0.3;stroke-linecap:butt;stroke-linejoin:miter;stroke-miterlimit:4;stroke-dasharray:none;stroke-opacity:1"
       d="m 170.74615,-19.694134 c 1.20178,0 3.60508,0 4.81213,0.05527 1.20705,0.05527 1.21809,0.165504 1.27872,0.821463 0.0606,0.655959 0.17088,1.857584 0.34729,3.136424 0.1764,1.278841 0.41893,2.634804 0.73317,3.759301 0.31424,1.124496 0.70008,2.0174497 1.46085,2.7725457 0.76078,0.7550961 1.89626,1.3724445 2.66244,1.6975884 0.76618,0.3251438 1.16305,0.3582163 1.5598,0.2148716 0.39676,-0.1433446 0.79362,-0.4630404 1.55426,-2.5135019 0.76065,-2.0504618 1.88511,-5.8317228 2.49161,-7.7280048 0.60649,-1.896282 0.69465,-1.9073 0.7884,-1.907269 0.0937,3.2e-5 0.19295,0.01105 1.3946,10e-6 1.20166,-0.01104 3.5057,-0.04412 4.6576,-0.02745 1.15191,0.01667 1.15191,0.08282 -0.13247,4.090179 -1.28439,4.007364 -3.853,11.9557276 -5.41294,16.4646498 -1.55995,4.5089222 -2.11115,5.5782603 -2.75054,6.4766971 -0.63939,0.8984367 -1.36698,1.6260259 -2.05597,2.1772197 -0.68898,0.5511934 -1.3394,0.9260124 -2.01183,1.1906004 -0.67244,0.264588 -1.36696,0.418926 -1.86854,0.507134 -0.50158,0.08821 -0.81026,0.110258 -2.38675,0.121291 -1.5765,0.01103 -4.42071,0.01103 -5.90349,-0.06048 -1.48279,-0.07152 -1.60405,-0.214832 -1.66481,-1.43305 -0.0607,-1.2182185 -0.0607,-3.5112273 -0.0332,-4.6744503 0.0276,-1.1632229 0.0827,-1.19629 0.24819,-1.2072859 0.16546,-0.010996 0.44106,2.82e-5 1.80809,2.22e-5 1.36704,-6e-6 3.82541,-0.01103 5.19235,-0.088228 1.36693,-0.077198 1.64253,-0.22051 2.10551,-0.6118541 0.46298,-0.3913442 1.1134,-1.0307448 1.52679,-1.6755802 0.41338,-0.6448354 0.58977,-1.29525877 0.6725,-1.65900401 0.0827,-0.36374524 0.0717,-0.44090899 0.0332,-0.4851315 -0.0385,-0.0442225 -0.1046,-0.0552436 -0.18731,-0.0662794 -0.0827,-0.0110357 -0.18188,-0.0220543 -0.98666,-0.33620342 -0.80478,-0.31414911 -2.31508,-0.93149812 -3.51674,-1.52127292 -1.20167,-0.5897748 -2.09462,-1.1520039 -2.92147,-1.8024124 -0.82684,-0.6504085 -1.58751,-1.3890214 -2.14429,-2.0945555 -0.55678,-0.7055341 -0.90955,-1.3780017 -1.21278,-2.4308457 -0.30323,-1.0528439 -0.55678,-2.485975 -0.75523,-3.781347 -0.19844,-1.295372 -0.34176,-2.452901 -0.42996,-3.660086 -0.0882,-1.207184 -0.12128,-2.46393 -0.13781,-3.092451 -0.0165,-0.628521 -0.0166,-0.628523 1.18522,-0.628523 z"
       id="path863"
       inkscape:path-effect="#path-effect865"
       inkscape:original-d="m 169.54437,-19.694134 c 2.40356,2.65e-4 4.80686,2.65e-4 7.2099,0 0.0113,0.11051 0.0223,0.220751 0.0331,0.330729 0.11051,1.201938 0.22075,2.403563 0.33073,3.604948 0.2428,1.356281 0.48533,2.712244 0.7276,4.067969 0.38612,0.893251 0.77197,1.786202 1.15755,2.6789062 1.13579,0.617638 2.27127,1.2349866 3.40651,1.8520833 0.39715,0.033338 0.79402,0.06641 1.19063,0.099219 0.39715,-0.3194468 0.79401,-0.6391452 1.19062,-0.9591145 1.12477,-3.781148 2.24923,-7.562409 3.37344,-11.344011 0.0885,-0.01076 0.17666,-0.02178 0.26459,-0.03307 0.0995,0.01129 0.1987,0.02231 0.29765,0.03307 2.30439,-0.03281 4.60843,-0.06588 6.91224,-0.09922 2.7e-4,0.06641 2.7e-4,0.132556 0,0.198437 -2.56845,7.948948 -5.13706,15.8973126 -7.70599,23.8455731 -0.55096,1.0696442 -1.10217,2.1389789 -1.65364,3.2080728 -0.72736,0.727882 -1.45495,1.4554729 -2.18282,2.1828125 -0.65018,0.3750966 -1.3006,0.7499166 -1.9513,1.1244786 -0.69428,0.154607 -1.3888,0.308946 -2.08359,0.463021 -0.30842,0.0223 -0.6171,0.04436 -0.92604,0.06615 -2.84407,2.65e-4 -5.68828,2.65e-4 -8.53282,0 -0.121,-0.143055 -0.24227,-0.286367 -0.3638,-0.429948 2.7e-4,-2.2928365 2.7e-4,-4.5858453 0,-6.8791663 0.0554,-0.032808 0.11051,-0.065881 0.16537,-0.099219 0.27587,0.011298 0.55147,0.022304 0.82682,0.033073 2.45873,-0.010769 4.9171,-0.021775 7.37526,-0.033073 0.27588,-0.1430549 0.55148,-0.2863665 0.82682,-0.4299479 0.65071,-0.6391593 1.30114,-1.278554 1.9513,-1.9182292 0.17666,-0.6501817 0.35305,-1.3006043 0.52917,-1.95130202 -0.0108,-0.07690644 -0.0218,-0.15407482 -0.0331,-0.23151042 -0.0659,-0.0107685 -0.13203,-0.0217752 -0.19844,-0.0330729 -0.099,-0.0107686 -0.19817,-0.0217752 -0.29766,-0.0330729 -1.51009,-0.61710887 -3.02039,-1.23445856 -4.53099,-1.85208336 -0.89272,-0.5619856 -1.78567,-1.1242146 -2.6789,-1.6867187 -0.76043,-0.738378 -1.52109,-1.4769915 -2.28203,-2.2158854 -0.35252,-0.6722322 -0.70529,-1.3447009 -1.05834,-2.0174479 -0.2533,-1.4329238 -0.50685,-2.866055 -0.76067,-4.299479 -0.14306,-1.157311 -0.28637,-2.31484 -0.42995,-3.472656 -0.0328,-1.256532 -0.0659,-2.513277 -0.0992,-3.770313 z" />
    <path
       style="fill:#5692d0;fill-opacity:1;stroke:none;stroke-width:0.3;stroke-linecap:butt;stroke-linejoin:miter;stroke-miterlimit:4;stroke-dasharray:none;stroke-opacity:1"
       d="m 87.286643,-22.607171 c 0.04423,0.04699 0.13242,0.140697 0.239939,0.22057 0.107518,0.07987 0.234294,0.146018 0.40779,0.09355 0.173496,-0.05246 0.393977,-0.223338 0.501446,-0.829538 0.107468,-0.606199 0.101955,-1.647976 0.137896,-2.174535 0.03594,-0.526559 0.113105,-0.537581 0.408031,-0.545835 0.294926,-0.0083 0.807546,-0.01377 1.127112,-0.09093 0.319565,-0.07716 0.446341,-0.225984 0.504235,-0.427054 0.05789,-0.20107 0.04687,-0.454624 0.03047,-0.581541 -0.0164,-0.126917 -0.03846,-0.126917 -0.0991,-0.126917 -0.06064,0 -0.159853,0 -0.399639,0.0055 -0.239787,0.0055 -0.620117,0.01653 -0.87641,-0.0247 -0.256294,-0.04123 -0.388585,-0.134938 -0.493388,-0.258912 -0.104803,-0.123973 -0.181971,-0.278309 -0.212372,-0.551197 -0.0304,-0.272888 -0.01386,-0.664243 0.01105,-0.862824 0.02492,-0.198582 0.05799,-0.204096 0.09656,-0.21237 0.03857,-0.0083 0.08267,-0.0193 0.454784,-0.03306 0.372114,-0.01376 1.072143,-0.0303 1.490938,-0.107465 0.418795,-0.07717 0.556597,-0.21497 0.631004,-0.40226 0.07441,-0.187289 0.08543,-0.424307 0.06903,-0.542944 -0.0164,-0.118637 -0.0605,-0.118637 -0.156955,-0.121389 -0.09646,-0.0028 -0.245285,-0.0083 -0.881958,-0.0028 -0.636672,0.0055 -1.761127,0.02204 -2.323497,0.04974 -0.56237,0.0277 -0.56237,0.06628 -0.587178,1.314802 -0.02481,1.248527 -0.07442,3.706897 -0.09922,4.935978 -0.0248,1.22908 -0.0248,1.229087 0.01943,1.276076 z"
       id="path867"
       inkscape:path-effect="#path-effect869"
       inkscape:original-d="m 87.242418,-22.65416 c 0.08846,0.09397 0.176654,0.187678 0.264583,0.28112 0.127048,0.06641 0.253823,0.132556 0.380339,0.198438 0.220755,-0.170616 0.441237,-0.341489 0.661458,-0.512631 -0.0052,-1.041553 -0.01077,-2.083329 -0.01654,-3.12539 0.07744,-0.01076 0.154604,-0.02178 0.231511,-0.03307 0.512905,-0.0052 1.025525,-0.01076 1.53789,-0.01654 0.127048,-0.148566 0.253823,-0.297391 0.380339,-0.446484 -0.01077,-0.2533 -0.02178,-0.506854 -0.03307,-0.760677 -0.02177,2.64e-4 -0.04383,2.64e-4 -0.06615,0 -0.09896,2.64e-4 -0.198173,2.64e-4 -0.297656,0 -0.380082,0.01129 -0.760412,0.02231 -1.141016,0.03307 -0.132029,-0.09344 -0.264318,-0.187149 -0.396875,-0.28112 -0.07691,-0.154079 -0.154074,-0.308416 -0.23151,-0.463021 0.0168,-0.391106 0.03334,-0.782461 0.04961,-1.174088 0.03334,-0.0052 0.06641,-0.01076 0.09922,-0.01654 0.04436,-0.01076 0.08846,-0.02178 0.132292,-0.03307 0.700323,-0.01627 1.400352,-0.03281 2.10013,-0.04961 0.13807,-0.137542 0.275873,-0.275343 0.413411,-0.413412 0.0113,-0.236762 0.02231,-0.47378 0.03307,-0.711067 -0.04383,2.64e-4 -0.08793,2.64e-4 -0.132291,0 -0.148566,-0.0052 -0.297392,-0.01076 -0.446485,-0.01654 -1.124238,0.0168 -2.248693,0.03334 -3.373437,0.04961 2.64e-4,0.03885 2.64e-4,0.07743 0,0.115755 -0.04935,2.458734 -0.09895,4.917105 -0.148828,7.37526 z" />
    <path
       style="fill:#5692d0;fill-opacity:1;stroke:none;stroke-width:0.3;stroke-linecap:butt;stroke-linejoin:miter;stroke-miterlimit:4;stroke-dasharray:none;stroke-opacity:1"
       d="m 92.495313,-23.939449 c 0.292304,-1.290035 0.876957,-3.8703 1.200599,-5.164442 0.323643,-1.294142 0.386007,-1.301939 0.578963,-1.305823 0.192956,-0.0039 0.516457,-0.0039 0.695776,0.002 0.179319,0.0059 0.214398,0.01759 0.25522,0.0937 0.04082,0.07611 0.08759,0.216426 0.352631,1.161629 0.265037,0.945203 0.748339,2.695227 1.005693,3.572067 0.257354,0.876839 0.288535,0.880735 0.430783,0.878763 0.142248,-0.002 0.395593,-0.0098 0.531886,-0.02341 0.136294,-0.01364 0.155774,-0.03312 0.414948,-0.958748 0.259175,-0.925627 0.758068,-2.7575 1.015313,-3.700739 0.257245,-0.943239 0.272836,-0.997811 0.329499,-1.02909 0.05666,-0.03128 0.154103,-0.03907 0.35875,-0.03906 0.204646,1.4e-5 0.516466,0.0078 0.693816,0.02544 0.17735,0.01763 0.22024,0.04492 0.53389,1.317598 0.31365,1.272678 0.89829,3.790529 1.13989,5.12536 0.2416,1.334832 0.14027,1.48684 0.0176,1.588124 -0.12268,0.101283 -0.26689,0.151951 -0.42077,0.124792 -0.15389,-0.02716 -0.31759,-0.132394 -0.458,-0.342811 -0.14041,-0.210416 -0.25734,-0.526123 -0.42108,-1.303732 -0.16374,-0.777609 -0.37421,-2.017047 -0.50074,-2.642732 -0.12654,-0.625685 -0.16944,-0.637385 -0.31757,-0.645218 -0.148131,-0.0078 -0.401479,-0.01173 -0.540006,0.0078 -0.138528,0.01953 -0.161914,0.06241 -0.187252,0.116997 -0.02534,0.05459 -0.05262,0.120846 -0.343002,0.954977 -0.290382,0.834131 -0.843841,2.436045 -1.157462,3.240827 -0.313621,0.804782 -0.387676,0.812579 -0.75217,-0.03501 -0.364495,-0.84759 -1.019292,-2.550843 -1.358298,-3.404568 -0.339006,-0.853725 -0.362397,-0.857623 -0.524175,-0.85765 -0.161779,-2.7e-5 -0.461894,0.0039 -0.62574,0.02338 -0.163847,0.01951 -0.191129,0.05458 -0.335351,0.82643 -0.144222,0.771845 -0.405361,2.280217 -0.596323,3.088874 -0.190962,0.808657 -0.311787,0.91779 -0.463659,0.960689 -0.151872,0.0429 -0.335059,0.01951 -0.481244,-0.05248 -0.146186,-0.07199 -0.255319,-0.192814 -0.310011,-0.253367 -0.05469,-0.06055 -0.05469,-0.06055 0.237616,-1.350584 z"
       id="path871"
       inkscape:path-effect="#path-effect873"
       inkscape:original-d="m 92.203009,-22.649414 c 0.584917,-2.58 1.169569,-5.160265 1.753957,-7.740794 0.06263,-0.0075 0.124989,-0.01533 0.187087,-0.02339 0.323778,2.64e-4 0.647279,2.64e-4 0.970523,0 0.03534,0.01196 0.07042,0.02365 0.105238,0.03508 0.04704,0.140584 0.09381,0.280897 0.140317,0.420949 0.483587,1.750358 0.966888,3.500382 1.449935,5.250176 0.03145,0.0042 0.06263,0.0081 0.09355,0.01169 0.253619,-0.0075 0.506963,-0.01533 0.760047,-0.02339 0.01977,-0.01922 0.03924,-0.03871 0.05846,-0.05846 0.499179,-1.831682 0.998072,-3.663555 1.496708,-5.49573 0.01585,-0.0543 0.03145,-0.10887 0.04677,-0.163702 0.09771,-0.0075 0.195149,-0.01533 0.292325,-0.02339 0.312087,0.0081 0.623904,0.01585 0.935454,0.02339 0.0431,0.02755 0.086,0.05483 0.12862,0.08185 0.58493,2.518217 1.16957,5.036068 1.75395,7.553705 -0.10107,0.152277 -0.20241,0.304283 -0.30401,0.456028 -0.14396,0.05094 -0.28817,0.101605 -0.43265,0.15201 -0.16344,-0.104975 -0.32714,-0.21021 -0.49111,-0.315712 -0.11666,-0.315454 -0.23359,-0.63116 -0.35079,-0.947137 -0.21021,-1.239222 -0.42068,-2.47866 -0.63142,-3.718387 -0.0426,-0.01143 -0.0855,-0.02312 -0.12862,-0.03508 -0.253096,-0.0036 -0.506443,-0.0075 -0.760057,-0.01169 -0.02312,0.04314 -0.04651,0.08601 -0.07016,0.128624 -0.02702,0.06653 -0.0543,0.132785 -0.08185,0.198781 -0.553217,1.602244 -1.106675,3.204158 -1.660411,4.80584 -0.07379,0.0081 -0.147849,0.01586 -0.222168,0.02339 -0.654558,-1.703056 -1.309357,-3.406308 -1.964431,-5.109859 -0.02312,-0.0036 -0.04651,-0.0075 -0.07016,-0.01169 -0.299863,0.0042 -0.599978,0.0081 -0.900364,0.01169 -0.02702,0.03534 -0.0543,0.07042 -0.08185,0.105237 -0.260884,1.508697 -0.522025,3.017069 -0.783434,4.525207 -0.120565,0.109402 -0.24139,0.218535 -0.362484,0.327405 -0.18293,-0.02312 -0.366117,-0.04651 -0.549571,-0.07016 -0.108874,-0.120566 -0.218007,-0.241392 -0.327406,-0.362484 z" />
    <path
       style="fill:#5692d0;fill-opacity:1;stroke:none;stroke-width:0.3;stroke-linecap:butt;stroke-linejoin:miter;stroke-miterlimit:4;stroke-dasharray:none;stroke-opacity:1"
       d="m 108.2218,-30.349125 c 0.9372,-0.0055 2.81133,-0.01654 3.7455,-0.01096 0.93417,0.0056 0.92865,0.0277 0.92593,0.198612 -0.003,0.170914 -0.003,0.490613 -0.0689,0.716481 -0.0661,0.225867 -0.19843,0.358153 -0.55384,0.427055 -0.3554,0.0689 -0.93417,0.07442 -1.21815,0.107643 -0.28397,0.03323 -0.27294,0.09385 -0.26468,0.15174 0.008,0.05789 0.0138,0.112985 0.0137,1.132739 -1e-5,1.019754 -0.006,3.004089 -0.10195,4.070547 -0.0964,1.066457 -0.28385,1.215283 -0.47114,1.218164 -0.18728,0.0029 -0.37469,-0.140432 -0.4905,-0.250626 -0.11581,-0.110194 -0.15991,-0.187362 -0.1848,-1.245746 -0.0249,-1.058384 -0.0304,-3.09784 -0.0716,-4.117721 -0.0412,-1.019881 -0.11838,-1.019881 -0.40225,-1.0309 -0.28388,-0.01102 -0.77445,-0.03307 -1.07763,-0.104599 -0.30318,-0.07153 -0.41893,-0.192795 -0.50722,-0.410514 -0.0883,-0.217719 -0.14893,-0.531901 -0.17928,-0.68915 -0.0303,-0.157248 -0.0305,-0.157255 0.90675,-0.162767 z"
       id="path875"
       inkscape:path-effect="#path-effect877"
       inkscape:original-d="m 107.2846,-30.343613 c 1.8744,-0.01076 3.74853,-0.02178 5.6224,-0.03307 -0.005,0.02231 -0.0108,0.04436 -0.0165,0.06615 2.7e-4,0.319976 2.7e-4,0.639675 0,0.959115 -0.13203,0.132559 -0.26431,0.264848 -0.39687,0.396875 -0.57852,0.0058 -1.15729,0.01129 -1.73633,0.01654 0.0113,0.0609 0.0223,0.121532 0.0331,0.181901 0.006,0.05539 0.0113,0.110508 0.0165,0.165365 -0.005,1.984679 -0.0108,3.969014 -0.0165,5.953125 -0.18715,0.149095 -0.37456,0.297921 -0.56224,0.446484 -0.18715,-0.143054 -0.37456,-0.286367 -0.56224,-0.429948 -0.0438,-0.07691 -0.0879,-0.154075 -0.13229,-0.23151 -0.005,-2.039273 -0.0108,-4.078729 -0.0165,-6.11849 -0.0769,2.65e-4 -0.15408,2.65e-4 -0.23151,0 -0.49033,-0.02179 -0.9809,-0.04383 -1.47175,-0.06615 -0.11549,-0.121005 -0.23124,-0.24227 -0.34726,-0.363802 -0.0604,-0.313934 -0.12101,-0.628121 -0.18191,-0.942578 z" />
    <path
       style="fill:#5692d0;fill-opacity:1;stroke:none;stroke-width:0.3;stroke-linecap:butt;stroke-linejoin:miter;stroke-miterlimit:4;stroke-dasharray:none;stroke-opacity:1"
       d="m 115.04678,-28.217103 c 0.0652,-0.06932 0.19555,-0.208046 0.34983,-0.183628 0.15429,0.02442 0.33222,0.211657 0.39143,0.342258 0.0592,0.1306 -4e-5,0.204756 -0.0541,0.27854 -0.0541,0.07379 -0.10278,0.146988 -0.12853,0.175842 -0.0257,0.02885 -0.0284,0.01277 -0.0851,-0.04372 -0.0567,-0.05649 -0.16757,-0.153308 -0.26169,-0.212062 -0.0941,-0.05875 -0.17143,-0.07923 -0.21488,-0.120705 -0.0435,-0.04147 -0.0528,-0.104211 -0.0575,-0.135703 -0.005,-0.03149 -0.005,-0.03149 0.0605,-0.100817 z"
       id="path883"
       inkscape:path-effect="#path-effect885"
       inkscape:original-d="m 114.98162,-28.147779 c 0.13059,-0.138392 0.26098,-0.277113 0.39107,-0.416066 0.17822,0.187522 0.35615,0.374765 0.53385,0.561773 -0.059,0.07443 -0.11825,0.148589 -0.17778,0.222489 -0.0486,0.07362 -0.0973,0.146839 -0.14648,0.220074 -0.002,-0.01583 -0.005,-0.03186 -0.008,-0.04819 -0.11067,-0.09659 -0.22155,-0.193408 -0.33274,-0.290518 -0.0771,-0.02023 -0.1544,-0.04071 -0.23197,-0.06146 -0.009,-0.06242 -0.0184,-0.12515 -0.028,-0.188101 z"
       sodipodi:nodetypes="ccccccccc" />
    <path
       style="fill:#5692d0;fill-opacity:1;stroke:none;stroke-width:0.3;stroke-linecap:butt;stroke-linejoin:miter;stroke-miterlimit:4;stroke-dasharray:none;stroke-opacity:1"
       d="m 124.08422,-29.956597 c 0.14629,9.67e-4 0.43862,0.0029 0.5906,0.01377 0.15198,0.01087 0.16368,0.03036 0.37508,0.71441 0.21141,0.684049 0.62261,2.032621 0.89848,2.728247 0.27587,0.695626 0.41618,0.738498 0.63247,0.746235 0.21628,0.0077 0.5086,-0.01955 0.65077,-0.03705 0.14217,-0.0175 0.1346,-0.02507 0.27573,-0.535728 0.14113,-0.510661 0.4315,-1.524036 0.63298,-2.2084 0.20148,-0.684363 0.31406,-1.039668 0.43664,-1.225689 0.12258,-0.18602 0.25487,-0.202557 0.46988,-0.205294 0.215,-0.0027 0.51265,0.0083 0.68895,0.09664 0.17631,0.08835 0.23143,0.25371 0.4271,0.962031 0.19567,0.708322 0.53191,1.959554 0.71941,2.587802 0.1875,0.628247 0.22609,0.633763 0.30326,0.6365 0.0772,0.0027 0.19293,0.0027 0.38585,-0.0055 0.19291,-0.0083 0.463,-0.02481 0.60617,-0.0578 0.14316,-0.03299 0.15969,-0.08258 0.17072,-0.137679 0.011,-0.0551 0.0165,-0.115714 0.19842,-0.788239 0.18189,-0.672524 0.54017,-1.956828 0.77731,-2.615646 0.23713,-0.658817 0.35288,-0.691889 0.50728,-0.702881 0.15439,-0.01099 0.34731,3.1e-5 0.46579,0.03877 0.11848,0.03874 0.16258,0.104885 0.18176,0.201308 0.0192,0.09642 0.0137,0.223213 -0.35014,1.496503 -0.36382,1.27329 -1.0859,3.693073 -1.52681,4.952493 -0.44091,1.259419 -0.60076,1.358637 -0.73847,1.40827 -0.13771,0.04963 -0.25346,0.04963 -0.44918,-0.176215 -0.19573,-0.225848 -0.47133,-0.677834 -0.72495,-1.3834 -0.25362,-0.705566 -0.48512,-1.66466 -0.60637,-2.158001 -0.12125,-0.49334 -0.13228,-0.520889 -0.15148,-0.540275 -0.0192,-0.01938 -0.0468,-0.03042 -0.0771,-0.03599 -0.0303,-0.0056 -0.0634,-0.0056 -0.2839,-0.0028 -0.22047,0.0028 -0.62836,0.0083 -0.83521,0.02489 -0.20685,0.01662 -0.21236,0.04424 -0.22339,0.07727 -0.011,0.03303 -0.0276,0.07161 -0.23702,0.735852 -0.20946,0.664244 -0.61184,1.954065 -0.89014,2.645734 -0.27831,0.69167 -0.43264,0.785372 -0.57584,0.804754 -0.1432,0.01938 -0.27548,-0.03574 -0.4354,-0.212043 -0.15991,-0.176305 -0.34732,-0.473951 -0.78835,-1.736253 -0.44103,-1.262301 -1.13555,-3.489167 -1.45239,-4.667924 -0.31683,-1.178757 -0.25584,-1.309131 -0.22531,-1.374383 0.0305,-0.06525 0.0305,-0.0652 0.17683,-0.06423 z"
       id="path887"
       inkscape:path-effect="#path-effect889"
       inkscape:original-d="m 123.93792,-29.957565 c 0.29259,0.0022 0.58492,0.0042 0.87698,0.0058 0.012,0.01975 0.0237,0.03924 0.0351,0.05846 0.41148,1.348889 0.82268,2.69746 1.23362,4.045793 0.14058,0.04314 0.28089,0.08601 0.42095,0.128623 0.29259,-0.02702 0.58491,-0.0543 0.87697,-0.08185 -0.008,-0.0075 -0.0153,-0.01533 -0.0234,-0.02339 0.29065,-1.013153 0.58102,-2.026529 0.87114,-3.04019 0.11285,-0.355055 0.22543,-0.71036 0.33775,-1.065936 0.13256,-0.01627 0.26485,-0.03281 0.39688,-0.04961 0.29793,0.01129 0.59558,0.02231 0.89297,0.03307 0.0554,0.165633 0.11051,0.330994 0.16536,0.496094 0.33652,1.251548 0.67275,2.502782 1.00873,3.753776 0.0388,0.0058 0.0774,0.01129 0.11575,0.01654 0.11602,2.64e-4 0.23178,2.64e-4 0.34727,0 0.27036,-0.01627 0.54045,-0.03281 0.81028,-0.04961 0.0168,-0.04935 0.0333,-0.09895 0.0496,-0.148828 0.006,-0.06037 0.0113,-0.121003 0.0165,-0.181901 0.35856,-1.284093 0.71684,-2.568398 1.07487,-3.852995 0.11602,-0.03281 0.23177,-0.06588 0.34726,-0.09922 0.1932,0.01129 0.38612,0.02231 0.57878,0.03307 0.0444,0.06641 0.0885,0.132556 0.13229,0.198437 -0.005,0.127047 -0.0108,0.253824 -0.0165,0.380339 -0.72185,2.420148 -1.44392,4.839934 -2.16628,7.259505 -0.15959,0.09948 -0.31944,0.198702 -0.47956,0.297656 -0.11549,2.65e-4 -0.23124,2.65e-4 -0.34726,0 -0.27535,-0.451741 -0.55095,-0.903729 -0.82683,-1.35599 -0.23125,-0.958869 -0.46275,-1.917964 -0.69453,-2.877343 -0.0108,-0.0273 -0.0218,-0.05486 -0.0331,-0.08268 -0.0273,-0.01076 -0.0549,-0.02178 -0.0827,-0.03307 -0.0328,2.65e-4 -0.0659,2.65e-4 -0.0992,0 -0.40764,0.0058 -0.81553,0.01129 -1.2237,0.01654 -0.005,0.02783 -0.0108,0.05539 -0.0165,0.08268 -0.0163,0.03885 -0.0328,0.07744 -0.0496,0.115755 -0.40213,1.290134 -0.80452,2.579952 -1.20717,3.869532 -0.15408,0.09397 -0.30841,0.187677 -0.46302,0.281119 -0.13203,-0.05486 -0.26432,-0.109978 -0.39687,-0.165364 -0.18716,-0.297398 -0.37456,-0.595048 -0.56224,-0.892969 -0.69428,-2.22669 -1.3888,-4.453555 -2.0836,-6.680729 0.0613,-0.130127 0.12227,-0.260513 0.18301,-0.391166 z" />
    <path
       style="fill:#5692d0;fill-opacity:1;stroke:none;stroke-width:0.3;stroke-linecap:butt;stroke-linejoin:miter;stroke-miterlimit:4;stroke-dasharray:none;stroke-opacity:1"
       d="m 136.96008,-23.549647 c 0.008,-1.262717 0.0234,-3.788413 0.0507,-5.070871 0.0273,-1.282458 0.0663,-1.321448 0.17552,-1.352649 0.10925,-0.0312 0.28854,-0.05459 0.47567,-0.05065 0.18712,0.0039 0.382,0.03512 1.11476,0.752425 0.73275,0.717304 2.00337,2.120442 2.66204,2.817971 0.65867,0.69753 0.70547,0.689728 0.77567,0.689756 0.0702,2.9e-5 0.16375,0.0078 0.33133,8e-6 0.16757,-0.0078 0.40922,-0.0312 0.53381,-0.05838 0.12458,-0.02717 0.13239,-0.05838 0.1441,-0.147996 0.0117,-0.08962 0.0273,-0.237728 0.039,-0.900329 0.0117,-0.662601 0.0195,-1.839677 0.043,-2.436191 0.0235,-0.596513 0.0624,-0.612076 0.10137,-0.627663 0.039,-0.01559 0.078,-0.03119 0.30411,-0.03505 0.22614,-0.0039 0.63928,0.0039 0.84573,0.04304 0.20644,0.03911 0.20644,0.109262 0.21034,1.407215 0.004,1.297954 0.0117,3.823601 -0.0234,5.125297 -0.0351,1.301695 -0.11303,1.379646 -0.19096,1.445889 -0.0779,0.06624 -0.15588,0.120808 -0.26488,0.128663 -0.10901,0.0079 -0.24932,-0.03112 -0.40134,-0.105121 -0.15202,-0.074 -0.31572,-0.183133 -0.47165,-0.31562 -0.15593,-0.132486 -0.30404,-0.28839 -0.98225,-1.052346 -0.67822,-0.763955 -1.88647,-2.135913 -2.51789,-2.822044 -0.63141,-0.686131 -0.68598,-0.686131 -0.84579,-0.690025 -0.1598,-0.0039 -0.42483,-0.01169 -0.56531,0.02738 -0.14048,0.03907 -0.15608,0.124824 -0.17556,0.888812 -0.0195,0.763988 -0.0429,2.206101 -0.12084,2.993305 -0.078,0.787203 -0.21048,0.919723 -0.35457,0.989875 -0.1441,0.07015 -0.29999,0.07795 -0.452,0.004 -0.15201,-0.07391 -0.30012,-0.229823 -0.37431,-0.307911 -0.0742,-0.07809 -0.0742,-0.0781 -0.0664,-1.340821 z"
       id="path891"
       inkscape:path-effect="#path-effect893"
       inkscape:original-d="m 136.95228,-22.28693 c 0.0159,-2.525432 0.0314,-5.051129 0.0468,-7.577091 0.0392,-0.03871 0.0782,-0.07769 0.11693,-0.11693 0.17956,-0.02312 0.35885,-0.04651 0.53788,-0.07016 0.19515,0.03145 0.39003,0.06263 0.58465,0.09355 1.27094,1.403457 2.54156,2.806594 3.81193,4.209495 0.047,-0.0075 0.0938,-0.01533 0.14032,-0.02339 0.0938,0.0081 0.18736,0.01585 0.28063,0.02339 0.24193,-0.02312 0.48358,-0.04651 0.72497,-0.07016 0.008,-0.03092 0.0159,-0.0621 0.0234,-0.09354 0.0159,-0.14785 0.0315,-0.295959 0.0468,-0.444335 0.008,-1.176859 0.0158,-2.353935 0.0234,-3.531299 0.0393,-0.01533 0.0782,-0.03092 0.11694,-0.04677 0.0392,-0.01533 0.0782,-0.03092 0.11693,-0.04677 0.41342,0.0081 0.82657,0.01586 1.23946,0.02339 2.6e-4,0.07043 2.6e-4,0.140581 0,0.210475 0.008,2.526012 0.0159,5.051659 0.0234,7.577091 -0.0777,0.07822 -0.15565,0.156172 -0.23386,0.233861 -0.0777,0.05483 -0.15565,0.109399 -0.23386,0.163702 -0.14006,-0.03871 -0.28037,-0.07769 -0.42095,-0.11693 -0.16345,-0.108873 -0.32715,-0.218006 -0.49111,-0.327405 -0.14785,-0.155646 -0.29596,-0.31155 -0.44434,-0.467722 -1.20804,-1.371746 -2.4163,-2.743702 -3.62484,-4.115951 -0.0543,2.65e-4 -0.10887,2.65e-4 -0.1637,0 -0.26479,-0.0075 -0.52982,-0.01533 -0.79513,-0.02339 -0.0153,0.08601 -0.0309,0.171762 -0.0468,0.257247 -0.0231,1.442435 -0.0465,2.884548 -0.0702,4.326425 -0.13226,0.132789 -0.26478,0.265307 -0.39756,0.397564 -0.15565,0.0081 -0.31155,0.01585 -0.46773,0.02339 -0.14784,-0.155645 -0.29596,-0.31155 -0.44433,-0.467721 z" />
    <path
       style="fill:#5692d0;fill-opacity:1;stroke:none;stroke-width:0.3;stroke-linecap:butt;stroke-linejoin:miter;stroke-miterlimit:4;stroke-dasharray:none;stroke-opacity:1"
       d="m 147.43325,-23.421172 c 0.0742,-0.01171 0.22227,-0.0351 0.45229,0.03516 0.23002,0.07026 0.54183,0.233961 0.79128,0.339153 0.24945,0.105192 0.43654,0.151964 0.61188,0.159701 0.17534,0.0077 0.33904,-0.02344 0.49485,-0.109177 0.15581,-0.08573 0.30392,-0.22605 0.44032,-0.381932 0.1364,-0.155882 0.26112,-0.327375 0.32739,-0.49877 0.0663,-0.171396 0.0741,-0.342894 0.0897,-0.541688 0.0156,-0.198793 0.039,-0.424844 -0.008,-0.619701 -0.0466,-0.194856 -0.16358,-0.358557 -0.31554,-0.48336 -0.15196,-0.124803 -0.33905,-0.210551 -0.6041,-0.27297 -0.26506,-0.06242 -0.60805,-0.101395 -0.92765,-0.183196 -0.3196,-0.0818 -0.61582,-0.206525 -0.84971,-0.362363 -0.2339,-0.155837 -0.40539,-0.342926 -0.5302,-0.568975 -0.1248,-0.226049 -0.20275,-0.491083 -0.24567,-0.756156 -0.0429,-0.265074 -0.0507,-0.530096 -0.0391,-0.740605 0.0117,-0.210508 0.0428,-0.366418 0.10517,-0.545754 0.0624,-0.179335 0.1559,-0.382017 0.28845,-0.56527 0.13255,-0.183252 0.30405,-0.346955 0.47948,-0.483394 0.17543,-0.136439 0.35472,-0.245572 0.56528,-0.311822 0.21056,-0.06625 0.45221,-0.08964 0.81082,-0.09742 0.3586,-0.0078 0.83411,1.6e-5 1.17323,0.01952 0.33911,0.01951 0.54178,0.05069 0.70938,0.128749 0.16759,0.07806 0.3001,0.202779 0.40532,0.311926 0.10522,0.109147 0.18317,0.202699 0.22594,0.307933 0.0428,0.105234 0.0506,0.222169 0.0505,0.311818 -3e-5,0.08965 -0.008,0.151948 -0.0583,0.183017 -0.0505,0.03107 -0.14406,0.03107 -0.28827,0.02329 -0.1442,-0.0078 -0.33908,-0.02337 -0.68209,-0.03897 -0.34301,-0.0156 -0.83411,-0.03119 -1.17715,-0.01562 -0.34304,0.01556 -0.53791,0.06234 -0.69386,0.113001 -0.15595,0.05067 -0.27287,0.105231 -0.35479,0.350934 -0.0819,0.245702 -0.1287,0.682238 -0.0623,0.966759 0.0664,0.284522 0.2457,0.417042 0.49517,0.557327 0.24947,0.140285 0.56907,0.288392 0.88479,0.432605 0.31571,0.144213 0.62752,0.284527 0.93154,0.444354 0.30402,0.159828 0.60024,0.339119 0.83015,0.541856 0.22992,0.202737 0.39362,0.428798 0.51438,0.68995 0.12077,0.261152 0.19872,0.557375 0.22985,0.806792 0.0311,0.249417 0.0155,0.452093 -0.0469,0.666403 -0.0624,0.21431 -0.17152,0.440371 -0.28454,0.627424 -0.11302,0.187053 -0.22995,0.335162 -0.46375,0.494925 -0.23379,0.159764 -0.58457,0.331257 -0.88464,0.43261 -0.30007,0.101352 -0.54951,0.132534 -0.87691,0.167617 -0.32741,0.03508 -0.73276,0.07406 -1.07963,0.07798 -0.34688,0.0039 -0.6353,-0.02725 -0.87304,-0.09344 -0.23775,-0.06619 -0.42484,-0.16753 -0.54569,-0.245435 -0.12085,-0.0779 -0.17542,-0.132475 -0.21062,-0.241599 -0.0352,-0.109123 -0.0508,-0.272822 -0.0586,-0.409255 -0.008,-0.136433 -0.008,-0.245566 0.0234,-0.343112 0.0312,-0.09755 0.0935,-0.183304 0.12473,-0.226202 0.0312,-0.0429 0.0312,-0.04291 0.10541,-0.05462 z"
       id="path895"
       inkscape:path-effect="#path-effect897"
       inkscape:original-d="m 147.35909,-23.409462 c 0.14837,-0.02312 0.29648,-0.04651 0.44433,-0.07016 0.31209,0.16397 0.6239,0.327669 0.93544,0.491108 0.18736,0.04704 0.37445,0.09381 0.56127,0.140316 0.16397,-0.03092 0.32767,-0.0621 0.49111,-0.09354 0.14838,-0.140055 0.29649,-0.280369 0.44433,-0.42095 0.125,-0.171237 0.24972,-0.342731 0.37418,-0.514494 0.008,-0.171237 0.0159,-0.342731 0.0234,-0.514493 0.0237,-0.225806 0.047,-0.451867 0.0702,-0.678197 -0.11667,-0.163441 -0.2336,-0.32714 -0.35079,-0.491108 -0.18683,-0.08549 -0.37392,-0.171233 -0.56127,-0.257246 -0.34274,-0.03871 -0.68573,-0.07769 -1.02899,-0.116931 -0.29596,-0.124464 -0.59218,-0.249187 -0.88867,-0.374177 -0.17123,-0.186828 -0.34273,-0.373913 -0.51449,-0.561266 -0.0777,-0.264783 -0.15564,-0.52982 -0.23386,-0.795127 -0.008,-0.264783 -0.0153,-0.52982 -0.0234,-0.795127 0.0314,-0.155646 0.0626,-0.31155 0.0935,-0.467721 0.0938,-0.202419 0.18736,-0.405095 0.28064,-0.608039 0.17176,-0.163441 0.34326,-0.32714 0.51449,-0.491108 0.17956,-0.108872 0.35885,-0.218005 0.53788,-0.327405 0.24193,-0.02312 0.48358,-0.04651 0.72497,-0.07016 0.47579,0.0081 0.9513,0.01586 1.42655,0.02339 0.20295,0.03145 0.40562,0.06263 0.60804,0.09354 0.13279,0.124993 0.2653,0.249716 0.39756,0.374177 0.0782,0.09381 0.15617,0.187353 0.23386,0.280633 0.008,0.117197 0.0159,0.234125 0.0234,0.350791 -0.008,0.06263 -0.0153,0.124991 -0.0234,0.187089 -0.0933,2.65e-4 -0.18682,2.65e-4 -0.28063,0 -0.19462,-0.01533 -0.3895,-0.03092 -0.58465,-0.04677 -0.49086,-0.01533 -0.98196,-0.03092 -1.47333,-0.04677 -0.19462,0.04704 -0.3895,0.09381 -0.58465,0.140316 -0.11667,0.05483 -0.23359,0.1094 -0.35079,0.163703 -0.0465,0.436813 -0.0933,0.873345 -0.14031,1.30962 0.17955,0.132789 0.35884,0.265307 0.53787,0.397564 0.31989,0.148379 0.63949,0.296488 0.95883,0.444335 0.31209,0.140584 0.6239,0.280898 0.93545,0.42095 0.29649,0.179561 0.59271,0.358851 0.88867,0.53788 0.16397,0.226334 0.32767,0.452395 0.49111,0.678196 0.0782,0.296494 0.15617,0.592712 0.23386,0.888671 -0.0153,0.202948 -0.0309,0.405624 -0.0468,0.608038 -0.10887,0.226335 -0.218,0.452396 -0.3274,0.678197 -0.11667,0.14838 -0.2336,0.296488 -0.35079,0.444336 -0.35054,0.171765 -0.70132,0.34326 -1.05237,0.514493 -0.2492,0.03145 -0.49864,0.06263 -0.74836,0.09355 -0.4051,0.03924 -0.81045,0.07822 -1.21608,0.11693 -0.28817,-0.03092 -0.57659,-0.0621 -0.86528,-0.09354 -0.18683,-0.101077 -0.37392,-0.202415 -0.56127,-0.304019 -0.0543,-0.0543 -0.10887,-0.108871 -0.1637,-0.163703 -0.0153,-0.163441 -0.0309,-0.32714 -0.0468,-0.491108 2.6e-4,-0.108872 2.6e-4,-0.218005 0,-0.327405 0.0626,-0.08549 0.12499,-0.171233 0.18709,-0.257247 z" />
  </g>
</svg>
