<!DOCTYPE svg PUBLIC "-//W3C//DTD SVG 20010904//EN" "http://www.w3.org/TR/2001/REC-SVG-20010904/DTD/svg10.dtd">
<svg version="1.0" xmlns="http://www.w3.org/2000/svg" width="999px" height="370px" viewBox="0 0 9990 3700" preserveAspectRatio="xMidYMid meet">
<g id="layer101" fill="#000000" stroke="none">
 <path d="M8130 3688 c0 -12 195 -835 205 -865 3 -8 -23 -10 -93 -6 -302 17 -694 -130 -959 -358 -200 -172 -335 -424 -372 -693 -26 -183 -8 -441 44 -640 43 -166 48 -168 56 -31 19 296 72 512 166 670 158 263 366 386 658 386 190 1 329 -44 467 -151 154 -119 350 -427 492 -774 9 -22 18 -37 21 -34 2 2 -62 321 -143 709 -111 526 -145 705 -135 707 20 5 158 -35 248 -73 372 -154 610 -451 680 -849 62 -359 -3 -696 -184 -959 -55 -79 -215 -242 -325 -332 -143 -116 -312 -229 -505 -336 -58 -32 -98 -59 -88 -59 29 0 256 76 389 131 157 65 340 160 465 242 387 256 644 633 743 1093 17 77 23 147 27 311 8 300 -18 487 -99 722 -203 590 -725 1027 -1391 1166 -151 32 -367 46 -367 23z"/>
 <path d="M112 3343 c-50 -25 -89 -75 -102 -135 -13 -60 -20 -17 126 -847 93 -533 99 -554 184 -641 83 -84 47 -80 668 -80 l549 0 -63 317 c-35 175 -64 321 -64 327 0 5 17 -17 38 -50 43 -66 93 -113 155 -146 39 -21 56 -23 255 -26 198 -3 212 -5 212 -22 0 -10 3 -25 6 -34 5 -14 -22 -16 -243 -18 l-250 -3 34 -150 c18 -82 35 -160 38 -172 l5 -23 443 0 c492 0 492 0 550 69 36 44 61 131 53 190 -3 25 -44 207 -91 403 -91 381 -101 433 -91 472 7 26 52 86 66 86 5 0 2 -17 -7 -37 -34 -81 -24 -168 65 -563 45 -201 86 -381 92 -400 24 -85 108 -175 193 -207 22 -8 153 -12 435 -12 385 -1 405 0 442 19 48 25 90 84 97 140 3 22 9 42 13 45 8 5 70 -259 70 -299 0 -57 -39 -115 -108 -165 -36 -25 -77 -56 -91 -68 l-26 -22 368 -1 c399 0 395 -1 449 57 61 64 72 164 35 305 l-24 87 34 -29 c18 -17 51 -39 73 -50 37 -19 59 -20 446 -20 l406 0 -6 23 c-3 12 -22 91 -42 175 l-36 152 -179 0 c-98 0 -179 2 -179 4 0 2 -27 117 -60 256 -33 139 -60 259 -60 266 0 20 230 20 268 0 33 -17 75 -61 132 -138 41 -56 43 -64 86 -270 28 -134 54 -233 70 -266 32 -66 107 -142 171 -173 l48 -24 396 0 396 0 48 30 c33 21 57 47 78 83 50 90 48 127 -27 537 -86 464 -82 449 -107 497 -29 58 -108 131 -176 165 l-58 28 -353 3 c-220 2 -367 -1 -391 -8 -51 -13 -119 -60 -152 -104 l-27 -37 -26 45 c-15 25 -43 58 -63 73 l-36 28 -709 3 c-775 3 -736 5 -793 -56 -14 -15 -28 -37 -31 -49 -8 -32 -15 -29 -46 22 -16 27 -42 52 -67 64 -40 21 -53 21 -807 21 -743 0 -769 -1 -808 -20 -23 -11 -48 -31 -57 -45 l-15 -26 -27 21 c-64 51 -115 65 -237 65 -137 0 -197 -17 -262 -75 -40 -34 -54 -58 -85 -139 -7 -19 -16 12 -45 152 -43 209 -69 267 -150 342 -102 95 -102 95 -576 95 -353 0 -411 -3 -440 -17z m4243 -534 c-4 -5 -10 -31 -15 -57 -6 -38 -8 -41 -9 -15 -1 32 14 83 24 83 4 0 3 -5 0 -11z m1711 -519 c29 -135 51 -247 49 -249 -19 -19 -36 30 -79 235 -26 126 -50 237 -53 247 -4 14 0 18 13 15 14 -2 27 -47 70 -248z m-2477 206 c15 -8 47 -36 72 -63 l44 -48 -259 -3 c-142 -1 -260 -1 -262 1 -2 2 -10 31 -18 65 l-14 62 204 0 c158 0 211 -3 233 -14z m-1596 -71 l6 -40 -14 30 c-15 33 -21 92 -6 65 5 -8 11 -33 14 -55z m-1198 -27 c35 -195 63 -373 60 -377 -19 -18 -35 26 -69 185 -21 99 -40 189 -43 202 -4 18 -1 22 20 22 22 0 27 -6 32 -32z m2543 -365 c3 -18 -2 -23 -18 -23 -28 0 -56 16 -64 35 -5 13 1 16 37 13 35 -2 43 -7 45 -25z"/>
 </g>
<g id="layer102" fill="#71a321" stroke="none">
 <path d="M8210 3636 c0 -2 50 -209 110 -461 61 -252 110 -461 110 -466 0 -4 -21 2 -47 14 -43 20 -64 22 -193 22 -123 -1 -161 -5 -251 -27 -320 -81 -630 -277 -776 -493 -153 -227 -225 -534 -198 -840 l9 -90 8 55 c59 378 181 605 398 745 145 93 244 119 455 120 141 0 169 -3 235 -23 234 -74 410 -225 539 -462 22 -41 41 -72 41 -69 0 3 -47 232 -105 509 -58 277 -105 507 -105 511 0 21 147 -4 278 -48 378 -125 650 -391 767 -748 67 -205 87 -519 46 -722 -39 -190 -120 -370 -236 -525 -76 -101 -244 -265 -345 -336 -79 -56 -84 -65 -17 -31 164 84 332 205 476 344 282 273 441 575 502 960 17 104 17 414 0 535 -72 516 -320 919 -740 1201 -230 155 -490 257 -766 303 -101 16 -195 27 -195 22z"/>
 <path d="M140 3282 c-42 -23 -70 -73 -70 -127 0 -41 36 -275 44 -282 2 -2 9 12 16 31 6 20 23 45 38 56 25 20 36 21 294 18 l268 -3 26 -27 c20 -19 32 -48 45 -108 l17 -82 -34 40 c-19 22 -54 50 -79 62 -43 21 -56 22 -252 18 -196 -3 -210 -4 -244 -26 -40 -24 -69 -81 -69 -133 0 -29 104 -622 135 -769 8 -39 22 -85 31 -102 24 -46 95 -119 131 -134 26 -11 134 -14 528 -14 l495 0 -5 23 c-3 12 -61 301 -130 642 -69 341 -132 647 -140 680 -19 74 -72 155 -127 195 -78 57 -105 60 -512 60 -341 0 -374 -2 -406 -18z m700 -802 c6 -11 30 -135 54 -275 l43 -255 -61 0 c-74 0 -102 16 -115 68 -21 76 -91 415 -91 436 0 36 20 46 92 46 57 0 69 -3 78 -20z"/>
 <path d="M1587 2920 c-149 -26 -218 -118 -202 -270 24 -238 120 -435 247 -502 40 -21 56 -23 265 -26 l222 -4 10 -49 c15 -66 14 -116 -1 -126 -7 -4 -115 -10 -239 -13 l-225 -5 24 -112 25 -113 404 0 c382 0 406 1 442 20 27 13 46 33 61 65 32 65 25 118 -58 460 -107 442 -117 491 -102 544 7 27 28 62 57 92 l46 49 -239 -1 c-276 0 -300 -5 -328 -63 -16 -33 -17 -47 -9 -94 l10 -56 -19 25 c-76 96 -116 134 -162 155 -58 26 -159 37 -229 24z m422 -370 c10 -5 23 -22 29 -37 9 -22 42 -173 42 -189 0 -2 -24 -4 -53 -4 -43 0 -58 5 -75 23 -29 31 -42 70 -42 127 0 41 4 52 26 69 29 23 46 26 73 11z"/>
 <path d="M2756 2916 c-81 -30 -126 -106 -126 -214 0 -69 163 -808 189 -861 11 -20 36 -54 57 -74 67 -65 83 -67 499 -67 370 0 372 0 406 23 42 28 69 79 69 132 0 22 -23 136 -51 252 l-51 213 -312 2 -311 3 -17 75 c-20 92 -22 142 -6 158 17 17 484 16 515 -1 13 -7 41 -30 63 -51 23 -21 42 -37 45 -35 2 2 -9 77 -25 166 -29 172 -51 229 -103 267 -28 20 -40 21 -415 23 -310 2 -395 0 -426 -11z m628 -794 c2 -4 10 -36 17 -71 13 -62 13 -64 -10 -82 -31 -26 -115 -26 -157 0 -24 15 -34 32 -47 78 -10 33 -17 65 -17 71 0 14 205 18 214 4z"/>
 <path d="M3851 2917 c-40 -20 -64 -62 -69 -120 -3 -45 20 -153 133 -623 75 -313 137 -587 138 -609 2 -66 -12 -112 -48 -160 -19 -25 -35 -47 -35 -50 0 -3 114 -5 253 -5 232 0 254 2 284 20 18 10 40 34 49 52 34 66 26 112 -134 710 -103 382 -152 584 -152 619 0 60 21 110 61 143 16 14 29 27 29 30 0 3 -109 6 -242 6 -173 0 -250 -4 -267 -13z"/>
 <path d="M4550 2919 c-50 -15 -87 -45 -115 -93 -47 -80 -45 -93 64 -549 56 -230 107 -430 115 -445 20 -38 82 -98 121 -116 46 -22 740 -24 732 -2 -3 7 -16 59 -28 114 l-23 102 -180 2 -180 3 -71 305 c-39 168 -75 317 -78 333 l-7 27 167 0 c144 0 174 -3 210 -19 39 -18 133 -105 133 -123 0 -4 4 -8 9 -8 17 0 -77 339 -112 403 -41 73 -34 72 -397 74 -197 1 -339 -2 -360 -8z"/>
 <path d="M5605 2921 c-81 -21 -155 -91 -174 -165 -9 -38 -2 -85 69 -437 89 -437 100 -470 181 -543 82 -74 95 -76 483 -76 311 0 345 2 382 19 52 24 90 73 105 137 10 44 5 80 -50 379 -34 182 -68 364 -76 406 -7 42 -22 94 -33 116 -25 47 -94 113 -154 145 -42 23 -49 23 -373 25 -181 1 -343 -2 -360 -6z m455 -339 c18 -22 135 -564 127 -587 -5 -11 -22 -15 -71 -15 -57 0 -67 3 -80 23 -13 21 -126 532 -126 570 0 10 10 22 23 27 33 14 109 3 127 -18z"/>
 </g>
<g id="layer103" fill="#ffffff" stroke="none">
 <path d="M121 3264 c-52 -44 -57 -83 -31 -243 l23 -139 21 41 c16 30 33 46 57 54 41 14 454 17 514 3 66 -15 83 -44 111 -194 l7 -38 -44 47 c-69 75 -70 75 -311 75 -183 0 -218 -3 -248 -18 -49 -24 -73 -72 -72 -141 1 -52 119 -724 142 -811 15 -55 68 -130 118 -165 l44 -30 500 -3 501 -3 -7 42 c-25 159 -271 1332 -286 1366 -26 60 -97 132 -155 159 -50 24 -52 24 -452 24 l-401 0 -31 -26z m719 -779 c10 -12 99 -484 100 -527 0 -10 -132 -10 -145 0 -28 20 -39 56 -80 248 -47 217 -54 279 -32 287 6 3 42 6 78 6 48 1 70 -3 79 -14z"/>
 <path d="M1532 2901 c-100 -35 -142 -96 -142 -209 0 -245 128 -508 268 -550 25 -8 116 -12 250 -12 192 0 211 -2 216 -17 3 -10 10 -46 17 -81 10 -56 10 -64 -6 -82 -17 -19 -32 -20 -242 -20 -172 0 -223 -3 -223 -12 1 -7 11 -58 24 -113 l23 -100 374 -3 c417 -3 463 1 503 48 33 40 49 94 43 144 -3 22 -46 213 -96 423 -50 209 -91 400 -91 424 0 52 31 120 72 154 l30 25 -246 0 c-158 0 -254 -4 -269 -11 -40 -18 -50 -50 -45 -129 3 -39 2 -68 -2 -63 -3 4 -28 36 -54 70 -53 68 -102 106 -162 122 -61 17 -182 13 -242 -8z m493 -361 c17 -19 54 -159 55 -207 0 -20 -5 -23 -40 -23 -78 0 -121 43 -136 137 -6 42 13 96 38 106 29 12 66 6 83 -13z"/>
 <path d="M2732 2903 c-45 -22 -69 -56 -88 -121 -22 -75 -19 -97 76 -527 90 -405 104 -446 177 -501 65 -49 108 -54 481 -53 375 1 403 4 438 57 42 61 40 93 -16 329 -29 120 -54 221 -57 226 -2 4 -143 7 -312 7 l-308 0 -22 104 c-23 109 -21 136 15 150 8 3 114 6 235 6 244 0 259 -3 328 -65 23 -21 41 -34 41 -30 0 44 -56 317 -72 351 -41 88 -16 84 -477 84 -354 0 -410 -3 -439 -17z m672 -838 c24 -97 5 -119 -98 -117 -78 2 -112 39 -140 155 l-6 27 114 0 114 0 16 -65z"/>
 <path d="M3831 2899 c-29 -27 -51 -79 -51 -118 0 -16 61 -283 135 -593 75 -310 139 -582 142 -605 8 -57 -12 -129 -48 -180 l-30 -43 258 0 c251 0 260 1 282 21 32 30 51 80 51 132 0 25 -65 289 -150 608 -83 310 -153 583 -156 605 -8 54 10 108 53 155 l35 39 -249 0 c-241 0 -250 -1 -272 -21z"/>
 <path d="M4525 2906 c-66 -30 -115 -110 -115 -190 0 -70 187 -843 216 -893 30 -51 88 -100 134 -113 55 -16 700 -13 700 3 0 12 -23 113 -41 180 l-10 37 -178 0 -177 0 -77 328 c-42 180 -77 330 -77 335 0 4 80 7 178 7 l178 0 45 -28 c25 -16 62 -49 83 -73 23 -26 36 -36 33 -24 -3 11 -16 58 -27 105 -52 210 -82 284 -126 319 -26 20 -36 21 -368 21 -263 -1 -348 -4 -371 -14z"/>
 <path d="M5543 2890 c-63 -36 -104 -93 -110 -152 -6 -56 140 -782 171 -853 32 -71 78 -120 144 -152 l57 -28 355 0 c401 0 407 1 458 77 44 67 41 108 -33 515 -37 202 -73 391 -81 419 -18 67 -89 143 -164 178 l-55 26 -345 0 -345 0 -52 -30z m515 -300 c12 -12 22 -24 22 -28 0 -4 25 -122 55 -262 30 -140 55 -267 55 -282 0 -33 -24 -48 -79 -48 -78 0 -84 12 -146 305 -30 143 -57 270 -60 282 -8 34 19 53 79 53 39 0 58 -5 74 -20z"/>
 </g>

</svg>