<?xml version="1.0" encoding="UTF-8"?>
<svg enable-background="new 0 0 156.425 23.176" height="23.18" viewBox="0,0,156.425,23.176" width="156.43" xmlns="http://www.w3.org/2000/svg" xmlns:xlink="http://www.w3.org/1999/xlink">
 <linearGradient id="a" gradientUnits="userSpaceOnUse">
  <stop offset="0" stop-color="#405e9e"/>
  <stop offset=".47" stop-color="#fff"/>
  <stop offset=".75" stop-color="#d4d8e2"/>
  <stop offset="1" stop-color="#e6e7eb"/>
 </linearGradient>
 <linearGradient id="b" x1="146.14" x2="119.91" xlink:href="#a" y1="-.89" y2="23.57"/>
 <linearGradient id="c" x1="135.25" x2="129.21" xlink:href="#a" y1="8.94" y2="14.58"/>
 <linearGradient id="d" x1="106.79" x2="82.42" xlink:href="#a" y1="-.07" y2="22.65"/>
 <linearGradient id="e" x1="72.83" x2="51.3" xlink:href="#a" y1="5.09" y2="25.16"/>
 <linearGradient id="f" x1="30.97" x2="2.57" xlink:href="#a" y1="-2.82" y2="23.66"/>
 <linearGradient id="g" gradientUnits="userSpaceOnUse">
  <stop offset=".1" stop-color="#405e9e"/>
  <stop offset=".7" stop-color="#d4d8e2"/>
  <stop offset=".9" stop-color="#e6e7eb"/>
 </linearGradient>
 <linearGradient id="h" gradientTransform="matrix(.5347 0 0 .5343 253.4 -216.87)" x1="-224.04" x2="-224.04" xlink:href="#g" y1="448.33" y2="407.58"/>
 <linearGradient id="i" x1="132.2" x2="132.2" xlink:href="#g" y1="13.53" y2="10"/>
 <linearGradient id="j" gradientTransform="matrix(.5343 0 0 .5247 202.64 -211.26)" x1="-201.69" x2="-201.69" xlink:href="#g" y1="441.85" y2="407.59"/>
 <linearGradient id="k" x1="57.96" x2="57.96" xlink:href="#g" y1="20.2" y2="1.55"/>
 <linearGradient id="l" x1="17.2" x2="17.2" xlink:href="#g" y1="21.33" y2=".51"/>
 <path d="m135.3.587.02.002c3.106.308 5.975.991 8.431 1.96.47.185.935.386 1.393.601.452.212.886.434 1.296.662h.002l.006.004h-.001c2.141 1.194 3.803 2.648 4.814 4.27.198.316.372.644.522.98.151.342.275.684.367 1.024v.005c.084.31.193.568.373.74.178.17.455.282.895.319h3.008v1.464h-3.042c-.358.02-.638.102-.837.25-.188.14-.322.354-.402.647-.484 1.76-1.694 3.381-3.455 4.77h-.002c-.335.264-.693.522-1.072.772-.373.246-.768.485-1.186.717l-.004.003c-1.578.879-3.421 1.618-5.454 2.18-.409.113-.812.216-1.205.309-2.507.585-5.267.91-8.161.91h-.004c-.138 0-.273-.001-.407-.002-.142-.002-.277-.004-.407-.007l-.35-.007-.113-.331-.225-.648c-2.568-.115-4.994-.513-7.171-1.135-.446-.128-.88-.264-1.3-.408s-.831-.3-1.232-.463l-.002-.002-.02-.008-.635-.261.445-.524 1.424-1.67.222-.261.323.114c1.367.484 2.785.831 4.219 1.058.247.038.529.078.844.117.319.04.602.071.848.094l.01.001c3.403.317 7.089.126 10.442-.883.649-.195 1.285-.421 1.903-.679.615-.257 1.216-.547 1.796-.873l.009-.005c1.013-.569 1.857-1.213 2.494-1.911.125-.138.239-.273.342-.406.635-.82.984-1.707.984-2.626v-.001c0-1.518-.953-2.948-2.576-4.146-.322-.237-.678-.469-1.061-.692-.385-.225-.789-.436-1.211-.632l-.002-.001c-4.016-1.867-8.754-2.364-13.279-1.862-.879.097-1.758.234-2.625.407-.875.175-1.723.381-2.534.617-.026.008-.052.016-.077.022v.001c-2.598.764-4.992 1.948-6.18 3.725-.221.33-.4.684-.531 1.062-.16.462-.247.96-.247 1.497v.003c0 .025.001.055.001.089v.002c0 .017.002.05.004.091l.026.523h-3.697l-.146-.246-1.053-1.779-.445-.755h2.835c1.005-2.352 3.452-4.389 6.791-5.817.675-.289 1.382-.552 2.114-.786.562-.18 1.15-.346 1.762-.496l-.16-.459-.184-.533.555-.117c2.637-.556 5.344-.801 8.036-.759.536.009 1.061.028 1.572.057.486.026 1.01.067 1.567.122z" fill="url(#b)"/>
 <path d="m130.946 9.507h.003c.656 0 1.277.1 1.814.271.086.027.172.058.257.09l.001-.001c.443.171.822.397 1.105.664.125.118.223.219.305.304.195.204.246.258.785.258h2.031v1.386h-2.031c-.326 0-.496.003-.586.041s-.207.154-.424.38l-.006.007c-.002.003-.002.002-.001-.001-.095.098-.202.19-.319.276-.111.082-.236.162-.375.236-.663.361-1.57.586-2.56.586h-.002c-.983 0-1.885-.221-2.546-.576-.751-.404-1.217-.994-1.218-1.672v-.002c.001-.678.467-1.268 1.218-1.672.661-.355 1.562-.576 2.544-.576h.005z" fill="url(#c)"/>
 <path d="m80.934 2.119h8.731v1.104h5.533v1.53h-1.612c-.552 0-.931.166-1.168.402-.222.222-.323.509-.323.773v10.724h14.12c.444 0 .859-.249 1.166-.569.304-.315.491-.676.491-.917v-.502h1.451v5.33h-1.986c-.058.166-.138.331-.229.475-.226.355-.556.628-.892.63h-19.259v-1.679h-5.623v-1.619h2.279c.424 0 .707-.228.885-.543.215-.382.299-.885.3-1.329v-10.835c0-.56-.106-.947-.312-1.18-.183-.209-.479-.309-.875-.309h-3.177v-1.486z" fill="url(#d)"/>
 <path d="m57.438 1.206 15.967 17.088h3.884v1.681h-4.296v.725h-4.917l-.149-.166-.501-.559h-2.929v-1.681h1.116l-4.53-5.049h-8.026l-3.854 4.449c-.143.165-.25.33-.294.471-.014.044-.021.073-.018.082.004.012-.001-.018.01-.012.082.037.217.059.417.059h3.193v1.681h-6.708l-.476.551-.15.174h-6.558v-2.405h2.429l6.262-7.098.15-.17h2.185l1.021-1.235.15-.183h7.004l-2.871-3.199-.744.9-.15.182h-3.478l.732-.83 2.213-2.508.372-.421.295.329 2.51-2.846.363-.412.376.402z" fill="url(#e)"/>
 <path d="m.5 0h8.961v8.969h15.695v-6.673h.502c.983 0 1.949.2 2.819.503.214.075.42.154.614.237 1.027.437 1.88 1.006 2.402 1.516.67.654.665 1.095.656 1.826-.001.076-.002.155-.002.233v12.003h2.241v1.452h-2.241v.752h-4.657v-.752h-2.333v-8.04h-13.454v5.045c0 .751.477 1.243 1.047 1.563.623.351 1.358.513 1.797.589h1.272v2.099h-2.05l-.155.259-.146.244h-7.568v-1.007h-5.214v-1.595h2.145c.268 0 .418-.065.491-.195.119-.21.154-.58.154-1.086v-13.514c0-.926-.188-1.584-.487-1.999-.257-.355-.604-.525-.978-.525h-2.011v-1.904h.5z" fill="url(#f)"/>
 <g clip-rule="evenodd" fill-rule="evenodd">
  <path d="m135.271 1.085c-3.674-.362-7.432-.193-11.045.568l.34.98c-5.584 1.263-9.784 3.968-10.981 7.24h-2.297l1.052 1.78h2.887c-.004-.068-.006-.137-.006-.205 0-3.564 3.454-5.628 7.318-6.765 5.983-1.76 13.135-1.824 18.865.84 3.155 1.467 5.141 3.581 5.141 5.925 0 2.067-1.545 3.957-4.076 5.38-4.258 2.395-9.627 2.949-14.439 2.5-2.06-.192-4.102-.607-6.041-1.295l-1.424 1.67c2.791 1.14 6.197 1.861 9.896 1.991l.336.972c.268.006.535.009.805.009 5.715 0 10.891-1.281 14.582-3.335 2.872-1.597 4.846-3.662 5.478-5.956.223-.808.783-1.217 1.697-1.267h2.567v-.464h-2.549c-1.125-.094-1.497-.649-1.709-1.431-.622-2.3-2.593-4.371-5.465-5.973-2.885-1.607-6.681-2.743-10.932-3.164z" fill="url(#h)"/>
  <path d="m130.945 9.991c1.219 0 2.285.36 2.85.893.6.562.494.693 1.422.693h1.547v.418h-1.547c-.777 0-.833.025-1.358.569-.547.566-1.647.956-2.913.956-1.807 0-3.279-.793-3.279-1.765s1.471-1.764 3.278-1.764z" fill="url(#i)"/>
  <path d="m80.934 2.619h8.231v1.104h5.533v.53h-1.11c-1.403 0-1.993.903-1.993 1.678v11.222h14.619c1.193 0 2.158-1.267 2.158-1.987h.45v4.329h-1.89c0 .415-.42 1.104-.719 1.104h-18.756v-1.679h-5.623v-.619h1.777c1.277 0 1.687-1.339 1.687-2.377v-10.831c0-1.369-.6-1.988-1.687-1.988h-2.677z" fill="url(#j)"/>
  <path d="m57.072 1.546 16.117 17.248h3.6v.681h-4.297v.725h-4.193l-.65-.725h-2.653v-.681h1.737l-5.427-6.049h-8.477l-4.005 4.623c-.573.661-.729 1.426.492 1.426h2.693v.681h-6.434l-.627.725h-5.83v-1.405h2.152l6.412-7.268h2.197l1.171-1.417h7.891l-4.007-4.467-1.114 1.348h-2.137l2.212-2.508.296.329 2.881-3.266z" fill="url(#k)"/>
  <path d="m.5.5h8.462v8.969h16.695v-6.673c2.316 0 4.528 1.175 5.49 2.113.581.567.502.953.502 1.702v12.503h2.242v.452h-2.242v.752h-3.659v-.752h-2.333v-8.04h-14.454v5.545c0 1.952 2.372 2.495 3.306 2.653h.811v1.097h-1.832l-.301.504h-6.787v-1.007h-5.213v-.594h1.645c.944 0 1.145-.61 1.145-1.782v-13.512c0-2.075-.899-3.025-1.966-3.025h-1.511v-.905z" fill="url(#l)"/>
 </g>
</svg>
