<?xml version="1.0" encoding="UTF-8" standalone="no"?>
<svg
   xmlns:dc="http://purl.org/dc/elements/1.1/"
   xmlns:cc="http://creativecommons.org/ns#"
   xmlns:rdf="http://www.w3.org/1999/02/22-rdf-syntax-ns#"
   xmlns:svg="http://www.w3.org/2000/svg"
   xmlns="http://www.w3.org/2000/svg"
   xmlns:sodipodi="http://sodipodi.sourceforge.net/DTD/sodipodi-0.dtd"
   xmlns:inkscape="http://www.inkscape.org/namespaces/inkscape"
   version="1.0"
   width="1304.2161"
   height="469.8775"
   viewBox="0 0 13042.161 4698.775"
   preserveAspectRatio="xMidYMid meet"
   id="svg29"
   sodipodi:docname="hikaru.svg"
   inkscape:version="1.0.1 (3bc2e813f5, 2020-09-07)">
  <metadata
     id="metadata35">
    <rdf:RDF>
      <cc:Work
         rdf:about="">
        <dc:format>image/svg+xml</dc:format>
        <dc:type
           rdf:resource="http://purl.org/dc/dcmitype/StillImage" />
        <dc:title />
      </cc:Work>
    </rdf:RDF>
  </metadata>
  <defs
     id="defs33" />
  <sodipodi:namedview
     pagecolor="#ffffff"
     bordercolor="#666666"
     borderopacity="1"
     objecttolerance="10"
     gridtolerance="10"
     guidetolerance="10"
     inkscape:pageopacity="0"
     inkscape:pageshadow="2"
     inkscape:window-width="2318"
     inkscape:window-height="1148"
     id="namedview31"
     showgrid="false"
     fit-margin-top="0"
     fit-margin-left="0"
     fit-margin-right="0"
     fit-margin-bottom="0"
     inkscape:zoom="3.4371477"
     inkscape:cx="1062.6339"
     inkscape:cy="247.35054"
     inkscape:window-x="0"
     inkscape:window-y="30"
     inkscape:window-maximized="0"
     inkscape:current-layer="svg29"
     inkscape:document-rotation="0" />
  <g
     id="layer101"
     fill="#0f4593"
     stroke="none"
     transform="translate(1136.7974,437.18259)"
     style="opacity:1;stroke:#000000">
    <path
       d="m 10509.52,4236.3751 c -143.532,-33.4905 -358.828,-153.0994 -454.515,-253.5708 -47.842,-50.2357 -117.2163,-150.7072 -155.4913,-222.4726 l -66.981,-131.5698 -7.176,-901.8508 -7.177,-904.2432 h 346.8663 346.865 l 7.177,784.6343 c 4.784,590.8678 14.353,796.5951 38.274,837.2621 117.217,203.3351 521.496,193.7663 607.614,-14.3531 16.745,-40.6671 31.098,-337.297 38.276,-834.87 l 9.567,-772.6733 h 346.867 344.472 l -7.176,892.2822 -7.177,889.89 -62.196,131.5698 c -169.844,361.2189 -480.828,528.6713 -973.616,523.8869 -141.138,-2.3921 -296.631,-11.9609 -344.473,-23.9217 z"
       id="path2"
       style="fill:#ffffff;stroke:#000000;stroke-width:15.00000017;stroke-miterlimit:4;stroke-dasharray:none" />
    <path
       d="M -1135.6013,3006.7958 V 1822.6679 h 346.86584 346.86561 V 2241.299 2659.93 H -71.082317 299.70518 v -418.631 -418.6311 h 346.8658 346.8657 V 3006.7958 4190.9237 H 646.57098 299.70518 V 3724.449 3257.9744 H -71.082317 -441.86985 v 466.4746 466.4747 h -346.86561 -346.86584 z"
       id="path4"
       style="fill:#ffffff;stroke:#000000;stroke-width:15.00000017;stroke-miterlimit:4;stroke-dasharray:none" />
    <path
       d="M 1447.9505,3006.7958 V 1822.6679 h 346.8657 346.8658 v 1184.1279 1184.1279 h -346.8658 -346.8657 z"
       id="path6"
       style="fill:#ffffff;stroke:#000000;stroke-width:15.00000017;stroke-miterlimit:4;stroke-dasharray:none" />
    <path
       d="M 2620.1172,3006.7958 V 1822.6679 h 346.8655 346.8667 v 397.1015 397.1014 l 306.1977,-394.7093 303.8078,-397.1014 h 437.7683 c 282.277,-2.3922 435.3759,7.1764 430.591,21.5296 -2.3912,11.9608 -210.5112,265.5316 -459.2978,562.1617 l -449.7293,538.2399 222.4722,267.9239 c 576.515,698.516 748.7522,901.851 758.3207,892.2822 7.1761,-4.7842 205.7276,-519.1025 444.9457,-1141.0687 l 435.3758,-1131.4999 370.7874,-7.1766 373.1799,-4.7843 437.7683,1153.0296 c 239.2168,636.3192 442.5519,1169.7749 447.3368,1186.5201 9.5698,21.5296 -74.1569,28.7061 -368.3949,28.7061 H 6622.2306 L 6373.444,3497.1922 c -136.3542,-380.3563 -253.5715,-693.7315 -260.7475,-693.7315 -7.1761,0 -124.3933,313.3752 -260.7463,693.7315 l -248.7866,693.7315 -815.733,-4.7844 -813.3407,-7.1766 -325.336,-416.2388 -322.9435,-416.239 -7.1773,423.4156 -4.7837,421.0232 h -346.8667 -346.8655 z"
       id="path8"
       style="fill:#ffffff;stroke:#000000;stroke-width:15.00000017;stroke-miterlimit:4;stroke-dasharray:none" />
    <path
       d="M 7595.8474,3006.7958 V 1822.6679 h 581.2986 c 648.2796,0 741.5747,14.3531 940.1247,150.7071 167.454,114.8247 253.572,284.6692 267.925,519.1026 19.137,327.7284 -112.432,593.26 -351.65,710.4767 l -95.688,47.8437 358.828,456.9058 c 196.158,251.1787 356.434,461.6903 356.434,471.2589 0,7.1766 -200.943,9.5688 -447.337,7.1766 l -449.7305,-7.1766 -232.0407,-346.8656 -234.4331,-344.4737 v 351.6502 351.6501 h -346.8655 -346.8655 z m 980.7916,-246.3943 c 31.0993,-23.9218 55.0199,-78.9419 64.5897,-138.7463 19.1371,-143.5306 -59.8048,-227.2568 -227.2571,-244.0021 l -124.3932,-11.9609 v 220.0804 217.6881 h 117.2159 c 76.5507,0 133.9631,-14.353 169.8447,-43.0592 z"
       id="path10"
       style="fill:#ffffff;stroke:#000000;stroke-width:15.00000017;stroke-miterlimit:4;stroke-dasharray:none" />
  </g>
  <g
     id="g1091"
     transform="matrix(15.979736,0,0,15.979736,3898.2209,1.9506513e-5)">
    <path
       d="m 147.808,90.893999 c 5.508,5.349 13.019,8.656 21.303,8.656 l 130.889,0.015 -28.268,-84.332 C 267.871,6.2739988 258.813,-1.2207031e-6 247.934,-1.2207031e-6 237.101,-1.2207031e-6 227.906,6.4789988 224.189,15.400999 l -9.423,27.471 -0.037,-41.4530002 -45.709,-0.023 c -8.262,0 -15.689,3.224 -21.159,8.557 l 0.016,-8.52 h -46.801 c -8.717,0 -16.645,3.717 -22.19,9.5590002 V 1.3959988 l -44.11,0.038 C 15.734,1.4179988 0.114,16.302999 0.091,35.982999 c 0,9.111 3.982,17.374 9.854,23.496 L 0,59.462999 v 40.087 l 44.442,-0.008 c 12.487,-0.015 24.861,-7.549 29.162,-16.576 l 0.129,-0.371 c 4.969,10.036 15.339,16.955 27.341,16.955 l 46.733,-0.008 v -8.648"
       style="fill:#ffffff"
       id="path1047" />
    <path
       d="m 6.866,92.690999 37.477,-0.038 c 15.333,0 27.759,-12.388 27.759,-27.652 0,-15.294 -12.426,-27.683 -27.759,-27.683 l -9.733,0.053 c -0.767,0 -1.389,-0.629 -1.389,-1.403 0,-0.774 0.622,-1.404 1.389,-1.404 l 37.409,0.008 0.015,-11.736 H 34.602 c -7.237,0 -13.125,5.879 -13.125,13.102 0,7.23 5.887,13.086 13.125,13.086 l 9.779,0.129 c 8.785,0 15.894,7.085 15.894,15.826 0,8.747 -7.108,15.848 -15.894,15.848 h -37.5 l -0.015,11.864"
       style="fill:#0060a8"
       id="path1049" />
    <path
       d="m 6.881,78.071999 h 37.5 c 7.26,0 13.132,-5.856 13.132,-13.094 0,-7.23 -5.872,-13.079 -13.132,-13.079 l -9.779,-0.106 c -8.77,0 -15.886,-7.093 -15.886,-15.856 0,-8.739 7.116,-15.833 15.886,-15.833 l 37.432,-0.008 L 72.019,8.3149988 H 34.61 c -15.317,0 -27.759,12.3740002 -27.759,27.6530002 0,15.279 12.442,27.66 27.759,27.66 l 9.68,0.015 c 0.736,0 1.358,0.6 1.358,1.358 0,0.744 -0.622,1.343 -1.358,1.343 l -37.424,0.03 0.015,11.698"
       style="fill:#0060a8"
       id="path1051" />
    <path
       d="m 101.158,80.901999 c -6.502,0 -11.828,-5.182 -11.828,-11.798 v -37.438 c 0,-6.365 5.326,-11.6 11.828,-11.6 l 40.003,0.007 V 8.3149988 h -40.003 c -13.018,0 -23.563,10.5070002 -23.563,23.4800002 v 37.31 c 0,12.974 10.545,23.496 23.563,23.496 l 39.836,0.016 -0.008,-11.729 -39.828,0.014"
       style="fill:#0060a8"
       id="path1053" />
    <path
       d="m 92.198,31.794999 c 0,-4.961 3.991,-8.982 8.96,-8.982 h 40.003 v 11.774 h -34.465 c -2.761,0 -2.799,2.739 -2.799,2.739 h 28.753 v 11.721 H 92.184 l 0.014,-17.252"
       style="fill:#0060a8"
       id="path1055" />
    <path
       d="m 101.158,78.049999 c -4.954,0 -8.975,-3.998 -8.975,-8.945 v -17.267 h 40.466 v 11.745 h -28.753 c 0.038,2.761 2.799,2.775 2.799,2.775 h 34.298 l -0.008,11.676 -39.827,0.016"
       style="fill:#0060a8"
       id="path1057" />
    <path
       d="m 169.194,80.871999 c -6.479,0 -11.774,-5.28 -11.774,-11.768 v -37.31 c 0,-6.494 5.257,-11.729 11.743,-11.729 h 38.745 V 8.3149988 h -38.835 c -13.012,0 -23.557,10.5070002 -23.557,23.4800002 v 37.31 c 0,12.974 10.636,23.496 23.647,23.496 l 38.745,0.016 v -55.291 h -33.297 v 11.721 h 21.53 v 31.825 h -26.947"
       style="fill:#0060a8"
       id="path1059" />
    <path
       d="m 160.181,69.103999 c 0,4.971 4.021,9.014 8.982,9.014 h 24.201 v -26.295 H 174.64 v 11.76 h 6.949 l 0.022,2.761 h -6.918 c -1.51,0 -2.746,-1.251 -2.746,-2.761 l -0.062,-26.265 c 0,0 -0.008,-2.731 2.777,-2.799 h 33.259 l -0.015,-11.714 -38.745,0.008 c -4.961,0 -8.982,4.021 -8.982,8.982 v 37.309"
       style="fill:#0060a8"
       id="path1061" />
    <path
       d="m 244.315,22.637999 c 0.522,-1.494 1.941,-2.571 3.618,-2.571 1.678,0 3.111,1.077 3.619,2.571 l 18.808,55.563 h -27.54 l 0.03,-13.071 h 9.203 l -4.143,-12.313 -13.496,39.79 h -13.883 l 23.784,-69.969"
       style="fill:#0060a8"
       id="path1063" />
    <path
       d="m 274.152,80.871999 h -31.286 v 11.735 h 47.612 l -24.762,-73.262 c -2.17,-7.146 -9.323,-12.4030002 -17.791,-12.4030002 -8.481,0 -15.612,5.2340002 -17.798,12.3740002 l -24.989,73.292 h 12.465 l 24.262,-71.244 c 0.985,-2.359 3.308,-4.021 6.039,-4.021 2.716,0 5.052,1.662 6.046,4.006 l 20.202,59.523"
       style="fill:#0060a8"
       id="path1065" />
    <path
       d="m 281.504,17.638999 c 2.216,0 4.302,-0.865 5.865,-2.42 1.562,-1.57 2.435,-3.641 2.435,-5.8560002 0,-2.2 -0.873,-4.264 -2.435,-5.834 -1.563,-1.547 -3.649,-2.412 -5.865,-2.412 -4.559,0 -8.284,3.695 -8.284,8.247 0,2.2150002 0.865,4.2860002 2.442,5.8560002 1.556,1.554 3.634,2.419 5.842,2.419 m -7.115,-8.2770002 c 0,-1.889 0.728,-3.679 2.085,-5.022 1.351,-1.343 3.141,-2.071 5.03,-2.071 1.912,0 3.702,0.729 5.053,2.071 1.343,1.343 2.087,3.133 2.087,5.022 0,3.9220002 -3.202,7.1080002 -7.14,7.1080002 -1.89,0 -3.68,-0.736 -5.03,-2.079 -1.358,-1.342 -2.085,-3.125 -2.085,-5.0290002 z"
       style="fill:#231f20"
       id="path1067" />
    <path
       d="m 279.38,10.059999 v 3.899 h -1.199 V 4.7949988 h 3.406 c 1.283,0.015 2.034,0.015 2.747,0.553 0.69,0.509 0.979,1.275 0.979,2.125 0,2.14 -1.744,2.42 -2.186,2.511 l 2.58,3.9750002 h -1.449 l -2.511,-3.899 h -2.367 m 0,-1.0090002 h 2.435 c 0.388,0 0.752,0 1.116,-0.091 0.85,-0.205 1.153,-0.812 1.153,-1.479 0,-0.243 -0.023,-0.857 -0.547,-1.282 -0.479,-0.402 -1.085,-0.387 -1.79,-0.387 h -2.367 z"
       style="fill:#231f20"
       id="path1069" />
  </g>
</svg>
