<?xml version="1.0" encoding="UTF-8" standalone="no"?>
<svg
   xmlns:dc="http://purl.org/dc/elements/1.1/"
   xmlns:cc="http://creativecommons.org/ns#"
   xmlns:rdf="http://www.w3.org/1999/02/22-rdf-syntax-ns#"
   xmlns:svg="http://www.w3.org/2000/svg"
   xmlns="http://www.w3.org/2000/svg"
   xmlns:sodipodi="http://sodipodi.sourceforge.net/DTD/sodipodi-0.dtd"
   xmlns:inkscape="http://www.inkscape.org/namespaces/inkscape"
   width="500"
   height="200"
   viewBox="0 0 500 200"
   version="1.1"
   id="svg267"
   sodipodi:docname="irem.svg"
   style="fill:none"
   inkscape:version="0.92.5 (2060ec1f9f, 2020-04-08)">
  <metadata
     id="metadata273">
    <rdf:RDF>
      <cc:Work
         rdf:about="">
        <dc:format>image/svg+xml</dc:format>
        <dc:type
           rdf:resource="http://purl.org/dc/dcmitype/StillImage" />
        <dc:title />
      </cc:Work>
    </rdf:RDF>
  </metadata>
  <defs
     id="defs271" />
  <sodipodi:namedview
     pagecolor="#ffffff"
     bordercolor="#666666"
     borderopacity="1"
     objecttolerance="10"
     gridtolerance="10"
     guidetolerance="10"
     inkscape:pageopacity="0"
     inkscape:pageshadow="2"
     inkscape:window-width="1366"
     inkscape:window-height="743"
     id="namedview269"
     showgrid="false"
     inkscape:pagecheckerboard="true"
     inkscape:zoom="1.2036356"
     inkscape:cx="321.31789"
     inkscape:cy="80.188069"
     inkscape:window-x="0"
     inkscape:window-y="0"
     inkscape:window-maximized="1"
     inkscape:current-layer="svg267" />
  <path
     d="M 96.623882,13.166884 H 47.240523 v 45.235174 h 49.383359 z"
     id="path225"
     inkscape:connector-curvature="0"
     style="fill:#000000;stroke-width:1.38797116" />
  <path
     d="M 45.00539,10.932015 H 98.858522 V 60.636831 H 45.00539 Z m 4.469684,4.469669 V 56.167146 H 94.388832 V 15.401684 Z"
     id="path227"
     inkscape:connector-curvature="0"
     style="clip-rule:evenodd;fill:#000000;fill-rule:evenodd;stroke-width:1.38797116" />
  <path
     d="M 96.623882,58.500464 H 47.240523 V 162.00799 h 49.383359 z"
     id="path229"
     inkscape:connector-curvature="0"
     style="fill:#000000;stroke-width:1.38797116" />
  <path
     d="M 45.00539,56.265832 H 98.858522 V 164.24262 H 45.00539 Z m 4.469684,4.469684 V 159.77335 H 94.388832 V 60.735516 Z"
     id="path231"
     inkscape:connector-curvature="0"
     style="clip-rule:evenodd;fill:#000000;fill-rule:evenodd;stroke-width:1.38797116" />
  <path
     d="m 96.590722,58.492693 v 49.445767 54.05564 h 49.445768 v -54.05564 h 54.05495 V 58.492693 h -54.05495 z"
     id="path233"
     inkscape:connector-curvature="0"
     style="fill:#000000;stroke-width:1.38797116" />
  <path
     d="M 94.355662,56.257919 H 202.32608 v 53.915311 h -54.05495 v 54.05551 H 94.355662 Z m 4.46968,4.469545 v 99.030616 h 44.976098 v -54.05453 h 54.05537 V 60.727464 Z"
     id="path235"
     inkscape:connector-curvature="0"
     style="clip-rule:evenodd;fill:#000000;fill-rule:evenodd;stroke-width:1.38797116" />
  <path
     d="M 200.07617,58.492693 V 161.9941 h 102.80287 v -31.42783 h -67.04595 v -0.32159 h 67.04595 V 58.492693 Z m 35.75692,31.986212 h 30.44931 v 0.123807 h -30.44931 z"
     id="path237"
     inkscape:connector-curvature="0"
     style="fill:#000000;stroke-width:1.38797116" />
  <path
     d="M 197.84015,56.257919 H 305.11367 V 164.22874 H 197.84015 Z m 102.80286,76.543121 h -67.04456 v -4.79127 h 67.04456 V 60.727464 h -98.3322 v 99.030616 h 98.3322 z M 233.59845,88.243994 h 34.91859 v 4.593491 h -34.91859 z"
     id="path239"
     inkscape:connector-curvature="0"
     style="clip-rule:evenodd;fill:#000000;fill-rule:evenodd;stroke-width:1.38797116" />
  <path
     d="M 302.97759,58.492693 V 161.9941 h 53.93239 v -53.35721 h 0.12353 v 53.35721 h 53.23286 v -53.35721 h 0.12352 v 53.35721 h 49.44648 V 58.492693 Z"
     id="path241"
     inkscape:connector-curvature="0"
     style="fill:#000000;stroke-width:1.38797116" />
  <path
     d="M 300.74434,56.257919 H 462.071 V 164.22874 H 300.74434 Z m 58.52381,103.500161 h 48.76358 v -53.3561 h 4.59419 v 53.3561 h 44.97582 V 60.727464 H 305.21361 v 99.030616 h 49.46174 v -53.3561 h 4.5928 z"
     id="path243"
     inkscape:connector-curvature="0"
     style="clip-rule:evenodd;fill:#000000;fill-rule:evenodd;stroke-width:1.38797116" />
  <path
     d="M 92.154342,8.6971173 H 42.770951 V 53.932236 h 49.383391 z"
     id="path245"
     inkscape:connector-curvature="0"
     style="fill:#409ee0;stroke-width:1.38797116" />
  <path
     d="m 40.535832,6.462234 h 53.85314 v 49.704774 h -53.85314 z m 4.469669,4.46967 v 40.76542 h 44.913791 v -40.76542 z"
     id="path247"
     inkscape:connector-curvature="0"
     style="clip-rule:evenodd;fill:#000000;fill-rule:evenodd;stroke-width:1.38797116" />
  <path
     d="M 92.154342,54.030781 H 42.770951 V 157.53871 h 49.383391 z"
     id="path249"
     inkscape:connector-curvature="0"
     style="fill:#74b532;stroke-width:1.38797116" />
  <path
     d="m 40.535832,51.79601 h 53.85314 v 107.97734 h -53.85314 z m 4.469669,4.469683 V 155.30409 H 89.919292 V 56.265692 Z"
     id="path251"
     inkscape:connector-curvature="0"
     style="clip-rule:evenodd;fill:#000000;fill-rule:evenodd;stroke-width:1.38797116" />
  <path
     d="m 92.121172,54.023009 v 49.445771 54.05468 h 49.445918 v -54.05468 h 54.05509 V 54.023009 h -54.05509 z"
     id="path253"
     inkscape:connector-curvature="0"
     style="fill:#ffffff;stroke-width:1.38797116" />
  <path
     d="M 89.886122,51.788097 H 197.85681 v 53.915453 h -54.05523 v 54.05453 H 89.886122 Z m 4.46968,4.469684 V 155.28882 H 139.3319 v -54.05495 h 54.05565 V 56.257781 Z"
     id="path255"
     inkscape:connector-curvature="0"
     style="clip-rule:evenodd;fill:#000000;fill-rule:evenodd;stroke-width:1.38797116" />
  <path
     d="M 195.60691,54.023009 V 157.52346 H 298.40838 V 126.09645 H 231.36383 V 125.775 h 67.04455 V 54.023009 Z m 35.75692,31.986074 h 30.44931 v 0.123945 h -30.44931 z"
     id="path257"
     inkscape:connector-curvature="0"
     style="fill:#ffffff;stroke-width:1.38797116" />
  <path
     d="M 193.37089,51.788097 H 300.64301 V 159.75808 H 193.37089 Z m 102.80286,76.543123 h -67.04456 v -4.79113 h 67.04456 V 56.257781 h -98.33221 v 99.031039 h 98.33221 z M 229.12919,83.774171 h 34.91857 v 4.593631 h -34.91857 z"
     id="path259"
     inkscape:connector-curvature="0"
     style="clip-rule:evenodd;fill:#000000;fill-rule:evenodd;stroke-width:1.38797116" />
  <path
     d="M 298.50831,54.023009 V 157.52346 h 53.93101 v -53.35639 h 0.12492 v 53.35639 h 53.23286 v -53.35639 h 0.12353 v 53.35639 h 49.44508 V 54.023009 Z"
     id="path261"
     inkscape:connector-curvature="0"
     style="fill:#ffffff;stroke-width:1.38797116" />
  <path
     d="M 296.27369,51.788097 H 457.60035 V 159.75808 H 296.27369 Z m 58.52518,103.500723 h 48.76221 V 101.9323 h 4.59419 v 53.35652 h 44.97581 V 56.257781 H 300.74295 v 99.031039 h 49.46174 V 101.9323 h 4.59418 z"
     id="path263"
     inkscape:connector-curvature="0"
     style="clip-rule:evenodd;fill:#000000;fill-rule:evenodd;stroke-width:1.38797116" />
  <path
     d="m 10.739717,197.1962 c 1.586835,-0.001 3.154072,-0.35365 4.592619,-1.03147 1.414724,-0.63199 2.66985,-1.57833 3.67169,-2.77025 v 0 l -2.73552,-2.77025 c -0.671327,0.81699 -1.505152,1.48171 -2.447281,1.95161 -0.924202,0.4519 -1.938845,0.68437 -2.965687,0.67783 -0.8665047,0.008 -1.7262467,-0.15555 -2.5294712,-0.48462 -0.8032411,-0.3291 -1.534,-0.81536 -2.1500043,-1.43097 -0.5931635,-0.60416 -1.0618289,-1.31964 -1.3787376,-2.10881 -0.3397802,-0.83664 -0.5108741,-1.73222 -0.5032444,-2.63762 -0.0092,-0.91195 0.1569646,-1.819 0.489443,-2.6671 0.3103595,-0.79079 0.7702828,-1.5112 1.353934,-2.12189 0.5853215,-0.60742 1.2853799,-1.08714 2.0584796,-1.4146 0.805631,-0.34709 1.6727089,-0.52228 2.5479239,-0.51574 1.055494,-0.005 2.097396,0.24068 3.042899,0.71385 0.977297,0.49773 1.833062,1.20667 2.505191,2.07932 v 0 l 2.822264,-2.85865 c -0.992346,-1.21812 -2.255002,-2.18247 -3.685364,-2.81446 -1.470047,-0.68764 -3.069684,-1.04457 -4.689134,-1.04784 -1.4464543,-0.009 -2.8804671,0.27178 -4.2189612,0.82518 -1.2681093,0.52064 -2.4259807,1.28198 -3.4110218,2.24141 -0.9722883,0.96107 -1.7456252,2.10879 -2.27494007,3.37603 -0.54871471,1.32783 -0.8324128,2.75224 -0.834779092542,4.18976 -0.0023592175,1.43915 0.276647572542,2.8652 0.820991832542,4.19466 0.52305003,1.26234 1.29150323,2.40514 2.25976323,3.3613 0.9855177,0.95944 2.1438644,1.72076 3.4124149,2.23978 1.3475476,0.55666 2.7910245,0.83663 4.2465322,0.82354 z m 54.566733,0.0311 c 1.441611,0.009 2.870942,-0.27014 4.203828,-0.82517 1.262499,-0.51738 2.41119,-1.28361 3.379966,-2.25289 0.968777,-0.96761 1.738447,-2.12025 2.264659,-3.3924 0.550948,-1.31962 0.834832,-2.73749 0.834832,-4.17011 0,-1.4326 -0.283884,-2.85046 -0.834832,-4.17174 -0.526212,-1.27051 -1.295729,-2.42314 -2.264494,-3.3924 -0.968765,-0.96762 -2.117467,-1.73386 -3.380131,-2.25124 -2.687407,-1.10023 -5.692588,-1.10023 -8.379994,0 -1.262653,0.51738 -2.411355,1.28362 -3.380128,2.25124 -0.968767,0.96926 -1.738444,2.12189 -2.264496,3.3924 -0.550613,1.32128 -0.834184,2.73914 -0.834184,4.17174 0,1.43262 0.283571,2.85049 0.834184,4.17011 0.526216,1.27215 1.295729,2.42479 2.264496,3.3924 0.968773,0.96928 2.117475,1.73551 3.380128,2.25289 1.324381,0.55339 2.7447,0.83337 4.177641,0.82353 z m 0,-3.9196 c -0.845979,0.007 -1.684586,-0.16045 -2.464413,-0.49282 -0.779662,-0.33236 -1.484171,-0.8219 -2.070319,-1.4375 -0.578114,-0.61891 -1.032617,-1.34584 -1.338784,-2.13828 -0.652937,-1.71256 -0.652937,-3.60853 0,-5.3211 0.308621,-0.78589 0.763124,-1.50628 1.338784,-2.12189 0.586148,-0.61561 1.290657,-1.10516 2.070319,-1.43751 0.779827,-0.33237 1.618434,-0.49936 2.464413,-0.49282 0.870869,-0.007 1.733693,0.16863 2.534152,0.51574 0.764433,0.32745 1.454881,0.80881 2.029539,1.41459 0.575672,0.61561 1.030175,1.336 1.338808,2.12189 0.652606,1.71257 0.652606,3.60854 0,5.3211 -0.306179,0.79244 -0.760682,1.51937 -1.338808,2.13828 -0.574658,0.60577 -1.265106,1.08712 -2.029539,1.41458 -0.800128,0.34546 -1.662469,0.52065 -2.532677,0.5141 z m 63.29146,3.59543 v -3.77225 H 117.568 v -16.86053 h -4.17222 v 20.63114 z m 52.6388,0 v -3.77225 h -11.03025 v -16.86053 h -4.17337 v 20.63114 z m 53.04074,0 v -3.71331 h -11.43137 v -4.89379 h 7.45937 v -3.59706 h -7.45937 v -4.71203 h 11.31676 v -3.71331 h -15.49341 v 20.63113 z m 46.3034,0.2947 c 1.58814,-0.001 3.15499,-0.35364 4.59252,-1.03147 1.41459,-0.63199 2.67036,-1.57833 3.67238,-2.77025 v 0 l -2.7375,-2.77024 c -0.67128,0.81699 -1.50465,1.48336 -2.44607,1.9516 -0.92507,0.45353 -1.94016,0.68439 -2.96673,0.67783 -0.8661,0.009 -1.72567,-0.1539 -2.52792,-0.48299 -0.8039,-0.32909 -1.53412,-0.81534 -2.14973,-1.4326 -0.59269,-0.60252 -1.06259,-1.31964 -1.37859,-2.10716 -0.34054,-0.83663 -0.51244,-1.73387 -0.50427,-2.63762 -0.009,-0.9136 0.15718,-1.819 0.49119,-2.66875 0.3078,-0.78914 0.76787,-1.50955 1.35237,-2.12024 0.5845,-0.60744 1.28525,-1.08879 2.05803,-1.41625 0.80554,-0.34544 1.6733,-0.52064 2.5476,-0.51573 1.0593,-0.002 2.10552,0.24396 3.05347,0.72204 0.97746,0.49445 1.83211,1.20501 2.50503,2.07767 v 0 l 2.821,-2.85866 c -0.99218,-1.21811 -2.25452,-2.18246 -3.68549,-2.81444 -1.46862,-0.68765 -3.06822,-1.04457 -4.68748,-1.04784 -1.4457,-0.009 -2.87994,0.27178 -4.21921,0.82517 -1.26724,0.52066 -2.42644,1.28035 -3.41206,2.24141 -0.97253,0.96108 -1.74695,2.10716 -2.27579,3.3744 -0.54847,1.32782 -0.83173,2.75225 -0.83501,4.19139 -10e-4,1.43916 0.2767,2.86358 0.8219,4.19302 0.5223,1.26234 1.29016,2.40515 2.25942,3.36131 0.98565,0.95943 2.14319,1.72075 3.41207,2.23978 1.34582,0.55338 2.78661,0.83172 4.23887,0.81698 z m 55.23139,-0.2947 v -16.86052 h 6.76517 v -3.77389 h -17.7381 v 3.77389 h 6.79628 v 16.85888 z m 47.82768,0 v -20.63114 h -4.17501 v 20.63114 z m 48.08967,0.32581 c 1.44243,0.009 2.87176,-0.27014 4.20449,-0.82517 1.26232,-0.51902 2.41004,-1.28363 3.37931,-2.25289 0.96926,-0.96761 1.73877,-2.12189 2.26432,-3.39241 0.55014,-1.31963 0.83501,-2.73749 0.83501,-4.1701 0,-1.4326 -0.28487,-2.85046 -0.83501,-4.17174 -0.52555,-1.27051 -1.29506,-2.42315 -2.26432,-3.3924 -0.96927,-0.96762 -2.11699,-1.73387 -3.37931,-2.25124 -2.68837,-1.10024 -5.69277,-1.10024 -8.37951,0 -1.26233,0.51901 -2.41005,1.28362 -3.37767,2.25288 -0.96926,0.96925 -1.73877,2.12025 -2.26596,3.39076 -0.55013,1.31964 -0.83501,2.73914 -0.83501,4.17174 0,1.43261 0.28488,2.85047 0.83501,4.1701 0.52719,1.27052 1.2967,2.42316 2.26596,3.39241 0.96762,0.96764 2.11534,1.73387 3.37767,2.25289 1.32456,0.55175 2.74241,0.83173 4.17502,0.82189 z m 0,-3.9196 c -0.8661,0.007 -1.72404,-0.16865 -2.51811,-0.51574 -0.75969,-0.33074 -1.44569,-0.81209 -2.0171,-1.41622 -0.57795,-0.61726 -1.03312,-1.34257 -1.3393,-2.13664 -0.65326,-1.71258 -0.65326,-3.60853 0,-5.3211 0.30782,-0.78753 0.76299,-1.50792 1.3393,-2.12189 0.57141,-0.60251 1.25741,-1.08386 2.0171,-1.41459 0.79407,-0.3471 1.65201,-0.52392 2.51811,-0.51575 0.87102,-0.007 1.73222,0.16865 2.53284,0.51575 0.7646,0.32743 1.45553,0.80881 2.03021,1.41459 0.57631,0.61561 1.03148,1.33601 1.33927,2.12189 0.65327,1.71257 0.65327,3.60852 0,5.3211 -0.30616,0.79244 -0.75968,1.51938 -1.33927,2.13664 -0.57468,0.60577 -1.26561,1.08712 -2.03021,1.41622 -0.80062,0.34545 -1.66182,0.51901 -2.53284,0.51246 z m 52.03218,3.59542 v -13.80048 l 10.28037,13.80048 h 3.68548 v -20.63113 h -3.91632 v 13.35186 l -10.02005,-13.35186 h -3.97527 v 20.63113 z"
     id="path265"
     inkscape:connector-curvature="0"
     style="fill:#ffffff;stroke-width:1.63726187" />
  <g
     id="g48"
     transform="matrix(0.9357984,0,0,0.9357984,54.903196,-106.89511)">
    <path
       d="m 98.368707,123.56449 -3.911684,9.67624 h 7.837657 z m -1.627486,-2.59162 h 3.269259 l 8.12318,19.44364 h -2.99801 l -1.94157,-4.98788 h -9.607908 l -1.941568,4.98788 h -3.040839 z"
       style="font-style:normal;font-weight:normal;font-size:40px;line-height:125%;font-family:sans-serif;letter-spacing:0px;word-spacing:0px;fill:#ffffff;fill-opacity:1;stroke:#ffffff;stroke-width:0.69800001;stroke-linecap:butt;stroke-linejoin:miter;stroke-miterlimit:4;stroke-dasharray:none;stroke-opacity:1"
       id="path36"
       inkscape:connector-curvature="0" />
    <path
       d="m 149.94112,131.30027 q 0.92796,0.28651 1.79881,1.22418 0.88512,0.93767 1.77025,2.5786 l 2.92663,5.31346 h -3.09794 l -2.72677,-4.98788 q -1.05644,-1.95348 -2.05577,-2.59162 -0.98506,-0.63814 -2.69821,-0.63814 h -3.14077 v 8.21764 h -2.88381 v -19.44364 h 6.50997 q 3.65472,0 5.45352,1.39348 1.79881,1.39349 1.79881,4.2065 0,1.83627 -0.94223,3.04743 -0.92796,1.21115 -2.71249,1.67999 z m -7.22378,-8.16555 v 6.9023 h 3.62617 q 2.08433,0 3.14077,-0.87256 1.07072,-0.88557 1.07072,-2.59161 0,-1.70604 -1.07072,-2.56557 -1.05644,-0.87256 -3.14077,-0.87256 z"
       style="font-style:normal;font-weight:normal;font-size:40px;line-height:125%;font-family:sans-serif;letter-spacing:0px;word-spacing:0px;fill:#ffffff;fill-opacity:1;stroke:#ffffff;stroke-width:0.69800001;stroke-linecap:butt;stroke-linejoin:miter;stroke-miterlimit:4;stroke-dasharray:none;stroke-opacity:1"
       id="path38"
       inkscape:connector-curvature="0" />
    <path
       d="m 200.69712,122.47054 v 2.77394 q -1.45617,-1.2372 -3.11221,-1.84929 -1.64177,-0.61209 -3.49768,-0.61209 -3.65472,0 -5.59629,2.04464 -1.94157,2.03162 -1.94157,5.88649 0,3.84184 1.94157,5.88649 1.94157,2.03161 5.59629,2.03161 1.85591,0 3.49768,-0.61209 1.65604,-0.61209 3.11221,-1.84929 v 2.74789 q -1.51328,0.93768 -3.21215,1.40651 -1.6846,0.46884 -3.56906,0.46884 -4.83964,0 -7.62351,-2.69581 -2.78386,-2.70882 -2.78386,-7.38415 0,-4.68836 2.78386,-7.38416 2.78387,-2.70883 7.62351,-2.70883 1.91302,0 3.59761,0.46884 1.69888,0.45581 3.1836,1.38046 z"
       style="font-style:normal;font-weight:normal;font-size:40px;line-height:125%;font-family:sans-serif;letter-spacing:0px;word-spacing:0px;fill:#ffffff;fill-opacity:1;stroke:#ffffff;stroke-width:0.69800001;stroke-linecap:butt;stroke-linejoin:miter;stroke-miterlimit:4;stroke-dasharray:none;stroke-opacity:1"
       id="path40-3"
       inkscape:connector-curvature="0" />
    <path
       d="m 238.86281,123.56449 -3.91168,9.67624 h 7.83765 z m -1.62749,-2.59162 h 3.26926 l 8.12318,19.44364 h -2.998 l -1.94157,-4.98788 h -9.60792 l -1.94157,4.98788 h -3.04083 z"
       style="font-style:normal;font-weight:normal;font-size:40px;line-height:125%;font-family:sans-serif;letter-spacing:0px;word-spacing:0px;fill:#ffffff;fill-opacity:1;stroke:#ffffff;stroke-width:0.69800001;stroke-linecap:butt;stroke-linejoin:miter;stroke-miterlimit:4;stroke-dasharray:none;stroke-opacity:1"
       id="path42"
       inkscape:connector-curvature="0" />
    <path
       d="m 277.21144,123.13472 v 15.11994 h 3.48341 q 4.41135,0 6.45285,-1.82325 2.05578,-1.82325 2.05578,-5.75625 0,-3.90696 -2.05578,-5.71719 -2.0415,-1.82325 -6.45285,-1.82325 z m -2.8838,-2.16185 h 5.92464 q 6.19589,0 9.09396,2.3572 2.89808,2.34418 2.89808,7.34509 0,5.02695 -2.91235,7.38415 -2.91235,2.3572 -9.07969,2.3572 h -5.92464 z"
       style="font-style:normal;font-weight:normal;font-size:40px;line-height:125%;font-family:sans-serif;letter-spacing:0px;word-spacing:0px;fill:#ffffff;fill-opacity:1;stroke:#ffffff;stroke-width:0.69800001;stroke-linecap:butt;stroke-linejoin:miter;stroke-miterlimit:4;stroke-dasharray:none;stroke-opacity:1"
       id="path44"
       inkscape:connector-curvature="0" />
    <path
       d="m 321.42893,120.97287 h 13.47677 v 2.21394 h -10.59297 v 5.75626 h 10.15041 v 2.21394 h -10.15041 v 7.04556 h 10.84994 v 2.21394 h -13.73374 z"
       style="font-style:normal;font-weight:normal;font-size:40px;line-height:125%;font-family:sans-serif;letter-spacing:0px;word-spacing:0px;fill:#ffffff;fill-opacity:1;stroke:#ffffff;stroke-width:0.69800001;stroke-linecap:butt;stroke-linejoin:miter;stroke-miterlimit:4;stroke-dasharray:none;stroke-opacity:1"
       id="path46"
       inkscape:connector-curvature="0" />
  </g>
</svg>
