<?xml version="1.0" encoding="UTF-8" standalone="no"?>
<!-- Created with Inkscape (http://www.inkscape.org/) -->

<svg
   xmlns:dc="http://purl.org/dc/elements/1.1/"
   xmlns:cc="http://creativecommons.org/ns#"
   xmlns:rdf="http://www.w3.org/1999/02/22-rdf-syntax-ns#"
   xmlns:svg="http://www.w3.org/2000/svg"
   xmlns="http://www.w3.org/2000/svg"
   xmlns:sodipodi="http://sodipodi.sourceforge.net/DTD/sodipodi-0.dtd"
   xmlns:inkscape="http://www.inkscape.org/namespaces/inkscape"
   width="500"
   height="200"
   viewBox="0 0 500 200"
   version="1.1"
   id="svg38"
   inkscape:version="0.92.5 (2060ec1f9f, 2020-04-08)"
   sodipodi:docname="kaneko.svg">
  <defs
     id="defs32" />
  <sodipodi:namedview
     id="base"
     pagecolor="#ffffff"
     bordercolor="#666666"
     borderopacity="1.0"
     inkscape:pageopacity="0.0"
     inkscape:pageshadow="2"
     inkscape:zoom="0.85828166"
     inkscape:cx="185.41972"
     inkscape:cy="28.976735"
     inkscape:document-units="mm"
     inkscape:current-layer="layer1"
     showgrid="false"
     units="px"
     inkscape:pagecheckerboard="true"
     inkscape:window-width="1366"
     inkscape:window-height="743"
     inkscape:window-x="0"
     inkscape:window-y="0"
     inkscape:window-maximized="1" />
  <metadata
     id="metadata35">
    <rdf:RDF>
      <cc:Work
         rdf:about="">
        <dc:format>image/svg+xml</dc:format>
        <dc:type
           rdf:resource="http://purl.org/dc/dcmitype/StillImage" />
        <dc:title />
      </cc:Work>
    </rdf:RDF>
  </metadata>
  <g
     inkscape:label="Layer 1"
     inkscape:groupmode="layer"
     id="layer1"
     transform="translate(-1.8612537,-257.40877)">
    <g
       id="g6"
       style="line-height:125%;fill:#ff0000;stroke:#ffffff;stroke-width:5.77144432;stroke-miterlimit:4;stroke-dasharray:none;stroke-opacity:1"
       transform="matrix(0.80968565,0,0,0.80968565,-53.54905,-410.67874)">
      <path
         inkscape:connector-curvature="0"
         id="path4"
         word-spacing="0"
         letter-spacing="0"
         font-size="159.402"
         font-weight="400"
         d="m 108.246,940.261 35.219,-43.041 h 33.974 l -42.73,52.926 50.046,53.238 h -41.29 l -35.22,-37.632 z M 226.902,897.22 h 34.09 l 35.57,106.164 H 192.616 l 20.548,-66.314 h 26.775 l -10.663,41.757 h 28.058 z m 140.138,0 q 16.267,0 23.116,6.226 6.694,6.227 6.694,20.237 v 79.7 h -34.286 v -68.22 q 0,-6.382 -0.467,-8.445 -0.467,-1.906 -2.413,-2.568 -1.906,-0.467 -7.627,-0.467 H 335.79 v 79.7 H 304.073 V 897.22 Z m 113.908,39.85 v 26.463 h -43.042 v 13.388 h 43.042 v 26.463 H 406.19 V 937.07 Z M 406.19,897.22 h 74.758 v 26.463 H 406.19 Z m 82.814,43.041 35.219,-43.041 h 33.974 l -42.73,52.926 50.046,53.238 h -41.29 l -35.22,-37.632 z m 139.204,-13.698 q -9.574,0 -16.267,6.849 -6.85,7.005 -6.85,16.734 0,9.885 6.85,16.89 6.849,7.005 16.267,7.005 6.226,0 11.48,-3.347 5.254,-3.191 8.29,-8.6 2.879,-5.41 2.879,-11.948 0,-9.729 -6.538,-16.734 -6.538,-6.85 -16.111,-6.85 z m 0,-32.223 q 11.169,0 21.209,4.475 9.885,4.476 17.357,11.948 7.355,7.666 11.636,17.862 4.32,10.352 4.32,21.521 0,15.139 -7.356,28.059 -7.472,12.92 -20.08,20.392 -12.57,7.666 -27.086,7.666 -14.516,0 -27.242,-7.666 -12.764,-7.472 -20.12,-20.392 -7.472,-12.92 -7.472,-28.059 0,-11.169 4.32,-21.52 4.28,-10.197 11.792,-17.863 7.316,-7.472 17.512,-11.948 10.04,-4.475 21.21,-4.475 z"
         style="font-weight:400;font-size:159.4019928px;font-family:Stop;-inkscape-font-specification:Stop;letter-spacing:0;word-spacing:0;fill:#ff0000;stroke:#ffffff;stroke-width:5.77144432;stroke-miterlimit:4;stroke-dasharray:none;stroke-opacity:1" />
    </g>
    <path
       style="fill:#ff0000;stroke:#ffffff;stroke-width:4.67305517;stroke-miterlimit:4;stroke-dasharray:none"
       inkscape:connector-curvature="0"
       id="path8"
       d="M 6.5280189,316.93312 H 29.34415 v 83.72552 H 6.5280189 Z" />
    <path
       d="m 18.86377,455.39552 c -1.486714,0.69492 -3.014641,1.04133 -4.585899,1.04133 -1.515557,0 -2.928037,-0.2785 -4.241511,-0.83304 -1.3135166,-0.55466 -2.4476005,-1.30729 -3.4064416,-2.25788 -0.9588184,-0.9506 -1.7114547,-2.07854 -2.2578874,-3.38579 -0.5464097,-1.30733 -0.8185937,-2.71361 -0.8185937,-4.21886 0,-1.50526 0.2783653,-2.91772 0.8330369,-4.2353 0.5567655,-1.31558 1.3135009,-2.44966 2.2723185,-3.40026 0.9588263,-0.95063 2.0929137,-1.70322 3.4064263,-2.25788 1.313501,-0.55467 2.717723,-0.83309 4.212652,-0.83309 1.608374,0 3.171355,0.35261 4.684859,1.05577 1.515569,0.70311 2.742431,1.64751 3.680659,2.8373 l -2.816695,2.88059 c -0.709323,-0.91141 -1.544428,-1.60834 -2.501178,-2.09497 -0.958837,-0.48453 -1.9754,-0.72791 -3.047645,-0.72791 -0.901092,0 -1.750647,0.17521 -2.544503,0.52171 -0.795916,0.3465 -1.480524,0.82067 -2.0558197,1.42484 -0.5752804,0.60414 -1.0247985,1.31763 -1.3526552,2.14034 -0.3257946,0.82067 -0.4886989,1.71765 -0.4886989,2.68886 0,0.95059 0.1690014,1.83724 0.5031417,2.65791 0.3360982,0.82275 0.7959164,1.53001 1.38153,2.12386 0.5835411,0.59589 1.2743081,1.066 2.0702401,1.4125 0.793866,0.34607 1.661975,0.51958 2.600164,0.51958 1.055756,0 2.041388,-0.22926 2.963109,-0.6825 0.919649,-0.45572 1.734129,-1.10937 2.443452,-1.96098 l 2.730087,2.79193 c -0.958819,1.16913 -2.179534,2.09911 -3.664148,2.79194 z m 54.092314,0.23928 c -1.303183,0.55471 -2.703277,0.83099 -4.198235,0.83099 -1.476386,0 -2.866173,-0.27589 -4.169356,-0.83099 -1.303183,-0.55471 -2.429018,-1.31353 -3.377553,-2.27436 -0.948504,-0.96088 -1.701128,-2.0991 -2.255819,-3.41677 -0.556731,-1.31553 -0.835105,-2.71762 -0.835105,-4.20226 0,-1.48674 0.278335,-2.88687 0.835105,-4.20449 0.554691,-1.31753 1.307315,-2.4558 2.255819,-3.41673 0.948535,-0.96087 2.07437,-1.7176 3.377553,-2.27226 1.303183,-0.55471 2.69297,-0.83309 4.169356,-0.83309 1.494958,0 2.895052,0.27807 4.198235,0.83309 1.303183,0.55466 2.429023,1.31139 3.377544,2.27226 0.948514,0.96093 1.701133,2.0992 2.25789,3.41673 0.554669,1.31762 0.833039,2.71775 0.833039,4.20449 0,1.48464 -0.278335,2.88673 -0.833039,4.20226 -0.556757,1.31767 -1.309376,2.45589 -2.25789,3.41677 -0.948521,0.96083 -2.074361,1.71965 -3.377544,2.27436 z m -4.198235,-3.11974 c -0.901093,0 -1.738259,-0.17347 -2.51563,-0.51966 -0.775311,-0.34868 -1.44752,-0.82276 -2.01251,-1.42689 -0.564994,-0.60418 -1.010382,-1.32177 -1.336173,-2.15485 -0.325799,-0.83095 -0.488689,-1.7217 -0.488689,-2.67225 0,-0.97125 0.162921,-1.86824 0.488689,-2.6889 0.325799,-0.82272 0.771179,-1.53616 1.336173,-2.14034 0.56499,-0.60418 1.237199,-1.07843 2.01251,-1.42484 0.777371,-0.34868 1.614537,-0.52171 2.51563,-0.52171 0.901101,0 1.744461,0.17346 2.530075,0.52171 0.785618,0.3465 1.46195,0.82066 2.02694,1.42484 0.56499,0.60418 1.010387,1.31762 1.336177,2.14034 0.325799,0.82066 0.48869,1.71765 0.48869,2.6889 0,0.95055 -0.162921,1.8413 -0.48869,2.67225 -0.325799,0.83308 -0.771187,1.55067 -1.336177,2.15485 -0.56499,0.60413 -1.241322,1.07842 -2.02694,1.42689 -0.785614,0.3465 -1.628974,0.51966 -2.530075,0.51966 z m 63.191931,-0.17913 v 3.80437 h -15.18042 v -20.79731 h 4.16935 v 16.99294 z m 52.55407,3.80437 v -3.80437 h -11.01106 v -16.99294 h -4.16729 v 20.79731 z m 52.95824,-3.74484 v 3.74458 h -15.58251 v -20.79731 h 15.46704 v 3.74253 h -11.29767 v 4.75291 h 7.44586 v 3.62498 h -7.44586 v 4.93231 z m 46.22994,4.04153 c 1.57124,0 3.09918,-0.34607 4.58587,-1.04134 1.48464,-0.69283 2.7074,-1.62281 3.66417,-2.79198 l -2.73006,-2.79206 c -0.70934,0.85165 -1.52384,1.5053 -2.44348,1.96098 -0.91965,0.45363 -1.90735,0.6825 -2.96103,0.6825 -0.94026,0 -1.80631,-0.17347 -2.60224,-0.51958 -0.79593,-0.3465 -1.48669,-0.81661 -2.07025,-1.41251 -0.5856,-0.59384 -1.04544,-1.3011 -1.37946,-2.12386 -0.33613,-0.82066 -0.50314,-1.70732 -0.50314,-2.65791 0,-0.97121 0.16293,-1.86819 0.48871,-2.68885 0.3258,-0.82272 0.7753,-1.53621 1.3506,-2.14034 0.57529,-0.60418 1.25987,-1.07847 2.0558,-1.42484 0.79594,-0.34607 1.6434,-0.52167 2.54451,-0.52167 1.07223,0 2.0888,0.24364 3.04763,0.72787 0.95882,0.48663 1.79187,1.1836 2.5012,2.09496 l 2.8167,-2.88058 c -0.93822,-1.18979 -2.16511,-2.13415 -3.67863,-2.83731 -1.51556,-0.70316 -3.07649,-1.05576 -4.6869,-1.05576 -1.49495,0 -2.89917,0.27851 -4.21266,0.83308 -1.31143,0.55467 -2.44759,1.3073 -3.40642,2.25789 -0.95882,0.95059 -1.71558,2.08468 -2.27024,3.40025 -0.55676,1.31758 -0.83512,2.73005 -0.83512,4.2353 0,1.50526 0.27424,2.91153 0.82066,4.21887 0.54644,1.30729 1.29701,2.43519 2.25584,3.38578 0.95882,0.95059 2.09497,1.70322 3.40642,2.25789 1.31349,0.55471 2.728,0.83304 4.24152,0.83304 z m 55.14189,-17.29193 v 16.99498 h -4.16936 v -16.99498 h -6.78396 v -3.80246 h 17.71048 v 3.80232 z m 47.75377,16.99502 v -20.79731 h -4.16938 v 20.79731 z m 52.20969,-0.50524 c -1.30319,0.55471 -2.70324,0.83104 -4.19821,0.83104 -1.47435,0 -2.86411,-0.27633 -4.16729,-0.83104 -1.30319,-0.55462 -2.43108,-1.31343 -3.37958,-2.27431 -0.94855,-0.96092 -1.70118,-2.09911 -2.25585,-3.41673 -0.55673,-1.31557 -0.83304,-2.71771 -0.83304,-4.20231 0,-1.48673 0.27629,-2.88682 0.83304,-4.20444 0.55467,-1.31758 1.3073,-2.45585 2.25585,-3.41677 0.9485,-0.96088 2.07639,-1.71765 3.37958,-2.27231 1.30318,-0.55467 2.69294,-0.83304 4.16729,-0.83304 1.49497,0 2.89502,0.27807 4.19821,0.83304 1.3032,0.55466 2.42905,1.31143 3.37755,2.27231 0.9485,0.96092 1.70117,2.09919 2.25788,3.41677 0.55467,1.31762 0.83305,2.71771 0.83305,4.20444 0,1.4846 -0.27808,2.88674 -0.83305,4.20231 -0.55671,1.31762 -1.30938,2.45581 -2.25788,3.41673 -0.9485,0.96088 -2.07435,1.71969 -3.37755,2.27431 z m -4.19821,-3.11973 c -0.90108,0 -1.73826,-0.17347 -2.51564,-0.51963 -0.7753,-0.34868 -1.44545,-0.82275 -2.01252,-1.42689 -0.56497,-0.60417 -1.01036,-1.32176 -1.33616,-2.1548 -0.32588,-0.831 -0.48869,-1.72179 -0.48869,-2.6723 0,-0.97125 0.16292,-1.86823 0.48869,-2.6889 0.32589,-0.82275 0.77119,-1.53615 1.33616,-2.14037 0.56707,-0.60414 1.23722,-1.07839 2.01252,-1.42485 0.77738,-0.34868 1.61456,-0.52167 2.51564,-0.52167 0.90104,0 1.74446,0.17347 2.53004,0.52167 0.78566,0.34651 1.46197,0.82071 2.02697,1.42485 0.56499,0.60422 1.01244,1.31762 1.33823,2.14037 0.32602,0.82067 0.48868,1.71765 0.48868,2.6889 0,0.95051 -0.16301,1.8413 -0.48868,2.6723 -0.32601,0.83304 -0.77324,1.55063 -1.33823,2.1548 -0.565,0.60414 -1.24131,1.07843 -2.02697,1.42689 -0.78558,0.34651 -1.629,0.51963 -2.53004,0.51963 z m 51.95198,-10.28117 v 13.90614 h -3.9384 V 435.34277 H 486.58 l 10.00485,13.45871 v -13.45871 h 3.90954 v 20.79731 h -3.68068 z"
       id="path40"
       inkscape:connector-curvature="0"
       style="clip-rule:evenodd;fill:#ffffff;fill-rule:evenodd;stroke-width:2.06199551" />
    <g
       id="g48"
       transform="matrix(0.99975161,0,0,0.99975161,35.437218,137.1664)">
      <path
         d="m 98.368707,123.56449 -3.911684,9.67624 h 7.837657 z m -1.627486,-2.59162 h 3.269259 l 8.12318,19.44364 h -2.99801 l -1.94157,-4.98788 h -9.607908 l -1.941568,4.98788 h -3.040839 z"
         style="font-style:normal;font-weight:normal;font-size:40px;line-height:125%;font-family:sans-serif;letter-spacing:0px;word-spacing:0px;fill:#ffffff;fill-opacity:1;stroke:#ffffff;stroke-width:0.69800001;stroke-linecap:butt;stroke-linejoin:miter;stroke-miterlimit:4;stroke-dasharray:none;stroke-opacity:1"
         id="path36"
         inkscape:connector-curvature="0" />
      <path
         d="m 149.94112,131.30027 q 0.92796,0.28651 1.79881,1.22418 0.88512,0.93767 1.77025,2.5786 l 2.92663,5.31346 h -3.09794 l -2.72677,-4.98788 q -1.05644,-1.95348 -2.05577,-2.59162 -0.98506,-0.63814 -2.69821,-0.63814 h -3.14077 v 8.21764 h -2.88381 v -19.44364 h 6.50997 q 3.65472,0 5.45352,1.39348 1.79881,1.39349 1.79881,4.2065 0,1.83627 -0.94223,3.04743 -0.92796,1.21115 -2.71249,1.67999 z m -7.22378,-8.16555 v 6.9023 h 3.62617 q 2.08433,0 3.14077,-0.87256 1.07072,-0.88557 1.07072,-2.59161 0,-1.70604 -1.07072,-2.56557 -1.05644,-0.87256 -3.14077,-0.87256 z"
         style="font-style:normal;font-weight:normal;font-size:40px;line-height:125%;font-family:sans-serif;letter-spacing:0px;word-spacing:0px;fill:#ffffff;fill-opacity:1;stroke:#ffffff;stroke-width:0.69800001;stroke-linecap:butt;stroke-linejoin:miter;stroke-miterlimit:4;stroke-dasharray:none;stroke-opacity:1"
         id="path38"
         inkscape:connector-curvature="0" />
      <path
         d="m 200.69712,122.47054 v 2.77394 q -1.45617,-1.2372 -3.11221,-1.84929 -1.64177,-0.61209 -3.49768,-0.61209 -3.65472,0 -5.59629,2.04464 -1.94157,2.03162 -1.94157,5.88649 0,3.84184 1.94157,5.88649 1.94157,2.03161 5.59629,2.03161 1.85591,0 3.49768,-0.61209 1.65604,-0.61209 3.11221,-1.84929 v 2.74789 q -1.51328,0.93768 -3.21215,1.40651 -1.6846,0.46884 -3.56906,0.46884 -4.83964,0 -7.62351,-2.69581 -2.78386,-2.70882 -2.78386,-7.38415 0,-4.68836 2.78386,-7.38416 2.78387,-2.70883 7.62351,-2.70883 1.91302,0 3.59761,0.46884 1.69888,0.45581 3.1836,1.38046 z"
         style="font-style:normal;font-weight:normal;font-size:40px;line-height:125%;font-family:sans-serif;letter-spacing:0px;word-spacing:0px;fill:#ffffff;fill-opacity:1;stroke:#ffffff;stroke-width:0.69800001;stroke-linecap:butt;stroke-linejoin:miter;stroke-miterlimit:4;stroke-dasharray:none;stroke-opacity:1"
         id="path40-3"
         inkscape:connector-curvature="0" />
      <path
         d="m 238.86281,123.56449 -3.91168,9.67624 h 7.83765 z m -1.62749,-2.59162 h 3.26926 l 8.12318,19.44364 h -2.998 l -1.94157,-4.98788 h -9.60792 l -1.94157,4.98788 h -3.04083 z"
         style="font-style:normal;font-weight:normal;font-size:40px;line-height:125%;font-family:sans-serif;letter-spacing:0px;word-spacing:0px;fill:#ffffff;fill-opacity:1;stroke:#ffffff;stroke-width:0.69800001;stroke-linecap:butt;stroke-linejoin:miter;stroke-miterlimit:4;stroke-dasharray:none;stroke-opacity:1"
         id="path42"
         inkscape:connector-curvature="0" />
      <path
         d="m 277.21144,123.13472 v 15.11994 h 3.48341 q 4.41135,0 6.45285,-1.82325 2.05578,-1.82325 2.05578,-5.75625 0,-3.90696 -2.05578,-5.71719 -2.0415,-1.82325 -6.45285,-1.82325 z m -2.8838,-2.16185 h 5.92464 q 6.19589,0 9.09396,2.3572 2.89808,2.34418 2.89808,7.34509 0,5.02695 -2.91235,7.38415 -2.91235,2.3572 -9.07969,2.3572 h -5.92464 z"
         style="font-style:normal;font-weight:normal;font-size:40px;line-height:125%;font-family:sans-serif;letter-spacing:0px;word-spacing:0px;fill:#ffffff;fill-opacity:1;stroke:#ffffff;stroke-width:0.69800001;stroke-linecap:butt;stroke-linejoin:miter;stroke-miterlimit:4;stroke-dasharray:none;stroke-opacity:1"
         id="path44"
         inkscape:connector-curvature="0" />
      <path
         d="m 321.42893,120.97287 h 13.47677 v 2.21394 h -10.59297 v 5.75626 h 10.15041 v 2.21394 h -10.15041 v 7.04556 h 10.84994 v 2.21394 h -13.73374 z"
         style="font-style:normal;font-weight:normal;font-size:40px;line-height:125%;font-family:sans-serif;letter-spacing:0px;word-spacing:0px;fill:#ffffff;fill-opacity:1;stroke:#ffffff;stroke-width:0.69800001;stroke-linecap:butt;stroke-linejoin:miter;stroke-miterlimit:4;stroke-dasharray:none;stroke-opacity:1"
         id="path46"
         inkscape:connector-curvature="0" />
    </g>
  </g>
</svg>
