<?xml version="1.0" encoding="UTF-8" standalone="no"?>
<svg
   xmlns:dc="http://purl.org/dc/elements/1.1/"
   xmlns:cc="http://creativecommons.org/ns#"
   xmlns:rdf="http://www.w3.org/1999/02/22-rdf-syntax-ns#"
   xmlns:svg="http://www.w3.org/2000/svg"
   xmlns="http://www.w3.org/2000/svg"
   xmlns:sodipodi="http://sodipodi.sourceforge.net/DTD/sodipodi-0.dtd"
   xmlns:inkscape="http://www.inkscape.org/namespaces/inkscape"
   width="500"
   height="200"
   viewBox="0 0 500 200"
   version="1.1"
   id="svg95"
   sodipodi:docname="konami.svg"
   inkscape:version="0.92.5 (2060ec1f9f, 2020-04-08)">
  <metadata
     id="metadata101">
    <rdf:RDF>
      <cc:Work
         rdf:about="">
        <dc:format>image/svg+xml</dc:format>
        <dc:type
           rdf:resource="http://purl.org/dc/dcmitype/StillImage" />
        <dc:title>mainlogo</dc:title>
      </cc:Work>
    </rdf:RDF>
  </metadata>
  <defs
     id="defs99" />
  <sodipodi:namedview
     pagecolor="#ffffff"
     bordercolor="#666666"
     borderopacity="1"
     objecttolerance="10"
     gridtolerance="10"
     guidetolerance="10"
     inkscape:pageopacity="0"
     inkscape:pageshadow="2"
     inkscape:window-width="1366"
     inkscape:window-height="743"
     id="namedview97"
     showgrid="false"
     inkscape:pagecheckerboard="true"
     inkscape:zoom="1.3031825"
     inkscape:cx="86.036173"
     inkscape:cy="92.376387"
     inkscape:window-x="0"
     inkscape:window-y="0"
     inkscape:window-maximized="1"
     inkscape:current-layer="svg95" />
  <title
     id="title70">mainlogo</title>
  <path
     d="m 1.5347045,107.89581 c 11.8742005,1.34314 23.7472995,2.68847 29.8442955,0.85352 6.095894,-1.83274 6.414583,-6.84686 6.733272,-11.858765 1.16338,-3.633496 2.879229,-7.271406 5.496008,-10.915929 0.877773,-1.253805 1.893388,-2.410569 3.02479,-3.441622 1.133607,-1.033259 2.383,-1.9386 3.7151,-2.695073 1.334303,-0.758678 2.75462,-1.369591 4.222354,-1.8173 v 0 l 5.620616,-1.079573 5.669138,-0.790657 v 0 c 2.403952,-0.334128 4.853116,-1.077368 7.219576,-2.310221 1.125887,-0.587755 2.203255,-1.265934 3.427286,-2.245159 1.226236,-0.982532 2.598033,-2.262802 3.817654,-3.672091 1.221825,-1.411496 2.29037,-2.953113 3.191301,-4.585153 0.899831,-1.634247 1.630941,-3.358917 2.177895,-5.14093 1.428039,-3.953289 2.763438,-7.920913 4.009531,-11.90177 -10.32487,-2.588108 -22.474755,-2.605752 -28.852947,-0.465352 -6.378193,2.138194 -6.988003,6.431124 -7.573552,9.354462 -0.587756,2.923338 -1.149046,4.477086 -1.789733,5.999955 -0.63848,1.522873 -1.355255,3.017072 -2.106214,4.342554 -0.750961,1.32438 -1.537208,2.485554 -2.441447,3.547484 -0.904239,1.061929 -1.925366,2.026818 -3.035817,2.873715 -1.16338,0.788452 -2.327863,1.575801 -3.532045,2.159146 -2.388514,1.179922 -4.932513,1.630939 -7.424683,2.3422 -3.523224,0.657227 -7.118125,1.092806 -10.651273,2.124961 -1.74893,0.505051 -3.438314,1.220722 -5.017423,2.127166 -1.578007,0.903137 -3.04464,2.000354 -4.359094,3.253056 -1.314455,1.254907 -2.473425,2.667505 -3.4482376,4.196991 -0.5723173,0.885493 -1.143532,1.770986 -1.8547922,3.173659 -0.7123639,1.403776 -1.5658779,3.324733 -2.4171858,5.244586 -1.4170079,3.74708 -2.6355255,7.52393 -3.6643729,11.32614 z"
     id="Path"
     inkscape:connector-curvature="0"
     style="fill:#f3ad2c;fill-rule:evenodd;stroke:none;stroke-width:1.22525597" />
  <path
     d="m 23.750312,138.58259 c 11.873098,1.34203 23.748401,2.68736 29.844296,0.85352 6.095893,-1.83384 6.413479,-6.84465 6.733271,-11.85876 1.163381,-3.6335 2.881435,-7.27362 5.497111,-10.91704 0.876671,-1.2538 1.892286,-2.41167 3.026995,-3.44162 1.131402,-1.03105 2.380795,-1.93639 3.715099,-2.69507 1.334304,-0.75868 2.752415,-1.36849 4.222354,-1.8162 v 0 l 5.618414,-1.07956 5.669135,-0.79287 v 0 c 2.403953,-0.33083 4.854217,-1.07407 7.219582,-2.30691 1.126984,-0.58886 2.20325,-1.26594 3.427282,-2.24847 1.225137,-0.97923 2.598029,-2.2617 3.819849,-3.672096 1.21963,-1.409287 2.29038,-2.95311 3.1891,-4.58515 0.90093,-1.632042 1.63094,-3.356712 2.179,-5.137623 1.42693,-3.954391 2.76234,-7.922015 4.00842,-11.902872 -10.32486,-2.58921 -22.473644,-2.604649 -28.854039,-0.465352 -6.378194,2.138194 -6.988003,6.431124 -7.573554,9.354462 -0.587754,2.922235 -1.150147,4.475982 -1.788628,5.998854 -0.639584,1.522871 -1.355256,3.015968 -2.107318,4.342552 -0.750959,1.325483 -1.538308,2.483351 -2.441445,3.547488 -0.903137,1.059717 -1.925367,2.025707 -3.034713,2.873707 -1.164484,0.78956 -2.328967,1.57581 -3.532046,2.15805 -2.389617,1.18213 -4.932513,1.63204 -7.425786,2.3433 -3.524327,0.65612 -7.117024,1.09281 -10.652377,2.12386 -1.748931,0.50726 -3.438313,1.22182 -5.016321,2.12606 -1.578007,0.90534 -3.045741,2.00036 -4.359093,3.25637 -2.965242,2.7877 -4.912664,6.41899 -6.491774,9.71175 -2.090777,4.70755 -3.584976,9.44599 -4.892814,14.22962 z"
     id="path73"
     inkscape:connector-curvature="0"
     style="fill:#eb302e;fill-rule:evenodd;stroke:none;stroke-width:1.22525597" />
  <polygon
     id="polygon75"
     points="172.00441,1.7136001 156.01951,1.7136001 133.32781,22.264201 140.64571,1.7181001 127.12501,1.7136001 108.6624,51.141602 121.98511,51.147902 132.3108,24.585301 139.15261,51.141602 154.77841,51.141602 148.08511,24.514201 "
     style="fill:#ffffff;fill-rule:evenodd;stroke:none;stroke-width:1"
     transform="matrix(1.225256,0,0,1.225256,-21.60967,61.117081)" />
  <path
     d="m 234.73876,73.478689 c -0.57231,-1.616602 -1.4181,-3.141679 -2.47673,-4.502448 -1.05973,-1.360769 -2.33228,-2.558335 -3.76141,-3.526532 -1.42804,-0.965992 -3.01156,-1.703719 -4.82335,-2.28596 -3.68973,-1.168895 -8.04221,-1.704822 -12.13224,-1.621014 -2.07754,0.04411 -4.15067,0.244807 -6.60094,0.713467 -2.45137,0.467557 -5.27877,1.205284 -7.93304,2.352123 -2.65317,1.14684 -5.13652,2.706102 -7.31993,4.593976 -2.1823,1.886771 -4.06797,4.105465 -5.45851,6.035244 -1.38834,1.928676 -2.28266,3.567333 -3.13947,5.221429 -0.85462,1.654094 -1.67506,3.322526 -2.42491,5.021833 -1.44348,3.362226 -2.78219,6.618588 -3.82647,9.7735 -0.49623,1.564774 -0.88329,3.164833 -1.16449,4.782543 -0.28009,1.61771 -0.45212,3.25306 -0.53592,4.48039 -0.0838,1.22844 -0.0805,2.04556 -0.0364,2.8627 0.0419,0.81601 0.12241,1.63093 0.22937,2.44254 0.10363,0.81602 0.23378,1.62984 0.69142,2.93657 0.45652,1.30784 1.23836,3.10418 2.33669,4.69984 1.09831,1.59565 2.51201,2.98288 4.12421,4.07569 1.61329,1.09281 3.42287,1.89229 5.48387,2.47232 4.17604,1.15897 9.0854,1.50192 13.68599,1.22844 2.32786,-0.14115 4.64691,-0.45322 7.18429,-1.10052 2.53848,-0.64841 5.292,-1.63756 7.82828,-3.02921 2.53738,-1.39164 4.85532,-3.18467 6.83142,-5.28538 1.97829,-2.09849 3.61475,-4.50685 5.0494,-7.14459 1.43576,-2.64104 2.66971,-5.51035 3.84412,-8.3995 1.1733,-2.890255 2.28706,-5.798155 3.06118,-7.959507 0.77411,-2.160249 1.20969,-3.571743 1.5394,-5.007498 0.33082,-1.437961 0.55909,-2.897976 0.69253,-4.367916 0.27126,-2.901284 0.18194,-6.194038 -0.94836,-9.46253 z m -15.98187,8.997178 c -0.88549,3.297164 -1.77099,6.593225 -2.84394,9.830842 -1.07296,3.237616 -2.33117,6.411278 -3.58939,9.587141 -0.91857,2.17679 -2.1823,4.39438 -3.81103,6.43774 -1.08178,1.35415 -2.20216,2.29699 -3.43611,2.99392 -1.4137,0.80388 -2.89247,1.24276 -4.33705,1.42362 -2.19884,0.27457 -4.45171,-0.0541 -6.2238,-0.86124 -0.966,-0.4477 -1.95625,-1.12368 -2.75462,-1.98602 -1.213,-1.33981 -1.59896,-2.73917 -1.67836,-4.07679 -0.0716,-1.51956 0.10807,-3.03471 0.49071,-4.50355 1.80738,-7.129152 4.48592,-14.221915 8.22197,-21.207711 0.50946,-1.013409 1.16448,-1.955141 1.93859,-2.785497 0.77412,-0.83146 1.67174,-1.552645 2.65097,-2.124962 2.01028,-1.149046 4.03489,-1.660713 5.74633,-1.782014 2.56385,-0.132327 5.28759,0.09153 7.47871,1.939705 0.66054,0.571214 1.20971,1.26814 1.6133,2.041154 0.40249,0.773013 0.65944,1.622116 0.74875,2.487759 0.0927,0.865644 0.0165,1.745622 -0.21503,2.585903 z"
     id="Shape"
     inkscape:connector-curvature="0"
     style="fill:#ffffff;fill-rule:evenodd;stroke:none;stroke-width:1.22525597" />
  <polygon
     id="polygon78"
     points="221.99581,1.7136001 203.89771,51.147902 216.51121,51.147902 229.67281,14.226301 230.87251,51.147902 250.07491,51.147902 268.52401,1.7136001 255.96001,1.7145001 242.93251,37.662301 241.90561,1.7136001 "
     style="fill:#ffffff;fill-rule:evenodd;stroke:none;stroke-width:1"
     transform="matrix(1.225256,0,0,1.225256,-21.60967,61.117081)" />
  <path
     d="m 332.78032,111.75226 -0.33964,12.04292 h 15.84513 l 1.07957,-60.581808 h -21.30916 l -39.781,60.576298 h 16.44612 l 8.21644,-11.99992 z m 1.54602,-34.232063 -0.81602,22.035858 -12.51709,0.03198 z"
     id="path80"
     inkscape:connector-curvature="0"
     style="fill:#ffffff;fill-rule:evenodd;stroke:none;stroke-width:1.22525597" />
  <polygon
     id="polygon82"
     points="304.21981,51.146102 316.80811,51.146102 330.48001,14.486401 327.63601,51.155102 340.95421,51.155102 364.41181,15.003901 350.73721,51.150602 363.71611,51.150602 382.26961,1.7280001 359.92261,1.7280001 340.44121,33.627601 344.78101,1.7235001 322.68511,1.7235001 "
     style="fill:#ffffff;fill-rule:evenodd;stroke:none;stroke-width:1"
     transform="matrix(1.225256,0,0,1.225256,-21.60967,61.117081)" />
  <polygon
     id="polygon84"
     points="390.95192,1.7244001 372.43261,51.152402 385.23692,51.152402 403.93802,1.7244001 "
     style="fill:#ffffff;fill-rule:evenodd;stroke:none;stroke-width:1"
     transform="matrix(1.225256,0,0,1.225256,-21.60967,61.117081)" />
  <path
     d="m 497.44224,67.403747 c -0.29334,-0.777425 -0.73664,-1.496405 -1.30123,-2.107317 -1.80738,-1.876848 -4.10547,-2.412775 -6.36827,-1.870231 -0.74765,0.189669 -1.46222,0.51718 -2.09739,0.957169 -0.63517,0.438887 -1.19095,0.994664 -1.62873,1.628733 -0.89432,1.286887 -1.27035,2.877025 -1.08509,4.381149 0.0905,0.763089 0.3209,1.508535 0.67597,2.191125 0.3595,0.68259 0.84249,1.300119 1.41702,1.813991 1.97498,1.687179 4.26204,2.06762 6.68695,1.20308 0.77742,-0.299943 1.4964,-0.754269 2.0996,-1.326586 1.94631,-1.906621 2.47562,-4.408716 1.60117,-6.871113 m -2.1382,6.15103 c -0.51498,0.507256 -1.12809,0.914164 -1.79856,1.187641 -2.1018,0.79176 -4.06466,0.4841 -5.78492,-0.922985 -0.50395,-0.432271 -0.9307,-0.95276 -1.24719,-1.533898 -1.05752,-2.011381 -0.82925,-4.004014 0.21945,-5.65811 0.3617,-0.55357 0.82484,-1.040977 1.36077,-1.433549 0.53372,-0.39147 1.14132,-0.689207 1.7809,-0.871157 1.95735,-0.5249 3.94999,-0.09042 5.52027,1.452295 0.50395,0.514975 0.90645,1.128094 1.18213,1.794143 0.83036,2.147016 0.39036,4.322703 -1.23285,5.98562"
     id="path86"
     inkscape:connector-curvature="0"
     style="fill:none;fill-rule:evenodd;stroke:#ffffff;stroke-width:0.61262798" />
  <path
     d="m 493.73816,70.281874 c -0.26024,-0.338538 -0.56019,-0.435579 -0.85682,-0.516078 0.37493,-0.08712 0.94504,-0.278991 1.22513,-0.964889 0.23929,-0.649508 0.29112,-1.381722 -0.44109,-2.166865 -0.71457,-0.687002 -1.57911,-0.598783 -2.39072,-0.61753 v 0 l -2.72043,0.0022 0.008,7.207448 1.51846,0.0066 v -2.89136 0 c 0.6892,0.07719 1.43244,-0.275682 2.21428,0.437784 0.51718,0.76309 0.16541,1.370695 0.54034,2.44696 v 0 l 1.52948,-0.0022 v 0 c -0.44881,-0.963786 -0.0463,-1.915443 -0.62745,-2.942085 v 0 0 z m -1.46001,-1.253804 c -0.71457,0.277888 -1.46443,0.100352 -2.19664,0.134533 v 0 -1.915443 0 c 0.74765,0.04852 1.43244,-0.152177 2.24405,0.154382 0.54034,0.34736 0.67819,1.135812 -0.0474,1.626528 z"
     id="path88"
     inkscape:connector-curvature="0"
     style="fill:#ffffff;fill-rule:evenodd;stroke:none;stroke-width:1.22525597" />
  <path
     d="m 13.488176,196.99872 c 1.557507,0 3.072273,-0.3435 4.544299,-1.03048 1.47201,-0.687 2.682883,-1.60952 3.632573,-2.76759 v 0 l -2.706626,-2.76758 c -0.702773,0.844 -1.510022,1.49175 -2.421716,1.9432 -0.91171,0.45144 -1.889888,0.67716 -2.934547,0.67716 -0.930707,0 -1.790187,-0.17173 -2.578423,-0.51523 -0.788251,-0.34349 -1.4720262,-0.80967 -2.0513396,-1.39851 -0.5793287,-0.58885 -1.0351685,-1.29058 -1.367565,-2.10514 -0.3323964,-0.81459 -0.4985947,-1.69294 -0.4985947,-2.6351 0,-0.9618 0.1613767,-1.84997 0.4843582,-2.66454 0.3228904,-0.81458 0.7692392,-1.52119 1.3390617,-2.11986 0.5698073,-0.59866 1.2488524,-1.06974 2.0370884,-1.41324 0.788251,-0.34348 1.628733,-0.51524 2.521431,-0.51524 1.063672,0 2.070338,0.24045 3.020042,0.72134 0.949704,0.4809 1.77592,1.1728 2.478691,2.0757 v 0 l 2.792107,-2.85593 c -0.930693,-1.17768 -2.146311,-2.11493 -3.646825,-2.81174 -1.500515,-0.6968 -3.048515,-1.0452 -4.644015,-1.0452 -1.481517,0 -2.872809,0.27479 -4.1738922,0.82438 -1.3010826,0.5496 -2.4264609,1.29548 -3.376165,2.23763 -0.9496891,0.94215 -1.6999463,2.06587 -2.2507717,3.37115 -0.5508254,1.30528 -0.8262305,2.7038 -0.8262305,4.19555 0,1.49174 0.2706596,2.88536 0.8119788,4.18083 0.5413345,1.29546 1.286831,2.41428 2.23652,3.35644 0.9497043,0.94214 2.0750825,1.68802 3.3761803,2.23761 1.3010833,0.5496 2.7018813,0.82439 4.2023803,0.82439 z m 53.990107,0.0295 c 1.481533,0 2.868095,-0.27479 4.159672,-0.82439 1.291591,-0.54959 2.407479,-1.30037 3.347676,-2.25234 0.940199,-0.95198 1.685696,-2.0806 2.236521,-3.38588 0.550825,-1.30529 0.82623,-2.69399 0.82623,-4.1661 0,-1.47213 -0.275405,-2.86084 -0.82623,-4.16611 -0.550825,-1.30529 -1.296322,-2.43391 -2.236521,-3.38587 -0.940197,-0.95197 -2.056085,-1.70277 -3.347676,-2.25235 -1.291577,-0.5496 -2.678139,-0.82439 -4.159672,-0.82439 -1.462534,0 -2.83956,0.27479 -4.131168,0.82439 -1.291591,0.54958 -2.407462,1.30038 -3.347661,2.25235 -0.940198,0.95196 -1.68571,2.08058 -2.23652,3.38587 -0.55084,1.30527 -0.826245,2.69398 -0.826245,4.16611 0,1.47211 0.275405,2.86081 0.826245,4.1661 0.55081,1.30528 1.296322,2.4339 2.23652,3.38588 0.940199,0.95197 2.05607,1.70275 3.347661,2.25234 1.291608,0.5496 2.668634,0.82439 4.131168,0.82439 z m 0,-3.91584 c -0.892712,0 -1.723688,-0.17175 -2.492927,-0.51526 -0.769254,-0.34348 -1.434047,-0.81456 -1.994379,-1.41321 -0.560301,-0.59868 -1.001905,-1.3102 -1.32481,-2.13459 -0.322906,-0.82439 -0.484359,-1.70766 -0.484359,-2.64981 0,-0.96179 0.161392,-1.84997 0.484359,-2.66454 0.322905,-0.81459 0.764509,-1.52119 1.32481,-2.11986 0.560332,-0.59867 1.225125,-1.06974 1.994379,-1.41323 0.769239,-0.34351 1.600215,-0.51525 2.492927,-0.51525 0.892728,0 1.728466,0.17174 2.50721,0.51525 0.778746,0.34349 1.448269,0.81456 2.008601,1.41323 0.560301,0.59867 1.001935,1.30527 1.32481,2.11986 0.322906,0.81457 0.484358,1.70275 0.484358,2.66454 0,0.94215 -0.161392,1.82542 -0.484358,2.64981 -0.322875,0.82439 -0.764509,1.53591 -1.32481,2.13459 -0.560332,0.59865 -1.229855,1.06973 -2.008601,1.41321 -0.778744,0.34351 -1.614482,0.51526 -2.50721,0.51526 z m 62.622837,3.59198 v -3.76864 H 119.18914 V 176.0946 h -4.13118 v 20.60969 z m 52.08122,0 v -3.76864 H 171.27036 V 176.0946 h -4.13117 v 20.60969 z m 52.48009,0 v -3.70976 h -11.31085 v -4.88744 h 7.37913 v -3.59198 h -7.37913 v -4.71078 h 11.1969 v -3.70975 h -15.32806 v 20.60969 z m 45.81324,0.29442 c 1.55752,0 3.07227,-0.3435 4.54429,-1.03049 1.47202,-0.68699 2.68289,-1.60953 3.63259,-2.76759 v 0 l -2.70664,-2.76759 c -0.70277,0.84402 -1.51001,1.49175 -2.42171,1.9432 -0.91171,0.45147 -1.88989,0.67718 -2.93455,0.67718 -0.93071,0 -1.79019,-0.17174 -2.57843,-0.51524 -0.78824,-0.3435 -1.47202,-0.80967 -2.05133,-1.39852 -0.57933,-0.58885 -1.03518,-1.29055 -1.36757,-2.10513 -0.3324,-0.81457 -0.4986,-1.69294 -0.4986,-2.63509 0,-0.96179 0.16138,-1.84997 0.48435,-2.66454 0.32291,-0.81459 0.76925,-1.52119 1.33908,-2.11986 0.56981,-0.59867 1.24885,-1.06974 2.03708,-1.41323 0.78826,-0.34351 1.62874,-0.51525 2.52144,-0.51525 1.06367,0 2.07035,0.24045 3.02004,0.72134 0.9497,0.48089 1.77591,1.17279 2.47868,2.07569 v 0 l 2.79212,-2.85591 c -0.93069,-1.1777 -2.14631,-2.11495 -3.64681,-2.81176 -1.50053,-0.69679 -3.04853,-1.0452 -4.64403,-1.0452 -1.48152,0 -2.87281,0.27479 -4.17389,0.82439 -1.30109,0.54958 -2.42646,1.29546 -3.37617,2.23763 -0.94968,0.94214 -1.69995,2.06586 -2.25078,3.37114 -0.55081,1.30528 -0.82622,2.7038 -0.82622,4.19556 0,1.49175 0.27066,2.88535 0.81199,4.18082 0.54133,1.29547 1.28681,2.41427 2.23653,3.35644 0.9497,0.94216 2.07508,1.68802 3.37616,2.23761 1.30108,0.54959 2.70186,0.8244 4.20238,0.8244 z m 54.64541,-0.29442 v -16.84114 h 6.69533 v -3.76863 h -17.55034 v 3.76863 h 6.72382 v 16.84106 z m 47.32325,0 V 176.0946 h -4.13116 v 20.60969 z m 47.57966,0.32386 c 1.48154,0 2.86809,-0.27479 4.15968,-0.82439 1.29157,-0.54959 2.40746,-1.30037 3.34766,-2.25234 0.9402,-0.95198 1.68571,-2.0806 2.23654,-3.38588 0.5508,-1.30529 0.82622,-2.69399 0.82622,-4.1661 0,-1.47213 -0.27542,-2.86084 -0.82622,-4.16611 -0.55083,-1.30529 -1.29634,-2.43391 -2.23654,-3.38587 -0.9402,-0.95197 -2.05609,-1.70277 -3.34766,-2.25235 -1.29159,-0.5496 -2.67814,-0.82439 -4.15968,-0.82439 -1.46252,0 -2.83959,0.27479 -4.13115,0.82439 -1.29159,0.54958 -2.40747,1.30038 -3.34767,2.25235 -0.9402,0.95196 -1.68571,2.08058 -2.23654,3.38587 -0.55083,1.30527 -0.82625,2.69398 -0.82625,4.16611 0,1.47211 0.27542,2.86081 0.82625,4.1661 0.55083,1.30528 1.29634,2.4339 2.23654,3.38588 0.9402,0.95197 2.05608,1.70275 3.34767,2.25234 1.29156,0.5496 2.66863,0.82439 4.13115,0.82439 z m 0,-3.91584 c -0.8927,0 -1.7237,-0.17175 -2.49294,-0.51526 -0.76925,-0.34348 -1.43403,-0.81456 -1.99436,-1.41321 -0.56031,-0.59868 -1.00192,-1.3102 -1.32482,-2.13459 -0.32289,-0.82439 -0.48435,-1.70766 -0.48435,-2.64981 0,-0.96179 0.16138,-1.84997 0.48435,-2.66454 0.3229,-0.81459 0.76451,-1.52119 1.32482,-2.11986 0.56033,-0.59867 1.22511,-1.06974 1.99436,-1.41323 0.76924,-0.34351 1.60024,-0.51525 2.49294,-0.51525 0.89272,0 1.72846,0.17174 2.5072,0.51525 0.77876,0.34349 1.44826,0.81456 2.0086,1.41323 0.56032,0.59867 1.00193,1.30527 1.32482,2.11986 0.3229,0.81457 0.48435,1.70275 0.48435,2.66454 0,0.94215 -0.16137,1.82542 -0.48435,2.64981 -0.32289,0.82439 -0.7645,1.53591 -1.32482,2.13459 -0.56034,0.59865 -1.22984,1.06973 -2.0086,1.41321 -0.77874,0.34351 -1.61448,0.51526 -2.5072,0.51526 z m 51.48292,3.59198 V 182.9253 l 10.17123,13.77906 h 3.64683 V 176.0946 h -3.87476 v 13.33742 l -9.9148,-13.33742 h -3.93174 v 20.60969 z"
     id="COLLECTION"
     inkscape:connector-curvature="0"
     style="fill:#ffffff;fill-rule:nonzero;stroke:none;stroke-width:1.77145267" />
  <g
     id="g48"
     transform="matrix(1.0597354,0,0,1.0597354,19.661949,-126.14557)">
    <path
       d="m 98.368707,123.56449 -3.911684,9.67624 h 7.837657 z m -1.627486,-2.59162 h 3.269259 l 8.12318,19.44364 h -2.99801 l -1.94157,-4.98788 h -9.607908 l -1.941568,4.98788 h -3.040839 z"
       style="font-style:normal;font-weight:normal;font-size:40px;line-height:125%;font-family:sans-serif;letter-spacing:0px;word-spacing:0px;fill:#ffffff;fill-opacity:1;stroke:#ffffff;stroke-width:0.69800001;stroke-linecap:butt;stroke-linejoin:miter;stroke-miterlimit:4;stroke-dasharray:none;stroke-opacity:1"
       id="path36"
       inkscape:connector-curvature="0" />
    <path
       d="m 149.94112,131.30027 q 0.92796,0.28651 1.79881,1.22418 0.88512,0.93767 1.77025,2.5786 l 2.92663,5.31346 h -3.09794 l -2.72677,-4.98788 q -1.05644,-1.95348 -2.05577,-2.59162 -0.98506,-0.63814 -2.69821,-0.63814 h -3.14077 v 8.21764 h -2.88381 v -19.44364 h 6.50997 q 3.65472,0 5.45352,1.39348 1.79881,1.39349 1.79881,4.2065 0,1.83627 -0.94223,3.04743 -0.92796,1.21115 -2.71249,1.67999 z m -7.22378,-8.16555 v 6.9023 h 3.62617 q 2.08433,0 3.14077,-0.87256 1.07072,-0.88557 1.07072,-2.59161 0,-1.70604 -1.07072,-2.56557 -1.05644,-0.87256 -3.14077,-0.87256 z"
       style="font-style:normal;font-weight:normal;font-size:40px;line-height:125%;font-family:sans-serif;letter-spacing:0px;word-spacing:0px;fill:#ffffff;fill-opacity:1;stroke:#ffffff;stroke-width:0.69800001;stroke-linecap:butt;stroke-linejoin:miter;stroke-miterlimit:4;stroke-dasharray:none;stroke-opacity:1"
       id="path38"
       inkscape:connector-curvature="0" />
    <path
       d="m 200.69712,122.47054 v 2.77394 q -1.45617,-1.2372 -3.11221,-1.84929 -1.64177,-0.61209 -3.49768,-0.61209 -3.65472,0 -5.59629,2.04464 -1.94157,2.03162 -1.94157,5.88649 0,3.84184 1.94157,5.88649 1.94157,2.03161 5.59629,2.03161 1.85591,0 3.49768,-0.61209 1.65604,-0.61209 3.11221,-1.84929 v 2.74789 q -1.51328,0.93768 -3.21215,1.40651 -1.6846,0.46884 -3.56906,0.46884 -4.83964,0 -7.62351,-2.69581 -2.78386,-2.70882 -2.78386,-7.38415 0,-4.68836 2.78386,-7.38416 2.78387,-2.70883 7.62351,-2.70883 1.91302,0 3.59761,0.46884 1.69888,0.45581 3.1836,1.38046 z"
       style="font-style:normal;font-weight:normal;font-size:40px;line-height:125%;font-family:sans-serif;letter-spacing:0px;word-spacing:0px;fill:#ffffff;fill-opacity:1;stroke:#ffffff;stroke-width:0.69800001;stroke-linecap:butt;stroke-linejoin:miter;stroke-miterlimit:4;stroke-dasharray:none;stroke-opacity:1"
       id="path40-3"
       inkscape:connector-curvature="0" />
    <path
       d="m 238.86281,123.56449 -3.91168,9.67624 h 7.83765 z m -1.62749,-2.59162 h 3.26926 l 8.12318,19.44364 h -2.998 l -1.94157,-4.98788 h -9.60792 l -1.94157,4.98788 h -3.04083 z"
       style="font-style:normal;font-weight:normal;font-size:40px;line-height:125%;font-family:sans-serif;letter-spacing:0px;word-spacing:0px;fill:#ffffff;fill-opacity:1;stroke:#ffffff;stroke-width:0.69800001;stroke-linecap:butt;stroke-linejoin:miter;stroke-miterlimit:4;stroke-dasharray:none;stroke-opacity:1"
       id="path42"
       inkscape:connector-curvature="0" />
    <path
       d="m 277.21144,123.13472 v 15.11994 h 3.48341 q 4.41135,0 6.45285,-1.82325 2.05578,-1.82325 2.05578,-5.75625 0,-3.90696 -2.05578,-5.71719 -2.0415,-1.82325 -6.45285,-1.82325 z m -2.8838,-2.16185 h 5.92464 q 6.19589,0 9.09396,2.3572 2.89808,2.34418 2.89808,7.34509 0,5.02695 -2.91235,7.38415 -2.91235,2.3572 -9.07969,2.3572 h -5.92464 z"
       style="font-style:normal;font-weight:normal;font-size:40px;line-height:125%;font-family:sans-serif;letter-spacing:0px;word-spacing:0px;fill:#ffffff;fill-opacity:1;stroke:#ffffff;stroke-width:0.69800001;stroke-linecap:butt;stroke-linejoin:miter;stroke-miterlimit:4;stroke-dasharray:none;stroke-opacity:1"
       id="path44"
       inkscape:connector-curvature="0" />
    <path
       d="m 321.42893,120.97287 h 13.47677 v 2.21394 h -10.59297 v 5.75626 h 10.15041 v 2.21394 h -10.15041 v 7.04556 h 10.84994 v 2.21394 h -13.73374 z"
       style="font-style:normal;font-weight:normal;font-size:40px;line-height:125%;font-family:sans-serif;letter-spacing:0px;word-spacing:0px;fill:#ffffff;fill-opacity:1;stroke:#ffffff;stroke-width:0.69800001;stroke-linecap:butt;stroke-linejoin:miter;stroke-miterlimit:4;stroke-dasharray:none;stroke-opacity:1"
       id="path46"
       inkscape:connector-curvature="0" />
  </g>
</svg>
