<?xml version="1.0" encoding="UTF-8"?>
<svg version="1.1" xmlns="http://www.w3.org/2000/svg" width="300" height="84">
<path d="M0,0 L6,2 L3,39 L4,43 L0,46 L-2,46 L-2,62 L3,63 L2,59 L2,48 L6,42 L9,40 L18,40 L23,44 L24,53 L7,53 L10,61 L12,63 L19,63 L23,59 L25,61 L20,66 L18,67 L10,67 L5,65 L2,67 L-5,67 L-8,64 L-8,43 L-11,43 L-11,48 L-16,47 L-17,42 L-22,43 L-23,47 L-11,53 L-9,57 L-10,63 L-13,66 L-15,67 L-23,67 L-26,67 L-28,67 L-29,65 L-29,57 L-26,57 L-23,63 L-16,64 L-15,63 L-15,58 L-27,52 L-29,49 L-38,70 L-42,76 L-44,78 L-51,77 L-51,72 L-46,72 L-44,74 L-40,67 L-43,58 L-49,44 L-52,42 L-56,33 L-58,32 L-64,32 L-66,34 L-65,41 L-52,47 L-48,51 L-48,60 L-50,64 L-55,67 L-65,67 L-70,66 L-73,67 L-73,53 L-71,53 L-66,62 L-62,64 L-55,63 L-54,61 L-54,55 L-60,51 L-70,46 L-72,43 L-72,35 L-68,30 L-63,28 L-49,29 L-49,41 L-40,41 L-40,43 L-42,44 L-37,56 L-36,57 L-31,46 L-31,44 L-34,41 L-17,40 L-17,27 L-20,26 L-20,21 L-17,20 L-15,3 L-12,2 L-10,3 L-10,19 L-2,18 L-2,8 Z M-7,24 L-11,25 L-11,41 L-8,41 L-8,33 L-3,33 L-2,24 Z M11,42 L8,45 L7,50 L19,50 L18,44 L16,42 Z " fill="#0553A2" transform="translate(214,6)"/>
<path d="M0,0 L13,0 L18,12 L23,25 L24,26 L30,10 L34,0 L46,0 L46,2 L42,4 L42,34 L45,35 L45,28 L49,24 L60,21 L59,14 L52,14 L52,19 L47,20 L46,15 L51,11 L61,11 L65,16 L66,28 L68,28 L72,34 L79,35 L80,30 L80,28 L74,27 L68,23 L66,20 L67,15 L71,11 L84,11 L87,12 L87,4 L92,4 L92,12 L99,12 L99,14 L92,14 L93,33 L98,34 L96,26 L97,18 L102,12 L104,11 L112,11 L116,12 L125,11 L126,14 L130,11 L135,11 L136,12 L136,18 L131,18 L131,14 L126,18 L126,35 L130,36 L130,37 L115,37 L113,38 L104,38 L100,36 L97,38 L89,38 L86,33 L86,14 L84,14 L84,19 L82,19 L78,14 L73,14 L72,19 L83,24 L85,26 L85,34 L80,38 L72,38 L69,37 L68,38 L62,38 L59,36 L55,38 L48,38 L46,37 L29,37 L29,35 L34,34 L34,9 L23,37 L20,36 L10,9 L10,34 L15,35 L15,37 L0,37 L0,35 L5,33 L5,5 L0,2 Z M106,13 L102,17 L102,21 L113,21 L112,14 Z M56,24 L51,28 L50,32 L52,35 L57,35 L60,32 L60,24 Z M117,14 L119,24 L102,24 L103,31 L107,35 L113,35 L118,31 L116,36 L120,35 L120,15 Z " fill="#FE0000" transform="translate(0,35)"/>
<path d="M0,0 L5,1 L6,2 L6,7 L1,10 L6,26 L4,28 L-47,28 L-52,26 L-56,28 L-69,28 L-70,27 L-70,18 L-69,16 L-70,14 L-70,8 L-66,3 L-62,2 L-17,2 L-15,3 L-14,6 L-10,2 L-2,3 L-2,1 Z " fill="#F3F6F8" transform="translate(70,3)"/>
<path d="M0,0 L4,1 L3,10 L2,16 L9,11 L10,13 L12,13 L10,18 L2,25 L4,30 L10,41 L10,43 L16,44 L18,47 L19,66 L22,69 L10,69 L11,67 L13,67 L13,51 L8,50 L5,48 L3,50 L3,67 L6,68 L6,69 L-6,69 L-5,67 L-3,67 L-4,48 L-9,47 L-12,49 L-13,67 L-9,68 L-9,69 L-22,69 L-19,66 L-19,48 L-22,46 L-22,44 L-13,43 L-12,45 L-8,43 L-1,43 L3,46 L2,42 L-3,32 L-6,41 L-8,41 L-10,34 L-15,37 L-20,37 L-22,33 L-24,33 L-26,37 L-31,38 L-38,39 L-40,35 L-37,29 L-31,24 L-29,24 L-29,26 L-26,26 L-26,32 L-20,21 L-15,17 L-10,16 L-10,20 L-15,23 L-17,26 L-18,31 L-11,29 L-9,26 L-5,10 Z M0,17 Z M-30,26 Z M-31,28 L-35,33 L-34,35 L-30,30 Z " fill="#0054A5" transform="translate(258,3)"/>
<path d="M0,0 L14,1 L14,13 L23,13 L23,15 L21,16 L26,28 L27,29 L32,18 L32,16 L29,13 L47,12 L47,14 L41,15 L40,19 L52,25 L54,29 L53,35 L50,38 L48,39 L40,39 L37,39 L35,39 L34,37 L34,29 L37,29 L40,35 L47,36 L48,35 L48,30 L36,24 L34,21 L25,42 L21,48 L19,50 L12,49 L12,44 L17,44 L19,46 L23,39 L20,30 L14,16 L11,14 L7,5 L5,4 L-1,4 L-3,6 L-2,13 L11,19 L15,23 L15,32 L13,36 L8,39 L-2,39 L-7,38 L-10,39 L-10,25 L-8,25 L-3,34 L1,36 L8,35 L9,33 L9,27 L3,23 L-7,18 L-9,15 L-9,7 L-5,2 Z " fill="#FE0000" transform="translate(151,34)"/>
<path d="M0,0 L5,1 L9,10 L12,19 L12,22 L0,22 L0,19 L8,19 L7,18 L0,18 L-2,22 L-20,22 L-24,18 L-24,4 L-21,1 L-8,1 L-7,15 L-2,1 Z " fill="#065BA4" transform="translate(61,7)"/>
<path d="M0,0 L5,0 L6,10 L6,29 L11,30 L10,26 L10,15 L14,9 L17,7 L26,7 L31,11 L32,20 L15,20 L18,28 L20,30 L27,30 L31,26 L33,28 L28,33 L26,34 L18,34 L13,32 L10,34 L3,34 L0,31 L0,10 L-3,10 L-3,8 L0,8 Z M19,9 L16,12 L15,17 L27,17 L26,11 L24,9 Z " fill="#FE0000" transform="translate(206,39)"/>
<path d="M0,0 L5,0 L6,2 L10,0 L17,0 L21,3 L24,2 L22,6 L21,7 L21,24 L24,25 L24,26 L12,26 L13,24 L15,24 L14,5 L9,4 L6,6 L5,24 L9,25 L9,26 L-4,26 L-1,23 L-1,5 L-4,3 L-4,1 Z " fill="#FE0000" transform="translate(240,46)"/>
<path d="M0,0 L13,0 L13,6 L11,7 L11,13 L13,14 L13,21 L1,21 L-3,17 L-3,3 Z " fill="#0155A1" transform="translate(23,8)"/>
<path d="M0,0 L12,0 L12,6 L8,7 L12,10 L12,17 L8,21 L-4,21 L-4,14 L0,13 L-4,9 L-3,2 Z " fill="#1A68AC" transform="translate(6,8)"/>
<path d="M0,0 L3,0 L7,7 L7,18 L3,21 L-2,20 L-4,16 L-7,18 L-10,18 L-9,15 L-5,11 L-1,1 Z M1,8 L-3,15 L1,16 L2,8 Z " fill="#0354A5" transform="translate(273,17)"/>
<path d="M0,0 L5,1 L7,4 L8,23 L11,26 L-1,26 L0,24 L2,24 L1,3 Z " fill="#FC0001" transform="translate(269,46)"/>
<path d="M0,0 L12,0 L12,3 L3,3 L4,6 L9,7 L9,15 L1,15 L-1,14 L-1,1 Z " fill="#387BB6" transform="translate(41,11)"/>
<path d="M0,0 L13,0 L13,6 L11,7 L11,11 L1,11 L1,17 L0,17 L0,5 L-3,4 Z " fill="#0A60A7" transform="translate(23,8)"/>
<path d="M0,0 L10,0 L10,3 L6,4 L10,7 L10,14 L6,18 L-6,18 L-6,15 L7,14 L6,8 L-2,5 L-1,1 Z " fill="#0055A1" transform="translate(8,11)"/>
<path d="M0,0 L10,0 L16,1 L16,3 L12,6 L11,20 L10,17 L1,17 L1,16 L8,16 L8,10 L1,10 L1,9 L10,9 L10,6 L-1,6 L-1,5 L10,5 L10,2 L-1,2 Z M16,0 Z M-1,20 L10,20 L10,21 L-1,21 Z " fill="#FCFDFE" transform="translate(26,5)"/>
<path d="M0,0 Z M-4,1 L0,1 L0,3 L-5,5 L-5,12 L-4,15 L4,16 L4,17 L-6,17 L-6,20 L5,20 L5,21 L-6,21 L-6,24 L6,24 L6,26 L-7,26 L-8,25 L-8,16 L-7,14 L-8,12 L-8,6 Z M6,23 Z " fill="#FBFCFD" transform="translate(8,5)"/>
<path d="M0,0 L4,4 L7,10 L7,15 L1,15 L-4,14 L-2,5 Z " fill="#2F75B3" transform="translate(61,10)"/>
<path d="M0,0 L4,1 L10,18 L10,21 L-2,21 L-2,18 L6,18 L1,6 L-1,1 Z " fill="#1462A8" transform="translate(63,8)"/>
<path d="M0,0 L10,0 L27,2 L27,3 L14,4 L12,6 L-1,6 L-1,5 L9,5 L9,3 L-1,3 Z M16,0 Z " fill="#D7E5F1" transform="translate(9,5)"/>
<path d="M0,0 L13,0 L13,2 L2,2 L1,17 L0,17 L0,5 L-3,4 Z " fill="#4483BB" transform="translate(23,8)"/>
<path d="M0,0 L3,1 L0,5 L-4,17 L-7,17 L-5,8 L-2,1 Z " fill="#0154A0" transform="translate(61,7)"/>
<path d="M0,0 L4,1 L4,3 L7,0 L10,1 L10,7 L0,7 Z M2,3 L2,6 L4,5 Z M6,4 L7,6 Z " fill="#FD0000" transform="translate(290,46)"/>
<path d="M0,0 L7,0 L5,7 L2,6 L3,1 L0,2 Z " fill="#FF0000" transform="translate(282,46)"/>
<path d="M0,0 L2,2 L0,6 L-3,6 L-3,1 Z " fill="#1C67AB" transform="translate(59,23)"/>
</svg>
