<!DOCTYPE svg PUBLIC "-//W3C//DTD SVG 20010904//EN" "http://www.w3.org/TR/2001/REC-SVG-20010904/DTD/svg10.dtd">
<svg version="1.0" xmlns="http://www.w3.org/2000/svg" width="1280px" height="315px" viewBox="0 0 12800 3150" preserveAspectRatio="xMidYMid meet">
<g id="layer101" fill="#000000" stroke="none">
<path d="M11948 2664 c-242 -58 -417 -287 -459 -599 -16 -119 -6 -324 21 -435 11 -47 41 -127 66 -179 37 -76 61 -109 127 -176 136 -136 259 -181 477 -172 192 7 296 50 412 169 66 67 128 185 151 290 l15 67 -27 5 c-14 3 -82 13 -151 21 -69 8 -137 18 -151 21 -25 5 -27 2 -33 -38 -28 -185 -196 -287 -351 -214 -126 58 -185 211 -185 480 0 243 60 389 186 452 56 27 175 26 229 -3 76 -40 125 -114 125 -188 l0 -35 -140 0 -140 0 0 -150 0 -150 320 0 320 0 0 415 0 415 -88 0 -88 0 -23 -80 c-13 -44 -26 -80 -28 -80 -3 0 -29 21 -57 48 -64 58 -134 96 -211 117 -73 19 -239 19 -317 -1z"/>
<path d="M3580 1650 l0 -1010 720 0 720 0 0 205 0 205 -470 0 -470 0 0 220 0 220 370 0 370 0 0 190 0 190 -370 0 -370 0 0 395 0 395 -250 0 -250 0 0 -1010z"/>
<path d="M5250 1650 l0 -1010 720 0 720 0 0 205 0 205 -470 0 -470 0 0 220 0 220 375 0 375 0 0 190 0 190 -375 0 -375 0 0 395 0 395 -250 0 -250 0 0 -1010z"/>
<path d="M6880 1890 l0 -770 283 0 284 0 128 440 c71 242 132 440 135 440 4 0 67 -197 142 -437 l135 -438 286 -3 287 -2 0 770 0 770 -185 0 -185 0 -2 -606 -3 -606 -186 604 -186 603 -129 3 -129 2 -182 -602 -182 -603 0 603 -1 602 -155 0 -155 0 0 -770z"/>
<path d="M8850 1889 l0 -771 403 4 c429 5 459 8 559 59 58 30 150 119 181 177 75 138 75 331 0 490 -55 116 -186 210 -323 232 -36 5 -149 10 -252 10 l-188 0 0 285 0 285 -190 0 -190 0 0 -771z m701 -100 c103 -35 157 -163 110 -264 -43 -93 -99 -115 -297 -115 l-144 0 0 195 0 195 149 0 c84 0 163 -5 182 -11z"/>
<path d="M10240 1890 l0 -770 555 0 555 0 0 150 0 150 -365 0 -365 0 0 155 0 155 285 0 285 0 0 145 0 145 -285 0 -285 0 0 165 0 165 365 0 365 0 0 155 0 155 -555 0 -555 0 0 -770z"/>
</g>
<g id="layer102" fill="#008700" stroke="none">
<path d="M135 3111 c-22 -10 -50 -29 -62 -42 -51 -56 -68 -154 -38 -227 11 -26 361 -383 1203 -1225 l1187 -1187 -155 0 -155 0 -880 881 c-603 604 -893 887 -920 900 -73 34 -176 19 -234 -34 -13 -12 -32 -40 -42 -62 -17 -37 -19 -75 -19 -538 0 -425 2 -503 15 -535 11 -25 112 -133 303 -324 l287 -288 -225 0 c-197 0 -230 -3 -265 -19 -73 -34 -115 -102 -115 -186 0 -84 42 -152 115 -186 37 -17 75 -19 538 -19 536 0 539 0 595 53 62 57 81 170 43 245 -11 20 -213 230 -450 467 l-431 430 0 155 0 155 738 -737 c515 -515 748 -742 774 -753 32 -13 110 -15 538 -15 400 0 507 3 533 14 38 16 83 59 105 101 21 40 20 141 -1 181 -8 17 -549 563 -1202 1215 l-1186 1184 152 3 153 3 891 -890 c721 -720 897 -891 929 -901 57 -18 147 -9 189 20 49 34 85 93 92 154 4 28 5 260 3 516 -3 432 -4 467 -22 500 -10 19 -147 161 -304 315 l-285 280 240 5 c233 5 241 6 275 29 68 47 103 126 92 209 -8 51 -35 94 -87 136 l-39 31 -527 0 -528 0 -41 -29 c-50 -34 -92 -112 -92 -170 0 -89 22 -116 474 -566 l426 -425 0 -155 0 -155 -738 737 c-516 517 -748 742 -774 753 -32 13 -110 15 -535 15 -463 0 -501 -2 -538 -19z"/>
</g>


</svg>