<?xml version="1.0" encoding="UTF-8" standalone="no"?>
<!-- Created with Inkscape (http://www.inkscape.org/) -->

<svg
   xmlns:dc="http://purl.org/dc/elements/1.1/"
   xmlns:cc="http://creativecommons.org/ns#"
   xmlns:rdf="http://www.w3.org/1999/02/22-rdf-syntax-ns#"
   xmlns:svg="http://www.w3.org/2000/svg"
   xmlns="http://www.w3.org/2000/svg"
   xmlns:sodipodi="http://sodipodi.sourceforge.net/DTD/sodipodi-0.dtd"
   xmlns:inkscape="http://www.inkscape.org/namespaces/inkscape"
   version="1.1"
   id="svg2"
   xml:space="preserve"
   width="500"
   height="200"
   viewBox="0 0 500 200"
   sodipodi:docname="midway.svg"
   inkscape:version="0.92.5 (2060ec1f9f, 2020-04-08)"><metadata
     id="metadata8"><rdf:RDF><cc:Work
         rdf:about=""><dc:format>image/svg+xml</dc:format><dc:type
           rdf:resource="http://purl.org/dc/dcmitype/StillImage" /><dc:title /></cc:Work></rdf:RDF></metadata><defs
     id="defs6"><clipPath
       clipPathUnits="userSpaceOnUse"
       id="clipPath18"><path
         d="M 0,396.85 H 595.28 V 0 H 0 Z"
         id="path16"
         inkscape:connector-curvature="0" /></clipPath><clipPath
       clipPathUnits="userSpaceOnUse"
       id="clipPath34"><path
         d="m 175.135,266.175 c 0,0 -9.999,-16.667 -40.167,-28 v 0 l -4.916,-12.75 -5.334,0.083 c 0,0 -5.749,-10.584 -37.416,-24.833 v 0 h 33.083 c 0,-1 -14.388,-46.875 -33.756,-65.5 v 0 c 0,0 59.756,10.5 77.006,85.249 v 0 l 5.5,16.001 h 38 l 19.25,29.75 z"
         id="path32"
         inkscape:connector-curvature="0" /></clipPath><linearGradient
       x1="0"
       y1="0"
       x2="1"
       y2="0"
       gradientUnits="userSpaceOnUse"
       gradientTransform="matrix(91.663811,158.7664,158.7664,-91.663811,96.746582,129.33301)"
       spreadMethod="pad"
       id="linearGradient50"><stop
         style="stop-opacity:1;stop-color:#295da9"
         offset="0"
         id="stop40" /><stop
         style="stop-opacity:1;stop-color:#295da9"
         offset="0.0052356"
         id="stop42" /><stop
         style="stop-opacity:1;stop-color:#295da9"
         offset="0.33581042"
         id="stop44" /><stop
         style="stop-opacity:1;stop-color:#272e65"
         offset="0.795811"
         id="stop46" /><stop
         style="stop-opacity:1;stop-color:#272e65"
         offset="1"
         id="stop48" /></linearGradient><clipPath
       clipPathUnits="userSpaceOnUse"
       id="clipPath60"><path
         d="M 0,396.85 H 595.28 V 0 H 0 Z"
         id="path58"
         inkscape:connector-curvature="0" /></clipPath><clipPath
       clipPathUnits="userSpaceOnUse"
       id="clipPath72"><path
         d="m 191.189,251.41 -2.814,-6.94 7.784,-0.094 -7.316,-19.037 h 8.722 l 7.315,19.131 h 7.034 l 2.721,6.94 z"
         id="path70"
         inkscape:connector-curvature="0" /></clipPath><linearGradient
       x1="0"
       y1="0"
       x2="1"
       y2="0"
       gradientUnits="userSpaceOnUse"
       gradientTransform="matrix(-1.1e-6,-26.071289,-26.071289,1.1e-6,201.50488,251.41016)"
       spreadMethod="pad"
       id="linearGradient86"><stop
         style="stop-opacity:1;stop-color:#e6342a"
         offset="0"
         id="stop78" /><stop
         style="stop-opacity:1;stop-color:#e6342a"
         offset="0.0104712"
         id="stop80" /><stop
         style="stop-opacity:1;stop-color:#f9b233"
         offset="0.989529"
         id="stop82" /><stop
         style="stop-opacity:1;stop-color:#f9b233"
         offset="1"
         id="stop84" /></linearGradient><clipPath
       clipPathUnits="userSpaceOnUse"
       id="clipPath96"><path
         d="m 239.206,251.41 c -0.281,0 -3.844,-9.471 -3.844,-9.471 v 0 h -10.599 l 3.095,9.471 h -8.44 l -9.754,-26.071 h 8.536 l 3.749,9.66 h 10.973 l -3.562,-9.66 h 8.814 c 0,0 9.566,26.071 9.847,26.071 v 0 c 0.188,0 -3.667,0.001 -6.342,0.001 v 0 c -1.337,0 -2.38,0 -2.473,-0.001"
         id="path94"
         inkscape:connector-curvature="0" /></clipPath><linearGradient
       x1="0"
       y1="0"
       x2="1"
       y2="0"
       gradientUnits="userSpaceOnUse"
       gradientTransform="matrix(-1.1e-6,-26.071777,-26.071777,1.1e-6,228.84619,251.41064)"
       spreadMethod="pad"
       id="linearGradient110"><stop
         style="stop-opacity:1;stop-color:#e6342a"
         offset="0"
         id="stop102" /><stop
         style="stop-opacity:1;stop-color:#e6342a"
         offset="0.0104712"
         id="stop104" /><stop
         style="stop-opacity:1;stop-color:#f9b233"
         offset="0.989529"
         id="stop106" /><stop
         style="stop-opacity:1;stop-color:#f9b233"
         offset="1"
         id="stop108" /></linearGradient><clipPath
       clipPathUnits="userSpaceOnUse"
       id="clipPath120"><path
         d="m 252.526,251.41 -9.755,-26.071 h 23.165 l 2.439,6.847 h -14.35 l 1.031,2.907 h 14.35 l 2.625,6.751 h -14.347 l 1.031,2.627 h 14.255 l 3.001,6.939 z"
         id="path118"
         inkscape:connector-curvature="0" /></clipPath><linearGradient
       x1="0"
       y1="0"
       x2="1"
       y2="0"
       gradientUnits="userSpaceOnUse"
       gradientTransform="matrix(-1.1e-6,-26.071289,-26.071289,1.1e-6,259.37109,251.41016)"
       spreadMethod="pad"
       id="linearGradient134"><stop
         style="stop-opacity:1;stop-color:#e6342a"
         offset="0"
         id="stop126" /><stop
         style="stop-opacity:1;stop-color:#e6342a"
         offset="0.0104712"
         id="stop128" /><stop
         style="stop-opacity:1;stop-color:#f9b233"
         offset="0.989529"
         id="stop130" /><stop
         style="stop-opacity:1;stop-color:#f9b233"
         offset="1"
         id="stop132" /></linearGradient><clipPath
       clipPathUnits="userSpaceOnUse"
       id="clipPath144"><path
         d="m 309.733,251.41 -11.821,-10.502 h -1.026 l 3.751,10.502 h -8.628 l -9.847,-26.071 h 8.722 l 4.97,13.035 4.501,-13.035 h 8.816 l -4.596,14.068 13.504,12.003 z"
         id="path142"
         inkscape:connector-curvature="0" /></clipPath><linearGradient
       x1="0"
       y1="0"
       x2="1"
       y2="0"
       gradientUnits="userSpaceOnUse"
       gradientTransform="matrix(-1.1e-6,-26.071289,-26.071289,1.1e-6,300.12109,251.41016)"
       spreadMethod="pad"
       id="linearGradient158"><stop
         style="stop-opacity:1;stop-color:#e6342a"
         offset="0"
         id="stop150" /><stop
         style="stop-opacity:1;stop-color:#e6342a"
         offset="0.0104712"
         id="stop152" /><stop
         style="stop-opacity:1;stop-color:#f9b233"
         offset="0.989529"
         id="stop154" /><stop
         style="stop-opacity:1;stop-color:#f9b233"
         offset="1"
         id="stop156" /></linearGradient><clipPath
       clipPathUnits="userSpaceOnUse"
       id="clipPath168"><path
         d="m 323.051,251.41 -9.845,-26.071 h 9.002 l 9.566,26.071 z"
         id="path166"
         inkscape:connector-curvature="0" /></clipPath><linearGradient
       x1="0"
       y1="0"
       x2="1"
       y2="0"
       gradientUnits="userSpaceOnUse"
       gradientTransform="matrix(-1.1e-6,-26.071289,-26.071289,1.1e-6,322.49023,251.41016)"
       spreadMethod="pad"
       id="linearGradient182"><stop
         style="stop-opacity:1;stop-color:#e6342a"
         offset="0"
         id="stop174" /><stop
         style="stop-opacity:1;stop-color:#e6342a"
         offset="0.0104712"
         id="stop176" /><stop
         style="stop-opacity:1;stop-color:#f9b233"
         offset="0.989529"
         id="stop178" /><stop
         style="stop-opacity:1;stop-color:#f9b233"
         offset="1"
         id="stop180" /></linearGradient><clipPath
       clipPathUnits="userSpaceOnUse"
       id="clipPath192"><path
         d="m 360.689,251.421 c -2.012,-0.027 -3.922,-0.054 -3.965,-0.011 v 0 c -0.095,0.093 -4.877,-13.036 -4.877,-13.036 v 0 l -7.409,13.036 h -7.691 l -10.035,-26.071 h 8.629 l 5.346,13.881 8.064,-13.881 h 6.848 c 0,0 9.611,25.931 9.751,26.071 v 0 c 0.034,0.034 -0.447,0.046 -1.197,0.046 v 0 c -0.906,0 -2.205,-0.017 -3.464,-0.035"
         id="path190"
         inkscape:connector-curvature="0" /></clipPath><linearGradient
       x1="0"
       y1="0"
       x2="1"
       y2="0"
       gradientUnits="userSpaceOnUse"
       gradientTransform="matrix(-1.1e-6,-26.117188,-26.117188,1.1e-6,346.03223,251.45605)"
       spreadMethod="pad"
       id="linearGradient206"><stop
         style="stop-opacity:1;stop-color:#e6342a"
         offset="0"
         id="stop198" /><stop
         style="stop-opacity:1;stop-color:#e6342a"
         offset="0.0104712"
         id="stop200" /><stop
         style="stop-opacity:1;stop-color:#f9b233"
         offset="0.989529"
         id="stop202" /><stop
         style="stop-opacity:1;stop-color:#f9b233"
         offset="1"
         id="stop204" /></linearGradient><clipPath
       clipPathUnits="userSpaceOnUse"
       id="clipPath216"><path
         d="m 372.73,249.739 c -1.891,-1.032 -3.723,-2.258 -5.258,-3.774 v 0 c -3.106,-3.063 -5.965,-7.91 -4.909,-12.448 v 0 c 0.541,-2.327 2.196,-4.237 4.119,-5.588 v 0 c 1.501,-1.053 3.24,-1.746 5.034,-2.102 v 0 c 4.794,-0.949 9.897,-0.488 14.759,-0.488 v 0 l 6.176,16.891 c 0,0 -9.992,-0.182 -9.931,0 v 0 c 0.06,0.181 -5.994,-6.965 -5.994,-6.965 v 0 h 4.48 l -1.211,-2.725 c -11.445,-0.787 -8.237,6.238 -8.237,6.238 v 0 c 3.27,6.783 9.206,6.056 9.206,6.056 v 0 h 8.539 l 5.929,6.616 c -0.543,-0.027 -8.169,0.006 -8.169,0.006 v 0 c -1.35,0.099 -2.595,0.142 -3.742,0.142 v 0 c -7.551,0 -10.791,-1.859 -10.791,-1.859 m 22.702,1.711 c 0.038,0.002 0.042,0.004 0.006,0.006 v 0 z"
         id="path214"
         inkscape:connector-curvature="0" /></clipPath><linearGradient
       x1="0"
       y1="0"
       x2="1"
       y2="0"
       gradientUnits="userSpaceOnUse"
       gradientTransform="matrix(-1.2e-6,-26.370605,-26.370605,1.2e-6,378.90137,251.59766)"
       spreadMethod="pad"
       id="linearGradient230"><stop
         style="stop-opacity:1;stop-color:#e6342a"
         offset="0"
         id="stop222" /><stop
         style="stop-opacity:1;stop-color:#e6342a"
         offset="0.0104712"
         id="stop224" /><stop
         style="stop-opacity:1;stop-color:#f9b233"
         offset="0.989529"
         id="stop226" /><stop
         style="stop-opacity:1;stop-color:#f9b233"
         offset="1"
         id="stop228" /></linearGradient><clipPath
       clipPathUnits="userSpaceOnUse"
       id="clipPath240"><path
         d="m 413.146,249.066 c -8.706,-5.017 -13.081,-13.743 -9.766,-19.49 v 0 c 3.308,-5.75 13.056,-6.348 21.767,-1.331 v 0 c 8.703,5.016 13.075,13.744 9.762,19.493 v 0 c -1.802,3.131 -5.512,4.733 -9.925,4.733 v 0 c -3.69,0.001 -7.871,-1.12 -11.838,-3.405 m 0.202,-14.591 c -1.597,2.203 -0.335,5.842 2.815,8.126 v 0 c 3.154,2.285 7.006,2.35 8.602,0.146 v 0 c 1.597,-2.204 0.336,-5.843 -2.814,-8.127 v 0 c -1.614,-1.169 -3.411,-1.757 -4.995,-1.757 v 0 c -1.511,0 -2.828,0.535 -3.608,1.612"
         id="path238"
         inkscape:connector-curvature="0" /></clipPath><linearGradient
       x1="0"
       y1="0"
       x2="1"
       y2="0"
       gradientUnits="userSpaceOnUse"
       gradientTransform="matrix(-1.2e-6,-27.631348,-27.631348,1.2e-6,419.14453,252.47119)"
       spreadMethod="pad"
       id="linearGradient254"><stop
         style="stop-opacity:1;stop-color:#e6342a"
         offset="0"
         id="stop246" /><stop
         style="stop-opacity:1;stop-color:#e6342a"
         offset="0.0104712"
         id="stop248" /><stop
         style="stop-opacity:1;stop-color:#f9b233"
         offset="0.989529"
         id="stop250" /><stop
         style="stop-opacity:1;stop-color:#f9b233"
         offset="1"
         id="stop252" /></linearGradient><clipPath
       clipPathUnits="userSpaceOnUse"
       id="clipPath264"><path
         d="m 442.66,251.599 -9.989,-25.957 h 8.994 l 3.447,9.871 h 13.844 l 2.687,6.835 h -13.552 l 0.877,2.627 h 13.902 l 2.57,6.624 z"
         id="path262"
         inkscape:connector-curvature="0" /></clipPath><linearGradient
       x1="0"
       y1="0"
       x2="1"
       y2="0"
       gradientUnits="userSpaceOnUse"
       gradientTransform="matrix(-1.1e-6,-25.957031,-25.957031,1.1e-6,449.05566,251.59863)"
       spreadMethod="pad"
       id="linearGradient278"><stop
         style="stop-opacity:1;stop-color:#e6342a"
         offset="0"
         id="stop270" /><stop
         style="stop-opacity:1;stop-color:#e6342a"
         offset="0.0104712"
         id="stop272" /><stop
         style="stop-opacity:1;stop-color:#f9b233"
         offset="0.989529"
         id="stop274" /><stop
         style="stop-opacity:1;stop-color:#f9b233"
         offset="1"
         id="stop276" /></linearGradient><clipPath
       clipPathUnits="userSpaceOnUse"
       id="clipPath288"><path
         d="M 0,396.85 H 595.28 V 0 H 0 Z"
         id="path286"
         inkscape:connector-curvature="0" /></clipPath><clipPath
       clipPathUnits="userSpaceOnUse"
       id="clipPath332"><path
         d="m 191.189,251.41 -2.814,-6.94 7.784,-0.094 -7.316,-19.037 h 8.722 l 7.315,19.131 h 7.034 l 2.721,6.94 z"
         id="path330"
         inkscape:connector-curvature="0" /></clipPath><linearGradient
       x1="0"
       y1="0"
       x2="1"
       y2="0"
       gradientUnits="userSpaceOnUse"
       gradientTransform="matrix(-1.1e-6,-26.071289,-26.071289,1.1e-6,201.50488,251.41016)"
       spreadMethod="pad"
       id="linearGradient346"><stop
         style="stop-opacity:1;stop-color:#e6342a"
         offset="0"
         id="stop338" /><stop
         style="stop-opacity:1;stop-color:#e6342a"
         offset="0.0104712"
         id="stop340" /><stop
         style="stop-opacity:1;stop-color:#f9b233"
         offset="0.989529"
         id="stop342" /><stop
         style="stop-opacity:1;stop-color:#f9b233"
         offset="1"
         id="stop344" /></linearGradient><clipPath
       clipPathUnits="userSpaceOnUse"
       id="clipPath356"><path
         d="m 239.206,251.41 c -0.281,0 -3.844,-9.471 -3.844,-9.471 v 0 h -10.599 l 3.095,9.471 h -8.44 l -9.754,-26.071 h 8.536 l 3.749,9.66 h 10.973 l -3.562,-9.66 h 8.814 c 0,0 9.566,26.071 9.847,26.071 v 0 c 0.188,0 -3.667,0.001 -6.342,0.001 v 0 c -1.337,0 -2.38,0 -2.473,-0.001"
         id="path354"
         inkscape:connector-curvature="0" /></clipPath><linearGradient
       x1="0"
       y1="0"
       x2="1"
       y2="0"
       gradientUnits="userSpaceOnUse"
       gradientTransform="matrix(-1.1e-6,-26.071777,-26.071777,1.1e-6,228.84619,251.41064)"
       spreadMethod="pad"
       id="linearGradient370"><stop
         style="stop-opacity:1;stop-color:#e6342a"
         offset="0"
         id="stop362" /><stop
         style="stop-opacity:1;stop-color:#e6342a"
         offset="0.0104712"
         id="stop364" /><stop
         style="stop-opacity:1;stop-color:#f9b233"
         offset="0.989529"
         id="stop366" /><stop
         style="stop-opacity:1;stop-color:#f9b233"
         offset="1"
         id="stop368" /></linearGradient><clipPath
       clipPathUnits="userSpaceOnUse"
       id="clipPath380"><path
         d="m 252.526,251.41 -9.755,-26.071 h 23.165 l 2.439,6.847 h -14.35 l 1.031,2.907 h 14.35 l 2.625,6.751 h -14.347 l 1.031,2.627 h 14.255 l 3.001,6.939 z"
         id="path378"
         inkscape:connector-curvature="0" /></clipPath><linearGradient
       x1="0"
       y1="0"
       x2="1"
       y2="0"
       gradientUnits="userSpaceOnUse"
       gradientTransform="matrix(-1.1e-6,-26.071289,-26.071289,1.1e-6,259.37109,251.41016)"
       spreadMethod="pad"
       id="linearGradient394"><stop
         style="stop-opacity:1;stop-color:#e6342a"
         offset="0"
         id="stop386" /><stop
         style="stop-opacity:1;stop-color:#e6342a"
         offset="0.0104712"
         id="stop388" /><stop
         style="stop-opacity:1;stop-color:#f9b233"
         offset="0.989529"
         id="stop390" /><stop
         style="stop-opacity:1;stop-color:#f9b233"
         offset="1"
         id="stop392" /></linearGradient><clipPath
       clipPathUnits="userSpaceOnUse"
       id="clipPath404"><path
         d="m 309.733,251.41 -11.821,-10.502 h -1.026 l 3.751,10.502 h -8.628 l -9.847,-26.071 h 8.722 l 4.97,13.035 4.501,-13.035 h 8.816 l -4.596,14.068 13.504,12.003 z"
         id="path402"
         inkscape:connector-curvature="0" /></clipPath><linearGradient
       x1="0"
       y1="0"
       x2="1"
       y2="0"
       gradientUnits="userSpaceOnUse"
       gradientTransform="matrix(-1.1e-6,-26.071289,-26.071289,1.1e-6,300.12109,251.41016)"
       spreadMethod="pad"
       id="linearGradient418"><stop
         style="stop-opacity:1;stop-color:#e6342a"
         offset="0"
         id="stop410" /><stop
         style="stop-opacity:1;stop-color:#e6342a"
         offset="0.0104712"
         id="stop412" /><stop
         style="stop-opacity:1;stop-color:#f9b233"
         offset="0.989529"
         id="stop414" /><stop
         style="stop-opacity:1;stop-color:#f9b233"
         offset="1"
         id="stop416" /></linearGradient><clipPath
       clipPathUnits="userSpaceOnUse"
       id="clipPath428"><path
         d="m 323.051,251.41 -9.845,-26.071 h 9.002 l 9.566,26.071 z"
         id="path426"
         inkscape:connector-curvature="0" /></clipPath><linearGradient
       x1="0"
       y1="0"
       x2="1"
       y2="0"
       gradientUnits="userSpaceOnUse"
       gradientTransform="matrix(-1.1e-6,-26.071289,-26.071289,1.1e-6,322.49023,251.41016)"
       spreadMethod="pad"
       id="linearGradient442"><stop
         style="stop-opacity:1;stop-color:#e6342a"
         offset="0"
         id="stop434" /><stop
         style="stop-opacity:1;stop-color:#e6342a"
         offset="0.0104712"
         id="stop436" /><stop
         style="stop-opacity:1;stop-color:#f9b233"
         offset="0.989529"
         id="stop438" /><stop
         style="stop-opacity:1;stop-color:#f9b233"
         offset="1"
         id="stop440" /></linearGradient><clipPath
       clipPathUnits="userSpaceOnUse"
       id="clipPath452"><path
         d="m 360.689,251.421 c -2.012,-0.027 -3.922,-0.054 -3.965,-0.011 v 0 c -0.095,0.093 -4.877,-13.036 -4.877,-13.036 v 0 l -7.409,13.036 h -7.691 l -10.035,-26.071 h 8.629 l 5.346,13.881 8.064,-13.881 h 6.848 c 0,0 9.611,25.931 9.751,26.071 v 0 c 0.034,0.034 -0.447,0.046 -1.197,0.046 v 0 c -0.906,0 -2.205,-0.017 -3.464,-0.035"
         id="path450"
         inkscape:connector-curvature="0" /></clipPath><linearGradient
       x1="0"
       y1="0"
       x2="1"
       y2="0"
       gradientUnits="userSpaceOnUse"
       gradientTransform="matrix(-1.1e-6,-26.117188,-26.117188,1.1e-6,346.03223,251.45605)"
       spreadMethod="pad"
       id="linearGradient466"><stop
         style="stop-opacity:1;stop-color:#e6342a"
         offset="0"
         id="stop458" /><stop
         style="stop-opacity:1;stop-color:#e6342a"
         offset="0.0104712"
         id="stop460" /><stop
         style="stop-opacity:1;stop-color:#f9b233"
         offset="0.989529"
         id="stop462" /><stop
         style="stop-opacity:1;stop-color:#f9b233"
         offset="1"
         id="stop464" /></linearGradient><clipPath
       clipPathUnits="userSpaceOnUse"
       id="clipPath476"><path
         d="m 372.73,249.739 c -1.891,-1.032 -3.723,-2.258 -5.258,-3.774 v 0 c -3.106,-3.063 -5.965,-7.91 -4.909,-12.448 v 0 c 0.541,-2.327 2.196,-4.237 4.119,-5.588 v 0 c 1.501,-1.053 3.24,-1.746 5.034,-2.102 v 0 c 4.794,-0.949 9.897,-0.488 14.759,-0.488 v 0 l 6.176,16.891 c 0,0 -9.992,-0.182 -9.931,0 v 0 c 0.06,0.181 -5.994,-6.965 -5.994,-6.965 v 0 h 4.48 l -1.211,-2.725 c -11.445,-0.787 -8.237,6.238 -8.237,6.238 v 0 c 3.27,6.783 9.206,6.056 9.206,6.056 v 0 h 8.539 l 5.929,6.616 c -0.543,-0.027 -8.169,0.006 -8.169,0.006 v 0 c -1.35,0.099 -2.595,0.142 -3.742,0.142 v 0 c -7.551,0 -10.791,-1.859 -10.791,-1.859 m 22.702,1.711 c 0.038,0.002 0.042,0.004 0.006,0.006 v 0 z"
         id="path474"
         inkscape:connector-curvature="0" /></clipPath><linearGradient
       x1="0"
       y1="0"
       x2="1"
       y2="0"
       gradientUnits="userSpaceOnUse"
       gradientTransform="matrix(-1.2e-6,-26.370605,-26.370605,1.2e-6,378.90137,251.59766)"
       spreadMethod="pad"
       id="linearGradient490"><stop
         style="stop-opacity:1;stop-color:#e6342a"
         offset="0"
         id="stop482" /><stop
         style="stop-opacity:1;stop-color:#e6342a"
         offset="0.0104712"
         id="stop484" /><stop
         style="stop-opacity:1;stop-color:#f9b233"
         offset="0.989529"
         id="stop486" /><stop
         style="stop-opacity:1;stop-color:#f9b233"
         offset="1"
         id="stop488" /></linearGradient><clipPath
       clipPathUnits="userSpaceOnUse"
       id="clipPath500"><path
         d="m 413.146,249.066 c -8.706,-5.017 -13.081,-13.743 -9.766,-19.49 v 0 c 3.308,-5.75 13.056,-6.348 21.767,-1.331 v 0 c 8.703,5.016 13.075,13.744 9.762,19.493 v 0 c -1.802,3.131 -5.512,4.733 -9.925,4.733 v 0 c -3.69,0.001 -7.871,-1.12 -11.838,-3.405 m 0.202,-14.591 c -1.597,2.203 -0.335,5.842 2.815,8.126 v 0 c 3.154,2.285 7.006,2.35 8.602,0.146 v 0 c 1.597,-2.204 0.336,-5.843 -2.814,-8.127 v 0 c -1.614,-1.169 -3.411,-1.757 -4.995,-1.757 v 0 c -1.511,0 -2.828,0.535 -3.608,1.612"
         id="path498"
         inkscape:connector-curvature="0" /></clipPath><linearGradient
       x1="0"
       y1="0"
       x2="1"
       y2="0"
       gradientUnits="userSpaceOnUse"
       gradientTransform="matrix(-1.2e-6,-27.631348,-27.631348,1.2e-6,419.14453,252.47119)"
       spreadMethod="pad"
       id="linearGradient514"><stop
         style="stop-opacity:1;stop-color:#e6342a"
         offset="0"
         id="stop506" /><stop
         style="stop-opacity:1;stop-color:#e6342a"
         offset="0.0104712"
         id="stop508" /><stop
         style="stop-opacity:1;stop-color:#f9b233"
         offset="0.989529"
         id="stop510" /><stop
         style="stop-opacity:1;stop-color:#f9b233"
         offset="1"
         id="stop512" /></linearGradient><clipPath
       clipPathUnits="userSpaceOnUse"
       id="clipPath524"><path
         d="m 442.66,251.599 -9.989,-25.957 h 8.994 l 3.447,9.871 h 13.844 l 2.687,6.835 h -13.552 l 0.877,2.627 h 13.902 l 2.57,6.624 z"
         id="path522"
         inkscape:connector-curvature="0" /></clipPath><linearGradient
       x1="0"
       y1="0"
       x2="1"
       y2="0"
       gradientUnits="userSpaceOnUse"
       gradientTransform="matrix(-1.1e-6,-25.957031,-25.957031,1.1e-6,449.05566,251.59863)"
       spreadMethod="pad"
       id="linearGradient538"><stop
         style="stop-opacity:1;stop-color:#e6342a"
         offset="0"
         id="stop530" /><stop
         style="stop-opacity:1;stop-color:#e6342a"
         offset="0.0104712"
         id="stop532" /><stop
         style="stop-opacity:1;stop-color:#f9b233"
         offset="0.989529"
         id="stop534" /><stop
         style="stop-opacity:1;stop-color:#f9b233"
         offset="1"
         id="stop536" /></linearGradient><clipPath
       clipPathUnits="userSpaceOnUse"
       id="clipPath548"><path
         d="M 0,396.85 H 595.28 V 0 H 0 Z"
         id="path546"
         inkscape:connector-curvature="0" /></clipPath><clipPath
       clipPathUnits="userSpaceOnUse"
       id="clipPath588"><path
         d="m 148.96,216.082 -22.375,-59.125 h 16.25 l 9.125,24.25 h 21 l 5.25,14.375 h -20.625 l 2.625,6.625 h 20.375 l 4.875,13.875 z"
         id="path586"
         inkscape:connector-curvature="0" /></clipPath><linearGradient
       x1="0"
       y1="0"
       x2="1"
       y2="0"
       gradientUnits="userSpaceOnUse"
       gradientTransform="matrix(-2.6e-6,-59.125488,-59.125488,2.6e-6,156.02246,216.08203)"
       spreadMethod="pad"
       id="linearGradient602"><stop
         style="stop-opacity:1;stop-color:#ea5b0b"
         offset="0"
         id="stop594" /><stop
         style="stop-opacity:1;stop-color:#fcea12"
         offset="0.48564172"
         id="stop596" /><stop
         style="stop-opacity:1;stop-color:#fcea12"
         offset="0.989529"
         id="stop598" /><stop
         style="stop-opacity:1;stop-color:#fcea12"
         offset="1"
         id="stop600" /></linearGradient><clipPath
       clipPathUnits="userSpaceOnUse"
       id="clipPath612"><path
         d="m 194.085,216.082 -23.25,-59.125 h 16.5 l 22.875,59.125 z"
         id="path610"
         inkscape:connector-curvature="0" /></clipPath><linearGradient
       x1="0"
       y1="0"
       x2="1"
       y2="0"
       gradientUnits="userSpaceOnUse"
       gradientTransform="matrix(-2.6e-6,-59.125488,-59.125488,2.6e-6,190.52246,216.08203)"
       spreadMethod="pad"
       id="linearGradient626"><stop
         style="stop-opacity:1;stop-color:#ea5b0b"
         offset="0"
         id="stop618" /><stop
         style="stop-opacity:1;stop-color:#fcea12"
         offset="0.48564172"
         id="stop620" /><stop
         style="stop-opacity:1;stop-color:#fcea12"
         offset="0.989529"
         id="stop622" /><stop
         style="stop-opacity:1;stop-color:#fcea12"
         offset="1"
         id="stop624" /></linearGradient><clipPath
       clipPathUnits="userSpaceOnUse"
       id="clipPath636"><path
         d="m 241.085,216.082 c -4.824,-0.195 -10.177,-1.072 -14.635,-2.97 v 0 c -6.127,-2.608 -12.083,-7.142 -15.815,-12.678 v 0 c -3.477,-5.157 -6.548,-10.403 -7.111,-16.805 v 0 c -0.247,-2.816 -0.388,-5.62 0.003,-8.43 v 0 c 0.651,-4.683 2.12,-9.931 5.647,-13.273 v 0 c 2.449,-2.317 6.604,-4.969 10.136,-4.969 v 0 h 21.326 l 13.074,34.375 -19,0.125 -11.75,-14.5 h 8.75 l -2.5,-5.75 c -6.924,-0.537 -10.308,5.512 -9.954,11.716 v 0 c 0.169,2.97 1.818,6.758 3.329,9.282 v 0 c 2.778,4.644 7.625,7.383 12.726,8.785 v 0 c 2.477,0.681 5.029,1.039 7.594,1.151 v 0 c 1.278,0.054 2.557,0.047 3.835,0.007 v 0 c 0.497,-0.015 3.6,-0.496 3.845,-0.191 v 0 c 0.007,0.01 11.375,14.125 11.375,14.125 v 0 z"
         id="path634"
         inkscape:connector-curvature="0" /></clipPath><linearGradient
       x1="0"
       y1="0"
       x2="1"
       y2="0"
       gradientUnits="userSpaceOnUse"
       gradientTransform="matrix(-2.6e-6,-59.125488,-59.125488,2.6e-6,232.62158,216.08203)"
       spreadMethod="pad"
       id="linearGradient650"><stop
         style="stop-opacity:1;stop-color:#ea5b0b"
         offset="0"
         id="stop642" /><stop
         style="stop-opacity:1;stop-color:#fcea12"
         offset="0.48564172"
         id="stop644" /><stop
         style="stop-opacity:1;stop-color:#fcea12"
         offset="0.989529"
         id="stop646" /><stop
         style="stop-opacity:1;stop-color:#fcea12"
         offset="1"
         id="stop648" /></linearGradient><clipPath
       clipPathUnits="userSpaceOnUse"
       id="clipPath660"><path
         d="m 301.084,216.082 -8.499,-20.625 h -14.75 l 8.125,20.625 h -16.25 l -23.25,-59.125 h 16.75 l 9.5,24.5 14.25,-0.125 -8.875,-24.375 h 16.5 l 22.499,59.125 z"
         id="path658"
         inkscape:connector-curvature="0" /></clipPath><linearGradient
       x1="0"
       y1="0"
       x2="1"
       y2="0"
       gradientUnits="userSpaceOnUse"
       gradientTransform="matrix(-2.6e-6,-59.125488,-59.125488,2.6e-6,281.77197,216.08203)"
       spreadMethod="pad"
       id="linearGradient674"><stop
         style="stop-opacity:1;stop-color:#ea5b0b"
         offset="0"
         id="stop666" /><stop
         style="stop-opacity:1;stop-color:#fcea12"
         offset="0.48564172"
         id="stop668" /><stop
         style="stop-opacity:1;stop-color:#fcea12"
         offset="0.989529"
         id="stop670" /><stop
         style="stop-opacity:1;stop-color:#fcea12"
         offset="1"
         id="stop672" /></linearGradient><clipPath
       clipPathUnits="userSpaceOnUse"
       id="clipPath684"><path
         d="m 322.959,216.082 -5.25,-13.625 h 12.375 l -17.125,-45.5 h 16.375 l 17.5,45.5 h 11.5 l 5.375,13.625 z"
         id="path682"
         inkscape:connector-curvature="0" /></clipPath><linearGradient
       x1="0"
       y1="0"
       x2="1"
       y2="0"
       gradientUnits="userSpaceOnUse"
       gradientTransform="matrix(-2.6e-6,-59.125488,-59.125488,2.6e-6,338.33398,216.08203)"
       spreadMethod="pad"
       id="linearGradient698"><stop
         style="stop-opacity:1;stop-color:#ea5b0b"
         offset="0"
         id="stop690" /><stop
         style="stop-opacity:1;stop-color:#fcea12"
         offset="0.48564172"
         id="stop692" /><stop
         style="stop-opacity:1;stop-color:#fcea12"
         offset="0.989529"
         id="stop694" /><stop
         style="stop-opacity:1;stop-color:#fcea12"
         offset="1"
         id="stop696" /></linearGradient><clipPath
       clipPathUnits="userSpaceOnUse"
       id="clipPath708"><path
         d="m 370.604,216.082 -22.299,-59.125 h 40.726 l 4.928,14.469 h -24.293 l 4.108,9.975 h 22.181 l 5.047,14.084 h -21.83 l 2.699,7.16 h 22.533 l 5.047,13.437 z"
         id="path706"
         inkscape:connector-curvature="0" /></clipPath><linearGradient
       x1="0"
       y1="0"
       x2="1"
       y2="0"
       gradientUnits="userSpaceOnUse"
       gradientTransform="matrix(-2.6e-6,-59.125488,-59.125488,2.6e-6,378.87793,216.08203)"
       spreadMethod="pad"
       id="linearGradient722"><stop
         style="stop-opacity:1;stop-color:#ea5b0b"
         offset="0"
         id="stop714" /><stop
         style="stop-opacity:1;stop-color:#fcea12"
         offset="0.48564172"
         id="stop716" /><stop
         style="stop-opacity:1;stop-color:#fcea12"
         offset="0.989529"
         id="stop718" /><stop
         style="stop-opacity:1;stop-color:#fcea12"
         offset="1"
         id="stop720" /></linearGradient><clipPath
       clipPathUnits="userSpaceOnUse"
       id="clipPath732"><path
         d="m 417.084,216.082 -22.25,-59.125 h 16.25 l 9.375,24.125 2.5,-24.125 h 16.125 l -1.875,25.875 c 12.375,9.875 13.375,21 13.375,21 v 0 c 1.25,11.5 -5.875,12.25 -5.875,12.25 v 0 z m 7.084,-24.875 c 0,0.001 5.916,15.166 5.916,15.166 v 0 h 3.918 c 0.594,0 1.256,-1.117 1.498,-1.518 v 0 c 0.699,-1.16 0.871,-2.404 0.611,-3.725 v 0 c -0.588,-2.97 -2.081,-5.862 -4.378,-7.862 v 0 c -0.923,-0.804 -1.975,-1.438 -3.155,-1.78 v 0 c -0.416,-0.122 -3.917,-0.284 -4.363,-0.284 v 0 c -0.031,0 -0.047,0.001 -0.047,0.003"
         id="path730"
         inkscape:connector-curvature="0" /></clipPath><linearGradient
       x1="0"
       y1="0"
       x2="1"
       y2="0"
       gradientUnits="userSpaceOnUse"
       gradientTransform="matrix(-2.6e-6,-59.125488,-59.125488,2.6e-6,422.7832,216.08203)"
       spreadMethod="pad"
       id="linearGradient746"><stop
         style="stop-opacity:1;stop-color:#ea5b0b"
         offset="0"
         id="stop738" /><stop
         style="stop-opacity:1;stop-color:#fcea12"
         offset="0.48564172"
         id="stop740" /><stop
         style="stop-opacity:1;stop-color:#fcea12"
         offset="0.989529"
         id="stop742" /><stop
         style="stop-opacity:1;stop-color:#fcea12"
         offset="1"
         id="stop744" /></linearGradient><clipPath
       clipPathUnits="userSpaceOnUse"
       id="clipPath756"><path
         d="m 474.496,215.932 c -1.789,-0.625 -3.612,-1.411 -5.261,-2.348 v 0 c -3.093,-1.756 -6.069,-3.848 -8.342,-6.616 v 0 c -0.995,-1.209 -1.926,-2.552 -2.678,-3.928 v 0 c -1.946,-3.556 -3.424,-7.574 -2.031,-11.582 v 0 c 1.392,-4.004 4.962,-7.476 8.525,-9.626 v 0 c 0,0 7.668,-4.334 6.625,-7.125 v 0 c 0,0 -4.748,-9.792 -23.5,1.125 v 0 c 0,0 -5.998,-14.998 -6,-15 v 0 c -0.24,-0.602 7.772,-3.207 8.174,-3.31 v 0 c 6.6,-1.7 13.812,-1.44 20.23,0.884 v 0 c 4.994,1.806 9.631,4.746 13.141,8.751 v 0 c 1,1.141 1.888,2.381 2.668,3.682 v 0 c 2.523,4.205 4.381,9.526 1.883,14.184 v 0 c -2.157,4.02 -6.723,6.056 -10.379,8.452 v 0 c -2.227,1.46 -7.9,3.987 -5.443,7.533 v 0 c 0.562,0.812 1.617,1.536 2.529,1.896 v 0 c 1.023,0.404 2.246,0.674 3.351,0.687 v 0 c 1.848,0.02 3.826,-0.386 5.596,-0.884 v 0 c 0,0 5.687,-2.562 8.75,-7.5 v 0 c 0,0 5.998,16.744 6,16.75 v 0 c 0.25,0.702 -3.582,2.373 -4.072,2.607 v 0 c -3.717,1.774 -7.695,2.736 -11.694,2.736 v 0 c -2.706,10e-4 -5.42,-0.44 -8.072,-1.368"
         id="path754"
         inkscape:connector-curvature="0" /></clipPath><linearGradient
       x1="0"
       y1="0"
       x2="1"
       y2="0"
       gradientUnits="userSpaceOnUse"
       gradientTransform="matrix(-2.7e-6,-60.876953,-60.876953,2.7e-6,470.08789,217.30029)"
       spreadMethod="pad"
       id="linearGradient770"><stop
         style="stop-opacity:1;stop-color:#ea5b0b"
         offset="0"
         id="stop762" /><stop
         style="stop-opacity:1;stop-color:#fcea12"
         offset="0.48564172"
         id="stop764" /><stop
         style="stop-opacity:1;stop-color:#fcea12"
         offset="0.989529"
         id="stop766" /><stop
         style="stop-opacity:1;stop-color:#fcea12"
         offset="1"
         id="stop768" /></linearGradient></defs><sodipodi:namedview
     pagecolor="#ffffff"
     bordercolor="#666666"
     borderopacity="1"
     objecttolerance="10"
     gridtolerance="10"
     guidetolerance="10"
     inkscape:pageopacity="0"
     inkscape:pageshadow="2"
     inkscape:window-width="1366"
     inkscape:window-height="743"
     id="namedview4"
     showgrid="false"
     inkscape:pagecheckerboard="true"
     inkscape:zoom="1.3370644"
     inkscape:cx="198.53319"
     inkscape:cy="64.915473"
     inkscape:window-x="0"
     inkscape:window-y="0"
     inkscape:window-maximized="1"
     inkscape:current-layer="g10" /><g
     id="g10"
     inkscape:groupmode="layer"
     inkscape:label="the-king-of-fighters-seeklogo.com"
     transform="matrix(1.3333333,0,0,-1.3333333,0.03635954,175.4906)"><path
       style="fill:#d82b46;stroke-width:0.93681538"
       inkscape:connector-curvature="0"
       id="path2999"
       class="st0"
       d="M 88.691046,86.129277 59.462406,50.249253 68.362152,85.379827 24.519193,44.628361 c -7.494523,3.747261 -11.991237,8.806064 -11.991237,14.520638 0,13.490142 24.919289,25.856108 55.365789,27.636058 7.30716,0.37472 14.333275,0.0937 20.797301,-0.65578 z m 1.967312,-44.873452 11.335462,42.156692 c 12.92806,-3.747261 21.17203,-10.304969 21.17203,-18.080536 0.0937,-9.836562 -13.30278,-19.204716 -32.507492,-24.076156 z M 35.386251,11.371415 48.033259,57.462731 22.458199,31.419264 C 8.1249231,36.66543 -0.68114149,45.003087 -0.58745995,54.652285 c 0,17.705811 30.44649995,33.537992 67.82543395,35.130572 8.243975,0.37473 16.206906,0 23.607748,-1.03049 l 18.923668,23.233023 -6.83875,-25.481383 c 19.2984,-4.87144 32.22645,-14.426956 32.22645,-26.043466 0,-17.05004 -28.10446,-32.320131 -63.516084,-34.849533 L 83.163835,66.737204 35.386251,11.371415" /><path
       style="fill:#ffffff;stroke-width:0.93681538"
       inkscape:connector-curvature="0"
       id="path3001"
       class="st1"
       d="M 166.44209,80.508387 H 150.79727 L 138.15026,37.133838 h 11.99124 l 4.96512,16.956358 2.06099,9.930243 -1.21786,-26.886601 h 9.27448 l 14.33327,26.418193 -3.74726,-9.461835 -4.96512,-16.956358 h 11.89755 l 12.64701,43.374549 h -15.55113 l -14.52064,-26.324509 1.12418,26.324509" /><path
       style="fill:#ffffff;stroke-width:0.93681538"
       inkscape:connector-curvature="0"
       id="path3003"
       class="st1"
       d="M 200.54217,80.508387 187.89516,37.133838 h 12.92805 l 12.64701,43.374549 h -12.92805" /><path
       style="fill:#ffffff;stroke-width:0.93681538"
       inkscape:connector-curvature="0"
       id="path3005"
       class="st1"
       d="m 228.45926,70.203421 c 3.27886,0.09368 5.71458,-0.655771 7.40085,-2.154676 1.68626,-1.498904 1.87363,-4.403032 0.74945,-8.618701 -0.74945,-2.529402 -1.59259,-4.496714 -2.62309,-6.0893 -1.03049,-1.592586 -2.15467,-2.810446 -3.46621,-3.747262 -1.31154,-0.936815 -2.62309,-1.498904 -4.12199,-1.779949 -1.4989,-0.281045 -2.99781,-0.374726 -4.68408,-0.281045 z m -9.64919,10.304966 -12.64701,-43.374549 h 16.86267 c 2.99781,0 5.90194,0.374726 8.71239,1.21786 2.71676,0.843133 5.33985,2.060993 7.5882,3.934624 2.34204,1.779949 4.40303,4.121988 6.18298,7.026116 1.77995,2.904127 3.18518,6.370344 4.30935,10.492332 1.12418,4.121987 1.21786,7.588204 0.46841,10.211287 -0.74945,2.716765 -1.96731,4.777759 -3.65358,6.370345 -1.68627,1.592586 -3.65358,2.623083 -5.80825,3.278854 -2.15468,0.562089 -4.12199,0.936811 -5.90194,0.936811 h -16.11322 v -0.0937" /><path
       style="fill:#ffffff;stroke-width:0.93681538"
       inkscape:connector-curvature="0"
       id="path3007"
       class="st1"
       d="M 255.25218,80.508387 252.6291,37.133838 h 12.55333 l 11.52283,24.919289 -2.62309,-24.919289 h 12.55333 l 21.92148,43.374549 h -12.08492 l -11.99124,-26.324509 3.46622,26.324509 h -11.71019 l -11.33547,-26.324509 3.27886,26.324509 h -12.92806" /><path
       style="fill:#ffffff;stroke-width:0.93681538"
       inkscape:connector-curvature="0"
       id="path3009"
       class="st1"
       d="m 312.77265,51.748158 7.86925,14.145912 -0.28105,-14.145912 z m 5.52721,28.760229 -26.60556,-43.374549 h 13.02174 l 2.90412,5.620892 h 12.55333 l -0.37473,-5.620892 h 13.02174 l -1.21786,43.374549 h -13.30278" /><path
       style="fill:#ffffff;stroke-width:0.93681538"
       inkscape:connector-curvature="0"
       id="path3011"
       class="st1"
       d="m 334.69413,80.508387 6.27666,-27.729733 -4.59039,-15.644816 h 12.55332 l 4.5904,15.644816 22.85829,27.729733 h -14.80168 l -10.39865,-14.052228 -2.24836,14.052228 h -14.23959" /><path
       d="m 8.1345101,-17.79333 c 1.1826919,0 2.3329319,0.252403 3.4507199,0.757211 1.117788,0.504807 2.037259,1.182692 2.758412,2.033653 v 0 l -2.055287,2.033653 c -0.533654,-0.620192 -1.146634,-1.096153 -1.838942,-1.427884 -0.6923073,-0.331731 -1.4350955,-0.497596 -2.2283644,-0.497596 -0.7067306,0 -1.3593746,0.126202 -1.9579321,0.378606 -0.5985575,0.252403 -1.1177881,0.594951 -1.5576918,1.027644 -0.4399037,0.432692 -0.7860574,0.948317 -1.0384611,1.546874 -0.2524038,0.598558 -0.3786057,1.24399 -0.3786057,1.936298 0,0.70673 0.1225961,1.3593741 0.3677883,1.9579316 0.2451923,0.5985574 0.5841345,1.117788 1.0168266,1.5576917 0.4326922,0.4399037 0.948317,0.7860575 1.5468745,1.0384612 0.5985575,0.2524038 1.2367784,0.3786057 1.9146628,0.3786057 0.8076921,0 1.5721149,-0.1766827 2.2932689,-0.5300479 0.721153,-0.3533653 1.348557,-0.8617786 1.88221,-1.5252399 v 0 l 2.120192,2.098557 c -0.706731,0.8653843 -1.629807,1.554086 -2.76923,2.066105 -1.139422,0.5120191 -2.3149028,0.7680286 -3.5264409,0.7680286 -1.1249996,0 -2.1814896,-0.201923 -3.1694701,-0.605769 C 3.9770596,-3.204393 3.1224926,-3.7524697 2.401339,-4.4447772 1.6801854,-5.1370847 1.110474,-5.9628055 0.6922049,-6.9219398 0.27393581,-7.8810741 0.06480127,-8.908718 0.06480127,-10.004871 c 0,-1.096154 0.20552878,-2.120192 0.61658633,-3.072115 0.4110576,-0.951923 0.9771632,-1.774038 1.6983168,-2.466345 0.7211536,-0.692308 1.5757206,-1.240384 2.563701,-1.64423 0.9879805,-0.403846 2.051682,-0.605769 3.1911047,-0.605769 z m 40.9975879,-0.02163 c 1.125,0 2.177884,0.201923 3.158653,0.605769 0.980769,0.403846 1.828124,0.955529 2.542066,1.655048 0.713942,0.699519 1.280049,1.528845 1.698318,2.487979 0.418269,0.959135 0.627404,1.979567 0.627404,3.061298 0,1.0817299 -0.209135,2.1021623 -0.627404,3.0612966 -0.418269,0.9591343 -0.984376,1.7884609 -1.698318,2.4879799 -0.713942,0.699519 -1.561297,1.2512015 -2.542066,1.6550475 -0.980769,0.403846 -2.033653,0.605769 -3.158653,0.605769 -1.110576,0 -2.156249,-0.201923 -3.137018,-0.605769 -0.980769,-0.403846 -1.828124,-0.9555285 -2.542067,-1.6550475 -0.713942,-0.699519 -1.280047,-1.5288456 -1.698316,-2.4879799 -0.418269,-0.9591343 -0.627404,-1.9795667 -0.627404,-3.0612966 0,-1.081731 0.209135,-2.102163 0.627404,-3.061298 0.418269,-0.959134 0.984374,-1.78846 1.698316,-2.487979 0.713943,-0.699519 1.561298,-1.251202 2.542067,-1.655048 0.980769,-0.403846 2.026442,-0.605769 3.137018,-0.605769 z m 0,2.877403 c -0.677884,0 -1.308894,0.126202 -1.893028,0.378606 -0.584135,0.252403 -1.088942,0.598557 -1.514423,1.038461 -0.42548,0.439903 -0.760817,0.96274 -1.006009,1.568509 -0.245192,0.605769 -0.367788,1.254807 -0.367788,1.947115 0,0.70673 0.122596,1.3593741 0.367788,1.9579316 0.245192,0.5985574 0.580529,1.117788 1.006009,1.5576917 0.425481,0.4399037 0.930288,0.7860575 1.514423,1.0384612 0.584134,0.2524038 1.215144,0.3786057 1.893028,0.3786057 0.677884,0 1.3125,-0.1262019 1.903846,-0.3786057 0.591346,-0.2524037 1.099759,-0.5985575 1.525239,-1.0384612 0.425481,-0.4399037 0.760818,-0.9591343 1.00601,-1.5576917 0.245192,-0.5985575 0.367788,-1.2512016 0.367788,-1.9579316 0,-0.692308 -0.122596,-1.341346 -0.367788,-1.947115 -0.245192,-0.605769 -0.580529,-1.128606 -1.00601,-1.568509 -0.42548,-0.439904 -0.933893,-0.786058 -1.525239,-1.038461 -0.591346,-0.252404 -1.225962,-0.378606 -1.903846,-0.378606 z m 47.552873,-2.639422 v 2.76923 H 88.398917 V -2.4327587 H 85.261898 V -17.576984 Z m 39.548049,0 v 2.76923 h -8.28605 v 12.3749953 h -3.13702 V -17.576984 Z m 39.85095,0 v 2.72596 h -8.58894 v 3.591345 h 5.60337 v 2.6394224 h -5.60337 v 3.4615373 h 8.5024 v 2.7259606 H 164.35801 V -17.576984 Z m 34.78845,-0.216346 c 1.18269,0 2.33293,0.252403 3.45072,0.757211 1.11779,0.504807 2.03726,1.182692 2.75841,2.033653 v 0 l -2.05528,2.033653 c -0.53366,-0.620192 -1.14664,-1.096153 -1.83895,-1.427884 -0.6923,-0.331731 -1.43509,-0.497596 -2.22836,-0.497596 -0.70673,0 -1.35938,0.126202 -1.95793,0.378606 -0.59856,0.252403 -1.11779,0.594951 -1.55769,1.027644 -0.43991,0.432692 -0.78606,0.948317 -1.03847,1.546874 -0.2524,0.598558 -0.3786,1.24399 -0.3786,1.936298 0,0.70673 0.12259,1.3593741 0.36779,1.9579316 0.24519,0.5985574 0.58413,1.117788 1.01682,1.5576917 0.4327,0.4399037 0.94832,0.7860575 1.54688,1.0384612 0.59856,0.2524038 1.23678,0.3786057 1.91466,0.3786057 0.80769,0 1.57212,-0.1766827 2.29327,-0.5300479 0.72115,-0.3533653 1.34856,-0.8617786 1.88221,-1.5252399 v 0 l 2.12019,2.098557 c -0.70673,0.8653843 -1.62981,1.554086 -2.76923,2.066105 -1.13942,0.5120191 -2.3149,0.7680286 -3.52644,0.7680286 -1.125,0 -2.18149,-0.201923 -3.16947,-0.605769 -0.98798,-0.403846 -1.84255,-0.9519227 -2.5637,-1.6442302 -0.72115,-0.6923075 -1.29087,-1.5180283 -1.70913,-2.4771626 -0.41827,-0.9591343 -0.62741,-1.9867782 -0.62741,-3.0829312 0,-1.096154 0.20553,-2.120192 0.61659,-3.072115 0.41106,-0.951923 0.97716,-1.774038 1.69832,-2.466345 0.72115,-0.692308 1.57572,-1.240384 2.5637,-1.64423 0.98798,-0.403846 2.05168,-0.605769 3.1911,-0.605769 z m 41.49519,0.216346 v 12.3749955 h 5.08413 v 2.7692298 h -13.3269 v -2.7692298 h 5.10575 V -17.576984 Z m 35.93509,0 v 15.1442253 h -3.13702 V -17.576984 Z m 36.12979,-0.237981 c 1.125,0 2.17788,0.201923 3.15865,0.605769 0.98077,0.403846 1.82813,0.955529 2.54207,1.655048 0.71394,0.699519 1.28005,1.528845 1.69832,2.487979 0.41827,0.959135 0.6274,1.979567 0.6274,3.061298 0,1.0817299 -0.20913,2.1021623 -0.6274,3.0612966 -0.41827,0.9591343 -0.98438,1.7884609 -1.69832,2.4879799 -0.71394,0.699519 -1.5613,1.2512015 -2.54207,1.6550475 -0.98077,0.403846 -2.03365,0.605769 -3.15865,0.605769 -1.11058,0 -2.15625,-0.201923 -3.13702,-0.605769 -0.98077,-0.403846 -1.82812,-0.9555285 -2.54206,-1.6550475 -0.71395,-0.699519 -1.28005,-1.5288456 -1.69832,-2.4879799 -0.41827,-0.9591343 -0.6274,-1.9795667 -0.6274,-3.0612966 0,-1.081731 0.20913,-2.102163 0.6274,-3.061298 0.41827,-0.959134 0.98437,-1.78846 1.69832,-2.487979 0.71394,-0.699519 1.56129,-1.251202 2.54206,-1.655048 0.98077,-0.403846 2.02644,-0.605769 3.13702,-0.605769 z m 0,2.877403 c -0.67788,0 -1.30889,0.126202 -1.89303,0.378606 -0.58413,0.252403 -1.08894,0.598557 -1.51442,1.038461 -0.42548,0.439903 -0.76082,0.96274 -1.00601,1.568509 -0.24519,0.605769 -0.36779,1.254807 -0.36779,1.947115 0,0.70673 0.1226,1.3593741 0.36779,1.9579316 0.24519,0.5985574 0.58053,1.117788 1.00601,1.5576917 0.42548,0.4399037 0.93029,0.7860575 1.51442,1.0384612 0.58414,0.2524038 1.21515,0.3786057 1.89303,0.3786057 0.67789,0 1.3125,-0.1262019 1.90385,-0.3786057 0.59134,-0.2524037 1.09976,-0.5985575 1.52524,-1.0384612 0.42548,-0.4399037 0.76081,-0.9591343 1.00601,-1.5576917 0.24519,-0.5985575 0.36778,-1.2512016 0.36778,-1.9579316 0,-0.692308 -0.12259,-1.341346 -0.36778,-1.947115 -0.2452,-0.605769 -0.58053,-1.128606 -1.00601,-1.568509 -0.42548,-0.439904 -0.9339,-0.786058 -1.52524,-1.038461 -0.59135,-0.252404 -1.22596,-0.378606 -1.90385,-0.378606 z m 39.09374,-2.639422 v 10.1249963 l 7.72355,-10.1249963 h 2.76923 v 15.1442253 h -2.9423 v -9.8004773 l -7.52885,9.8004773 h -2.98557 V -17.576984 Z"
       id="COLLECTION"
       inkscape:connector-curvature="0"
       style="fill:#ffffff;fill-rule:nonzero;stroke:none;stroke-width:0.90144199" /><g
       id="g48"
       transform="matrix(0.65020803,0,0,-0.65020803,47.428401,208.77548)"><path
         d="m 98.368707,123.56449 -3.911684,9.67624 h 7.837657 z m -1.627486,-2.59162 h 3.269259 l 8.12318,19.44364 h -2.99801 l -1.94157,-4.98788 h -9.607908 l -1.941568,4.98788 h -3.040839 z"
         style="font-style:normal;font-weight:normal;font-size:40px;line-height:125%;font-family:sans-serif;letter-spacing:0px;word-spacing:0px;fill:#ffffff;fill-opacity:1;stroke:#ffffff;stroke-width:0.69800001;stroke-linecap:butt;stroke-linejoin:miter;stroke-miterlimit:4;stroke-dasharray:none;stroke-opacity:1"
         id="path36"
         inkscape:connector-curvature="0" /><path
         d="m 149.94112,131.30027 q 0.92796,0.28651 1.79881,1.22418 0.88512,0.93767 1.77025,2.5786 l 2.92663,5.31346 h -3.09794 l -2.72677,-4.98788 q -1.05644,-1.95348 -2.05577,-2.59162 -0.98506,-0.63814 -2.69821,-0.63814 h -3.14077 v 8.21764 h -2.88381 v -19.44364 h 6.50997 q 3.65472,0 5.45352,1.39348 1.79881,1.39349 1.79881,4.2065 0,1.83627 -0.94223,3.04743 -0.92796,1.21115 -2.71249,1.67999 z m -7.22378,-8.16555 v 6.9023 h 3.62617 q 2.08433,0 3.14077,-0.87256 1.07072,-0.88557 1.07072,-2.59161 0,-1.70604 -1.07072,-2.56557 -1.05644,-0.87256 -3.14077,-0.87256 z"
         style="font-style:normal;font-weight:normal;font-size:40px;line-height:125%;font-family:sans-serif;letter-spacing:0px;word-spacing:0px;fill:#ffffff;fill-opacity:1;stroke:#ffffff;stroke-width:0.69800001;stroke-linecap:butt;stroke-linejoin:miter;stroke-miterlimit:4;stroke-dasharray:none;stroke-opacity:1"
         id="path38"
         inkscape:connector-curvature="0" /><path
         d="m 200.69712,122.47054 v 2.77394 q -1.45617,-1.2372 -3.11221,-1.84929 -1.64177,-0.61209 -3.49768,-0.61209 -3.65472,0 -5.59629,2.04464 -1.94157,2.03162 -1.94157,5.88649 0,3.84184 1.94157,5.88649 1.94157,2.03161 5.59629,2.03161 1.85591,0 3.49768,-0.61209 1.65604,-0.61209 3.11221,-1.84929 v 2.74789 q -1.51328,0.93768 -3.21215,1.40651 -1.6846,0.46884 -3.56906,0.46884 -4.83964,0 -7.62351,-2.69581 -2.78386,-2.70882 -2.78386,-7.38415 0,-4.68836 2.78386,-7.38416 2.78387,-2.70883 7.62351,-2.70883 1.91302,0 3.59761,0.46884 1.69888,0.45581 3.1836,1.38046 z"
         style="font-style:normal;font-weight:normal;font-size:40px;line-height:125%;font-family:sans-serif;letter-spacing:0px;word-spacing:0px;fill:#ffffff;fill-opacity:1;stroke:#ffffff;stroke-width:0.69800001;stroke-linecap:butt;stroke-linejoin:miter;stroke-miterlimit:4;stroke-dasharray:none;stroke-opacity:1"
         id="path40-3"
         inkscape:connector-curvature="0" /><path
         d="m 238.86281,123.56449 -3.91168,9.67624 h 7.83765 z m -1.62749,-2.59162 h 3.26926 l 8.12318,19.44364 h -2.998 l -1.94157,-4.98788 h -9.60792 l -1.94157,4.98788 h -3.04083 z"
         style="font-style:normal;font-weight:normal;font-size:40px;line-height:125%;font-family:sans-serif;letter-spacing:0px;word-spacing:0px;fill:#ffffff;fill-opacity:1;stroke:#ffffff;stroke-width:0.69800001;stroke-linecap:butt;stroke-linejoin:miter;stroke-miterlimit:4;stroke-dasharray:none;stroke-opacity:1"
         id="path42"
         inkscape:connector-curvature="0" /><path
         d="m 277.21144,123.13472 v 15.11994 h 3.48341 q 4.41135,0 6.45285,-1.82325 2.05578,-1.82325 2.05578,-5.75625 0,-3.90696 -2.05578,-5.71719 -2.0415,-1.82325 -6.45285,-1.82325 z m -2.8838,-2.16185 h 5.92464 q 6.19589,0 9.09396,2.3572 2.89808,2.34418 2.89808,7.34509 0,5.02695 -2.91235,7.38415 -2.91235,2.3572 -9.07969,2.3572 h -5.92464 z"
         style="font-style:normal;font-weight:normal;font-size:40px;line-height:125%;font-family:sans-serif;letter-spacing:0px;word-spacing:0px;fill:#ffffff;fill-opacity:1;stroke:#ffffff;stroke-width:0.69800001;stroke-linecap:butt;stroke-linejoin:miter;stroke-miterlimit:4;stroke-dasharray:none;stroke-opacity:1"
         id="path44"
         inkscape:connector-curvature="0" /><path
         d="m 321.42893,120.97287 h 13.47677 v 2.21394 h -10.59297 v 5.75626 h 10.15041 v 2.21394 h -10.15041 v 7.04556 h 10.84994 v 2.21394 h -13.73374 z"
         style="font-style:normal;font-weight:normal;font-size:40px;line-height:125%;font-family:sans-serif;letter-spacing:0px;word-spacing:0px;fill:#ffffff;fill-opacity:1;stroke:#ffffff;stroke-width:0.69800001;stroke-linecap:butt;stroke-linejoin:miter;stroke-miterlimit:4;stroke-dasharray:none;stroke-opacity:1"
         id="path46"
         inkscape:connector-curvature="0" /></g></g><style
     id="style1420">.st0{fill:#d82b46}.st1{fill:#231f20}</style></svg>