<!DOCTYPE svg PUBLIC "-//W3C//DTD SVG 20010904//EN" "http://www.w3.org/TR/2001/REC-SVG-20010904/DTD/svg10.dtd">
<svg version="1.0" xmlns="http://www.w3.org/2000/svg" width="998px" height="261px" viewBox="0 0 9980 2610" preserveAspectRatio="xMidYMid meet">
<g id="layer101" fill="#1f3d9b" fill-rule="evenodd">
<path d="M60 2554 C60 2550,116 2006,184 1343 C253 681,309 137,309 134 C310 132,418 130,550 130 L790 130 799 154 C804 167,877 409,960 691 C1043 974,1115 1210,1118 1217 C1122 1223,1192 982,1274 679 L1423 130 1736 130 L2050 130 2050 1345 L2050 2560 1835 2560 L1620 2560 1619 1922 C1618 1555,1614 1295,1609 1310 C1605 1323,1528 1607,1439 1940 C1351 2272,1275 2548,1270 2552 C1266 2557,1205 2559,1134 2557 L1005 2555 853 2005 C769 1702,691 1414,678 1365 L655 1275 647 1320 C643 1344,615 1628,584 1950 C554 2271,527 2540,524 2547 C521 2557,464 2560,290 2560 C163 2560,60 2557,60 2554 " />
<path d="M2220 2040 L2220 1520 5010 1520 L7800 1520 7795 2035 L7790 2550 5005 2555 L2220 2560 2220 2040 M2537 2376 C2490 2351,2436 2280,2419 2221 C2401 2157,2396 2053,2409 1988 C2439 1836,2515 1760,2636 1760 C2742 1760,2814 1816,2853 1932 C2879 2007,2876 2020,2834 2020 C2814 2020,2797 2014,2795 2007 C2793 2000,2786 1975,2780 1951 C2773 1926,2752 1890,2729 1866 C2695 1828,2686 1825,2643 1825 C2545 1825,2491 1901,2482 2050 C2476 2154,2496 2233,2541 2284 C2621 2376,2747 2331,2781 2198 C2793 2151,2794 2150,2831 2150 C2877 2150,2878 2156,2848 2235 C2824 2301,2774 2361,2724 2383 C2672 2407,2588 2404,2537 2376 M3072 2381 C2989 2340,2939 2244,2932 2111 C2921 1913,3003 1773,3135 1762 C3164 1759,3205 1760,3225 1764 C3274 1773,3341 1837,3371 1902 C3392 1948,3395 1970,3395 2080 C3395 2189,3392 2211,3371 2255 C3327 2351,3258 2400,3165 2400 C3131 2400,3095 2392,3072 2381 M3129 2334 C3092 2323,3041 2262,3025 2208 C3005 2141,3005 2018,3025 1949 C3076 1779,3252 1782,3311 1955 C3318 1977,3324 2035,3324 2085 C3324 2166,3321 2182,3294 2235 C3254 2314,3192 2351,3129 2334 M4522 2383 C4473 2355,4431 2308,4408 2256 C4387 2211,4385 2189,4385 2080 C4385 1970,4387 1948,4408 1902 C4438 1837,4505 1773,4554 1764 C4574 1760,4615 1759,4644 1762 C4777 1773,4858 1913,4847 2113 C4840 2227,4798 2318,4732 2362 C4677 2397,4566 2409,4522 2383 M4573 2330 C4499 2303,4457 2215,4456 2085 C4455 2033,4461 1977,4468 1955 C4528 1779,4704 1779,4755 1954 C4780 2040,4772 2180,4739 2245 C4703 2314,4631 2351,4573 2330 M6745 2380 C6652 2325,6604 2208,6612 2051 C6617 1935,6643 1867,6701 1814 C6751 1770,6777 1760,6845 1760 C6912 1760,6938 1770,6988 1814 C7046 1867,7072 1935,7077 2051 C7085 2212,7034 2334,6938 2381 C6885 2407,6791 2406,6745 2380 M6812 2333 C6719 2300,6666 2160,6690 2009 C6709 1891,6765 1825,6845 1825 C6924 1825,6980 1891,6999 2010 C7018 2130,6981 2266,6919 2309 C6886 2332,6838 2343,6812 2333 M3480 2080 L3480 1770 3603 1770 C3738 1770,3767 1779,3813 1843 C3846 1886,3848 2001,3817 2055 C3804 2077,3778 2103,3758 2114 L3721 2134 3786 2262 L3850 2390 3807 2390 L3764 2390 3704 2267 L3644 2145 3597 2141 L3550 2138 3550 2264 L3550 2390 3515 2390 L3480 2390 3480 2080 M3552 1952 L3555 1835 3614 1831 C3726 1826,3765 1866,3761 1981 C3760 1996,3748 2022,3735 2039 C3710 2068,3707 2070,3630 2070 L3550 2070 3552 1952 M3960 2080 L3960 1770 4083 1770 C4195 1770,4210 1772,4241 1792 C4341 1859,4345 2041,4248 2110 C4220 2131,4200 2135,4122 2138 L4030 2141 4030 2265 L4030 2390 3995 2390 L3960 2390 3960 2080 M4030 1950 L4030 1830 4088 1830 C4202 1830,4240 1862,4240 1960 C4240 2004,4235 2015,4210 2040 C4182 2067,4174 2070,4105 2070 L4030 2070 4030 1950 M5000 2080 L5000 1770 5123 1770 C5235 1770,5250 1772,5280 1792 C5385 1863,5386 2048,5281 2111 C5261 2123,5243 2134,5241 2135 C5240 2136,5266 2192,5299 2258 C5332 2325,5360 2382,5360 2384 C5360 2387,5342 2390,5321 2390 L5283 2390 5221 2265 L5160 2140 5115 2140 L5070 2140 5070 2265 L5070 2390 5035 2390 L5000 2390 5000 2080 M5070 1950 L5070 1830 5128 1830 C5242 1830,5280 1862,5280 1960 C5280 2004,5275 2015,5250 2040 C5222 2067,5214 2070,5145 2070 L5070 2070 5070 1950 M5440 2383 C5440 2379,5478 2247,5525 2090 C5572 1933,5613 1797,5616 1787 C5620 1774,5632 1770,5668 1770 L5715 1770 5804 2067 C5852 2231,5894 2370,5897 2377 C5900 2386,5889 2390,5861 2390 L5820 2390 5801 2322 C5790 2285,5776 2235,5770 2212 L5759 2169 5668 2172 L5577 2175 5548 2282 L5520 2390 5480 2390 C5458 2390,5440 2386,5440 2383 M5600 2097 C5600 2066,5668 1856,5673 1870 C5681 1892,5740 2097,5740 2103 C5740 2107,5708 2110,5670 2110 C5620 2110,5600 2106,5600 2097 M6070 2110 L6070 1830 5995 1830 L5920 1830 5920 1800 L5920 1770 6110 1770 L6300 1770 6300 1800 L6300 1830 6225 1830 L6150 1830 6150 2110 L6150 2390 6110 2390 L6070 2390 6070 2110 M6420 2080 L6420 1770 6460 1770 L6500 1770 6500 2080 L6500 2390 6460 2390 L6420 2390 6420 2080 M7170 2080 L7170 1770 7212 1770 L7255 1770 7380 1999 L7505 2229 7507 1999 L7510 1770 7545 1770 L7580 1770 7580 2080 L7580 2391 7542 2388 L7505 2385 7377 2150 L7250 1915 7250 2152 L7250 2390 7210 2390 L7170 2390 7170 2080 " />
<path d="M7970 1345 L7970 130 8185 130 L8400 130 8400 1125 L8400 2120 8630 2120 L8860 2120 8860 2340 L8860 2560 8415 2560 L7970 2560 7970 1345 " />
<path d="M9030 1345 L9030 130 9245 130 L9460 130 9460 1124 L9460 2119 9692 2122 L9925 2125 9922 2337 L9920 2550 9475 2555 L9030 2560 9030 1345 " />
<path d="M4387 1440 C4259 1404,4175 1355,4073 1255 C3995 1178,3976 1151,3936 1070 C3877 947,3854 840,3863 714 C3874 538,3940 391,4065 265 C4225 101,4426 35,4685 59 C4862 76,4975 106,5107 173 L5160 200 5160 430 C5160 556,5157 660,5153 660 C5150 660,5109 623,5063 579 C4960 481,4873 435,4757 419 C4619 400,4509 437,4424 532 C4361 602,4336 674,4342 775 C4349 906,4407 999,4521 1060 C4576 1089,4597 1094,4670 1098 C4835 1106,4963 1056,5079 938 C5117 901,5150 870,5153 870 C5157 870,5160 968,5160 1088 C5160 1340,5168 1317,5049 1374 C4935 1428,4828 1449,4630 1455 C4481 1459,4450 1457,4387 1440 " />
<path d="M2220 785 L2220 130 2435 130 L2650 130 2645 780 L2640 1430 2430 1435 L2220 1440 2220 785 " />
<path d="M3097 932 L3095 425 2932 422 L2769 419 2772 277 L2775 135 3332 132 L3890 129 3890 274 L3890 420 3730 420 L3570 420 3565 925 L3560 1430 3330 1435 L3100 1440 3097 932 " />
<path d="M5250 785 L5250 130 5465 130 L5680 130 5680 385 L5680 640 6000 640 L6320 640 6320 385 L6320 130 6535 130 L6750 130 6750 785 L6750 1440 6535 1440 L6320 1440 6320 1185 L6320 930 6000 930 L5680 930 5675 1180 L5670 1430 5460 1435 L5250 1440 5250 785 " />
<path d="M6880 784 L6880 129 7337 132 L7795 135 7797 277 L7800 420 7525 420 L7250 420 7250 530 L7250 640 7495 640 L7740 640 7740 785 L7740 930 7495 930 L7250 930 7250 1040 L7250 1150 7525 1150 L7800 1150 7795 1290 L7790 1430 7335 1435 L6880 1440 6880 784 " />
</g>
<g id="layer102" fill="#ffffff" fill-rule="evenodd">
<path d="M4 2587 C6 2575,66 2005,136 1322 L264 79 549 82 L834 85 974 557 C1051 816,1117 1031,1120 1033 C1122 1036,1183 822,1254 559 L1383 80 2661 80 L3940 80 3940 200 L3940 320 4022 236 C4227 28,4472 -36,4825 25 C4923 42,5022 75,5117 123 C5156 143,5191 160,5194 160 C5197 160,5200 142,5200 120 L5200 80 5465 80 L5730 80 5730 335 L5730 590 6000 590 L6270 590 6270 335 L6270 80 7360 80 L8450 80 8450 1075 L8450 2070 8715 2070 L8980 2070 8980 1075 L8980 80 9245 80 L9510 80 9510 1075 L9510 2070 9745 2070 L9980 2070 9980 2340 L9980 2610 5775 2610 L1570 2610 1570 2148 C1570 1893,1566 1690,1561 1695 C1551 1706,1319 2569,1320 2594 C1320 2608,1299 2610,1143 2607 L966 2605 824 2092 C698 1633,670 1540,670 1577 C670 1593,581 2514,575 2567 L570 2610 285 2610 L0 2610 4 2587 M60 2554 C60 2550,116 2006,184 1343 C253 681,309 137,309 134 C310 132,418 130,550 130 L790 130 799 154 C804 167,877 409,960 691 C1043 974,1115 1210,1118 1217 C1122 1223,1192 982,1274 679 L1423 130 1736 130 L2050 130 2050 1345 L2050 2560 1835 2560 L1620 2560 1619 1922 C1618 1555,1614 1295,1609 1310 C1605 1323,1528 1607,1439 1940 C1351 2272,1275 2548,1270 2552 C1266 2557,1205 2559,1134 2557 L1005 2555 853 2005 C769 1702,691 1414,678 1365 L655 1275 647 1320 C643 1344,615 1628,584 1950 C554 2271,527 2540,524 2547 C521 2557,464 2560,290 2560 C163 2560,60 2557,60 2554 M2220 2040 L2220 1520 5010 1520 L7800 1520 7795 2035 L7790 2550 5005 2555 L2220 2560 2220 2040 M2537 2376 C2490 2351,2436 2280,2419 2221 C2401 2157,2396 2053,2409 1988 C2439 1836,2515 1760,2636 1760 C2742 1760,2814 1816,2853 1932 C2879 2007,2876 2020,2834 2020 C2814 2020,2797 2014,2795 2007 C2793 2000,2786 1975,2780 1951 C2773 1926,2752 1890,2729 1866 C2695 1828,2686 1825,2643 1825 C2545 1825,2491 1901,2482 2050 C2476 2154,2496 2233,2541 2284 C2621 2376,2747 2331,2781 2198 C2793 2151,2794 2150,2831 2150 C2877 2150,2878 2156,2848 2235 C2824 2301,2774 2361,2724 2383 C2672 2407,2588 2404,2537 2376 M3072 2381 C2989 2340,2939 2244,2932 2111 C2921 1913,3003 1773,3135 1762 C3164 1759,3205 1760,3225 1764 C3274 1773,3341 1837,3371 1902 C3392 1948,3395 1970,3395 2080 C3395 2189,3392 2211,3371 2255 C3327 2351,3258 2400,3165 2400 C3131 2400,3095 2392,3072 2381 M3129 2334 C3092 2323,3041 2262,3025 2208 C3005 2141,3005 2018,3025 1949 C3076 1779,3252 1782,3311 1955 C3318 1977,3324 2035,3324 2085 C3324 2166,3321 2182,3294 2235 C3254 2314,3192 2351,3129 2334 M4522 2383 C4473 2355,4431 2308,4408 2256 C4387 2211,4385 2189,4385 2080 C4385 1970,4387 1948,4408 1902 C4438 1837,4505 1773,4554 1764 C4574 1760,4615 1759,4644 1762 C4777 1773,4858 1913,4847 2113 C4840 2227,4798 2318,4732 2362 C4677 2397,4566 2409,4522 2383 M4573 2330 C4499 2303,4457 2215,4456 2085 C4455 2033,4461 1977,4468 1955 C4528 1779,4704 1779,4755 1954 C4780 2040,4772 2180,4739 2245 C4703 2314,4631 2351,4573 2330 M6745 2380 C6652 2325,6604 2208,6612 2051 C6617 1935,6643 1867,6701 1814 C6751 1770,6777 1760,6845 1760 C6912 1760,6938 1770,6988 1814 C7046 1867,7072 1935,7077 2051 C7085 2212,7034 2334,6938 2381 C6885 2407,6791 2406,6745 2380 M6812 2333 C6719 2300,6666 2160,6690 2009 C6709 1891,6765 1825,6845 1825 C6924 1825,6980 1891,6999 2010 C7018 2130,6981 2266,6919 2309 C6886 2332,6838 2343,6812 2333 M3480 2080 L3480 1770 3603 1770 C3738 1770,3767 1779,3813 1843 C3846 1886,3848 2001,3817 2055 C3804 2077,3778 2103,3758 2114 L3721 2134 3786 2262 L3850 2390 3807 2390 L3764 2390 3704 2267 L3644 2145 3597 2141 L3550 2138 3550 2264 L3550 2390 3515 2390 L3480 2390 3480 2080 M3552 1952 L3555 1835 3614 1831 C3726 1826,3765 1866,3761 1981 C3760 1996,3748 2022,3735 2039 C3710 2068,3707 2070,3630 2070 L3550 2070 3552 1952 M3960 2080 L3960 1770 4083 1770 C4195 1770,4210 1772,4241 1792 C4341 1859,4345 2041,4248 2110 C4220 2131,4200 2135,4122 2138 L4030 2141 4030 2265 L4030 2390 3995 2390 L3960 2390 3960 2080 M4030 1950 L4030 1830 4088 1830 C4202 1830,4240 1862,4240 1960 C4240 2004,4235 2015,4210 2040 C4182 2067,4174 2070,4105 2070 L4030 2070 4030 1950 M5000 2080 L5000 1770 5123 1770 C5235 1770,5250 1772,5280 1792 C5385 1863,5386 2048,5281 2111 C5261 2123,5243 2134,5241 2135 C5240 2136,5266 2192,5299 2258 C5332 2325,5360 2382,5360 2384 C5360 2387,5342 2390,5321 2390 L5283 2390 5221 2265 L5160 2140 5115 2140 L5070 2140 5070 2265 L5070 2390 5035 2390 L5000 2390 5000 2080 M5070 1950 L5070 1830 5128 1830 C5242 1830,5280 1862,5280 1960 C5280 2004,5275 2015,5250 2040 C5222 2067,5214 2070,5145 2070 L5070 2070 5070 1950 M5440 2383 C5440 2379,5478 2247,5525 2090 C5572 1933,5613 1797,5616 1787 C5620 1774,5632 1770,5668 1770 L5715 1770 5804 2067 C5852 2231,5894 2370,5897 2377 C5900 2386,5889 2390,5861 2390 L5820 2390 5801 2322 C5790 2285,5776 2235,5770 2212 L5759 2169 5668 2172 L5577 2175 5548 2282 L5520 2390 5480 2390 C5458 2390,5440 2386,5440 2383 M5600 2097 C5600 2066,5668 1856,5673 1870 C5681 1892,5740 2097,5740 2103 C5740 2107,5708 2110,5670 2110 C5620 2110,5600 2106,5600 2097 M6070 2110 L6070 1830 5995 1830 L5920 1830 5920 1800 L5920 1770 6110 1770 L6300 1770 6300 1800 L6300 1830 6225 1830 L6150 1830 6150 2110 L6150 2390 6110 2390 L6070 2390 6070 2110 M6420 2080 L6420 1770 6460 1770 L6500 1770 6500 2080 L6500 2390 6460 2390 L6420 2390 6420 2080 M7170 2080 L7170 1770 7212 1770 L7255 1770 7380 1999 L7505 2229 7507 1999 L7510 1770 7545 1770 L7580 1770 7580 2080 L7580 2391 7542 2388 L7505 2385 7377 2150 L7250 1915 7250 2152 L7250 2390 7210 2390 L7170 2390 7170 2080 M7970 1345 L7970 130 8185 130 L8400 130 8400 1125 L8400 2120 8630 2120 L8860 2120 8860 2340 L8860 2560 8415 2560 L7970 2560 7970 1345 M9030 1345 L9030 130 9245 130 L9460 130 9460 1124 L9460 2119 9692 2122 L9925 2125 9922 2337 L9920 2550 9475 2555 L9030 2560 9030 1345 M2700 970 L2700 470 2870 470 L3040 470 3040 970 L3040 1470 2870 1470 L2700 1470 2700 970 M3620 970 L3620 470 3740 470 C3806 470,3859 473,3859 477 C3859 481,3850 514,3838 550 C3809 638,3806 853,3833 950 C3890 1155,4020 1317,4214 1427 L4290 1470 3955 1470 L3620 1470 3620 970 M4977 1461 C4981 1457,5005 1445,5031 1436 C5056 1427,5102 1404,5132 1385 C5163 1367,5191 1354,5194 1357 C5197 1360,5200 1387,5200 1416 L5200 1470 5085 1470 C5021 1470,4973 1466,4977 1461 M5730 1225 L5730 980 6000 980 L6270 980 6270 1225 L6270 1470 6000 1470 L5730 1470 5730 1225 M4387 1440 C4259 1404,4175 1355,4073 1255 C3995 1178,3976 1151,3936 1070 C3877 947,3854 840,3863 714 C3874 538,3940 391,4065 265 C4225 101,4426 35,4685 59 C4862 76,4975 106,5107 173 L5160 200 5160 430 C5160 556,5157 660,5153 660 C5150 660,5109 623,5063 579 C4960 481,4873 435,4757 419 C4619 400,4509 437,4424 532 C4361 602,4336 674,4342 775 C4349 906,4407 999,4521 1060 C4576 1089,4597 1094,4670 1098 C4835 1106,4963 1056,5079 938 C5117 901,5150 870,5153 870 C5157 870,5160 968,5160 1088 C5160 1340,5168 1317,5049 1374 C4935 1428,4828 1449,4630 1455 C4481 1459,4450 1457,4387 1440 M2220 785 L2220 130 2435 130 L2650 130 2645 780 L2640 1430 2430 1435 L2220 1440 2220 785 M3097 932 L3095 425 2932 422 L2769 419 2772 277 L2775 135 3332 132 L3890 129 3890 274 L3890 420 3730 420 L3570 420 3565 925 L3560 1430 3330 1435 L3100 1440 3097 932 M5250 785 L5250 130 5465 130 L5680 130 5680 385 L5680 640 6000 640 L6320 640 6320 385 L6320 130 6535 130 L6750 130 6750 785 L6750 1440 6535 1440 L6320 1440 6320 1185 L6320 930 6000 930 L5680 930 5675 1180 L5670 1430 5460 1435 L5250 1440 5250 785 M6880 784 L6880 129 7337 132 L7795 135 7797 277 L7800 420 7525 420 L7250 420 7250 530 L7250 640 7495 640 L7740 640 7740 785 L7740 930 7495 930 L7250 930 7250 1040 L7250 1150 7525 1150 L7800 1150 7795 1290 L7790 1430 7335 1435 L6880 1440 6880 784 M7305 1093 C7302 1089,7300 1062,7300 1033 L7300 980 7545 980 L7790 980 7790 785 L7790 590 7545 590 L7300 590 7300 529 L7300 469 7607 472 L7915 475 7912 782 L7910 1090 7610 1095 C7445 1097,7307 1097,7305 1093 M4584 1035 C4495 1000,4422 921,4398 835 C4383 778,4392 673,4417 625 C4458 545,4547 482,4641 464 C4698 454,4817 476,4888 511 C4934 533,4983 572,5061 647 C5121 705,5170 757,5170 764 C5170 784,4967 976,4922 998 C4825 1048,4661 1066,4584 1035 " />
</g>

</svg>