<?xml version="1.0" encoding="utf-8"?>
<!DOCTYPE svg PUBLIC "-//W3C//DTD SVG 20010904//EN" "http://www.w3.org/TR/2001/REC-SVG-20010904/DTD/svg10.dtd">
<svg version="1.0" xmlns="http://www.w3.org/2000/svg" width="634px" height="140px" viewBox="0 0 634 140" preserveAspectRatio="xMidYMid meet">
 <g fill="#167ae3">
  <path d="M32.4 137 c-8 -2.8 -9.6 -3.9 -8.9 -6 0.5 -1.7 0.1 -1.8 -4.8 -1.3 -6.8 0.7 -11.9 -1.6 -15.2 -6.6 -4 -6.2 -4 -8.8 0.1 -20.8 3.6 -10.7 5.4 -13.6 7.9 -12.7 0.9 0.4 1.1 -0.7 0.7 -4.4 -0.7 -8 6.1 -27.2 9.7 -27.2 1.6 0 1.8 -0.6 1.3 -4.5 -0.4 -3.5 0.3 -6.8 3.3 -15.1 2.1 -5.8 4.4 -10.8 5.2 -11.1 0.8 -0.3 5.3 0.8 10 2.6 4.8 1.7 8.8 2.9 9 2.8 0.1 -0.2 -2.7 -2.7 -6.3 -5.6 -7.9 -6.3 -10.2 -10.6 -8.5 -16.1 0.6 -2 2.2 -4.7 3.7 -6.1 l2.6 -2.4 21.5 0.2 c13.7 0.2 22.1 0.7 22.9 1.4 1 0.8 0.5 3.2 -2.7 12.2 -2.1 6.2 -4.3 12.1 -4.9 13.2 -0.5 1.1 -3.2 8.8 -6 17 -6.1 17.6 -7.1 19.6 -10.6 22.4 -2.6 2 -2.6 2.2 -0.9 3.5 1.7 1.2 1.6 1.9 -2.4 13 -3.2 8.5 -5.1 12.3 -7.3 14.1 -1.6 1.4 -3.5 2.5 -4.1 2.5 -0.7 0 -1.8 0.4 -2.6 0.9 -1.1 0.7 -1.1 1.2 0.2 3.2 3.2 5 3 8.8 -0.9 19.9 -3.6 10.2 -5 13.1 -6.3 12.9 -0.3 0 -2.9 -0.9 -5.7 -1.9z"/>
  <path d="M52.3 137.8 c-3 -1.4 -4.5 -6.3 -3.4 -10.8 0.5 -1.9 4.4 -13.2 8.6 -25 4.2 -11.8 11.2 -31.6 15.5 -44 16.7 -47.8 15.1 -44 21.3 -49.7 10.3 -9.5 28 -9.6 37.9 -0.3 2.3 2.2 4.2 4 4.3 4 0.1 0 2.1 -1.8 4.5 -4 11.6 -10.7 32.5 -8.6 41.7 4.2 2 2.8 5.6 11.1 9.2 21.4 8.6 24.5 8.7 24.8 9.8 25.1 0.8 0.3 1 -1.5 0.6 -5.4 -0.6 -7.4 1 -22.3 3.2 -28.8 5.9 -17.2 18.5 -23.5 46.9 -23.5 17.7 0 28.3 2 34.2 6.5 2.9 2.2 3.8 2.5 4.5 1.4 0.5 -0.8 0.9 -1.9 0.9 -2.6 0 -0.6 1.2 -2.1 2.6 -3.2 2.6 -2 3.8 -2.1 31.3 -2.1 31 0 37.7 0.8 45.7 5.5 3.9 2.3 9.7 8.1 12 12 0.9 1.7 1.5 1.3 5.8 -3.3 2.6 -2.8 6.9 -6.5 9.5 -8.1 9 -5.8 11.7 -6.1 63.8 -6.1 32.1 0 48 0.4 49.7 1.1 1.3 0.6 2.9 2.2 3.5 3.6 0.7 1.6 1.1 14.8 1.1 40.8 l0 38.4 19 0.3 c25.5 0.4 23.5 -1.9 23.5 26.9 l0 22.1 -2.8 2.4 -2.8 2.4 -26.9 0 c-31.2 0 -35.4 -0.8 -45.9 -8.5 -3.4 -2.5 -6.3 -4.5 -6.6 -4.5 -0.3 0 -0.5 1.5 -0.5 3.4 0 9.2 -1.3 9.6 -32.7 9.6 -28.7 0 -34.2 -0.8 -42.4 -6.1 -2.6 -1.6 -6.9 -5.3 -9.5 -8.1 l-4.8 -5.1 -1.5 2.4 c-0.8 1.3 -3.4 4.3 -5.8 6.6 -9.2 9.1 -15 10.3 -51.9 10.3 -27 0 -28.2 -0.1 -30.8 -2.1 -1.4 -1.1 -2.6 -2.6 -2.6 -3.2 -0.1 -3.5 -1.7 -3.8 -5.5 -1.3 -6.8 4.7 -12.7 5.9 -30.7 6.4 -13.2 0.3 -18.4 0 -24.1 -1.2 -6.6 -1.5 -7.6 -1.5 -10.3 -0.1 -2.3 1.2 -7 1.5 -23 1.5 -18.3 0 -20.4 -0.2 -22.5 -1.9 -1.7 -1.4 -4.2 -7.3 -9 -21.7 -3.6 -10.9 -7 -19.9 -7.5 -20.1 -0.5 -0.2 -2.2 3.4 -3.8 7.9 -3.8 10.9 -10.5 28.7 -11.8 31.5 -2.2 4.4 -10.3 5.1 -13.5 1.1 -1.1 -1.3 -4.1 -9.1 -11.9 -30.8 -1.8 -5.2 -3.7 -9.6 -4.1 -9.7 -0.5 -0.2 -3.7 8.6 -7.2 19.5 -3.5 10.8 -7.2 20.6 -8.3 21.7 -1.7 1.9 -3.3 2 -23.1 2.2 -13.8 0.1 -22 -0.2 -23.4 -0.9z"/>
  <path d="M606.3 137.8 c-3.7 -1.8 -4.3 -5.9 -4.3 -29.4 0 -12.3 -0.3 -22.4 -0.6 -22.4 -0.3 0 -1.8 0.8 -3.2 1.9 -6.6 4.6 -11.5 3.4 -16.2 -3.8 -3.7 -5.9 -4 -10.9 -0.7 -13.8 1.2 -1.1 8.3 -6.3 15.9 -11.6 l13.6 -9.7 8.7 0 c7.8 0 8.8 0.2 11 2.5 l2.5 2.4 0 39.9 c0 48.5 1.2 44.6 -14.2 44.9 -6 0.2 -11.2 -0.2 -12.5 -0.9z"/>
 </g>
 <g fill="#ffffff">
  <path d="M32.4 137 c-8 -2.8 -9.6 -3.9 -8.9 -6 0.5 -1.7 0.1 -1.8 -4.8 -1.3 -6.8 0.7 -11.9 -1.6 -15.2 -6.6 -4 -6.2 -4 -8.8 0.1 -20.8 3.6 -10.7 5.4 -13.6 7.9 -12.7 0.9 0.4 1.1 -0.7 0.7 -4.4 -0.7 -8 6.1 -27.2 9.7 -27.2 1.6 0 1.8 -0.6 1.3 -4.5 -0.4 -3.5 0.3 -6.8 3.3 -15.1 2.1 -5.8 4.4 -10.8 5.2 -11.1 0.8 -0.3 5.3 0.8 10 2.6 4.8 1.7 8.8 2.9 9 2.8 0.1 -0.2 -2.7 -2.7 -6.3 -5.6 -7.9 -6.3 -10.2 -10.6 -8.5 -16.1 0.6 -2 2.2 -4.7 3.7 -6.1 l2.6 -2.4 21.5 0.2 c13.7 0.2 22.1 0.7 22.9 1.4 1 0.8 0.5 3.2 -2.7 12.2 -2.1 6.2 -4.3 12.1 -4.9 13.2 -0.5 1.1 -3.2 8.8 -6 17 -6.1 17.6 -7.1 19.6 -10.6 22.4 -2.6 2 -2.6 2.2 -0.9 3.5 1.7 1.2 1.6 1.9 -2.4 13 -3.2 8.5 -5.1 12.3 -7.3 14.1 -1.6 1.4 -3.5 2.5 -4.1 2.5 -0.7 0 -1.8 0.4 -2.6 0.9 -1.1 0.7 -1.1 1.2 0.2 3.2 3.2 5 3 8.8 -0.9 19.9 -3.6 10.2 -5 13.1 -6.3 12.9 -0.3 0 -2.9 -0.9 -5.7 -1.9z m7 -5.2 c0.8 -2.4 2.5 -6.8 3.6 -9.8 2.4 -6.5 2.5 -8.9 0.6 -13.5 -4.4 -10.4 -20.5 -9.7 -24.5 1 -1.7 4.6 -1.9 5 -2.6 4.3 -0.3 -0.2 0.9 -4.2 2.6 -8.8 2.4 -6.6 2.7 -8.5 1.7 -9.1 -1.9 -1.3 -4.8 -1.1 -4.8 0.3 0 0.7 -1.4 4.9 -3.1 9.5 -3 7.9 -3.1 8.4 -1.5 10.8 3.8 5.8 8.8 4.5 12.1 -2.9 2.9 -6.5 6.8 -8.5 11.6 -6.1 4.4 2.4 4.7 5.5 1.1 16.4 -3 8.9 -3.1 9.7 -1.5 10.9 2.6 1.8 3 1.6 4.7 -3z m-4.5 -8.4 c3.7 -10.5 3.4 -13.8 -1.3 -15 -4.3 -1 -6.6 0.5 -9.1 6.2 -3 6.8 -6 8.5 -11 6.1 -5.2 -2.5 -5.4 -5.4 -1.5 -16.9 1.8 -5.4 3.1 -10 2.9 -10.2 -0.2 -0.2 -1.4 -0.6 -2.5 -1 -2 -0.6 -2.5 0.2 -5.4 8.1 -4.3 11.8 -4.6 14.3 -2.4 18.8 2.2 4.8 6.7 7.5 12.2 7.5 5.7 0 9.9 -3 12.4 -8.7 3.2 -7.3 3.1 -4.2 -0.2 4.7 -2.4 6.5 -2.8 8.5 -1.8 9.2 3.2 2 4.4 0.7 7.7 -8.8z m14.9 -25.9 c2.1 -1.8 4 -5.3 6.6 -12.6 2 -5.6 3.5 -10.3 3.3 -10.5 -0.2 -0.2 -1.4 -0.5 -2.7 -0.6 -2.1 -0.3 -2.7 0.6 -5.8 8.7 -1.8 5 -4.2 9.9 -5.2 10.9 -1.9 1.9 -2 1.9 -9 -0.5 -9.5 -3.2 -15.1 -6 -16.4 -8.1 -1 -1.6 1.3 -9.6 5.8 -20.9 0.5 -1 -0.1 -1.9 -1.8 -2.7 -3.1 -1.4 -3.1 -1.3 -7.5 11.4 -4.9 14.4 -3.1 17.9 12.4 23.8 11.2 4.2 16.3 4.5 20.3 1.1z m-4 -5.7 c1.5 -1.9 7.3 -18.9 6.7 -19.8 -0.2 -0.4 -1.3 -1 -2.4 -1.3 -2 -0.5 -2.1 -0.1 -7.3 14.2 -0.5 1.3 -1.1 2.1 -1.4 1.8 -0.3 -0.3 0.4 -3.3 1.7 -6.7 1.9 -5.2 2 -6.3 0.8 -7.1 -2.8 -1.8 -4.2 -0.3 -7 7.5 -1.6 4.4 -2.9 8.3 -2.9 8.8 0 1.1 5.9 3.6 8.6 3.7 1.2 0.1 2.6 -0.5 3.2 -1.1z m-13.4 -3.6 c0.3 -0.5 1.8 -4.5 3.4 -8.9 l3 -8.1 -2.4 -1.1 c-2.6 -1.2 -3 -0.7 -6.5 8.8 -0.7 1.9 -1.4 3 -1.6 2.4 -0.2 -0.5 0.8 -4.2 2.2 -8 3.1 -8.6 3.1 -8.9 0.3 -9.6 -2.8 -0.8 -3.1 -0.3 -6.7 10.4 -3.2 9.6 -2.9 11.1 2.2 13.3 3.8 1.7 5.4 1.9 6.1 0.8z m29.1 -22.5 c1.8 -1.8 3.7 -4.8 4.3 -6.7 0.5 -1.9 2.3 -7.2 4 -11.6 l3.1 -8.2 -14.7 -11.8 c-8.1 -6.6 -14.8 -12.7 -15 -13.6 -0.5 -2.8 2.7 -3.3 18.5 -3 l15.2 0.3 -2.5 7.1 c-2.1 5.7 -2.3 7.2 -1.2 7.9 2.8 1.9 4.2 0.1 7.8 -9.7 l3.7 -10.1 -6.6 -0.7 c-3.6 -0.3 -12.8 -0.6 -20.4 -0.6 l-13.9 0 -2.9 2.9 c-3 3.1 -3.7 6.7 -1.9 10.1 0.6 1.1 6.7 6.5 13.5 12.1 6.9 5.6 12.4 10.4 12.2 10.6 -0.3 0.2 -4.3 -1.1 -9.1 -2.8 -4.9 -1.8 -9.1 -2.8 -9.6 -2.3 -0.4 0.5 -1.8 3.8 -3.1 7.2 -1.9 5.4 -2 6.5 -0.8 7.3 2.6 1.6 3.7 0.9 5.5 -3.6 0.9 -2.5 1.9 -4.5 2.3 -4.5 0.3 0 3.6 1.2 7.4 2.6 5.4 2.1 6.7 3 6.2 4.3 -0.4 0.9 -1.6 3.9 -2.6 6.8 -3.3 8.7 -4.9 9 -19.7 3.3 -11.3 -4.4 -11.6 -5.1 -6.8 -17.6 2 -5.3 3.5 -9.8 3.4 -10 -0.2 -0.1 -1.4 -0.5 -2.8 -0.9 -2.4 -0.5 -2.7 -0.1 -5.7 8.3 -3.9 10.7 -4.2 16 -1 19.7 2.6 3 21.3 10.4 26.6 10.5 2.4 0 4.1 -0.8 6.6 -3.3z m-4.7 -4.9 c0.8 -1 5.2 -11.6 5.2 -12.5 0 -0.4 -7.2 -3.3 -9.6 -3.9 -1.9 -0.5 -2.6 0 -3.8 3.1 -0.9 2 -1.4 4.1 -1.1 4.5 1 1.5 4.6 1.9 5.2 0.4 0.5 -1.5 2.3 -2 2.3 -0.6 0 0.4 -0.4 1.3 -0.9 2.1 -0.8 1.2 -1.9 1.1 -7 -0.5 -3.4 -1 -6.6 -2.3 -7.2 -3 -0.6 -0.8 -0.1 -3.5 1.7 -8.4 2.6 -7 2.7 -7.3 0.9 -8.6 -1 -0.8 -2.2 -1.4 -2.6 -1.4 -1.1 0 -7 18 -6.7 20.4 0.2 1.7 2.3 2.9 9.8 5.8 10.6 4 12.3 4.4 13.8 2.6z m17.7 -26.5 c0.6 -2.4 0.1 -3.3 -3.7 -6.7 -2.6 -2.3 -3.5 -3.6 -2.3 -3.2 1.7 0.5 2.3 -0.3 4.1 -5.3 2.5 -7.3 3.4 -6.8 -14.5 -7 -11.2 -0.2 -13.1 0 -13.1 1.3 0 1.4 26.5 23.6 28.1 23.6 0.4 0 1 -1.2 1.4 -2.7z"/>
  <path d="M62 20.5 c-1.1 -1.3 -0.8 -1.5 1.3 -1.5 1.9 0 2.5 0.4 2.1 1.5 -0.4 0.8 -1 1.5 -1.4 1.5 -0.4 0 -1.3 -0.7 -2 -1.5z"/>
  <path d="M57 129.6 c0 -0.8 3.6 -11.7 8.1 -24.3 10.7 -30.2 20.2 -57.2 24.9 -71 4.9 -14.4 7.5 -18.9 12.5 -21.8 5.8 -3.4 10.4 -4 16.7 -2.1 6.4 1.8 10.4 5.7 14.6 14.1 l3 6 1.3 -3 c3.2 -7.4 7.9 -13.5 12.1 -15.7 6.1 -3.1 13.9 -3 19.7 0.2 7 4 7.2 4.2 18.1 35.5 2.1 6.1 6.7 19.3 10.3 29.5 18.6 52.7 18.7 53.1 17.3 53.6 -0.7 0.3 -4.4 0.4 -8.1 0.2 l-6.9 -0.3 -3.2 -9.5 c-3.1 -9.1 -15.1 -43.8 -23.6 -68 -2.2 -6.3 -5 -14.4 -6.2 -18 -2.8 -8 -5.9 -10.4 -10.3 -8 -2.9 1.7 -4.1 4.4 -14.8 34.1 -2.7 7.4 -5.1 13.7 -5.5 14.1 -0.3 0.4 -4.6 -10.1 -9.5 -23.3 -7 -19.2 -9.3 -24.3 -11.1 -25.1 -3.4 -1.6 -7.3 -0.2 -8.6 3 -1.4 3.6 -11 30.9 -21.3 60.7 -4.6 13.2 -9.6 27.6 -11.2 32 l-2.8 8 -7.7 0.3 c-6.3 0.2 -7.8 0 -7.8 -1.2z"/>
  <path d="M77 130.5 c0 -0.3 3.1 -9.7 7 -20.8 3.8 -11.1 11.3 -33 16.6 -48.7 5.3 -15.7 10.2 -29.1 10.9 -29.8 2.1 -2.3 4.9 0.1 6.9 6 1.9 5.4 7.5 21.3 14.1 39.6 2.1 5.7 4.1 10 4.5 9.5 0.4 -0.4 5.1 -13 10.5 -28 6 -16.7 10.4 -27.4 11.3 -27.8 2.6 -1 4.1 1.7 8.2 13.6 2.1 6.3 9.5 28 16.4 48.3 6.9 20.3 12.6 37.3 12.6 37.7 0 0.5 -3.3 0.9 -7.3 0.9 -5.8 0 -7.4 -0.3 -8.2 -1.7 -0.6 -1 -5.3 -14.7 -10.5 -30.5 -5.2 -15.8 -9.8 -28.8 -10.1 -28.8 -0.3 0 -2.7 5.7 -5.3 12.8 -13.7 36.6 -16.9 44.8 -17.4 45.9 -0.4 0.6 -4.7 -9.5 -9.5 -22.5 -12 -32.3 -12.9 -34.6 -13.8 -35.6 -0.4 -0.5 -5.2 12.8 -10.7 29.5 l-9.9 30.4 -8.1 0.3 c-4.5 0.2 -8.2 0 -8.2 -0.3z"/>
  <path d="M235.2 130 c-10.2 -1.9 -16.8 -6.9 -21.1 -15.9 l-2.6 -5.6 -0.3 -36 c-0.3 -31.2 -0.1 -36.8 1.3 -42.3 2.5 -9.1 6.3 -13.7 14.3 -17.5 l6.7 -3.2 17.5 0 c25.9 0 33.7 3 39.7 15.3 l2.8 5.7 0.3 35.1 c0.4 43.7 -0.4 49 -8.8 57.4 -5.5 5.5 -11.9 7.2 -29.5 7.6 -8.2 0.1 -17.4 -0.1 -20.3 -0.6z m35.8 -18.1 c7.5 -4.2 7.5 -4.2 7.5 -41.9 0 -38 0 -38.1 -8 -42 -5.9 -2.9 -29.9 -2.9 -36.2 -0.1 -7.6 3.5 -7.8 4.1 -8.1 40.6 -0.3 35.1 0.1 38.5 5.6 42.4 3.8 2.7 5.1 2.9 21.1 3 12.8 0.1 14.7 -0.1 18.1 -2z"/>
  <path d="M236.4 108.6 c-5.5 -2.4 -5.9 -4.8 -5.9 -38.1 0 -40.6 -0.4 -39.7 20.6 -40.3 11.2 -0.4 13.1 -0.2 16.7 1.7 6.4 3.3 6.7 5 6.7 39.6 0 34.2 -0.3 35.5 -7.3 37.4 -5.4 1.6 -27 1.3 -30.8 -0.3z m22.1 -38.6 l0 -22.5 -6 0 -6 0 -0.3 21.5 c-0.1 11.8 0 22 0.3 22.8 0.3 0.9 2.2 1.2 6.2 1 l5.8 -0.3 0 -22.5z"/>
  <path d="M300 90.6 l0 -40.6 7.5 0 7.5 0 0 32 0 32 19.3 0 c21.1 -0.1 24 -0.7 28.1 -6.3 2 -2.7 2.1 -4.2 2.4 -35.5 0.2 -21.6 0 -34 -0.8 -36.4 -0.7 -2.3 -2.4 -4.8 -4.7 -6.5 l-3.6 -2.8 -27.9 -0.3 -27.8 -0.3 0 -8.5 0 -8.6 28.3 0.4 c33.5 0.5 36.4 1.1 43.9 8.9 7.9 8.1 8.3 10.3 8.3 51.4 0 32 -0.2 35.6 -2 41.5 -1.5 5 -3 7.6 -6.6 11.2 -7.5 7.5 -10.4 8 -43.6 8.6 l-28.3 0.4 0 -40.6z"/>
  <path d="M411.6 129.4 c-9.4 -2.9 -18.6 -11 -22.9 -20.2 -2.1 -4.6 -2.2 -5.7 -2.2 -39.2 0 -34.3 0 -34.5 2.4 -39.5 3.5 -7.3 11.1 -14.8 18.4 -18.1 l6.2 -2.9 26.3 -0.3 26.2 -0.3 0 8.5 0 8.5 -25.4 0.3 -25.4 0.3 -4.3 3 c-2.3 1.7 -5.2 4.8 -6.3 7 -2 3.8 -2.1 5.5 -2.1 33.5 0 28 0.1 29.7 2.1 33.5 1.1 2.2 4 5.4 6.3 7 l4.3 3 25.4 0.3 25.4 0.3 0 8.4 0 8.5 -24.7 -0.1 c-19 0 -25.9 -0.4 -29.7 -1.5z"/>
  <path d="M499.3 130 c-10.2 -2.1 -19.5 -9.9 -24.6 -20.8 l-3.2 -6.7 0 -46.5 0 -46.5 7.7 -0.3 7.7 -0.3 0.3 44.8 c0.3 41.5 0.4 45.1 2.2 48.3 2.6 4.9 5.5 7.9 9.8 10.1 3.4 1.7 6.1 1.9 28.3 1.9 l24.6 0 -0.3 8.3 -0.3 8.2 -24 0.1 c-13.2 0.1 -25.9 -0.2 -28.2 -0.6z"/>
  <path d="M610.5 129.8 c-0.3 -0.7 -0.6 -14.7 -0.7 -31.1 l-0.3 -29.9 -8.6 6.6 c-4.8 3.6 -9 6.6 -9.5 6.6 -0.6 0 -1.8 -1.3 -2.7 -2.9 l-1.7 -3 9.2 -6.5 c5.1 -3.5 11.1 -7.8 13.4 -9.5 3.4 -2.6 5 -3.1 9.7 -3.1 l5.7 0 0 37 0 37 -7 0 c-4.7 0 -7.2 -0.4 -7.5 -1.2z"/>
  <path d="M319.5 108.7 c-0.3 -0.7 -0.4 -13.8 -0.3 -29.2 l0.3 -28 8.7 -0.3 8.8 -0.3 0.2 20.8 0.3 20.8 3.4 0.3 c2 0.2 3.7 -0.2 4.2 -0.9 1.3 -2.1 1.1 -41.9 -0.2 -43.5 -0.9 -1.1 -5.5 -1.4 -23 -1.4 l-21.9 0 0 -8.5 0 -8.5 25.3 0 c37.8 0 35.7 -2.4 35.7 40.5 0 34 -0.3 35.9 -7 38.2 -5 1.7 -33.9 1.7 -34.5 0z"/>
  <path d="M415.8 108 c-7.4 -3.9 -9.8 -10.1 -9.8 -25.2 l0 -10.8 25.3 0.2 25.2 0.3 0 8 0 8 -17.8 0.3 c-16.3 0.2 -17.8 0.4 -17.5 2 0.3 1.5 2.4 1.7 22.6 2 l22.2 0.2 0 8.5 0 8.5 -23.2 0 c-21.1 -0.1 -23.7 -0.3 -27 -2z"/>
  <path d="M502.5 108.6 c-3.9 -1.7 -7 -5.2 -9 -9.8 -1.3 -3.2 -1.5 -10.2 -1.5 -46.8 l0 -43.1 8.3 0.3 8.2 0.3 0.5 41.5 0.5 41.5 21 0.5 21 0.5 0 8 0 8 -23 0.2 c-17.5 0.2 -23.7 -0.1 -26 -1.1z"/>
  <path d="M406 57.2 c0 -15.2 2.4 -21.3 10 -25.2 3.6 -1.8 6 -2 27 -2 l23 0 0 8.5 0 8.5 -22.2 0.2 c-21.5 0.3 -22.3 0.4 -22.3 2.3 0 1.9 0.7 2 17.5 2.1 l17.5 0.1 0 7.9 0 7.9 -25.2 0.3 -25.3 0.2 0 -10.8z"/>
 </g>
</svg>