<?xml version="1.0" encoding="UTF-8" standalone="no"?>
<svg
   xmlns:dc="http://purl.org/dc/elements/1.1/"
   xmlns:cc="http://creativecommons.org/ns#"
   xmlns:rdf="http://www.w3.org/1999/02/22-rdf-syntax-ns#"
   xmlns:svg="http://www.w3.org/2000/svg"
   xmlns="http://www.w3.org/2000/svg"
   xmlns:sodipodi="http://sodipodi.sourceforge.net/DTD/sodipodi-0.dtd"
   xmlns:inkscape="http://www.inkscape.org/namespaces/inkscape"
   width="500"
   height="200"
   viewBox="0 0 500 200"
   version="1.1"
   id="svg217"
   sodipodi:docname="sega.svg"
   style="fill:none"
   inkscape:version="0.92.5 (2060ec1f9f, 2020-04-08)">
  <metadata
     id="metadata223">
    <rdf:RDF>
      <cc:Work
         rdf:about="">
        <dc:format>image/svg+xml</dc:format>
        <dc:type
           rdf:resource="http://purl.org/dc/dcmitype/StillImage" />
        <dc:title />
      </cc:Work>
    </rdf:RDF>
  </metadata>
  <defs
     id="defs221" />
  <sodipodi:namedview
     pagecolor="#ffffff"
     bordercolor="#666666"
     borderopacity="1"
     objecttolerance="10"
     gridtolerance="10"
     guidetolerance="10"
     inkscape:pageopacity="0"
     inkscape:pageshadow="2"
     inkscape:window-width="1366"
     inkscape:window-height="743"
     id="namedview219"
     showgrid="false"
     inkscape:pagecheckerboard="true"
     inkscape:zoom="1.4294699"
     inkscape:cx="303.90577"
     inkscape:cy="77.221508"
     inkscape:window-x="0"
     inkscape:window-y="0"
     inkscape:window-maximized="1"
     inkscape:current-layer="svg217" />
  <path
     d="m 10.76915,198.76578 c 1.591063,-0.003 3.162524,-0.35114 4.604962,-1.02301 1.418383,-0.62624 2.676956,-1.56492 3.681437,-2.74691 l -2.742761,-2.74829 c -0.673248,0.81011 -1.509209,1.46954 -2.45383,1.93542 -0.926733,0.44929 -1.944098,0.67878 -2.973683,0.67187 -0.868822,0.01 -1.7308701,-0.15346 -2.5362518,-0.47971 -0.8053817,-0.32626 -1.5381023,-0.80873 -2.1557487,-1.41977 -0.5947532,-0.59859 -1.0646721,-1.30917 -1.3824397,-2.09025 -0.3406885,-0.82946 -0.5122354,-1.71837 -0.5045905,-2.61557 -0.00926,-0.9055 0.1573908,-1.80408 0.4907661,-2.64599 0.3111872,-0.78246 0.7723414,-1.49718 1.3575557,-2.10407 0.5868872,-0.60137 1.2888071,-1.07831 2.0639825,-1.40318 0.8077871,-0.34285 1.6771896,-0.51703 2.5547484,-0.5115 1.058327,-0.004 2.103009,0.23916 3.051044,0.70919 0.979929,0.49215 1.838009,1.19581 2.511949,2.06122 l 2.829854,-2.83539 c -0.99508,-1.20825 -2.261119,-2.1649 -3.695262,-2.79114 -1.474095,-0.68155 -3.07796,-1.03545 -4.701732,-1.03822 -1.4503453,-0.01 -2.8881932,0.2682 -4.2302656,0.81841 -1.2715127,0.51565 -2.4324718,1.27046 -3.4201558,2.22296 -0.9748826,0.95389 -1.750293,2.09163 -2.28102545,3.34689 -0.55018335,1.31746 -0.83464105,2.72893 -0.8370133126,4.15699 -0.002350147,1.42668 0.2773865226,2.83954 0.8231889126,4.15838 0.52445065,1.25111 1.29495885,2.38471 2.26581865,3.33307 0.988154,0.9525 2.1495969,1.70593 3.4215382,2.22158 1.351155,0.55159 2.7985003,0.82946 4.2579144,0.81702 z m 54.712867,0.0304 c 1.445479,0.0111 2.878516,-0.26681 4.215059,-0.8184 1.2659,-0.51289 2.417749,-1.27185 3.389051,-2.23264 0.971302,-0.9608 1.74298,-2.10408 2.270657,-3.36486 0.552423,-1.30917 0.837067,-2.71511 0.837067,-4.13626 0,-1.42115 -0.284644,-2.82709 -0.837067,-4.13626 -0.527539,-1.2594 -1.299217,-2.40406 -2.270657,-3.36348 -0.971302,-0.96079 -2.123151,-1.71975 -3.389051,-2.23402 -2.694651,-1.09074 -5.707817,-1.09074 -8.402468,0 -1.266039,0.51427 -2.417887,1.27323 -3.389189,2.23402 -0.971303,0.95942 -1.74298,2.10408 -2.270519,3.36348 -0.552147,1.30917 -0.836515,2.71511 -0.836515,4.13626 0,1.42115 0.284368,2.82709 0.836515,4.13626 0.527539,1.26078 1.299216,2.40406 2.270519,3.36486 0.97144,0.96079 2.12315,1.71975 3.389189,2.23264 1.327833,0.54883 2.752022,0.8267 4.188792,0.81702 z m 0,-3.88742 c -0.848403,0.007 -1.689203,-0.15898 -2.470972,-0.488 -0.781908,-0.32902 -1.488197,-0.81426 -2.075872,-1.42668 -0.579795,-0.6138 -1.035585,-1.33267 -1.342349,-2.11928 -0.654723,-1.69763 -0.654723,-3.57913 0,-5.27677 0.30939,-0.7797 0.765043,-1.49442 1.342349,-2.10407 0.587675,-0.61104 1.293964,-1.09766 2.075872,-1.42668 0.781769,-0.32902 1.622569,-0.49491 2.470972,-0.488 0.873149,-0.007 1.73828,0.16727 2.540925,0.5115 0.766424,0.32487 1.45875,0.8032 2.034951,1.40318 0.577168,0.60965 1.03282,1.32437 1.342349,2.10407 0.654447,1.69764 0.654447,3.57914 0,5.27677 -0.306902,0.78661 -0.762692,1.50548 -1.342349,2.11928 -0.576201,0.60136 -1.268527,1.0783 -2.034951,1.40318 -0.802368,0.34284 -1.666946,0.51703 -2.539542,0.51012 z m 63.460893,3.5667 v -3.74089 h -11.05952 v -16.72199 h -4.18326 v 20.46011 z m 52.78017,0 v -3.74089 h -11.05952 v -16.72199 h -4.18603 v 20.46011 z m 53.18245,0 v -3.68282 h -11.46181 v -4.85375 h 7.479 v -3.56669 h -7.479 v -4.67265 h 11.34707 v -3.68282 h -15.53586 v 20.46011 z m 46.42786,0.29169 c 1.59118,-10e-4 3.16302,-0.35114 4.6049,-1.02301 1.41839,-0.62624 2.67641,-1.56492 3.68144,-2.7469 l -2.74414,-2.74691 c -0.67325,0.81011 -1.50963,1.46953 -2.45383,1.93541 -0.92624,0.4493 -1.94371,0.67878 -2.97363,0.67187 -0.86817,0.01 -1.73082,-0.15345 -2.5354,-0.47971 -0.80596,-0.32625 -1.53727,-0.80872 -2.15522,-1.41976 -0.59445,-0.5986 -1.06448,-1.30917 -1.38244,-2.09025 -0.34146,-0.82946 -0.51288,-1.71837 -0.50597,-2.61558 -0.01,-0.90549 0.1576,-1.80408 0.49215,-2.64599 0.30966,-0.78246 0.7714,-1.49856 1.35617,-2.10407 0.58615,-0.60136 1.28843,-1.0783 2.06398,-1.40318 0.80735,-0.34284 1.6769,-0.51703 2.55475,-0.5115 1.06171,-0.004 2.1096,0.24055 3.06072,0.71472 0.98015,0.49215 1.83865,1.19581 2.5119,2.06122 l 2.82985,-2.83538 c -0.99536,-1.20826 -2.26167,-2.1649 -3.69526,-2.79115 -1.47368,-0.68016 -3.07731,-1.03545 -4.7003,-1.03821 -1.45018,-0.01 -2.88791,0.26819 -4.23026,0.8184 -1.27185,0.51565 -2.4331,1.26908 -3.42154,2.22158 -0.976,0.95389 -1.75155,2.09164 -2.28241,3.34689 -0.55021,1.31747 -0.83499,2.72894 -0.83637,4.157 -0.003,1.42667 0.27648,2.83953 0.82255,4.15838 0.52394,1.2511 1.29534,2.3847 2.26582,3.33306 0.98844,0.9525 2.14969,1.70593 3.42153,2.22158 1.34927,0.54883 2.79392,0.82393 4.25101,0.81011 z m 55.37777,-0.29169 v -16.722 h 6.78363 V 178.0112 H 325.7097 v 3.74226 h 6.81405 v 16.71923 z m 47.95683,0 v -20.46011 h -4.18603 v 20.46011 z m 48.21811,0.3221 c 1.44603,0.0111 2.87824,-0.26681 4.21506,-0.8184 1.26631,-0.51289 2.41789,-1.27185 3.38836,-2.23264 0.97185,-0.9608 1.74326,-2.10407 2.27135,-3.36486 0.55159,-1.30917 0.83637,-2.71511 0.83637,-4.13626 0,-1.42115 -0.28478,-2.82709 -0.83637,-4.13626 -0.52809,-1.2594 -1.2995,-2.40406 -2.26997,-3.36347 -0.97185,-0.9608 -2.12343,-1.71976 -3.38974,-2.23403 -2.69438,-1.09074 -5.70671,-1.09074 -8.40109,0 -1.26493,0.51427 -2.4165,1.27323 -3.38836,2.23403 -0.97047,0.96079 -1.74187,2.10407 -2.26996,3.36347 -0.55298,1.30917 -0.83776,2.71511 -0.83776,4.13626 0,1.42115 0.28478,2.82709 0.83776,4.13626 0.52809,1.2594 1.29949,2.40268 2.26996,3.36348 0.97186,0.96079 2.12343,1.71975 3.38836,2.23402 1.32715,0.54745 2.74968,0.82532 4.18603,0.81564 z m 0,-3.88742 c -0.86817,0.008 -1.72943,-0.16589 -2.52572,-0.5115 -0.76172,-0.32626 -1.44879,-0.80458 -2.02112,-1.40318 -0.58063,-0.61242 -1.03683,-1.33267 -1.34373,-2.11928 -0.65528,-1.69763 -0.65528,-3.57913 0,-5.27677 0.30966,-0.78108 0.76587,-1.49442 1.34373,-2.10407 0.57233,-0.5986 1.2594,-1.07554 2.02112,-1.40318 0.79629,-0.34422 1.65755,-0.51841 2.52572,-0.5115 0.87232,-0.007 1.73773,0.16728 2.53954,0.5115 0.76726,0.32488 1.45986,0.8032 2.03634,1.40318 0.57786,0.60965 1.03268,1.32438 1.34235,2.10407 0.65527,1.69764 0.65527,3.57914 0,5.27677 -0.30691,0.78661 -0.76311,1.50548 -1.34235,2.11928 -0.57648,0.60137 -1.26908,1.07831 -2.03634,1.40318 -0.80181,0.34285 -1.66722,0.51703 -2.53954,0.50874 z m 52.17189,3.5667 v -13.68616 l 10.30747,13.68616 h 3.69526 v -20.46011 h -3.92613 v 13.24101 l -10.04757,-13.24101 h -3.98557 v 20.46011 z"
     id="path191"
     inkscape:connector-curvature="0"
     style="fill:#ffffff;stroke-width:1.38243973" />
  <path
     d="m 251.29848,148.80855 c 7.04638,6.86878 16.498,10.70917 26.33766,10.70199 l 161.82423,0.0185 -34.94851,-104.263277 c -2.58182,-5.637096 -6.73326,-10.411196 -11.95645,-13.751293 -5.22421,-3.340096 -11.29945,-5.104835 -17.49993,-5.083177 -6.20047,0.02166 -12.26339,1.8288 -17.46296,5.205298 -5.2006,3.376509 -9.31816,8.179425 -11.86097,13.834485 l -11.64951,33.966088 -0.0462,-51.250451 -56.5116,-0.02875 c -9.77088,-0.04475 -19.16707,3.755415 -26.16006,10.579841 l 0.0247,-10.533646 H 193.5222 c -5.13489,0.0062 -10.21538,1.057243 -14.93246,3.088885 -4.71606,2.031642 -8.97007,5.001526 -12.50259,8.728999 V 38.157945 l -54.53548,0.04722 c -8.37734,-0.149877 -16.60909,2.201386 -23.64345,6.753327 -7.034256,4.551992 -12.551654,11.097806 -15.847074,18.801181 -3.295412,7.703374 -4.219193,16.21435 -2.65329,24.445381 1.565907,8.23103 5.550371,15.808236 11.444242,21.763466 l -12.295217,-0.0195 v 49.56152 l 54.946079,-0.0103 c 15.43857,-0.0185 30.7365,-9.33356 36.05413,-20.49319 l 0.15912,-0.45888 c 3.11933,6.29883 7.93774,11.599 13.91103,15.30389 5.97361,3.70386 12.86291,5.66358 19.89184,5.65845 l 57.77838,-0.0103 V 148.8085"
     id="path193"
     inkscape:connector-curvature="0"
     style="fill:#ffffff;stroke-width:1.02656901" />
  <path
     d="m 77.045621,151.03005 46.334149,-0.0472 c 9.0721,0 17.77268,-3.60326 24.18761,-10.01829 6.41492,-6.41523 10.0187,-15.11571 10.0187,-24.18781 0,-9.072 -3.60378,-17.772579 -10.0187,-24.187509 -6.41493,-6.414914 -15.11551,-10.01879 -24.18761,-10.01879 l -12.03344,0.0657 c -0.46021,0 -0.90164,-0.182832 -1.22706,-0.508254 -0.32552,-0.325423 -0.50836,-0.766847 -0.50836,-1.227161 0,-0.460211 0.18284,-0.901636 0.50836,-1.227058 0.32542,-0.325525 0.76685,-0.508357 1.22706,-0.508357 l 46.25104,0.01026 0.0185,-14.512607 h -46.27878 c -2.1367,-0.01694 -4.25564,0.389173 -6.23466,1.195133 -1.97902,0.805856 -3.7789,1.995649 -5.295864,3.500497 -1.516961,1.50495 -2.721024,3.295287 -3.542689,5.267839 -0.821666,1.972553 -1.244613,4.088209 -1.244613,6.225012 0,2.136803 0.422947,4.252559 1.244613,6.225009 0.821665,1.972554 2.025728,3.762894 3.542689,5.26784 1.516964,1.504952 3.316844,2.694644 5.295864,3.5006 1.97902,0.805965 4.09796,1.212073 6.23466,1.195031 l 12.0899,0.165275 c 5.1929,0 10.1731,2.062896 13.84503,5.73482 3.67194,3.67194 5.73472,8.65213 5.73472,13.84493 0,5.19289 -2.06278,10.17309 -5.73472,13.84503 -3.67193,3.67193 -8.65213,5.73472 -13.84503,5.73472 H 77.0641 l -0.01848,14.66741"
     id="path195"
     inkscape:connector-curvature="0"
     style="fill:#0060a8;stroke-width:1.02656901" />
  <path
     d="m 77.0641,132.95648 h 46.36289 c 2.13558,0.0169 4.25339,-0.38897 6.23128,-1.19441 1.97789,-0.80544 3.77675,-1.99452 5.29278,-3.49855 1.51614,-1.50413 2.71949,-3.29344 3.54064,-5.26486 0.82115,-1.97142 1.244,-4.08585 1.244,-6.22142 0,-2.13567 -0.42285,-4.2501 -1.244,-6.22152 -0.82115,-1.97143 -2.0245,-3.76074 -3.54064,-5.26476 -1.51603,-1.50413 -3.31489,-2.6932 -5.29278,-3.49865 -1.97789,-0.80545 -4.0957,-1.21135 -6.23128,-1.19431 l -12.0899,-0.1314 c -5.19547,0 -10.17812,-2.063918 -13.851802,-5.737703 -3.673783,-3.673681 -5.737699,-8.656333 -5.737699,-13.851802 0,-5.195465 2.063916,-10.178124 5.737699,-13.851907 3.673682,-3.673782 8.656332,-5.737596 13.851802,-5.737596 l 46.27876,-0.01027 -0.0185,-14.565987 h -46.25102 c -4.49021,0 -8.93659,0.884388 -13.085058,2.602762 -4.148468,1.718374 -7.917824,4.236959 -11.093002,7.412034 -3.175076,3.175178 -5.693763,6.944534 -7.412034,11.093002 -1.718395,4.148571 -2.602825,8.594847 -2.602825,13.085162 0,4.490206 0.88443,8.936599 2.602825,13.085054 1.718271,4.148471 4.236958,7.917831 7.412034,11.093011 3.175178,3.17507 6.944534,5.69376 11.093002,7.41203 4.148468,1.71838 8.594848,2.60286 13.085058,2.60286 l 11.96774,0.0185 c 0.22277,-0.005 0.4444,0.0336 0.65177,0.11497 0.20747,0.0814 0.39646,0.20357 0.55599,0.3591 0.15953,0.15563 0.28621,0.34154 0.37275,0.54685 0.0865,0.20531 0.13119,0.42593 0.13119,0.6488 0,0.22276 -0.0447,0.44337 -0.13119,0.64869 -0.0865,0.20531 -0.21322,0.39123 -0.37275,0.54685 -0.15953,0.15563 -0.34852,0.27769 -0.55599,0.35909 -0.20737,0.0815 -0.429,0.12052 -0.65177,0.11508 l -46.268449,0.037 0.01847,14.46333"
     id="path197"
     inkscape:connector-curvature="0"
     style="fill:#0060a8;stroke-width:1.02656901" />
  <path
     d="m 193.62276,136.45503 c -1.91969,0.009 -3.82294,-0.36084 -5.59891,-1.09001 -1.77596,-0.72917 -3.39076,-1.80266 -4.74993,-3.15855 -1.35918,-1.35589 -2.43708,-2.9675 -3.17005,-4.74172 -0.734,-1.77432 -1.10869,-3.67625 -1.10459,-5.59625 V 75.582565 c 0.0534,-3.83598 1.61993,-7.495596 4.35881,-10.181819 2.73889,-2.686121 6.42838,-4.181113 10.26467,-4.15935 l 49.45804,0.0082 V 46.712365 h -49.45804 c -3.81884,-0.0078 -7.60277,0.736974 -11.13417,2.191725 -3.53037,1.454853 -6.74045,3.591246 -9.44649,6.287119 -2.70511,2.69577 -4.8528,5.898255 -6.32007,9.424417 -1.46728,3.526162 -2.2254,7.30681 -2.23105,11.126057 v 46.127857 c 0.005,3.82047 0.76224,7.60266 2.229,11.13047 1.46666,3.5277 3.61393,6.73162 6.31905,9.42944 2.705,2.69782 5.91508,4.83617 9.44751,6.2939 3.53139,1.4567 7.31636,2.20404 11.13622,2.19788 l 49.2517,0.0195 -0.0102,-14.50111 -49.24144,0.0174"
     id="path199"
     inkscape:connector-curvature="0"
     style="fill:#0060a8;stroke-width:1.02656901" />
  <path
     d="m 182.54505,75.741683 c -0.004,-1.457112 0.27923,-2.900673 0.8346,-4.247942 0.55538,-1.347269 1.37047,-2.571761 2.39909,-3.60336 1.02965,-1.031599 2.25229,-1.849877 3.59813,-2.408126 1.34583,-0.558248 2.78919,-0.845379 4.24589,-0.844969 H 243.0808 V 79.194035 H 200.471 c -0.45169,-0.01088 -0.9003,0.06888 -1.32017,0.234366 -0.41987,0.165483 -0.80278,0.413399 -1.12512,0.729172 -0.32234,0.315772 -0.57898,0.692934 -0.75247,1.10931 -0.17452,0.416377 -0.26383,0.863447 -0.26281,1.31483 h 35.54907 v 14.490025 h -50.03087 l 0.0164,-21.329028"
     id="path201"
     inkscape:connector-curvature="0"
     style="fill:#0060a8;stroke-width:1.02656901" />
  <path
     d="m 193.62276,132.92979 c -1.45465,0.003 -2.89595,-0.28108 -4.24179,-0.83542 -1.3448,-0.55445 -2.56745,-1.36842 -3.59812,-2.3956 -1.03068,-1.02709 -1.84782,-2.24727 -2.4073,-3.59064 -0.55846,-1.34336 -0.84692,-2.78364 -0.84898,-4.23859 V 100.5169 h 50.02984 v 14.52595 h -35.54803 c -0.002,0.45354 0.0862,0.90297 0.26075,1.32191 0.17349,0.41905 0.42808,0.79929 0.75042,1.11866 0.32235,0.31926 0.70526,0.57128 1.12513,0.74129 0.42089,0.16999 0.87053,0.25468 1.32426,0.24894 h 42.39936 l -0.009,14.43561 z"
     id="path203"
     inkscape:connector-curvature="0"
     style="fill:#0060a8;stroke-width:1.02656901" />
  <path
     d="m 277.7388,136.42013 c -3.85785,-0.005 -7.55658,-1.53986 -10.2852,-4.26704 -2.72759,-2.72719 -4.26437,-6.42478 -4.27155,-10.28253 V 75.740657 c -7.5e-4,-1.905928 0.37469,-3.793378 1.10459,-5.554149 0.72988,-1.760669 1.79958,-3.360269 3.14746,-4.70723 1.34891,-1.346859 2.94933,-2.414695 4.71092,-3.142225 1.76159,-0.727529 3.64946,-1.100585 5.5558,-1.09771 h 47.90176 V 46.712365 h -48.01264 c -3.81883,-0.007 -7.60174,0.738308 -11.13211,2.193572 -3.53037,1.455162 -6.73943,3.591657 -9.44444,6.287428 -2.70398,2.69577 -4.85156,5.898049 -6.31853,9.423698 -1.46594,3.525751 -2.22457,7.305989 -2.2297,11.12462 v 46.127857 c 0.0349,7.72616 3.13206,15.1232 8.61291,20.56915 5.47982,5.44595 12.89679,8.49692 20.62275,8.48254 l 47.90176,0.0195 V 82.57966 h -41.16542 v 14.492078 h 26.61894 v 39.348392 z"
     id="path205"
     inkscape:connector-curvature="0"
     style="fill:#0060a8;stroke-width:1.02656901" />
  <path
     d="m 266.59539,121.8685 c -0.004,2.95006 1.16413,5.78103 3.24601,7.87071 2.08291,2.08968 4.90906,3.26716 7.85942,3.27373 h 29.92037 v -32.50939 h -23.14913 v 14.5393 h 8.59547 l 0.0277,3.41335 h -8.55336 c -0.90133,-0.007 -1.76365,-0.36947 -2.39909,-1.00861 -0.63545,-0.63914 -0.99372,-1.50331 -0.99577,-2.40474 l -0.077,-32.472429 c -0.006,-0.453949 0.078,-0.904613 0.24844,-1.325506 0.16938,-0.420996 0.42191,-0.803804 0.7422,-1.126044 0.31927,-0.32224 0.70012,-0.577445 1.11999,-0.75073 0.41987,-0.173284 0.86951,-0.261056 1.32325,-0.258284 h 41.11922 l -0.0185,-14.482836 -47.90176,0.01026 c -1.45773,-1.02e-4 -2.90211,0.286926 -4.25,0.844969 -1.34686,0.55794 -2.57155,1.375911 -3.60223,2.407099 -1.0317,1.031086 -1.84987,2.25527 -2.4073,3.602642 -0.55846,1.347269 -0.84589,2.791343 -0.84589,4.249687 V 121.8685"
     id="path207"
     inkscape:connector-curvature="0"
     style="fill:#0060a8;stroke-width:1.02656901" />
  <path
     d="m 370.61455,64.420681 c 0.32337,-0.928635 0.92802,-1.733568 1.72977,-2.303108 0.80175,-0.56954 1.76057,-0.875561 2.74402,-0.875561 0.98345,0 1.94227,0.306021 2.74401,0.875561 0.80176,0.56954 1.40641,1.374473 1.72977,2.303108 L 402.81494,133.1156 H 368.7657 l 0.038,-16.16025 h 11.37746 l -5.12156,-15.22299 -16.68585,49.19401 h -17.16017 z"
     id="path209"
     inkscape:connector-curvature="0"
     style="fill:#0060a8;stroke-width:1.02656901" />
  <path
     d="m 407.50328,136.42013 h -38.6801 v 14.50829 h 58.8645 L 397.07334,60.351361 c -2.68345,-8.836706 -11.52632,-15.335935 -21.99527,-15.335935 -10.48537,0 -19.2995,6.467405 -22.00451,15.295899 l -30.89972,90.614015 h 15.41085 l 29.99635,-88.079417 c 0.61799,-1.469533 1.65586,-2.724206 2.98423,-3.607055 1.32736,-0.882849 2.88569,-1.354661 4.47995,-1.356713 1.59426,-0.0019 3.15465,0.466061 4.48406,1.345626 1.33043,0.879564 2.37137,2.13167 2.99347,3.599664 z"
     id="path211"
     inkscape:connector-curvature="0"
     style="fill:#0060a8;stroke-width:1.02656901" />
  <path
     d="m 416.59252,58.239708 c 2.37548,0.0042 4.67808,-0.815917 6.51667,-2.320354 1.83755,-1.504436 3.09716,-3.600075 3.56219,-5.929359 0.46504,-2.329183 0.10779,-4.747738 -1.01117,-6.842925 -1.11896,-2.095176 -2.92983,-3.737204 -5.12463,-4.645902 -2.19481,-0.908709 -4.63599,-1.027801 -6.90881,-0.336961 -2.27283,0.69085 -4.2346,2.148824 -5.55272,4.125185 -1.31709,1.976351 -1.90839,4.348629 -1.67228,6.712119 0.23714,2.36347 1.2863,4.57162 2.96884,6.247801 1.9166,1.913628 4.51382,2.989062 7.22191,2.990396 z m -8.79564,-10.232839 c -0.005,-1.154378 0.21969,-2.298253 0.66214,-3.364427 0.44347,-1.066174 1.09432,-2.033181 1.91557,-2.844253 1.22881,-1.228372 2.7933,-2.064903 4.4974,-2.403814 1.70411,-0.338901 3.46981,-0.16497 5.07434,0.499827 1.60554,0.664785 2.97704,1.790561 3.94202,3.234975 0.96497,1.444413 1.48032,3.142574 1.48032,4.879744 0,1.737161 -0.51535,3.435311 -1.48032,4.879796 -0.96498,1.444383 -2.33648,2.570118 -3.94202,3.234924 -1.60453,0.664806 -3.37023,0.838708 -5.07434,0.499837 -1.7041,-0.33887 -3.26859,-1.175421 -4.4974,-2.403814 -0.82227,-0.81099 -1.47415,-1.778531 -1.91763,-2.845547 -0.44245,-1.067118 -0.66726,-2.212051 -0.66008,-3.367248 z"
     id="path213"
     inkscape:connector-curvature="0"
     style="fill:#ffffff;stroke-width:1.02656901" />
  <path
     d="m 413.96656,48.870212 v 4.824875 H 412.4842 V 42.360718 h 4.20893 c 1.58707,0.01848 2.5151,0.01848 3.39691,0.683695 0.39934,0.306893 0.7186,0.706341 0.93007,1.163955 0.21148,0.457624 0.30797,0.959698 0.28231,1.463035 0.0431,0.767617 -0.21558,1.521601 -0.72065,2.101407 -0.50507,0.579806 -1.21648,0.939619 -1.9823,1.002958 l 3.18955,4.914187 h -1.79137 l -3.10434,-4.824875 h -2.92675 z m 0,-1.252413 h 3.00785 c 0.46298,0.0196 0.92596,-0.01838 1.37971,-0.112923 0.42089,-0.07525 0.7997,-0.303454 1.06352,-0.64099 0.26281,-0.337505 0.39215,-0.76038 0.36238,-1.18735 0.0144,-0.298136 -0.039,-0.595656 -0.15604,-0.870182 -0.11703,-0.274525 -0.29565,-0.51893 -0.52047,-0.714841 -0.65597,-0.418737 -1.44028,-0.586776 -2.2102,-0.473248 h -2.92675 v 4.00364 z"
     id="path215"
     inkscape:connector-curvature="0"
     style="fill:#ffffff;stroke-width:1.02656901" />
  <g
     id="g48"
     transform="matrix(1.1984978,0,0,1.1984978,-6.4457086,-144.14602)">
    <path
       d="m 98.368707,123.56449 -3.911684,9.67624 h 7.837657 z m -1.627486,-2.59162 h 3.269259 l 8.12318,19.44364 h -2.99801 l -1.94157,-4.98788 h -9.607908 l -1.941568,4.98788 h -3.040839 z"
       style="font-style:normal;font-weight:normal;font-size:40px;line-height:125%;font-family:sans-serif;letter-spacing:0px;word-spacing:0px;fill:#ffffff;fill-opacity:1;stroke:#ffffff;stroke-width:0.69800001;stroke-linecap:butt;stroke-linejoin:miter;stroke-miterlimit:4;stroke-dasharray:none;stroke-opacity:1"
       id="path36"
       inkscape:connector-curvature="0" />
    <path
       d="m 149.94112,131.30027 q 0.92796,0.28651 1.79881,1.22418 0.88512,0.93767 1.77025,2.5786 l 2.92663,5.31346 h -3.09794 l -2.72677,-4.98788 q -1.05644,-1.95348 -2.05577,-2.59162 -0.98506,-0.63814 -2.69821,-0.63814 h -3.14077 v 8.21764 h -2.88381 v -19.44364 h 6.50997 q 3.65472,0 5.45352,1.39348 1.79881,1.39349 1.79881,4.2065 0,1.83627 -0.94223,3.04743 -0.92796,1.21115 -2.71249,1.67999 z m -7.22378,-8.16555 v 6.9023 h 3.62617 q 2.08433,0 3.14077,-0.87256 1.07072,-0.88557 1.07072,-2.59161 0,-1.70604 -1.07072,-2.56557 -1.05644,-0.87256 -3.14077,-0.87256 z"
       style="font-style:normal;font-weight:normal;font-size:40px;line-height:125%;font-family:sans-serif;letter-spacing:0px;word-spacing:0px;fill:#ffffff;fill-opacity:1;stroke:#ffffff;stroke-width:0.69800001;stroke-linecap:butt;stroke-linejoin:miter;stroke-miterlimit:4;stroke-dasharray:none;stroke-opacity:1"
       id="path38"
       inkscape:connector-curvature="0" />
    <path
       d="m 200.69712,122.47054 v 2.77394 q -1.45617,-1.2372 -3.11221,-1.84929 -1.64177,-0.61209 -3.49768,-0.61209 -3.65472,0 -5.59629,2.04464 -1.94157,2.03162 -1.94157,5.88649 0,3.84184 1.94157,5.88649 1.94157,2.03161 5.59629,2.03161 1.85591,0 3.49768,-0.61209 1.65604,-0.61209 3.11221,-1.84929 v 2.74789 q -1.51328,0.93768 -3.21215,1.40651 -1.6846,0.46884 -3.56906,0.46884 -4.83964,0 -7.62351,-2.69581 -2.78386,-2.70882 -2.78386,-7.38415 0,-4.68836 2.78386,-7.38416 2.78387,-2.70883 7.62351,-2.70883 1.91302,0 3.59761,0.46884 1.69888,0.45581 3.1836,1.38046 z"
       style="font-style:normal;font-weight:normal;font-size:40px;line-height:125%;font-family:sans-serif;letter-spacing:0px;word-spacing:0px;fill:#ffffff;fill-opacity:1;stroke:#ffffff;stroke-width:0.69800001;stroke-linecap:butt;stroke-linejoin:miter;stroke-miterlimit:4;stroke-dasharray:none;stroke-opacity:1"
       id="path40-3"
       inkscape:connector-curvature="0" />
    <path
       d="m 238.86281,123.56449 -3.91168,9.67624 h 7.83765 z m -1.62749,-2.59162 h 3.26926 l 8.12318,19.44364 h -2.998 l -1.94157,-4.98788 h -9.60792 l -1.94157,4.98788 h -3.04083 z"
       style="font-style:normal;font-weight:normal;font-size:40px;line-height:125%;font-family:sans-serif;letter-spacing:0px;word-spacing:0px;fill:#ffffff;fill-opacity:1;stroke:#ffffff;stroke-width:0.69800001;stroke-linecap:butt;stroke-linejoin:miter;stroke-miterlimit:4;stroke-dasharray:none;stroke-opacity:1"
       id="path42"
       inkscape:connector-curvature="0" />
    <path
       d="m 277.21144,123.13472 v 15.11994 h 3.48341 q 4.41135,0 6.45285,-1.82325 2.05578,-1.82325 2.05578,-5.75625 0,-3.90696 -2.05578,-5.71719 -2.0415,-1.82325 -6.45285,-1.82325 z m -2.8838,-2.16185 h 5.92464 q 6.19589,0 9.09396,2.3572 2.89808,2.34418 2.89808,7.34509 0,5.02695 -2.91235,7.38415 -2.91235,2.3572 -9.07969,2.3572 h -5.92464 z"
       style="font-style:normal;font-weight:normal;font-size:40px;line-height:125%;font-family:sans-serif;letter-spacing:0px;word-spacing:0px;fill:#ffffff;fill-opacity:1;stroke:#ffffff;stroke-width:0.69800001;stroke-linecap:butt;stroke-linejoin:miter;stroke-miterlimit:4;stroke-dasharray:none;stroke-opacity:1"
       id="path44"
       inkscape:connector-curvature="0" />
    <path
       d="m 321.42893,120.97287 h 13.47677 v 2.21394 h -10.59297 v 5.75626 h 10.15041 v 2.21394 h -10.15041 v 7.04556 h 10.84994 v 2.21394 h -13.73374 z"
       style="font-style:normal;font-weight:normal;font-size:40px;line-height:125%;font-family:sans-serif;letter-spacing:0px;word-spacing:0px;fill:#ffffff;fill-opacity:1;stroke:#ffffff;stroke-width:0.69800001;stroke-linecap:butt;stroke-linejoin:miter;stroke-miterlimit:4;stroke-dasharray:none;stroke-opacity:1"
       id="path46"
       inkscape:connector-curvature="0" />
  </g>
</svg>
