<?xml version="1.0" encoding="UTF-8" standalone="no"?>
<svg
   xmlns:dc="http://purl.org/dc/elements/1.1/"
   xmlns:cc="http://creativecommons.org/ns#"
   xmlns:rdf="http://www.w3.org/1999/02/22-rdf-syntax-ns#"
   xmlns:svg="http://www.w3.org/2000/svg"
   xmlns="http://www.w3.org/2000/svg"
   xmlns:sodipodi="http://sodipodi.sourceforge.net/DTD/sodipodi-0.dtd"
   xmlns:inkscape="http://www.inkscape.org/namespaces/inkscape"
   width="500"
   height="200"
   version="1.1"
   id="svg838"
   sodipodi:docname="snk.svg"
   style="fill:none"
   inkscape:version="0.92.5 (2060ec1f9f, 2020-04-08)">
  <metadata
     id="metadata844">
    <rdf:RDF>
      <cc:Work
         rdf:about="">
        <dc:format>image/svg+xml</dc:format>
        <dc:type
           rdf:resource="http://purl.org/dc/dcmitype/StillImage" />
        <dc:title />
      </cc:Work>
    </rdf:RDF>
  </metadata>
  <defs
     id="defs842" />
  <sodipodi:namedview
     pagecolor="#ffffff"
     bordercolor="#666666"
     borderopacity="1"
     objecttolerance="10"
     gridtolerance="10"
     guidetolerance="10"
     inkscape:pageopacity="0"
     inkscape:pageshadow="2"
     inkscape:window-width="1366"
     inkscape:window-height="743"
     id="namedview840"
     showgrid="false"
     inkscape:pagecheckerboard="true"
     inkscape:zoom="1.4912626"
     inkscape:cx="200.54905"
     inkscape:cy="54.552194"
     inkscape:window-x="0"
     inkscape:window-y="0"
     inkscape:window-maximized="1"
     inkscape:current-layer="svg838" />
  <path
     d="m 0.3103657,80.55364 c 0,19.56076 13.0405463,35.39596 29.1860273,35.39596 h 81.037917 c 1.86293,0 3.7257,1.86292 3.7257,4.34672 0,2.48409 -1.55241,4.34687 -3.7257,4.34687 H 1.8e-6 v 31.3599 H 123.57477 c 16.14557,0 29.18603,-16.14558 29.18603,-35.70633 0,-19.56076 -13.04046,-35.706333 -29.18603,-35.706333 H 42.847361 c -1.863067,0 -3.725846,-1.862923 -3.725846,-4.346722 0,-2.483945 1.552412,-4.346868 3.725846,-4.346868 H 152.44985 V 45.157683 H 29.501575 c -16.145452,0 -29.185992,15.8352 -29.185992,35.395957 z"
     id="path826"
     inkscape:connector-curvature="0"
     style="fill:#0097e0;stroke-width:1.43955064" />
  <path
     d="M 161.45856,45.157683 V 155.3835 h 38.81172 V 86.143128 l 73.8979,69.240372 h 40.36355 V 45.157683 H 275.72001 V 114.08768 L 201.82213,45.157683 Z"
     id="path828"
     inkscape:connector-curvature="0"
     style="fill:#0097e0;stroke-width:1.43955064" />
  <path
     d="M 362.34785,93.594959 V 45.157683 H 322.91567 V 155.3835 h 39.43218 v -48.7478 l 62.72121,48.7478 h 50.61029 l -71.41467,-54.95758 71.41467,-55.268237 h -50.61029 z"
     id="path830"
     inkscape:connector-curvature="0"
     style="fill:#0097e0;stroke-width:1.43955064" />
  <path
     d="m 487.15688,45.157683 c 3.10368,0 5.89497,1.24198 8.07156,3.415319 h 0.001 c 2.17803,2.173461 3.10366,4.657421 3.41749,8.07274 0,3.104376 -1.23946,5.898833 -3.41749,8.072698 -2.17228,2.173434 -4.96789,3.415333 -8.07156,3.415333 -3.10511,0 -5.89927,-1.241757 -8.07301,-3.415333 -2.17372,-2.173434 -3.41605,-4.967744 -3.41605,-8.072698 0,-3.104952 1.24233,-5.899279 3.41605,-8.07274 2.17805,-2.173363 4.9679,-3.415319 8.07157,-3.415319 z m 0,21.113599 c 2.79416,0 4.96645,-0.931532 6.83067,-2.794454 1.86277,-1.863067 2.79416,-4.346839 2.79416,-6.830797 0,-2.483974 -0.93139,-4.967789 -2.79416,-6.830769 -1.86422,-1.862994 -4.03651,-2.794454 -6.83067,-2.794454 -2.48467,0 -4.9679,0.931475 -6.8321,2.794454 -1.86279,1.862967 -2.79417,4.036314 -2.79417,6.830769 0,2.483958 0.93138,4.96773 2.79417,6.830797 1.8642,1.862922 4.03649,2.794454 6.8321,2.794454 z"
     id="path832"
     inkscape:connector-curvature="0"
     style="clip-rule:evenodd;fill:#0096df;fill-rule:evenodd;stroke-width:1.43955064" />
  <path
     d="m 492.43859,54.472309 v 0.310497 -2.9e-5 c 0,1.242016 -0.62188,2.173476 -1.55327,2.483959 0.0864,0.170731 0.19433,0.341447 0.30807,0.518612 0.29797,0.467293 0.62332,0.979455 0.62332,1.654864 l 0.31093,2.794427 h -1.86277 l -0.31095,-2.794427 c 0,-0.620979 -0.62044,-1.241958 -1.55182,-1.241958 h -4.03651 v 4.346752 h -1.86278 V 51.05699 h 6.51972 c 1.86279,0 3.41606,1.552354 3.41606,3.415319 z m -3.41606,-1.552742 h -4.65694 v 1.15e-4 3.725816 h 4.65694 c 0.93139,0 1.55184,-0.621022 1.55184,-1.552484 V 54.47205 c 0,-0.931505 -0.62045,-1.552483 -1.55184,-1.552483 z"
     id="path834"
     inkscape:connector-curvature="0"
     style="clip-rule:evenodd;fill:#0096df;fill-rule:evenodd;stroke-width:1.43955064" />
  <path
     d="m 12.739642,195.46181 c 1.585071,-0.002 3.150588,-0.35104 4.5875,-1.02299 1.413197,-0.62524 2.666997,-1.56387 3.667685,-2.74505 v 0 l -2.732535,-2.74653 c -0.67059,0.81055 -1.503443,1.46894 -2.444531,1.93448 -0.923204,0.44896 -1.936728,0.67798 -2.962427,0.67195 -0.865561,0.009 -1.724358,-0.15367 -2.526702,-0.4806 -0.8023439,-0.32544 -1.5323091,-0.80755 -2.1476387,-1.41773 -0.5925038,-0.59812 -1.0606518,-1.30773 -1.3772211,-2.08966 -0.3394081,-0.82864 -0.510317,-1.71754 -0.5026938,-2.61246 -0.00919,-0.90547 0.1567931,-1.80341 0.4889078,-2.64409 0.3100159,-0.78345 0.7694397,-1.49758 1.3524524,-2.10308 0.5846697,-0.60113 1.2839623,-1.07798 2.0562044,-1.40219 0.804754,-0.34277 1.670887,-0.51662 2.545126,-0.51122 1.05434,-0.004 2.095089,0.23867 3.039551,0.70872 0.976237,0.49176 1.831132,1.19534 2.502476,2.06028 v 0 l 2.819165,-2.83377 c -0.991198,-1.2074 -2.252529,-2.16303 -3.681397,-2.78917 -1.468384,-0.6807 -3.066263,-1.03475 -4.683922,-1.03746 -1.444883,-0.0105 -2.877304,0.26817 -4.2143289,0.81778 -1.2667263,0.51542 -2.4233185,1.26947 -3.4072839,2.22134 -0.9712195,0.95249 -1.743698,2.08952 -2.2724334,3.34409 -0.5481111,1.31676 -0.8314968,2.72845 -0.8338615,4.15371 -0.00246,1.42676 0.2763433,2.83845 0.8200897,4.15673 0.5224758,1.25048 1.2900811,2.38195 2.2572788,3.3296 0.9844324,0.95218 2.1415059,1.70548 3.4086552,2.22073 1.3460632,0.55143 2.787962,0.82863 4.241884,0.81659 z m 54.506845,0.0301 c 1.440019,0.0105 2.867685,-0.26818 4.19908,-0.81809 1.261178,-0.51375 2.408609,-1.27157 3.376293,-2.23128 0.967697,-0.95973 1.736527,-2.10324 2.262173,-3.36276 0.550365,-1.30774 0.833911,-2.71341 0.833911,-4.13263 0,-1.41922 -0.283546,-2.82489 -0.833911,-4.13262 -0.525646,-1.25998 -1.294321,-2.40258 -2.262018,-3.3626 -0.967697,-0.96 -2.11527,-1.71844 -3.376448,-2.23158 -2.684483,-1.08989 -5.686238,-1.08989 -8.370722,0 -1.261333,0.51314 -2.408764,1.27158 -3.376461,2.23158 -0.967697,0.96002 -1.736515,2.10262 -2.262018,3.3626 -0.549913,1.30773 -0.833303,2.7134 -0.833303,4.13262 0,1.41922 0.28339,2.82489 0.833303,4.13263 0.525659,1.25952 1.294476,2.40303 2.262173,3.36276 0.967697,0.95971 2.115128,1.71753 3.376306,2.23128 1.322792,0.5484 2.741571,0.82562 4.173,0.81658 z m 0,-3.88555 c -0.845205,0.007 -1.682869,-0.15819 -2.461647,-0.48664 -0.778907,-0.32995 -1.482656,-0.81506 -2.068117,-1.42524 -0.57748,-0.61318 -1.031563,-1.33336 -1.337256,-2.11829 -0.652367,-1.69645 -0.652367,-3.57669 0,-5.27314 0.308241,-0.78041 0.762182,-1.49304 1.337256,-2.1026 0.585461,-0.61139 1.28921,-1.09637 2.068117,-1.42541 0.778778,-0.32889 1.616442,-0.49492 2.461647,-0.48784 0.869758,-0.006 1.731703,0.16738 2.531256,0.51103 0.763553,0.32484 1.45328,0.80182 2.027292,1.40222 0.575074,0.60956 1.029014,1.32219 1.337268,2.1026 0.652057,1.69645 0.652057,3.57669 0,5.27314 -0.305693,0.78493 -0.759775,1.50511 -1.337268,2.11829 -0.574012,0.59962 -1.263739,1.07722 -2.027292,1.40114 -0.799256,0.34351 -1.660592,0.51677 -2.529898,0.51074 z m 63.221773,3.56463 v -3.73789 h -11.01782 v -16.71009 h -4.16742 v 20.44497 z m 52.58198,0 v -3.73789 h -11.01782 v -16.71009 h -4.17029 v 20.44497 z m 52.98138,0 v -3.68064 h -11.41858 v -4.84977 h 7.45169 v -3.56464 h -7.45169 v -4.66867 h 11.30408 v -3.68017 h -15.47738 v 20.44543 z m 46.25286,0.29228 c 1.58496,-0.002 3.15031,-0.35103 4.58762,-1.02297 1.41321,-0.62676 2.6667,-1.56387 3.66858,-2.74505 v 0 l -2.73448,-2.74503 c -0.67045,0.81054 -1.50358,1.46893 -2.44523,1.93447 -0.92204,0.44898 -1.93599,0.67798 -2.96199,0.67196 -0.86479,0.009 -1.72355,-0.15368 -2.52507,-0.48061 -0.80301,-0.32542 -1.53223,-0.80755 -2.14691,-1.41772 -0.59361,-0.59812 -1.06216,-1.30774 -1.37856,-2.08966 -0.33898,-0.82863 -0.51073,-1.71754 -0.50321,-2.61399 -0.009,-0.90395 0.1567,-1.80189 0.48967,-2.64409 0.30885,-0.78192 0.76836,-1.49605 1.35142,-2.10187 0.58455,-0.60113 1.28362,-1.07797 2.05651,-1.40219 0.80453,-0.34275 1.67084,-0.51676 2.54467,-0.51104 1.05763,-0.004 2.10172,0.24075 3.04938,0.71414 0.97628,0.49161 1.83051,1.19518 2.50247,2.05952 v 0 l 2.81886,-2.83301 c -0.99136,-1.20741 -2.25238,-2.16304 -3.68064,-2.7892 -1.46895,-0.68038 -3.06596,-1.03427 -4.68254,-1.03744 -1.44483,-0.009 -2.87762,0.26817 -4.21549,0.81778 -1.26705,0.5148 -2.42413,1.26843 -3.40795,2.22 -0.97176,0.95232 -1.74464,2.08936 -2.27347,3.34467 -0.5484,1.31526 -0.83165,2.72695 -0.83466,4.15371 -0.001,1.42525 0.27722,2.83845 0.8211,4.15523 0.5228,1.25047 1.28966,2.38344 2.2569,3.3311 0.98381,0.95067 2.14089,1.70397 3.40796,2.21924 1.34539,0.5484 2.7842,0.82411 4.23506,0.81055 z m 55.16896,-0.29228 v -16.7098 h 6.75865 v -3.73957 H 326.4944 v 3.73957 h 6.78875 v 16.70677 z m 47.77755,0 v -20.44526 h -4.17028 v 20.44526 z m 48.03518,0.32242 c 1.44033,0.0105 2.86857,-0.26818 4.20042,-0.81809 1.26104,-0.51376 2.40756,-1.27157 3.37631,-2.23129 0.96724,-0.95971 1.73561,-2.10321 2.26142,-3.36273 0.54992,-1.30774 0.83314,-2.71341 0.83314,-4.13263 0,-1.41924 -0.28322,-2.8249 -0.83314,-4.13414 -0.52581,-1.25861 -1.29418,-2.40123 -2.26142,-3.36124 -0.96875,-0.95987 -2.11527,-1.71843 -3.37631,-2.2316 -2.68476,-1.08942 -5.68594,-1.08942 -8.36921,0 -1.26103,0.51392 -2.40756,1.27263 -3.37628,2.23265 -0.96727,0.95986 -1.73563,2.10202 -2.26145,3.36019 -0.55141,1.30924 -0.83465,2.7134 -0.83465,4.13414 0,1.41922 0.28324,2.82489 0.83465,4.13263 0.52582,1.25952 1.29418,2.40151 2.26145,3.36124 0.96872,0.95971 2.11525,1.71902 3.37628,2.23278 1.32131,0.5469 2.73901,0.82412 4.16879,0.81508 z m 0,-3.88555 c -0.86479,0.007 -1.72204,-0.16572 -2.51604,-0.51074 -0.75782,-0.32692 -1.44333,-0.80302 -2.01283,-1.40264 -0.57854,-0.61168 -1.03352,-1.33184 -1.33937,-2.11679 -0.65085,-1.69643 -0.65085,-3.57668 0,-5.27313 0.30887,-0.78041 0.76385,-1.49455 1.33937,-2.10277 0.5695,-0.59827 1.25501,-1.07527 2.01283,-1.40205 0.794,-0.34471 1.65125,-0.51888 2.51604,-0.51119 0.87082,-0.006 1.7311,0.16738 2.53112,0.51119 0.76384,0.32467 1.45385,0.80167 2.02787,1.40205 0.57552,0.60972 1.02902,1.32236 1.33787,2.10277 0.65237,1.69645 0.65237,3.5767 0,5.27313 -0.30583,0.78495 -0.75932,1.50511 -1.33787,2.11679 -0.57402,0.60113 -1.26403,1.07873 -2.02787,1.40264 -0.80002,0.34351 -1.6618,0.51527 -2.53112,0.50924 z m 51.97648,3.56465 v -13.67699 l 10.26902,13.67699 h 3.68064 V 174.7271 h -3.91115 v 13.23179 l -10.0099,-13.23179 h -3.9699 v 20.44543 z"
     id="path836"
     inkscape:connector-curvature="0"
     style="fill:#ffffff;stroke-width:1.50660789" />
  <g
     id="g48"
     transform="matrix(1.0715704,0,0,1.0715704,19.975847,-126.88017)">
    <path
       d="m 98.368707,123.56449 -3.911684,9.67624 h 7.837657 z m -1.627486,-2.59162 h 3.269259 l 8.12318,19.44364 h -2.99801 l -1.94157,-4.98788 h -9.607908 l -1.941568,4.98788 h -3.040839 z"
       style="font-style:normal;font-weight:normal;font-size:40px;line-height:125%;font-family:sans-serif;letter-spacing:0px;word-spacing:0px;fill:#ffffff;fill-opacity:1;stroke:#ffffff;stroke-width:0.69800001;stroke-linecap:butt;stroke-linejoin:miter;stroke-miterlimit:4;stroke-dasharray:none;stroke-opacity:1"
       id="path36"
       inkscape:connector-curvature="0" />
    <path
       d="m 149.94112,131.30027 q 0.92796,0.28651 1.79881,1.22418 0.88512,0.93767 1.77025,2.5786 l 2.92663,5.31346 h -3.09794 l -2.72677,-4.98788 q -1.05644,-1.95348 -2.05577,-2.59162 -0.98506,-0.63814 -2.69821,-0.63814 h -3.14077 v 8.21764 h -2.88381 v -19.44364 h 6.50997 q 3.65472,0 5.45352,1.39348 1.79881,1.39349 1.79881,4.2065 0,1.83627 -0.94223,3.04743 -0.92796,1.21115 -2.71249,1.67999 z m -7.22378,-8.16555 v 6.9023 h 3.62617 q 2.08433,0 3.14077,-0.87256 1.07072,-0.88557 1.07072,-2.59161 0,-1.70604 -1.07072,-2.56557 -1.05644,-0.87256 -3.14077,-0.87256 z"
       style="font-style:normal;font-weight:normal;font-size:40px;line-height:125%;font-family:sans-serif;letter-spacing:0px;word-spacing:0px;fill:#ffffff;fill-opacity:1;stroke:#ffffff;stroke-width:0.69800001;stroke-linecap:butt;stroke-linejoin:miter;stroke-miterlimit:4;stroke-dasharray:none;stroke-opacity:1"
       id="path38"
       inkscape:connector-curvature="0" />
    <path
       d="m 200.69712,122.47054 v 2.77394 q -1.45617,-1.2372 -3.11221,-1.84929 -1.64177,-0.61209 -3.49768,-0.61209 -3.65472,0 -5.59629,2.04464 -1.94157,2.03162 -1.94157,5.88649 0,3.84184 1.94157,5.88649 1.94157,2.03161 5.59629,2.03161 1.85591,0 3.49768,-0.61209 1.65604,-0.61209 3.11221,-1.84929 v 2.74789 q -1.51328,0.93768 -3.21215,1.40651 -1.6846,0.46884 -3.56906,0.46884 -4.83964,0 -7.62351,-2.69581 -2.78386,-2.70882 -2.78386,-7.38415 0,-4.68836 2.78386,-7.38416 2.78387,-2.70883 7.62351,-2.70883 1.91302,0 3.59761,0.46884 1.69888,0.45581 3.1836,1.38046 z"
       style="font-style:normal;font-weight:normal;font-size:40px;line-height:125%;font-family:sans-serif;letter-spacing:0px;word-spacing:0px;fill:#ffffff;fill-opacity:1;stroke:#ffffff;stroke-width:0.69800001;stroke-linecap:butt;stroke-linejoin:miter;stroke-miterlimit:4;stroke-dasharray:none;stroke-opacity:1"
       id="path40-3"
       inkscape:connector-curvature="0" />
    <path
       d="m 238.86281,123.56449 -3.91168,9.67624 h 7.83765 z m -1.62749,-2.59162 h 3.26926 l 8.12318,19.44364 h -2.998 l -1.94157,-4.98788 h -9.60792 l -1.94157,4.98788 h -3.04083 z"
       style="font-style:normal;font-weight:normal;font-size:40px;line-height:125%;font-family:sans-serif;letter-spacing:0px;word-spacing:0px;fill:#ffffff;fill-opacity:1;stroke:#ffffff;stroke-width:0.69800001;stroke-linecap:butt;stroke-linejoin:miter;stroke-miterlimit:4;stroke-dasharray:none;stroke-opacity:1"
       id="path42"
       inkscape:connector-curvature="0" />
    <path
       d="m 277.21144,123.13472 v 15.11994 h 3.48341 q 4.41135,0 6.45285,-1.82325 2.05578,-1.82325 2.05578,-5.75625 0,-3.90696 -2.05578,-5.71719 -2.0415,-1.82325 -6.45285,-1.82325 z m -2.8838,-2.16185 h 5.92464 q 6.19589,0 9.09396,2.3572 2.89808,2.34418 2.89808,7.34509 0,5.02695 -2.91235,7.38415 -2.91235,2.3572 -9.07969,2.3572 h -5.92464 z"
       style="font-style:normal;font-weight:normal;font-size:40px;line-height:125%;font-family:sans-serif;letter-spacing:0px;word-spacing:0px;fill:#ffffff;fill-opacity:1;stroke:#ffffff;stroke-width:0.69800001;stroke-linecap:butt;stroke-linejoin:miter;stroke-miterlimit:4;stroke-dasharray:none;stroke-opacity:1"
       id="path44"
       inkscape:connector-curvature="0" />
    <path
       d="m 321.42893,120.97287 h 13.47677 v 2.21394 h -10.59297 v 5.75626 h 10.15041 v 2.21394 h -10.15041 v 7.04556 h 10.84994 v 2.21394 h -13.73374 z"
       style="font-style:normal;font-weight:normal;font-size:40px;line-height:125%;font-family:sans-serif;letter-spacing:0px;word-spacing:0px;fill:#ffffff;fill-opacity:1;stroke:#ffffff;stroke-width:0.69800001;stroke-linecap:butt;stroke-linejoin:miter;stroke-miterlimit:4;stroke-dasharray:none;stroke-opacity:1"
       id="path46"
       inkscape:connector-curvature="0" />
  </g>
</svg>
