<?xml version="1.0" encoding="UTF-8" standalone="no"?>
<svg
   xmlns:dc="http://purl.org/dc/elements/1.1/"
   xmlns:cc="http://creativecommons.org/ns#"
   xmlns:rdf="http://www.w3.org/1999/02/22-rdf-syntax-ns#"
   xmlns:svg="http://www.w3.org/2000/svg"
   xmlns="http://www.w3.org/2000/svg"
   xmlns:sodipodi="http://sodipodi.sourceforge.net/DTD/sodipodi-0.dtd"
   xmlns:inkscape="http://www.inkscape.org/namespaces/inkscape"
   width="500"
   height="200"
   viewBox="0 0 500 200"
   version="1.1"
   id="svg49"
   sodipodi:docname="taito.svg"
   inkscape:version="0.92.5 (2060ec1f9f, 2020-04-08)">
  <metadata
     id="metadata55">
    <rdf:RDF>
      <cc:Work
         rdf:about="">
        <dc:format>image/svg+xml</dc:format>
        <dc:type
           rdf:resource="http://purl.org/dc/dcmitype/StillImage" />
        <dc:title>mainlogo</dc:title>
      </cc:Work>
    </rdf:RDF>
  </metadata>
  <defs
     id="defs53" />
  <sodipodi:namedview
     pagecolor="#ffffff"
     bordercolor="#666666"
     borderopacity="1"
     objecttolerance="10"
     gridtolerance="10"
     guidetolerance="10"
     inkscape:pageopacity="0"
     inkscape:pageshadow="2"
     inkscape:window-width="1366"
     inkscape:window-height="743"
     id="namedview51"
     showgrid="false"
     inkscape:pagecheckerboard="true"
     inkscape:zoom="1.1978428"
     inkscape:cx="263.61188"
     inkscape:cy="37.729158"
     inkscape:window-x="0"
     inkscape:window-y="0"
     inkscape:window-maximized="1"
     inkscape:current-layer="svg49" />
  <title
     id="title33">mainlogo</title>
  <g
     style="fill:none;fill-rule:nonzero;stroke:none;stroke-width:1"
     id="Taito_logo"
     transform="matrix(0.95750519,0,0,0.95750519,50.924881,33.916779)">
    <polygon
       id="path3027"
       points="57.253125,60.490125 92.34375,60.490125 92.34375,42.48075 0,42.48075 0,60.490125 35.090625,60.490125 35.090625,134.8245 57.253125,134.8245 "
       style="fill:#ffffff" />
    <polygon
       id="path3031"
       points="270.02201,134.8245 270.02201,60.490125 305.11264,60.490125 305.11264,42.48075 212.7642,42.48075 212.7642,60.490125 247.85483,60.490125 247.85483,134.8245 "
       style="fill:#ffffff" />
    <polygon
       id="path3033"
       points="205.75733,42.482625 183.59482,42.482625 183.59482,134.82638 205.75733,134.82638 "
       style="fill:#ffffff" />
    <path
       d="m 122.355,134.82525 v 0 h 60.03281 L 142.4175,61.28775 c -14.87344,20.521875 -22.63125,46.32656 -20.0625,73.5375"
       id="path3037"
       inkscape:connector-curvature="0"
       style="fill:#127bca" />
    <path
       d="M 66.952012,134.82525 H 98.3442 c 3.39375,-32.30156 18.16875,-60.590625 39.88125,-81.248437 L 124.6692,28.629937 Z"
       id="path3041"
       inkscape:connector-curvature="0"
       style="fill:#127bca" />
    <path
       d="m 194.67701,0 c -9.18281,0 -16.62656,7.44375 -16.62656,16.621875 0,9.178125 7.44375,16.621875 16.62656,16.621875 9.17813,0 16.62188,-7.44375 16.62188,-16.621875 C 211.29889,7.44375 203.85514,0 194.67701,0"
       id="path3045"
       inkscape:connector-curvature="0"
       style="fill:#127bca" />
    <path
       d="m 170.04937,34.717125 -1.46718,-2.685937 C 157.4775,37.7265 147.25406,44.987437 138.22594,53.574937 l 4.19062,7.715625 c 7.52813,-10.378124 16.87969,-19.40625 27.63281,-26.573437"
       id="path3049"
       inkscape:connector-curvature="0"
       style="fill:#127bca" />
    <path
       d="m 360.51562,120.447 c -17.64843,0 -31.94062,-12.70781 -31.94062,-31.926563 0,-19.21875 14.29219,-31.921875 31.94062,-31.921875 17.64844,0 31.94063,12.703125 31.94063,31.921875 0,19.218753 -14.29219,31.926563 -31.94063,31.926563 m 0,-80.925 c -31.75312,0 -55.40625,19.710937 -55.40625,48.998437 0,29.287503 23.65313,48.998433 55.40625,48.998433 31.75782,0 55.40625,-19.71093 55.40625,-48.998433 0,-29.2875 -23.64843,-48.998437 -55.40625,-48.998437"
       id="path3053"
       inkscape:connector-curvature="0"
       style="fill:#ffffff" />
    <path
       d="m 417.15371,23.035537 c -6.71718,0.0038 -12.16406,5.451563 -12.16406,12.16875 0,6.7125 5.44688,12.154688 12.16875,12.154688 6.71719,-0.0038 12.16406,-5.446875 12.15937,-12.159375 0,-6.717188 -5.44687,-12.164063 -12.16406,-12.164063 v -1.734376 c 7.67813,-0.0037 13.89844,6.215626 13.89844,13.898439 0.004,7.66875 -6.21563,13.898437 -13.89375,13.898437 -7.67813,0 -13.89844,-6.224999 -13.90313,-13.89375 0,-7.678124 6.22032,-13.903126 13.89844,-13.903126 z"
       id="path3019-1"
       inkscape:connector-curvature="0"
       style="fill:#ffffff" />
    <path
       d="m 414.04541,34.497787 -0.004,-3.932812 c 0,0 4.75781,-0.0038 5.775,-0.0038 1.21407,0 1.89844,1.073437 1.89375,1.992187 0.004,0.970313 -0.87656,1.940625 -1.9875,1.940625 -1.11562,0 -5.67656,0.0038 -5.67656,0.0038 v 2.325 l 3.39844,-0.0037 3.85312,5.414063 2.8875,0.0225 -3.88125,-5.578125 c 2.08594,0 3.82032,-2.039063 3.82032,-4.270313 0,-2.23125 -1.93126,-4.120312 -3.67969,-4.120312 h -8.97188 v 14.1187 h 2.57344 v -5.582813 -2.325 z"
       id="path3023-7"
       inkscape:connector-curvature="0"
       style="fill:#ffffff" />
  </g>
  <path
     d="m 11.581492,196.94575 c 1.570749,0 3.098399,-0.33522 4.582949,-1.00566 1.48455,-0.67044 2.705712,-1.57075 3.663486,-2.70092 v 0 l -2.729657,-2.70093 c -0.708752,0.82369 -1.52286,1.45582 -2.442323,1.8964 -0.919464,0.44057 -1.905971,0.66086 -2.959522,0.66086 -0.938619,0 -1.8054044,-0.16761 -2.6003569,-0.50283 -0.7949524,-0.33522 -1.4845498,-0.79016 -2.068792,-1.36483 -0.5842421,-0.57466 -1.0439737,-1.25947 -1.3791946,-2.05442 -0.3352209,-0.79496 -0.5028314,-1.65216 -0.5028314,-2.57163 0,-0.93862 0.1628216,-1.8054 0.4884648,-2.60035 0.3256432,-0.79496 0.775797,-1.48455 1.3504614,-2.0688 0.5746644,-0.58424 1.2594729,-1.04397 2.0544254,-1.37919 0.7949525,-0.33522 1.6425823,-0.50283 2.5428903,-0.50283 1.072707,0 2.087947,0.23465 3.045721,0.70396 0.957774,0.46931 1.791038,1.14454 2.499791,2.02569 v 0 l 2.815855,-2.78712 c -0.938618,-1.14933 -2.164569,-2.064 -3.677852,-2.74402 -1.513283,-0.68002 -3.074455,-1.02003 -4.683515,-1.02003 -1.494128,0 -2.8972667,0.26818 -4.2094172,0.80453 -1.3121505,0.53635 -2.4471127,1.26426 -3.4048868,2.18373 -0.9577741,0.91946 -1.7144156,2.01611 -2.2699246,3.28995 C 1.1417545,183.78115 0.864,185.14598 0.864,186.60179 c 0,1.45582 0.2729656,2.81586 0.8188968,4.08012 0.5459312,1.26426 1.2977839,2.35612 2.255558,3.27559 0.957774,0.91946 2.0927363,1.64737 3.4048868,2.18372 1.3121505,0.53636 2.7248674,0.80453 4.2381504,0.80453 z m 54.449456,0.0287 c 1.494127,0 2.892477,-0.26818 4.19505,-0.80453 1.302573,-0.53636 2.427957,-1.26905 3.376154,-2.1981 0.948196,-0.92904 1.700049,-2.03048 2.255558,-3.30432 0.555509,-1.27384 0.833263,-2.62909 0.833263,-4.06575 0,-1.43666 -0.277754,-2.79191 -0.833263,-4.06575 -0.555509,-1.27384 -1.307362,-2.37528 -2.255558,-3.30432 -0.948197,-0.92904 -2.073581,-1.66174 -3.376154,-2.19809 -1.302573,-0.53635 -2.700923,-0.80453 -4.19505,-0.80453 -1.474972,0 -2.863745,0.26818 -4.166317,0.80453 -1.302573,0.53635 -2.427958,1.26905 -3.376154,2.19809 -0.948196,0.92904 -1.700049,2.03048 -2.255558,3.30432 -0.555509,1.27384 -0.833263,2.62909 -0.833263,4.06575 0,1.43666 0.277754,2.79191 0.833263,4.06575 0.555509,1.27384 1.307362,2.37528 2.255558,3.30432 0.948196,0.92905 2.073581,1.66174 3.376154,2.1981 1.302572,0.53635 2.691345,0.80453 4.166317,0.80453 z m 0,-3.82152 c -0.900308,0 -1.73836,-0.16761 -2.514157,-0.50283 -0.775797,-0.33522 -1.446239,-0.79496 -2.011326,-1.3792 -0.565086,-0.58424 -1.010451,-1.27863 -1.336095,-2.08316 -0.325643,-0.80453 -0.488464,-1.66652 -0.488464,-2.58599 0,-0.93862 0.162821,-1.8054 0.488464,-2.60035 0.325644,-0.79496 0.771009,-1.48455 1.336095,-2.0688 0.565087,-0.58424 1.235529,-1.04397 2.011326,-1.37919 0.775797,-0.33522 1.613849,-0.50283 2.514157,-0.50283 0.900307,0 1.743149,0.16761 2.528523,0.50283 0.785375,0.33522 1.460606,0.79495 2.025692,1.37919 0.565087,0.58425 1.010452,1.27384 1.336095,2.0688 0.325643,0.79495 0.488465,1.66173 0.488465,2.60035 0,0.91947 -0.162822,1.78146 -0.488465,2.58599 -0.325643,0.80453 -0.771008,1.49892 -1.336095,2.08316 -0.565086,0.58424 -1.240317,1.04398 -2.025692,1.3792 -0.785374,0.33522 -1.628216,0.50283 -2.528523,0.50283 z m 63.155622,3.50545 v -3.67785 h -11.00482 v -16.4354 h -4.16632 v 20.11325 z m 52.52433,0 v -3.67785 h -11.00482 v -16.4354 h -4.16632 v 20.11325 z m 52.92659,0 v -3.62039 h -11.40708 v -4.76971 h 7.4419 v -3.50545 h -7.4419 v -4.59732 h 11.29215 v -3.62038 h -15.45847 v 20.11325 z m 46.20303,0.28733 c 1.57075,0 3.0984,-0.33522 4.58294,-1.00566 1.48455,-0.67044 2.70572,-1.57075 3.66349,-2.70092 v 0 l -2.72966,-2.70093 c -0.70875,0.82369 -1.52286,1.45582 -2.44232,1.8964 -0.91946,0.44057 -1.90597,0.66086 -2.95952,0.66086 -0.93862,0 -1.80541,-0.16761 -2.60036,-0.50283 -0.79495,-0.33522 -1.48455,-0.79016 -2.06879,-1.36483 -0.58424,-0.57466 -1.04397,-1.25947 -1.37919,-2.05442 -0.33523,-0.79496 -0.50284,-1.65216 -0.50284,-2.57163 0,-0.93862 0.16283,-1.8054 0.48847,-2.60035 0.32564,-0.79496 0.7758,-1.48455 1.35046,-2.0688 0.57466,-0.58424 1.25947,-1.04397 2.05443,-1.37919 0.79495,-0.33522 1.64258,-0.50283 2.54289,-0.50283 1.0727,0 2.08794,0.23465 3.04572,0.70396 0.95777,0.46931 1.79104,1.14454 2.49979,2.02569 v 0 l 2.81585,-2.78712 c -0.93861,-1.14933 -2.16457,-2.064 -3.67785,-2.74402 -1.51328,-0.68002 -3.07445,-1.02003 -4.68351,-1.02003 -1.49413,0 -2.89727,0.26818 -4.20942,0.80453 -1.31215,0.53635 -2.44711,1.26426 -3.40489,2.18373 -0.95777,0.91946 -1.71441,2.01611 -2.26992,3.28995 -0.55551,1.27384 -0.83327,2.63867 -0.83327,4.09448 0,1.45582 0.27297,2.81586 0.8189,4.08012 0.54593,1.26426 1.29778,2.35612 2.25556,3.27559 0.95777,0.91946 2.09274,1.64737 3.40489,2.18372 1.31215,0.53636 2.72486,0.80453 4.23815,0.80453 z m 55.11032,-0.28733 v -16.4354 h 6.7523 v -3.67785 h -17.69966 v 3.67785 h 6.78104 v 16.4354 z m 47.72588,0 v -20.11325 h -4.16632 v 20.11325 z m 47.98448,0.31607 c 1.49413,0 2.89248,-0.26818 4.19505,-0.80453 1.30257,-0.53636 2.42796,-1.26905 3.37615,-2.1981 0.9482,-0.92904 1.70005,-2.03048 2.25556,-3.30432 0.55551,-1.27384 0.83326,-2.62909 0.83326,-4.06575 0,-1.43666 -0.27775,-2.79191 -0.83326,-4.06575 -0.55551,-1.27384 -1.30736,-2.37528 -2.25556,-3.30432 -0.94819,-0.92904 -2.07358,-1.66174 -3.37615,-2.19809 -1.30257,-0.53635 -2.70092,-0.80453 -4.19505,-0.80453 -1.47497,0 -2.86375,0.26818 -4.16632,0.80453 -1.30257,0.53635 -2.42796,1.26905 -3.37615,2.19809 -0.9482,0.92904 -1.70005,2.03048 -2.25556,3.30432 -0.55551,1.27384 -0.83326,2.62909 -0.83326,4.06575 0,1.43666 0.27775,2.79191 0.83326,4.06575 0.55551,1.27384 1.30736,2.37528 2.25556,3.30432 0.94819,0.92905 2.07358,1.66174 3.37615,2.1981 1.30257,0.53635 2.69135,0.80453 4.16632,0.80453 z m 0,-3.82152 c -0.90031,0 -1.73836,-0.16761 -2.51416,-0.50283 -0.7758,-0.33522 -1.44624,-0.79496 -2.01132,-1.3792 -0.56509,-0.58424 -1.01046,-1.27863 -1.3361,-2.08316 -0.32564,-0.80453 -0.48846,-1.66652 -0.48846,-2.58599 0,-0.93862 0.16282,-1.8054 0.48846,-2.60035 0.32564,-0.79496 0.77101,-1.48455 1.3361,-2.0688 0.56508,-0.58424 1.23552,-1.04397 2.01132,-1.37919 0.7758,-0.33522 1.61385,-0.50283 2.51416,-0.50283 0.90031,0 1.74315,0.16761 2.52852,0.50283 0.78538,0.33522 1.46061,0.79495 2.02569,1.37919 0.56509,0.58425 1.01046,1.27384 1.3361,2.0688 0.32564,0.79495 0.48846,1.66173 0.48846,2.60035 0,0.91947 -0.16282,1.78146 -0.48846,2.58599 -0.32564,0.80453 -0.77101,1.49892 -1.3361,2.08316 -0.56508,0.58424 -1.24031,1.04398 -2.02569,1.3792 -0.78537,0.33522 -1.62821,0.50283 -2.52852,0.50283 z m 51.92093,3.50545 v -13.44715 l 10.25776,13.44715 h 3.67785 v -20.11325 h -3.90771 v 13.01615 l -9.99917,-13.01615 h -3.96518 v 20.11325 z"
     id="COLLECTION"
     inkscape:connector-curvature="0"
     style="fill:#ffffff;fill-rule:nonzero;stroke:none;stroke-width:1.19721758" />
  <g
     id="g48"
     transform="matrix(1.0288955,0,0,1.0288955,36.907337,-122.24481)">
    <path
       d="m 98.368707,123.56449 -3.911684,9.67624 h 7.837657 z m -1.627486,-2.59162 h 3.269259 l 8.12318,19.44364 h -2.99801 l -1.94157,-4.98788 h -9.607908 l -1.941568,4.98788 h -3.040839 z"
       style="font-style:normal;font-weight:normal;font-size:40px;line-height:125%;font-family:sans-serif;letter-spacing:0px;word-spacing:0px;fill:#ffffff;fill-opacity:1;stroke:#ffffff;stroke-width:0.69800001;stroke-linecap:butt;stroke-linejoin:miter;stroke-miterlimit:4;stroke-dasharray:none;stroke-opacity:1"
       id="path36"
       inkscape:connector-curvature="0" />
    <path
       d="m 149.94112,131.30027 q 0.92796,0.28651 1.79881,1.22418 0.88512,0.93767 1.77025,2.5786 l 2.92663,5.31346 h -3.09794 l -2.72677,-4.98788 q -1.05644,-1.95348 -2.05577,-2.59162 -0.98506,-0.63814 -2.69821,-0.63814 h -3.14077 v 8.21764 h -2.88381 v -19.44364 h 6.50997 q 3.65472,0 5.45352,1.39348 1.79881,1.39349 1.79881,4.2065 0,1.83627 -0.94223,3.04743 -0.92796,1.21115 -2.71249,1.67999 z m -7.22378,-8.16555 v 6.9023 h 3.62617 q 2.08433,0 3.14077,-0.87256 1.07072,-0.88557 1.07072,-2.59161 0,-1.70604 -1.07072,-2.56557 -1.05644,-0.87256 -3.14077,-0.87256 z"
       style="font-style:normal;font-weight:normal;font-size:40px;line-height:125%;font-family:sans-serif;letter-spacing:0px;word-spacing:0px;fill:#ffffff;fill-opacity:1;stroke:#ffffff;stroke-width:0.69800001;stroke-linecap:butt;stroke-linejoin:miter;stroke-miterlimit:4;stroke-dasharray:none;stroke-opacity:1"
       id="path38"
       inkscape:connector-curvature="0" />
    <path
       d="m 200.69712,122.47054 v 2.77394 q -1.45617,-1.2372 -3.11221,-1.84929 -1.64177,-0.61209 -3.49768,-0.61209 -3.65472,0 -5.59629,2.04464 -1.94157,2.03162 -1.94157,5.88649 0,3.84184 1.94157,5.88649 1.94157,2.03161 5.59629,2.03161 1.85591,0 3.49768,-0.61209 1.65604,-0.61209 3.11221,-1.84929 v 2.74789 q -1.51328,0.93768 -3.21215,1.40651 -1.6846,0.46884 -3.56906,0.46884 -4.83964,0 -7.62351,-2.69581 -2.78386,-2.70882 -2.78386,-7.38415 0,-4.68836 2.78386,-7.38416 2.78387,-2.70883 7.62351,-2.70883 1.91302,0 3.59761,0.46884 1.69888,0.45581 3.1836,1.38046 z"
       style="font-style:normal;font-weight:normal;font-size:40px;line-height:125%;font-family:sans-serif;letter-spacing:0px;word-spacing:0px;fill:#ffffff;fill-opacity:1;stroke:#ffffff;stroke-width:0.69800001;stroke-linecap:butt;stroke-linejoin:miter;stroke-miterlimit:4;stroke-dasharray:none;stroke-opacity:1"
       id="path40-3"
       inkscape:connector-curvature="0" />
    <path
       d="m 238.86281,123.56449 -3.91168,9.67624 h 7.83765 z m -1.62749,-2.59162 h 3.26926 l 8.12318,19.44364 h -2.998 l -1.94157,-4.98788 h -9.60792 l -1.94157,4.98788 h -3.04083 z"
       style="font-style:normal;font-weight:normal;font-size:40px;line-height:125%;font-family:sans-serif;letter-spacing:0px;word-spacing:0px;fill:#ffffff;fill-opacity:1;stroke:#ffffff;stroke-width:0.69800001;stroke-linecap:butt;stroke-linejoin:miter;stroke-miterlimit:4;stroke-dasharray:none;stroke-opacity:1"
       id="path42"
       inkscape:connector-curvature="0" />
    <path
       d="m 277.21144,123.13472 v 15.11994 h 3.48341 q 4.41135,0 6.45285,-1.82325 2.05578,-1.82325 2.05578,-5.75625 0,-3.90696 -2.05578,-5.71719 -2.0415,-1.82325 -6.45285,-1.82325 z m -2.8838,-2.16185 h 5.92464 q 6.19589,0 9.09396,2.3572 2.89808,2.34418 2.89808,7.34509 0,5.02695 -2.91235,7.38415 -2.91235,2.3572 -9.07969,2.3572 h -5.92464 z"
       style="font-style:normal;font-weight:normal;font-size:40px;line-height:125%;font-family:sans-serif;letter-spacing:0px;word-spacing:0px;fill:#ffffff;fill-opacity:1;stroke:#ffffff;stroke-width:0.69800001;stroke-linecap:butt;stroke-linejoin:miter;stroke-miterlimit:4;stroke-dasharray:none;stroke-opacity:1"
       id="path44"
       inkscape:connector-curvature="0" />
    <path
       d="m 321.42893,120.97287 h 13.47677 v 2.21394 h -10.59297 v 5.75626 h 10.15041 v 2.21394 h -10.15041 v 7.04556 h 10.84994 v 2.21394 h -13.73374 z"
       style="font-style:normal;font-weight:normal;font-size:40px;line-height:125%;font-family:sans-serif;letter-spacing:0px;word-spacing:0px;fill:#ffffff;fill-opacity:1;stroke:#ffffff;stroke-width:0.69800001;stroke-linecap:butt;stroke-linejoin:miter;stroke-miterlimit:4;stroke-dasharray:none;stroke-opacity:1"
       id="path46"
       inkscape:connector-curvature="0" />
  </g>
</svg>
