<?xml version="1.0" encoding="UTF-8" standalone="no"?>
<svg
   xmlns:dc="http://purl.org/dc/elements/1.1/"
   xmlns:cc="http://creativecommons.org/ns#"
   xmlns:rdf="http://www.w3.org/1999/02/22-rdf-syntax-ns#"
   xmlns:svg="http://www.w3.org/2000/svg"
   xmlns="http://www.w3.org/2000/svg"
   xmlns:sodipodi="http://sodipodi.sourceforge.net/DTD/sodipodi-0.dtd"
   xmlns:inkscape="http://www.inkscape.org/namespaces/inkscape"
   version="1.0"
   width="597.70795"
   height="144.3396"
   viewBox="0 0 5977.0795 1443.396"
   preserveAspectRatio="xMidYMid meet"
   id="svg16"
   sodipodi:docname="visco.svg"
   inkscape:version="1.0.1 (3bc2e813f5, 2020-09-07)">
  <metadata
     id="metadata22">
    <rdf:RDF>
      <cc:Work
         rdf:about="">
        <dc:format>image/svg+xml</dc:format>
        <dc:type
           rdf:resource="http://purl.org/dc/dcmitype/StillImage" />
      </cc:Work>
    </rdf:RDF>
  </metadata>
  <defs
     id="defs20" />
  <sodipodi:namedview
     pagecolor="#ffffff"
     bordercolor="#666666"
     borderopacity="1"
     objecttolerance="10"
     gridtolerance="10"
     guidetolerance="10"
     inkscape:pageopacity="0"
     inkscape:pageshadow="2"
     inkscape:window-width="2560"
     inkscape:window-height="1387"
     id="namedview18"
     showgrid="false"
     inkscape:zoom="2.0233333"
     inkscape:cx="298.40762"
     inkscape:cy="71.994335"
     inkscape:window-x="-8"
     inkscape:window-y="22"
     inkscape:window-maximized="1"
     inkscape:current-layer="svg16" />
  <g
     id="layer101"
     fill="#01489b"
     fill-rule="evenodd"
     transform="translate(-15.923802,-5.0566531)">
    <path
       d="m 464,1374 c -31,-7 -58,-47 -50,-73 3,-11 20,-37 36,-57 20,-26 29,-48 29,-73 0,-48 -242,-746 -279,-805 -11,-18 -40,-49 -65,-69 -39,-33 -45,-44 -45,-76 0,-26 6,-44 20,-57 18,-16 27,-17 132,-5 117,13 182,8 358,-25 93,-18 95,-18 114,1 25,26 18,59 -26,123 -58,85 -61,126 -15,262 81,243 168,485 178,494 7,7 14,5 23,-8 19,-25 146,-542 145,-592 0,-69 -18,-110 -70,-163 -27,-27 -50,-57 -49,-65 0,-9 11,-24 25,-33 24,-16 29,-16 79,0 72,23 124,21 208,-9 81,-28 110,-26 134,11 15,23 15,26 -1,50 -9,14 -39,51 -67,81 -56,62 -61,73 -128,264 -92,261 -125,386 -125,480 0,82 1,89 43,168 34,66 42,91 40,124 -4,55 -22,58 -158,36 -164,-27 -279,-24 -420,12 -22,5 -52,7 -66,4"
       id="path2" />
    <path
       d="m 2423,1350 c -205,-46 -344,-166 -343,-295 0,-88 66,-169 163,-202 69,-22 206,-15 244,13 42,31 39,53 -17,122 -39,48 -50,71 -50,98 0,134 187,217 327,145 46,-24 98,-77 112,-115 15,-40 13,-103 -5,-137 -23,-45 -82,-72 -313,-144 -245,-76 -296,-99 -361,-164 -129,-129 -133,-311 -11,-444 92,-101 214,-144 382,-134 60,3 114,13 145,25 26,11 73,29 104,41 78,32 180,26 238,-12 74,-49 98,-31 88,67 -14,152 -110,249 -246,250 -84,1 -122,-22 -181,-107 -86,-125 -131,-156 -213,-143 -98,15 -123,93 -55,171 34,38 43,41 402,145 174,50 229,71 270,99 149,104 198,291 118,454 -65,133 -212,236 -384,271 -111,22 -305,21 -414,-4"
       id="path4" />
    <path
       d="m 3875,1360 c -79,-14 -202,-57 -265,-93 -76,-43 -189,-159 -229,-234 -50,-96 -72,-197 -71,-333 0,-202 45,-328 160,-443 162,-162 433,-212 693,-127 128,42 182,39 258,-14 30,-20 61,-36 71,-36 64,0 37,199 -43,308 -34,47 -90,79 -153,88 -71,10 -121,-20 -204,-118 -85,-101 -109,-124 -146,-138 -98,-37 -157,36 -193,243 -22,127 -14,399 15,508 52,198 155,288 285,249 55,-17 112,-75 126,-130 29,-107 -50,-203 -131,-160 -23,13 -54,4 -63,-17 -18,-47 90,-174 182,-217 61,-27 182,-30 229,-4 72,39 124,114 144,207 21,97 -37,239 -134,326 -53,49 -145,98 -224,120 -68,19 -237,27 -307,15"
       id="path6" />
    <path
       d="m 5165,1360 c -215,-30 -395,-140 -504,-309 -171,-266 -106,-631 148,-826 128,-99 267,-146 431,-146 271,0 500,134 615,361 46,92 65,172 65,280 0,251 -137,461 -374,576 -112,53 -269,80 -381,64 m 3,-161 c -50,-24 -82,-56 -105,-104 -23,-50 -23,-54 -23,-377 -1,-361 3,-385 62,-446 95,-98 260,-75 324,47 23,43 24,47 24,382 0,369 -2,383 -59,442 -55,59 -162,86 -223,56"
       id="path8" />
    <path
       d="m 1424,1343 c -21,-21 -10,-50 36,-98 20,-22 49,-58 64,-79 l 26,-39 -1,-346 c 0,-392 1,-387 -83,-486 -56,-65 -70,-92 -62,-121 7,-28 59,-58 89,-51 12,2 48,14 81,26 53,20 76,22 180,19 100,-4 136,-9 209,-34 l 88,-29 24,28 c 42,48 36,67 -59,181 -87,105 -86,102 -86,413 -1,308 4,336 77,441 21,30 45,66 55,80 10,15 17,37 15,50 -5,43 -27,47 -129,26 -139,-29 -281,-26 -381,9 -89,31 -121,33 -143,10"
       id="path10" />
  </g>
  <g
     id="layer102"
     fill="#fafcfd"
     fill-rule="evenodd"
     transform="translate(-15.923802,-5.0566531)">
    <path
       d="m 433,1440 c -93,-34 -120,-140 -54,-221 17,-21 31,-45 31,-54 0,-8 -50,-156 -111,-328 C 238,665 179,499 168,467 153,424 135,398 96,362 35,307 29,299 19,253 8,202 27,144 68,108 l 35,-31 111,8 c 145,10 217,7 339,-16 161,-31 198,-24 232,41 27,52 19,99 -30,174 -25,38 -46,80 -46,94 0,27 127,410 141,425 11,13 93,-331 94,-396 0,-55 -2,-59 -46,-105 -25,-26 -51,-57 -57,-69 -27,-53 -3,-121 52,-147 43,-20 82,-21 137,-1 57,20 78,19 161,-11 83,-28 118,-31 158,-10 26,13 33,13 64,0 50,-21 99,-18 160,8 44,19 68,22 172,22 103,-1 130,-5 194,-28 41,-15 87,-26 103,-26 40,0 83,24 103,58 l 17,29 56,-34 c 82,-50 142,-65 272,-70 125,-5 192,8 319,61 81,35 147,32 206,-8 66,-45 149,-29 174,33 18,43 8,151 -20,225 -16,44 -39,77 -81,119 -32,32 -58,60 -58,62 0,3 7,5 17,5 26,0 113,53 147,88 16,18 32,31 36,31 4,0 10,-29 13,-64 34,-333 303,-555 670,-556 108,0 217,19 297,51 72,28 119,22 188,-24 69,-46 117,-48 163,-8 27,24 32,37 36,83 3,31 0,78 -6,106 -44,207 -153,317 -316,317 -107,0 -150,-29 -278,-188 -21,-25 -53,-54 -70,-63 -30,-15 -32,-15 -49,6 -47,57 -74,238 -65,436 11,272 77,419 188,419 72,0 128,-73 106,-137 -11,-32 -9,-31 -57,-17 -52,16 -104,-7 -127,-55 -15,-31 -16,-42 -5,-83 26,-99 149,-213 264,-247 98,-29 232,-11 288,40 22,20 24,16 35,-60 10,-77 60,-195 114,-272 284,-404 900,-427 1216,-46 105,128 157,271 158,438 1,329 -227,611 -564,696 -70,17 -104,20 -219,16 -114,-3 -148,-8 -215,-31 -145,-50 -279,-145 -361,-257 -20,-27 -39,-49 -43,-49 -4,0 -20,25 -36,57 -67,127 -207,229 -371,269 -103,25 -305,22 -409,-6 -188,-50 -327,-146 -429,-295 l -40,-60 -10,30 c -14,43 -68,124 -113,168 -134,135 -328,194 -598,183 -163,-6 -265,-29 -363,-81 -65,-35 -83,-37 -82,-11 0,8 -14,25 -31,40 -38,32 -81,33 -205,6 -127,-28 -192,-26 -320,11 -127,36 -177,35 -212,-6 -53,-62 -38,-128 48,-221 l 60,-64 -1,-328 c 0,-365 0,-363 -73,-447 l -35,-40 -32,30 c -47,44 -72,95 -123,245 -94,279 -118,371 -119,450 -1,70 1,80 42,158 34,64 44,94 44,130 0,66 -24,106 -76,126 -40,15 -50,15 -161,-4 -150,-26 -258,-26 -364,0 -93,22 -112,23 -149,10 m 31,-66 c -31,-7 -58,-47 -50,-73 3,-11 20,-37 36,-57 20,-26 29,-48 29,-73 0,-48 -242,-746 -279,-805 -11,-18 -40,-49 -65,-69 -39,-33 -45,-44 -45,-76 0,-26 6,-44 20,-57 18,-16 27,-17 132,-5 117,13 182,8 358,-25 93,-18 95,-18 114,1 25,26 18,59 -26,123 -58,85 -61,126 -15,262 81,243 168,485 178,494 7,7 14,5 23,-8 19,-25 146,-542 145,-592 0,-69 -18,-110 -70,-163 -27,-27 -50,-57 -49,-65 0,-9 11,-24 25,-33 24,-16 29,-16 79,0 72,23 124,21 208,-9 81,-28 110,-26 134,11 15,23 15,26 -1,50 -9,14 -39,51 -67,81 -56,62 -61,73 -128,264 -92,261 -125,386 -125,480 0,82 1,89 43,168 34,66 42,91 40,124 -4,55 -22,58 -158,36 -164,-27 -279,-24 -420,12 -22,5 -52,7 -66,4 m 1959,-24 c -205,-46 -344,-166 -343,-295 0,-88 66,-169 163,-202 69,-22 206,-15 244,13 42,31 39,53 -17,122 -39,48 -50,71 -50,98 0,134 187,217 327,145 46,-24 98,-77 112,-115 15,-40 13,-103 -5,-137 -23,-45 -82,-72 -313,-144 -245,-76 -296,-99 -361,-164 -129,-129 -133,-311 -11,-444 92,-101 214,-144 382,-134 60,3 114,13 145,25 26,11 73,29 104,41 78,32 180,26 238,-12 74,-49 98,-31 88,67 -14,152 -110,249 -246,250 -84,1 -122,-22 -181,-107 -86,-125 -131,-156 -213,-143 -98,15 -123,93 -55,171 34,38 43,41 402,145 174,50 229,71 270,99 149,104 198,291 118,454 -65,133 -212,236 -384,271 -111,22 -305,21 -414,-4 m 1452,10 c -79,-14 -202,-57 -265,-93 -76,-43 -189,-159 -229,-234 -50,-96 -72,-197 -71,-333 0,-202 45,-328 160,-443 162,-162 433,-212 693,-127 128,42 182,39 258,-14 30,-20 61,-36 71,-36 64,0 37,199 -43,308 -34,47 -90,79 -153,88 -71,10 -121,-20 -204,-118 -85,-101 -109,-124 -146,-138 -98,-37 -157,36 -193,243 -22,127 -14,399 15,508 52,198 155,288 285,249 55,-17 112,-75 126,-130 29,-107 -50,-203 -131,-160 -23,13 -54,4 -63,-17 -18,-47 90,-174 182,-217 61,-27 182,-30 229,-4 72,39 124,114 144,207 21,97 -37,239 -134,326 -53,49 -145,98 -224,120 -68,19 -237,27 -307,15 m 1290,0 c -215,-30 -395,-140 -504,-309 -171,-266 -106,-631 148,-826 128,-99 267,-146 431,-146 271,0 500,134 615,361 46,92 65,172 65,280 0,251 -137,461 -374,576 -112,53 -269,80 -381,64 m 3,-161 c -50,-24 -82,-56 -105,-104 -23,-50 -23,-54 -23,-377 -1,-361 3,-385 62,-446 95,-98 260,-75 324,47 23,43 24,47 24,382 0,369 -2,383 -59,442 -55,59 -162,86 -223,56 m 9,-82 c -66,-46 -67,-57 -67,-405 0,-243 3,-320 13,-345 46,-107 176,-115 237,-15 18,31 19,51 19,353 0,284 -1,323 -17,354 -23,46 -73,81 -117,81 -21,0 -49,-10 -68,-23 m -3753,226 c -21,-21 -10,-50 36,-98 20,-22 49,-58 64,-79 l 26,-39 -1,-346 c 0,-392 1,-387 -83,-486 -56,-65 -70,-92 -62,-121 7,-28 59,-58 89,-51 12,2 48,14 81,26 53,20 76,22 180,19 100,-4 136,-9 209,-34 l 88,-29 24,28 c 42,48 36,67 -59,181 -87,105 -86,102 -86,413 -1,308 4,336 77,441 21,30 45,66 55,80 10,15 17,37 15,50 -5,43 -27,47 -129,26 -139,-29 -281,-26 -381,9 -89,31 -121,33 -143,10 m 1148,-168 c -42,-16 -82,-58 -82,-84 0,-10 19,-41 44,-70 24,-28 47,-61 51,-72 7,-25 6,-25 95,6 90,30 120,56 120,102 0,61 -93,133 -170,133 -11,0 -37,-7 -58,-15 M 2000,737 c 0,-167 3,-247 10,-237 5,8 9,23 9,33 1,40 57,134 117,194 l 62,63 -37,19 c -65,35 -125,102 -136,153 -3,15 -10,28 -15,28 -7,0 -10,-91 -10,-253 m 561,-360 c -72,-28 -93,-44 -89,-72 2,-17 9,-20 40,-19 21,0 47,9 58,19 25,22 61,83 55,90 -3,2 -32,-6 -64,-18"
       id="path13" />
  </g>
</svg>
