<?xml version="1.0" encoding="UTF-8" standalone="no"?>
<!-- Created with Inkscape (http://www.inkscape.org/) -->

<svg
   xmlns:dc="http://purl.org/dc/elements/1.1/"
   xmlns:cc="http://creativecommons.org/ns#"
   xmlns:rdf="http://www.w3.org/1999/02/22-rdf-syntax-ns#"
   xmlns:svg="http://www.w3.org/2000/svg"
   xmlns="http://www.w3.org/2000/svg"
   xmlns:xlink="http://www.w3.org/1999/xlink"
   xmlns:sodipodi="http://sodipodi.sourceforge.net/DTD/sodipodi-0.dtd"
   xmlns:inkscape="http://www.inkscape.org/namespaces/inkscape"
   version="1.1"
   width="432.04599"
   height="84.258385"
   id="svg3639"
   sodipodi:docname="logo.svg"
   inkscape:version="0.92.4 (5da689c313, 2019-01-14)">
  <sodipodi:namedview
     pagecolor="#ffffff"
     bordercolor="#666666"
     borderopacity="1"
     objecttolerance="10"
     gridtolerance="10"
     guidetolerance="10"
     inkscape:pageopacity="0"
     inkscape:pageshadow="2"
     inkscape:window-width="640"
     inkscape:window-height="480"
     id="namedview84"
     showgrid="false"
     inkscape:zoom="6.6104074"
     inkscape:cx="279.19289"
     inkscape:cy="25.989989"
     inkscape:current-layer="svg3639" />
  <defs
     id="defs3641">
    <radialGradient
       cx="91.075203"
       cy="103.0259"
       r="65.542702"
       id="radialGradient3335"
       xlink:href="#SVGID_6_-4"
       gradientUnits="userSpaceOnUse"
       gradientTransform="matrix(0.33877,0,0,0.33877,140.87412,497.12976)" />
    <radialGradient
       cx="91.075203"
       cy="103.0259"
       r="65.542702"
       id="SVGID_6_-4"
       gradientUnits="userSpaceOnUse">
      <stop
         id="stop7763-1"
         style="stop-color:#dae2e9;stop-opacity:1"
         offset="0" />
      <stop
         id="stop7765-1"
         style="stop-color:#b2cdeb;stop-opacity:1"
         offset="0.0581" />
      <stop
         id="stop7767-3"
         style="stop-color:#84b5ed;stop-opacity:1"
         offset="0.13510001" />
      <stop
         id="stop7769-8"
         style="stop-color:#5ea1ef;stop-opacity:1"
         offset="0.2123" />
      <stop
         id="stop7771-7"
         style="stop-color:#4092f0;stop-opacity:1"
         offset="0.28850001" />
      <stop
         id="stop7773-4"
         style="stop-color:#2b87f1;stop-opacity:1"
         offset="0.36340001" />
      <stop
         id="stop7775-2"
         style="stop-color:#1e80f2;stop-opacity:1"
         offset="0.43650001" />
      <stop
         id="stop7777-7"
         style="stop-color:#1a7ef2;stop-opacity:1"
         offset="0.50550002" />
      <stop
         id="stop7779-7"
         style="stop-color:#1b7aea;stop-opacity:1"
         offset="0.5855" />
      <stop
         id="stop7781-9"
         style="stop-color:#1d6dd4;stop-opacity:1"
         offset="0.7098" />
      <stop
         id="stop7783-3"
         style="stop-color:#2159b0;stop-opacity:1"
         offset="0.86189997" />
      <stop
         id="stop7785-1"
         style="stop-color:#25448a;stop-opacity:1"
         offset="1" />
    </radialGradient>
    <radialGradient
       cx="-4586.6943"
       cy="-432.00101"
       r="68.887299"
       id="radialGradient3338"
       xlink:href="#SVGID_5_-9"
       gradientUnits="userSpaceOnUse"
       gradientTransform="matrix(-0.33877,0,0,-0.33877,-1376.9341,383.8837)" />
    <radialGradient
       cx="-4586.6943"
       cy="-432.00101"
       r="68.887299"
       id="SVGID_5_-9"
       gradientUnits="userSpaceOnUse"
       gradientTransform="matrix(-1,0,0,-1,-4480.35,-334.286)">
      <stop
         id="stop7748-5"
         style="stop-color:#d7de73;stop-opacity:1"
         offset="0" />
      <stop
         id="stop7750-4"
         style="stop-color:#bccb4e;stop-opacity:1"
         offset="0.18430001" />
      <stop
         id="stop7752-3"
         style="stop-color:#a1b829;stop-opacity:1"
         offset="0.39399999" />
      <stop
         id="stop7754-1"
         style="stop-color:#97b11b;stop-opacity:1"
         offset="0.50550002" />
      <stop
         id="stop7756-2"
         style="stop-color:#6d9620;stop-opacity:1"
         offset="0.68529999" />
      <stop
         id="stop7758-3"
         style="stop-color:#1b632b;stop-opacity:1"
         offset="1" />
    </radialGradient>
    <radialGradient
       cx="-4580.6606"
       cy="-438.4917"
       r="58.6884"
       id="radialGradient3341"
       xlink:href="#SVGID_4_-2"
       gradientUnits="userSpaceOnUse"
       gradientTransform="matrix(-0.33877,0,0,-0.33877,-1376.9341,383.8837)" />
    <radialGradient
       cx="-4580.6606"
       cy="-438.4917"
       r="58.6884"
       id="SVGID_4_-2"
       gradientUnits="userSpaceOnUse"
       gradientTransform="matrix(-1,0,0,-1,-4480.35,-334.286)">
      <stop
         id="stop7723-2"
         style="stop-color:#eee396;stop-opacity:1"
         offset="0" />
      <stop
         id="stop7725-1"
         style="stop-color:#efdf85;stop-opacity:1"
         offset="0.039" />
      <stop
         id="stop7727-6"
         style="stop-color:#f2d75f;stop-opacity:1"
         offset="0.1355" />
      <stop
         id="stop7729-8"
         style="stop-color:#f4d141;stop-opacity:1"
         offset="0.2317" />
      <stop
         id="stop7731-5"
         style="stop-color:#f5cd2c;stop-opacity:1"
         offset="0.32620001" />
      <stop
         id="stop7733-7"
         style="stop-color:#f6ca1f;stop-opacity:1"
         offset="0.41839999" />
      <stop
         id="stop7735-6"
         style="stop-color:#f6c91b;stop-opacity:1"
         offset="0.50550002" />
      <stop
         id="stop7737-1"
         style="stop-color:#f4c118;stop-opacity:1"
         offset="0.60930002" />
      <stop
         id="stop7739-8"
         style="stop-color:#efab10;stop-opacity:1"
         offset="0.77060002" />
      <stop
         id="stop7741-9"
         style="stop-color:#e78703;stop-opacity:1"
         offset="0.96829998" />
      <stop
         id="stop7743-2"
         style="stop-color:#e58101;stop-opacity:1"
         offset="1" />
    </radialGradient>
    <radialGradient
       cx="97.701698"
       cy="95.3936"
       r="58.6884"
       id="radialGradient3344"
       xlink:href="#SVGID_3_-7"
       gradientUnits="userSpaceOnUse"
       gradientTransform="matrix(0.33877,0,0,0.33877,140.87412,497.12976)" />
    <radialGradient
       cx="97.701698"
       cy="95.3936"
       r="58.6884"
       id="SVGID_3_-7"
       gradientUnits="userSpaceOnUse">
      <stop
         id="stop7702-1"
         style="stop-color:#deca00;stop-opacity:1"
         offset="0" />
      <stop
         id="stop7704-1"
         style="stop-color:#e4b900;stop-opacity:1"
         offset="0.0889" />
      <stop
         id="stop7706-5"
         style="stop-color:#eba400;stop-opacity:1"
         offset="0.2323" />
      <stop
         id="stop7708-2"
         style="stop-color:#f09700;stop-opacity:1"
         offset="0.37279999" />
      <stop
         id="stop7710-7"
         style="stop-color:#f19300;stop-opacity:1"
         offset="0.50550002" />
      <stop
         id="stop7712-6"
         style="stop-color:#ec8b04;stop-opacity:1"
         offset="0.58340001" />
      <stop
         id="stop7714-1"
         style="stop-color:#e0750e;stop-opacity:1"
         offset="0.70429999" />
      <stop
         id="stop7716-4"
         style="stop-color:#cc511e;stop-opacity:1"
         offset="0.85250002" />
      <stop
         id="stop7718-2"
         style="stop-color:#b42732;stop-opacity:1"
         offset="1" />
    </radialGradient>
    <filter
       color-interpolation-filters="sRGB"
       id="gaussianBlur-1">
      <feGaussianBlur
         id="feGaussianBlur7669-7"
         stdDeviation="4" />
    </filter>
    <filter
       color-interpolation-filters="sRGB"
       id="filter3707">
      <feGaussianBlur
         id="feGaussianBlur3709"
         stdDeviation="4" />
    </filter>
    <filter
       color-interpolation-filters="sRGB"
       id="filter3711">
      <feGaussianBlur
         id="feGaussianBlur3713"
         stdDeviation="4" />
    </filter>
    <linearGradient
       x1="101.0381"
       y1="7.7827001"
       x2="101.0381"
       y2="194.45261"
       id="linearGradient12475"
       xlink:href="#SVGID_2_-8"
       gradientUnits="userSpaceOnUse" />
    <linearGradient
       x1="101.0381"
       y1="7.7827001"
       x2="101.0381"
       y2="194.45261"
       id="SVGID_2_-8"
       gradientUnits="userSpaceOnUse">
      <stop
         id="stop7685-2"
         style="stop-color:#6b8fba;stop-opacity:1"
         offset="0" />
      <stop
         id="stop7687-4"
         style="stop-color:#092463;stop-opacity:1"
         offset="0.25" />
      <stop
         id="stop7689-5"
         style="stop-color:#145095;stop-opacity:1"
         offset="0.69999999" />
      <stop
         id="stop7691-5"
         style="stop-color:#3aaffa;stop-opacity:1"
         offset="1" />
    </linearGradient>
    <linearGradient
       x1="101.0376"
       y1="6.4141002"
       x2="101.0376"
       y2="197.6463"
       id="linearGradient12473"
       xlink:href="#SVGID_1_-0"
       gradientUnits="userSpaceOnUse" />
    <linearGradient
       x1="101.0376"
       y1="6.4141002"
       x2="101.0376"
       y2="197.6463"
       id="SVGID_1_-0"
       gradientUnits="userSpaceOnUse">
      <stop
         id="stop7678-9"
         style="stop-color:#151f47;stop-opacity:1"
         offset="0" />
      <stop
         id="stop7680-4"
         style="stop-color:#0099ed;stop-opacity:1"
         offset="1" />
    </linearGradient>
    <filter
       color-interpolation-filters="sRGB"
       id="filter3725">
      <feGaussianBlur
         id="feGaussianBlur3727"
         stdDeviation="4" />
    </filter>
  </defs>
  <metadata
     id="metadata3644">
    <rdf:RDF>
      <cc:Work
         rdf:about="">
        <dc:format>image/svg+xml</dc:format>
        <dc:type
           rdf:resource="http://purl.org/dc/dcmitype/StillImage" />
        <dc:title />
      </cc:Work>
    </rdf:RDF>
  </metadata>
  <path
     style="fill:#ffffff;fill-opacity:1;fill-rule:nonzero;stroke:none"
     d="m 224.51255,24.937457 c -4.30718,0.134682 -7.3842,4.646496 -6.86329,8.738281 -0.0925,0.536296 0.43662,1.657133 -0.20779,1.833438 -1.15009,-0.04777 -2.42926,-0.226218 -3.44064,0.461484 0.53742,1.25487 -0.69123,3.198721 0.94336,3.933594 0.89459,0.340564 1.85524,-0.252203 2.74414,0.07422 0.002,6.057291 0.004,12.114583 0.006,18.171875 1.65559,0 3.31119,0 4.96679,0 0,-6.070313 0,-12.140625 0,-18.210938 1.61459,0 3.22917,0 4.84375,0 -1.6618,2.643534 -1.98449,5.947798 -1.666,8.996949 0.43462,4.057898 3.09946,7.975869 7.12993,9.153427 5.13194,1.777654 11.74089,-0.314595 13.91107,-5.550766 2.04067,-4.555025 1.62863,-10.368264 -1.55859,-14.300782 -3.04206,-3.400648 -8.23016,-4.005039 -12.38867,-2.621093 -2.104,0.77303 -3.96676,2.19906 -5.24219,4.042968 -0.47774,-1.329976 0.7182,-3.462797 -1.03906,-4.173828 -1.32422,0 -2.64844,0 -3.97266,0 0.0503,-2.003516 -0.54776,-4.859116 1.65039,-5.947265 1.49882,-0.520958 3.08405,0.182663 4.27344,1.085937 -0.61386,-1.707712 0.51142,-3.80768 -0.69336,-5.304687 -1.08027,-0.411842 -2.25624,-0.435187 -3.39648,-0.382813 z M 351.827,25.560504 c -0.0289,3.771155 0.0576,7.812896 -0.043,11.416016 -4.37227,-3.858903 -12.0202,-1.939121 -14.40348,3.284519 -2.25095,4.370406 -2.21045,9.928822 0.18864,14.225246 2.11874,3.441787 6.59632,5.047912 10.43271,3.822618 1.39838,-0.39271 2.72346,-1.106276 3.75283,-2.139024 -0.17071,0.947138 0.43056,2.229026 1.57032,1.925781 1.15708,0.07427 2.98085,0.520825 3.46874,-0.941406 10e-6,-10.597656 0,-21.195313 0,-31.792969 -1.65559,0 -3.31119,0 -4.96679,0 z m -41.39063,0.179687 c -1.00802,-0.08825 -1.75208,0.773091 -2.36914,1.308594 -1.7181,0 -3.4362,0 -5.15429,0 -1.99405,7.582961 -4.05611,15.148044 -6,22.744141 -1.93873,-7.626349 -4.15625,-15.178198 -6.17579,-22.783203 -1.45921,0.340372 -3.24839,-0.505788 -4.50976,0.466797 -0.85493,1.309064 -0.7989,2.986136 -1.41571,4.408533 -1.72716,5.992581 -3.50494,11.969895 -5.16437,17.980138 -1.92392,-7.454422 -4.08217,-14.848394 -6.14258,-22.263671 -0.75227,-1.197287 -2.25016,-0.199993 -3.33984,-0.56836 -0.81157,-0.159441 -2.28875,-0.01711 -1.97656,1.150391 1.51769,4.578063 2.71525,9.294655 4.13002,13.922444 1.56128,5.348173 3.12409,10.695905 4.68443,16.044353 1.74088,0 3.48177,0 5.22266,0 2.00215,-7.170497 4.09629,-14.310974 6.04101,-21.5 1.9452,7.183127 4.01454,14.331767 6.01367,21.5 1.75456,0 3.50912,0 5.26367,0 2.72309,-9.571568 5.46055,-19.422901 8.16602,-28.822266 0.22573,2.152778 3.0908,3.165774 4.70898,1.779297 1.58672,-0.967963 1.72796,-3.36451 0.31641,-4.548828 -0.61614,-0.56436 -1.46287,-0.875105 -2.29883,-0.81836 z m 16.8125,9.214844 c -2.34185,-0.08159 -4.72202,0.758871 -6.375,2.44336 0.15318,-1.01863 -0.63273,-2.240893 -1.77734,-1.855469 -1.08504,-0.09192 -2.84139,-0.512919 -3.25781,0.902344 -0.049,7.234925 -0.0224,14.470048 -0.0273,21.705078 1.65365,0 3.30729,0 4.96094,0 0.24311,-5.1893 -0.50292,-10.46794 0.47805,-15.592919 1.06779,-2.693548 4.99833,-4.323211 7.26609,-2.094581 2.15031,2.536815 1.16738,6.064146 1.4037,9.091014 0.007,2.865492 0.006,5.730988 0.005,8.596486 1.66016,0 3.32032,0 4.98047,0 -0.27385,-5.985676 0.55345,-12.063586 -0.56836,-17.984375 -0.94708,-2.989752 -3.89107,-5.346536 -7.08789,-5.210938 z m 41.83985,0.02539 c -5.30285,-0.159607 -10.3331,4.185895 -10.75782,9.513672 -0.87802,4.79532 0.78648,10.54318 5.36687,12.879448 5.20694,2.812618 12.81997,1.105536 15.42024,-4.477105 2.23069,-4.613576 1.87178,-10.615244 -1.39257,-14.654296 -2.13667,-2.408882 -5.47331,-3.493847 -8.63672,-3.261719 z m 46.69531,0.01563 c -2.72778,0.0027 -5.39382,1.593794 -6.70313,3.984375 0.35062,-1.164605 0.69823,-2.330122 1.05079,-3.494141 -1.67318,0 -3.34636,0 -5.01954,0 -1.37171,5.054372 -2.76674,10.102595 -4.08984,15.169922 -1.32775,-5.084019 -2.78643,-10.132523 -4.16406,-15.203125 -1.3487,0.276786 -2.88714,-0.379774 -4.12305,0.3125 -0.97009,1.126176 -0.87353,2.796928 -1.49987,4.107362 -1.11599,3.632081 -2.24534,7.26019 -3.31458,10.90631 -1.30099,-5.120292 -2.80065,-10.187534 -4.1582,-15.292969 -1.74415,0 -3.48829,0 -5.23243,0 2.28736,7.57069 4.57055,15.142651 6.85938,22.712891 1.53546,-0.352948 3.42963,0.539074 4.71679,-0.611328 1.45313,-4.67513 2.90626,-9.350261 4.35938,-14.025391 1.33446,4.877587 2.79595,9.720183 4.17188,14.587891 1.5638,0 3.1276,0 4.6914,0 1.67613,-5.585181 3.35151,-11.170591 5.02734,-16.75586 -0.34788,3.063087 1.86666,5.744671 4.52418,6.970908 1.79785,0.951978 4.53525,1.319488 4.95434,3.693155 -0.017,2.007472 -2.50358,2.398141 -4.05906,2.065661 -2.17868,-0.208533 -4.06995,-1.492383 -5.55422,-3.030505 0.51284,2.030022 -0.4533,4.324216 0.56055,6.210938 4.06533,2.163744 9.88897,1.981813 12.94165,-1.812286 2.28681,-3.126644 1.02265,-8.131921 -2.56861,-9.685761 -1.9423,-1.149315 -4.80752,-1.444657 -5.7177,-3.79668 -0.25072,-1.929606 2.00301,-2.958416 3.63173,-2.532869 1.90237,0.149651 3.56475,1.14693 4.96488,2.34908 -0.50948,-1.891401 0.4721,-4.077586 -0.5918,-5.802734 -1.75087,-0.843643 -3.72783,-1.142719 -5.6582,-1.027344 z m -157.08984,0.136719 c -1.70056,0.0943 -3.25898,1.060235 -4.31836,2.359375 0.23732,-0.838296 -0.0907,-2.279716 -1.23243,-1.978516 -1.17911,0.178343 -2.77496,-0.589074 -3.64062,0.501953 -0.28221,4.680759 -0.0201,9.379713 -0.11523,14.067969 0,2.688932 -1e-5,5.377864 0,8.066797 1.65234,0 3.30468,0 4.95703,0 0.28367,-5.161586 -0.60387,-10.464776 0.64843,-15.513672 0.79558,-2.291646 3.91787,-3.818083 5.94474,-2.122987 0.29069,0.484276 1.31709,0.720356 1.06698,-0.130919 -0.32121,-1.607916 0.51798,-3.549116 -0.57422,-4.9375 -0.87135,-0.331914 -1.81728,-0.336684 -2.73632,-0.3125 z m 49.43945,0.552734 c 0,7.488281 0,14.976562 0,22.464844 1.6556,0 3.3112,0 4.9668,0 0,-7.554688 0,-15.109375 0,-22.664063 -1.6556,0 -3.3112,0 -4.9668,0 z m 61.83008,3.724609 c 3.09198,0.08377 5.4744,3.076615 5.38626,6.07235 0.43248,3.097269 -0.35697,7.094206 -3.60501,8.347572 -3.39351,1.381399 -7.9646,-0.836846 -8.29467,-4.663275 -0.78573,-3.341681 0.0284,-7.776695 3.49663,-9.266788 0.95487,-0.387396 1.99563,-0.481009 3.01679,-0.489859 z m -132.56836,0.0078 c 3.2195,-0.05224 5.71179,3.155794 5.57449,6.264626 0.37296,3.033036 -0.42905,6.927094 -3.60965,8.131858 -3.4621,1.456637 -8.12118,-0.927587 -8.35615,-4.835121 -0.74815,-3.411522 0.21327,-7.896311 3.84248,-9.198082 0.82144,-0.277864 1.68836,-0.340237 2.54883,-0.363281 z m 109.55859,0.0059 c 3.20336,0.06229 5.44645,3.5191 4.90339,6.527717 0.26111,3.010161 -0.56243,6.93015 -3.79987,7.989861 -2.99082,1.091518 -6.69201,-1.099572 -6.92283,-4.298785 -0.79353,-3.255231 -0.27538,-7.510983 2.75552,-9.507947 0.9244,-0.543664 2.00352,-0.72876 3.06379,-0.710846 z"
     id="path42047-8"
     inkscape:connector-curvature="0" />
  <g
     transform="translate(-133.97701,-490.23299)"
     id="layer1">
    <path
       d="m 337.76506,541.24155 c 0,0.90734 -0.17848,1.75889 -0.53547,2.55467 -0.35698,0.79205 -0.88503,1.48743 -1.58411,2.07496 -0.69911,0.59126 -1.57297,1.05608 -2.62161,1.40191 -1.05236,0.34211 -2.26833,0.51316 -3.65536,0.51316 -0.38301,0 -0.82181,-0.0298 -1.31639,-0.093 -0.49456,-0.0632 -0.99285,-0.14502 -1.5023,-0.24542 -0.50573,-0.10412 -0.99658,-0.22312 -1.46884,-0.3607 -0.47598,-0.13759 -0.8813,-0.29005 -1.22341,-0.45367 v -4.54783 c 0.4388,0.31608 0.90361,0.5987 1.39819,0.84412 0.49457,0.24915 0.99285,0.45367 1.5023,0.61729 0.50573,0.16361 1.00031,0.29376 1.48,0.37929 0.4797,0.0892 0.91848,0.13387 1.31637,0.13387 1.19367,0 2.0601,-0.20452 2.60301,-0.61728 0.54291,-0.40905 0.81437,-0.9594 0.81437,-1.64362 0,-0.35698 -0.052,-0.66934 -0.15618,-0.93708 -0.10412,-0.26774 -0.30121,-0.52804 -0.59497,-0.7809 -0.29748,-0.25286 -0.71025,-0.51688 -1.24574,-0.79206 -0.53547,-0.27517 -1.23456,-0.59125 -2.09727,-0.94824 -0.76974,-0.32723 -1.46512,-0.67306 -2.08984,-1.03748 -0.62472,-0.36442 -1.15276,-0.78462 -1.58412,-1.26432 -0.43135,-0.48341 -0.76602,-1.03748 -0.99658,-1.66964 -0.23427,-0.62844 -0.34954,-1.38331 -0.34954,-2.2609 0,-0.90733 0.18221,-1.75145 0.55407,-2.53235 0.37186,-0.7809 0.90361,-1.4614 1.6027,-2.03778 0.70282,-0.57638 1.54693,-1.02633 2.54351,-1.35729 0.99286,-0.32723 2.10843,-0.49457 3.34301,-0.49457 0.43879,0 0.8813,0.0298 1.32753,0.0855 0.44623,0.0521 0.87758,0.12272 1.29407,0.20453 0.4202,0.0818 0.81064,0.17477 1.17507,0.27889 0.36071,0.1004 0.67306,0.20824 0.93708,0.31608 v 4.3024 c -0.33096,-0.2194 -0.69165,-0.4202 -1.08211,-0.59869 -0.39045,-0.1785 -0.79949,-0.33096 -1.22341,-0.46111 -0.42392,-0.13015 -0.85899,-0.23055 -1.29778,-0.29749 -0.43879,-0.0707 -0.87016,-0.10412 -1.29407,-0.10412 -0.94823,0 -1.69567,0.21196 -2.2423,0.63588 -0.55036,0.42764 -0.82553,0.97055 -0.82553,1.62874 0,0.40904 0.0595,0.76231 0.17479,1.05608 0.11898,0.29748 0.31979,0.56522 0.60611,0.80321 0.29005,0.24171 0.66935,0.47598 1.14533,0.69909 0.47226,0.22684 1.06351,0.48342 1.77748,0.77347 0.78089,0.31608 1.5023,0.65819 2.16049,1.03004 0.65819,0.36814 1.22713,0.79578 1.70684,1.28292 0.4834,0.48713 0.85526,1.05235 1.123,1.68823 0.26774,0.6396 0.4016,1.38331 0.4016,2.23115 m -20.81289,-8.7238 c -0.16733,-0.62844 -0.43135,-1.17507 -0.79206,-1.63246 -0.36442,-0.4611 -0.82923,-0.8218 -1.39074,-1.0821 -0.5615,-0.2603 -1.24199,-0.39045 -2.03778,-0.39045 -0.64332,0 -1.24945,0.12271 -1.81839,0.36814 -0.56894,0.24914 -1.0821,0.59869 -1.53577,1.05235 -0.44994,0.44995 -0.83297,0.99286 -1.1416,1.62502 -0.30864,0.63216 -0.52432,1.33126 -0.64703,2.09728 h 9.6088 c 0,-0.72512 -0.0818,-1.40562 -0.24542,-2.03778 m -9.36338,5.61878 c 0.0967,1.90763 0.68421,3.36531 1.75887,4.37305 1.0784,1.00773 2.60302,1.50974 4.57759,1.50974 1.1825,0 2.32783,-0.18593 3.43596,-0.56522 1.11186,-0.37558 2.07124,-0.859 2.8819,-1.45025 v 4.01235 c -0.27518,0.17849 -0.64331,0.37186 -1.11186,0.57638 -0.46482,0.20452 -1.01889,0.39789 -1.65476,0.57638 -0.63959,0.17849 -1.35357,0.32723 -2.14935,0.44251 -0.79578,0.11528 -1.64733,0.17477 -2.55466,0.17477 -1.5618,0 -2.96371,-0.23799 -4.20571,-0.71025 -1.24201,-0.47226 -2.29437,-1.16763 -3.15708,-2.08984 -0.86644,-0.91849 -1.53205,-2.05265 -1.99687,-3.4025 -0.46855,-1.35356 -0.69911,-2.89677 -0.69911,-4.64079 0,-1.93366 0.2975,-3.60702 0.89247,-5.02008 0.59868,-1.41306 1.37587,-2.5807 2.33528,-3.50662 0.9631,-0.92593 2.03404,-1.61387 3.22028,-2.0601 1.18994,-0.44623 2.37617,-0.66934 3.56984,-0.66934 1.53949,0 2.88189,0.24914 4.03465,0.74372 1.15277,0.49085 2.10845,1.1825 2.87075,2.06753 0.76231,0.88502 1.33125,1.94853 1.71798,3.18682 0.38301,1.242 0.57638,2.60301 0.57638,4.08672 v 2.36502 z m -12.09283,9.13655 v -11.89574 c 0,-1.14904 -0.093,-2.10472 -0.28633,-2.85959 -0.19337,-0.75115 -0.46482,-1.34613 -0.8218,-1.77748 -0.35699,-0.43136 -0.79206,-0.73628 -1.30894,-0.90733 -0.51318,-0.17106 -1.10071,-0.25659 -1.7589,-0.25659 -0.64331,0 -1.23829,0.1599 -1.77748,0.47226 -0.54291,0.31608 -1.01145,0.74372 -1.4019,1.2792 -0.39045,0.53175 -0.69537,1.15276 -0.91477,1.85929 -0.2194,0.70653 -0.33095,1.45768 -0.33095,2.25346 v 11.83252 h -4.75234 v -12.30478 c 0,-0.98915 -0.0967,-1.82583 -0.28634,-2.51005 -0.19337,-0.68793 -0.47226,-1.242 -0.83297,-1.66592 -0.36443,-0.42764 -0.7995,-0.73628 -1.30895,-0.92593 -0.50572,-0.19336 -1.07466,-0.29005 -1.70682,-0.29005 -0.62844,0 -1.21598,0.13759 -1.75889,0.41277 -0.54291,0.27517 -1.00774,0.66562 -1.39819,1.17135 -0.39044,0.50944 -0.69909,1.12301 -0.92591,1.8407 -0.22685,0.7214 -0.33839,1.53577 -0.33839,2.43939 v 11.83252 h -4.75607 v -21.06948 h 4.75607 v 3.25004 h 0.0818 c 0.74,-1.23457 1.67709,-2.17165 2.80754,-2.80753 1.13044,-0.63959 2.41707,-0.95939 3.85616,-0.95939 0.71397,0 1.38703,0.0967 2.01919,0.29005 0.62844,0.19336 1.2011,0.46482 1.71799,0.8218 0.51316,0.35699 0.96311,0.78834 1.34612,1.29779 0.38301,0.50573 0.68794,1.08211 0.90734,1.72914 0.84784,-1.44281 1.85186,-2.49145 3.01204,-3.14964 1.1602,-0.65819 2.51377,-0.98914 4.06442,-0.98914 2.23487,0 3.94169,0.6805 5.11305,2.03778 1.17134,1.35728 1.75889,3.53265 1.75889,6.52239 v 13.02619 h -4.77466 z m -39.27192,-9.64972 c -0.78092,0.093 -1.42051,0.23799 -1.91136,0.43136 -0.49458,0.18964 -0.88131,0.43135 -1.16393,0.71768 -0.27889,0.29005 -0.47597,0.61729 -0.58753,0.98915 -0.10783,0.37185 -0.16362,0.79577 -0.16362,1.27547 0,0.42392 0.0818,0.82181 0.24916,1.19366 0.16361,0.37186 0.39788,0.68422 0.69908,0.94824 0.30122,0.2603 0.66935,0.46482 1.10071,0.61729 0.43135,0.14874 0.91478,0.22311 1.45024,0.22311 0.74,0 1.40936,-0.13387 2.00432,-0.39789 0.5987,-0.26773 1.10814,-0.63216 1.53206,-1.09326 0.42764,-0.45738 0.75487,-0.99658 0.98914,-1.61386 0.23427,-0.61729 0.34955,-1.28291 0.34955,-1.99688 v -1.89276 z m 4.50691,9.64972 v -2.90421 h -0.0818 c -0.71396,1.11185 -1.58783,1.95969 -2.62531,2.54351 -1.03377,0.58381 -2.23859,0.87386 -3.61075,0.87386 -1.06723,0 -2.0229,-0.15618 -2.85959,-0.46482 -0.83667,-0.30492 -1.53577,-0.73628 -2.09727,-1.28291 -0.56151,-0.55035 -0.99287,-1.20854 -1.28663,-1.97828 -0.29377,-0.76603 -0.44251,-1.61015 -0.44251,-2.52864 0,-0.90733 0.13014,-1.74773 0.39044,-2.53235 0.26031,-0.7809 0.66936,-1.47628 1.22342,-2.08613 0.55779,-0.60984 1.27176,-1.11929 2.1419,-1.52461 0.87015,-0.40533 1.91508,-0.6805 3.13849,-0.83297 l 6.15053,-0.84411 c 0,-1.50603 -0.34583,-2.60301 -1.03749,-3.27979 -0.69537,-0.6805 -1.67708,-1.01889 -2.95255,-1.01889 -1.27547,0 -2.52491,0.21196 -3.74461,0.63587 -1.22341,0.42764 -2.30552,0.99658 -3.25376,1.71055 v -4.19828 c 0.30492,-0.19336 0.72884,-0.39789 1.2792,-0.61728 0.54662,-0.2194 1.16391,-0.4202 1.85184,-0.60613 0.68423,-0.18593 1.40564,-0.34211 2.15678,-0.46482 0.75487,-0.12272 1.49116,-0.18593 2.2014,-0.18593 1.40191,0 2.61045,0.18593 3.63306,0.55779 1.0226,0.36813 1.86673,0.90733 2.53235,1.61386 0.66563,0.70653 1.1602,1.56924 1.49115,2.58441 0.32724,1.01518 0.49457,2.17165 0.49457,3.47688 v 13.35342 h -4.69285 z m -19.92044,-0.14503 c -1.7626,0.4388 -3.6033,0.65819 -5.52581,0.65819 -2.15305,0 -4.13133,-0.33839 -5.93485,-1.01889 -1.80351,-0.6805 -3.35787,-1.65477 -4.65938,-2.93024 -1.30522,-1.27547 -2.31667,-2.82984 -3.03437,-4.6631 -0.7214,-1.82954 -1.0821,-3.90451 -1.0821,-6.22118 0,-1.5804 0.18221,-3.06412 0.54664,-4.45486 0.36441,-1.39447 0.8813,-2.66995 1.55064,-3.82642 0.67307,-1.1602 1.48744,-2.2014 2.43939,-3.11989 0.95567,-0.91849 2.01175,-1.69196 3.17938,-2.32412 1.16764,-0.63215 2.43195,-1.11557 3.79668,-1.45024 1.36472,-0.33467 2.79265,-0.50573 4.29124,-0.50573 0.92965,0 1.8221,0.0483 2.67366,0.14503 0.85155,0.0967 1.63617,0.21567 2.35386,0.3607 0.72141,0.14502 1.361,0.3012 1.91507,0.47226 0.55407,0.17105 1.00402,0.33839 1.34612,0.50572 v 5.03868 c -0.46482,-0.31236 -1.00773,-0.60985 -1.62502,-0.88502 -0.61728,-0.27146 -1.28662,-0.51317 -2.01546,-0.71769 -0.72513,-0.20824 -1.50603,-0.36814 -2.33527,-0.48341 -0.82925,-0.119 -1.69568,-0.17478 -2.60301,-0.17478 -1.42794,0 -2.76662,0.25287 -4.02351,0.75859 -1.25316,0.50945 -2.34642,1.23829 -3.27978,2.19397 -0.93337,0.95195 -1.66964,2.11587 -2.21256,3.48803 -0.54291,1.36843 -0.81437,2.92652 -0.81437,4.67053 0,1.85186 0.25658,3.45828 0.76231,4.823 0.50945,1.36472 1.20482,2.49517 2.08984,3.39507 0.88503,0.89989 1.92995,1.56924 3.13849,2.00803 1.20482,0.43879 2.51004,0.65819 3.90822,0.65819 0.90362,0 1.78864,-0.0967 2.65507,-0.29005 0.86271,-0.19337 1.63989,-0.46482 2.32412,-0.82181 v -6.97605 h -6.10964 v -4.21687 h 11.02558 v 14.0302 c -1.39817,0.81065 -2.97857,1.43537 -4.74119,1.87416"
       id="path42027"
       style="fill:#5495d6;fill-opacity:1;fill-rule:nonzero;stroke:none"
       inkscape:connector-curvature="0" />
    <path
       d="m 556.09216,541.63576 c 0,1.72542 -0.64332,3.16079 -1.93366,4.29868 -1.41306,1.23457 -3.3393,1.85185 -5.7824,1.85185 -2.00059,0 -3.7446,-0.42391 -5.2246,-1.27547 v -3.6219 c 1.64362,1.34613 3.46944,2.01547 5.47375,2.01547 2.67366,0 4.01235,-0.97798 4.01235,-2.94139 0,-0.82181 -0.29748,-1.50231 -0.88502,-2.03779 -0.59126,-0.53547 -1.74402,-1.17879 -3.45828,-1.93366 -1.77004,-0.76602 -3.0232,-1.5618 -3.76692,-2.38733 -0.88874,-0.97426 -1.33498,-2.2423 -1.33498,-3.8041 0,-1.75517 0.69165,-3.21286 2.0787,-4.37306 1.3833,-1.16019 3.16822,-1.74029 5.34731,-1.74029 1.67336,0 3.17567,0.33095 4.50691,0.98914 v 3.39507 c -1.38702,-1.0003 -2.97487,-1.50231 -4.77465,-1.50231 -1.12301,0 -2.02291,0.27517 -2.69225,0.8218 -0.67306,0.55035 -1.01146,1.25689 -1.01146,2.1196 0,0.93336 0.28262,1.6622 0.84412,2.1828 0.50945,0.4797 1.56552,1.06352 3.16824,1.74774 1.79979,0.75487 3.09386,1.53205 3.88962,2.32411 1.03006,1.01517 1.54322,2.30552 1.54322,3.87104 m -13.0299,-15.43211 -6.31788,21.06948 h -3.49547 l -4.3433,-15.08256 c -0.14873,-0.55035 -0.26031,-1.19367 -0.32723,-1.93367 h -0.0818 c -0.0409,0.4797 -0.18592,1.10814 -0.43508,1.89276 l -4.71143,15.12347 h -3.37275 l -6.35878,-21.06948 h 3.5401 l 4.3433,15.84115 c 0.13386,0.55035 0.23055,1.1788 0.28632,1.89276 h 0.16362 c 0.0409,-0.58753 0.17106,-1.23457 0.39047,-1.93366 l 4.83785,-15.80025 h 3.08643 l 4.38049,15.88206 c 0.13759,0.50944 0.23427,1.13789 0.29004,1.89276 h 0.16363 c 0.0261,-0.53548 0.13758,-1.16392 0.32723,-1.89276 l 4.3024,-15.88206 h 3.33185 z m -32.82392,10.57564 c 0,-2.7034 -0.60984,-4.75978 -1.82954,-6.17284 -1.17879,-1.35728 -2.83355,-2.03778 -4.96059,-2.03778 -2.09727,0 -3.77807,0.68422 -5.03868,2.05637 -1.33125,1.46884 -1.99687,3.54753 -1.99687,6.23606 0,2.52492 0.63959,4.49577 1.91507,5.91627 1.27548,1.41677 2.9823,2.12702 5.12048,2.12702 2.22372,0 3.91566,-0.71768 5.08331,-2.16049 1.13789,-1.39819 1.70681,-3.38763 1.70681,-5.96461 m 3.4583,-0.12271 c 0,3.35788 -0.94826,6.05385 -2.84101,8.0842 -1.89276,2.03034 -4.4437,3.04551 -7.65284,3.04551 -3.16824,0 -5.67828,-1.01517 -7.53012,-3.04551 -1.81096,-1.9597 -2.71829,-4.54783 -2.71829,-7.75696 0,-3.6628 1.03005,-6.49636 3.09015,-8.49696 1.90391,-1.86673 4.45486,-2.80009 7.65283,-2.80009 3.1422,0 5.59275,0.97427 7.35535,2.9228 1.76261,1.94854 2.64392,4.62964 2.64392,8.04701 m -27.06384,1.08955 v -3.10874 c 0,-1.68451 -0.55035,-3.10501 -1.64733,-4.25777 -1.13788,-1.20854 -2.57697,-1.81095 -4.32099,-1.81095 -2.05637,0 -3.67768,0.75115 -4.85646,2.25346 -1.17879,1.50231 -1.77004,3.58471 -1.77004,6.2435 0,2.53979 0.61356,4.50692 1.83325,5.9051 1.12302,1.29035 2.59185,1.93366 4.4028,1.93366 1.91879,0 3.47688,-0.69909 4.67054,-2.09728 1.12301,-1.34612 1.68823,-3.03064 1.68823,-5.06098 m 3.37276,9.527 h -3.37276 v -3.58099 h -0.0818 c -1.56552,2.72943 -3.97888,4.09415 -7.24379,4.09415 -2.59185,0 -4.67797,-0.91849 -6.25465,-2.75546 -1.64734,-1.89276 -2.46914,-4.48833 -2.46914,-7.77928 0,-3.51034 0.87759,-6.31786 2.63276,-8.41514 1.75517,-2.09728 4.09415,-3.14964 7.01696,-3.14964 2.88189,0 4.98661,1.1416 6.31786,3.41737 h 0.0818 v -13.02618 h 3.37276 z m -21.89873,0 h -3.37646 v -12.01845 c 0,-4.45486 -1.63246,-6.68601 -4.89738,-6.68601 -1.68452,0 -3.0827,0.63216 -4.18712,1.89276 -1.10442,1.2606 -1.65476,2.85959 -1.65476,4.79325 v 12.01845 h -3.37276 v -21.06948 h 3.37276 v 3.49547 h 0.0818 c 1.57668,-2.67366 3.8822,-4.01235 6.91285,-4.01235 2.32039,0 4.08671,0.75487 5.29897,2.26461 1.21226,1.50975 1.8221,3.64793 1.8221,6.41827 z m -21.79459,0 h -3.37276 v -21.06948 h 3.37276 z m 0.57637,-28.62192 c 0,0.61729 -0.21568,1.13789 -0.64703,1.56553 -0.43135,0.42392 -0.95567,0.63587 -1.57296,0.63587 -0.60613,0 -1.12301,-0.20452 -1.55437,-0.61728 -0.43135,-0.40904 -0.64703,-0.9408 -0.64703,-1.58412 0,-0.61728 0.21568,-1.13416 0.64703,-1.55436 0.43136,-0.41648 0.94824,-0.62472 1.55437,-0.62472 0.61729,0 1.14161,0.20824 1.57296,0.62472 0.43135,0.4202 0.64703,0.93708 0.64703,1.55436 m -5.60389,-0.88502 -8.33335,29.50694 h -4.05325 l -6.06872,-21.58636 c -0.2603,-0.92965 -0.41276,-1.92623 -0.45367,-2.9823 h -0.0818 c -0.0967,1.01517 -0.28261,1.99688 -0.55407,2.94139 l -6.11334,21.62727 h -4.01235 l -8.61967,-29.50694 h 3.78551 l 6.27697,22.635 c 0.26029,0.92965 0.43136,1.91879 0.51316,2.95999 h 0.0818 c 0.0557,-0.72512 0.2603,-1.71426 0.61728,-2.95999 l 6.5447,-22.635 h 3.33185 l 6.23235,22.79862 c 0.21939,0.83668 0.38673,1.74773 0.49456,2.73688 h 0.0818 c 0.0557,-0.6991 0.24171,-1.6399 0.55778,-2.81869 l 6.02783,-22.71681 h 3.74461 z m -46.10668,11.85112 c -0.58755,-0.44995 -1.44653,-0.67678 -2.56954,-0.67678 -1.37216,0 -2.52493,0.61728 -3.45829,1.85185 -1.05607,1.38331 -1.58412,3.29838 -1.58412,5.73777 v 10.74298 h -3.37275 v -21.06948 h 3.37275 v 4.33959 h 0.0818 c 0.49457,-1.53578 1.25688,-2.72201 2.2832,-3.55869 0.96312,-0.76602 2.03779,-1.15276 3.23145,-1.15276 0.89246,0 1.56552,0.0967 2.01548,0.29005 v 3.49547 z m -17.34347,7.16198 c 0,-2.7034 -0.60984,-4.75978 -1.82954,-6.17284 -1.17879,-1.35728 -2.83356,-2.03778 -4.96059,-2.03778 -2.09728,0 -3.77807,0.68422 -5.03867,2.05637 -1.33126,1.46884 -1.99688,3.54753 -1.99688,6.23606 0,2.52492 0.63588,4.49577 1.91507,5.91627 1.27548,1.41677 2.9823,2.12702 5.12048,2.12702 2.22372,0 3.91567,-0.71768 5.08331,-2.16049 1.13788,-1.39819 1.70682,-3.38763 1.70682,-5.96461 m 3.45828,-0.12271 c 0,3.35788 -0.94823,6.05385 -2.84099,8.0842 -1.89276,2.03034 -4.44371,3.04551 -7.65284,3.04551 -3.16823,0 -5.67828,-1.01517 -7.53013,-3.04551 -1.81094,-1.9597 -2.71829,-4.54783 -2.71829,-7.75696 0,-3.6628 1.03005,-6.49636 3.08643,-8.49696 1.90763,-1.86673 4.45857,-2.80009 7.65656,-2.80009 3.13849,0 5.59274,0.97427 7.35535,2.9228 1.76261,1.94854 2.64391,4.62964 2.64391,8.04701 m -19.63781,-17.61491 c -0.6582,-0.36814 -1.40563,-0.55407 -2.24231,-0.55407 -2.3613,0 -3.5401,1.48743 -3.5401,4.46229 v 3.25376 h 4.93829 v 2.85959 h -4.93829 v 18.20989 h -3.37275 v -18.20989 h -3.58098 v -2.85959 h 3.58098 v -3.41737 c 0,-2.31668 0.71768,-4.13507 2.16051,-5.45144 1.23455,-1.13789 2.74803,-1.70683 4.54782,-1.70683 1.0412,0 1.85557,0.12271 2.44683,0.36814 z"
       id="path42047"
       style="fill:#231f20;fill-opacity:1;fill-rule:nonzero;stroke:none"
       inkscape:connector-curvature="0"
       sodipodi:nodetypes="ccsccsscccscsccscsccccccccccccccccccccccccccccccscscsccccscscssccscscscsccccccscssscccccccssssccccccscsccccccccscscscccccccccccccccccccccccccccscscccccccscccccscscsccccscscscccssccccccccccscscc" />
    <circle
       cx="104"
       cy="104.001"
       r="100"
       transform="matrix(0.33877,0,0,0.33877,140.87412,497.12976)"
       id="circle7671"
       style="opacity:0.8;fill:#666666;filter:url(#gaussianBlur-1)" />
    <circle
       cx="101.038"
       cy="101.118"
       r="100"
       transform="matrix(0.33877,0,0,0.33877,140.87412,497.12976)"
       id="circle7682"
       style="fill:url(#linearGradient12473)" />
    <circle
       cx="101.038"
       cy="101.117"
       r="93.334999"
       transform="matrix(0.33877,0,0,0.33877,140.87412,497.12976)"
       id="circle7693"
       style="fill:url(#linearGradient12475)" />
    <path
       d="m 46.146,97.482 c -3.888,9.072 -12.961,45.365 -12.961,45.365 0,0 19.442,-7.345 34.564,-4.321 7.479,1.603 14.691,8.642 14.691,8.642 0,0 10.369,-37.157 12.529,-45.367 C 88.056,95.753 72.934,85.384 46.146,97.482 Z"
       transform="matrix(0.33877,0,0,0.33877,140.87412,497.12976)"
       id="path7695"
       style="fill:#1a1a1a;filter:url(#gaussianBlur-1)"
       inkscape:connector-curvature="0" />
    <path
       d="m 130.261,61.072 c -7.478,-1.602 -14.689,-8.641 -14.689,-8.641 0,0 -10.37,37.157 -12.53,45.367 6.914,6.049 22.035,16.418 48.823,4.319 3.889,-9.073 12.962,-45.366 12.962,-45.366 0,0 -19.444,7.346 -34.566,4.321 z"
       transform="matrix(0.33877,0,0,0.33877,140.87412,497.12976)"
       id="path7697"
       style="fill:#1a1a1a;filter:url(#gaussianBlur-1)"
       inkscape:connector-curvature="0" />
    <path
       d="m 115,112.846 c -7.479,-1.602 -14.691,-8.64 -14.691,-8.64 0,0 -10.369,37.156 -12.53,45.365 6.914,6.049 22.035,16.418 48.823,4.32 3.889,-9.072 12.962,-45.366 12.962,-45.366 0,0 -19.443,7.345 -34.564,4.321 z"
       transform="matrix(0.33877,0,0,0.33877,140.87412,497.12976)"
       id="path7699"
       style="fill:#1a1a1a;filter:url(#gaussianBlur-1)"
       inkscape:connector-curvature="0" />
    <path
       d="m 168.99575,526.51908 c 2.53333,0.54305 4.97654,2.92731 4.97654,2.92731 0,0 3.5127,-12.58768 4.24478,-15.36864 -2.34225,-2.04922 -7.46513,-5.56193 -16.5401,-1.46349 -1.3168,3.07332 -4.3908,15.36864 -4.3908,15.36864 0,0 6.5867,-2.48826 11.70958,-1.46382 z"
       id="path7720"
       style="fill:url(#radialGradient3344)"
       inkscape:connector-curvature="0" />
    <path
       d="m 179.83267,535.3586 c -2.53366,-0.54271 -4.97687,-2.92697 -4.97687,-2.92697 0,0 -3.51271,12.58734 -4.24479,15.3683 2.34226,2.04922 7.4648,5.56193 16.53977,1.46349 1.31747,-3.07332 4.39113,-15.36864 4.39113,-15.36864 0,0 -6.5867,2.48826 -11.70924,1.46382 z"
       id="path7745"
       style="fill:url(#radialGradient3341)"
       inkscape:connector-curvature="0" />
    <path
       d="m 185.00264,517.81912 c -2.53333,-0.5427 -4.9762,-2.92731 -4.9762,-2.92731 0,0 -3.51304,12.58768 -4.24479,15.36898 2.34226,2.04922 7.4648,5.56193 16.53977,1.46315 1.31748,-3.07332 4.39114,-15.36864 4.39114,-15.36864 0,0 -6.58704,2.4886 -11.70992,1.46382 z"
       id="path7760"
       style="fill:url(#radialGradient3338)"
       inkscape:connector-curvature="0" />
    <path
       d="m 156.507,530.15374 c -1.31714,3.07332 -4.3908,15.3683 -4.3908,15.3683 0,0 6.58637,-2.48826 11.70891,-1.46382 2.53366,0.54304 4.97687,2.92765 4.97687,2.92765 0,0 3.5127,-12.58768 4.24445,-15.36898 -2.34124,-2.04888 -7.46446,-5.56159 -16.53943,-1.46315 z"
       id="path7787"
       style="fill:url(#radialGradient3335)"
       inkscape:connector-curvature="0" />
  </g>
</svg>
